<xmeml version="4">
	<sequence MZ.EditLine="0" MZ.Sequence.AudioTimeDisplayFormat="200" MZ.Sequence.EditingModeGUID="cc7991f5-c236-4db1-957e-2c71f924e81c" MZ.Sequence.PreviewFrameSizeHeight="1080" MZ.Sequence.PreviewFrameSizeWidth="1920" MZ.Sequence.PreviewRenderingClassID="1297106761" MZ.Sequence.PreviewRenderingPresetCodec="1297107278" MZ.Sequence.PreviewRenderingPresetPath="EncoderPresets\SequencePreview\cc7991f5-c236-4db1-957e-2c71f924e81c\I-Frame Only MPEG.epr" MZ.Sequence.PreviewUseMaxBitDepth="false" MZ.Sequence.PreviewUseMaxRenderQuality="false" MZ.Sequence.VideoTimeDisplayFormat="100" MZ.WorkInPoint="0" MZ.WorkOutPoint="116085312000000" Monitor.ProgramZoomIn="0" Monitor.ProgramZoomOut="137909520000000" TL.SQAVDividerPosition="0.5" TL.SQAudioVisibleBase="0" TL.SQHeaderWidth="236" TL.SQHideShyTracks="0" TL.SQTimePerPixel="0.64914772727272652" TL.SQVideoVisibleBase="0" TL.SQVisibleBaseTime="0" explodedTracks="true" id="sequence-3">
		<uuid>9fcd00aa-fe6a-4e90-96cd-f9797ebb4c38</uuid>
		<duration>13030</duration>
		<rate>
			<timebase>24</timebase>
			<ntsc>FALSE</ntsc>
		</rate>
		<name>P1090166</name>
		<media>
			<video>
				<format>
					<samplecharacteristics>
						<rate>
							<timebase>24</timebase>
							<ntsc>FALSE</ntsc>
						</rate>
						<codec>
							<name>Apple ProRes 422</name>
							<appspecificdata>
								<appname>Final Cut Pro</appname>
								<appmanufacturer>Apple Inc.</appmanufacturer>
								<appversion>7.0</appversion>
								<data>
									<qtcodec>
										<codecname>Apple ProRes 422</codecname>
										<codectypename>Apple ProRes 422</codectypename>
										<codectypecode>apcn</codectypecode>
										<codecvendorcode>appl</codecvendorcode>
										<spatialquality>1024</spatialquality>
										<temporalquality>0</temporalquality>
										<keyframerate>0</keyframerate>
										<datarate>0</datarate>
									</qtcodec>
								</data>
							</appspecificdata>
						</codec>
						<width>1920</width>
						<height>1080</height>
						<anamorphic>FALSE</anamorphic>
						<pixelaspectratio>square</pixelaspectratio>
						<fielddominance>none</fielddominance>
						<colordepth>24</colordepth>
					</samplecharacteristics>
				</format>
				<track MZ.TrackTargeted="1" TL.SQTrackExpanded="0" TL.SQTrackExpandedHeight="25" TL.SQTrackShy="0">
					<clipitem id="clipitem-19">
						<masterclipid>masterclip-5</masterclipid>
						<name>P1090166.MOV</name>
						<enabled>TRUE</enabled>
						<duration>10968</duration>
						<rate>
							<timebase>24</timebase>
							<ntsc>FALSE</ntsc>
						</rate>
						<start>0</start>
						<end>6325</end>
						<in>0</in>
						<out>6325</out>
						<pproTicksIn>0</pproTicksIn>
						<pproTicksOut>66943800000000</pproTicksOut>
						<alphatype>none</alphatype>
						<pixelaspectratio>square</pixelaspectratio>
						<anamorphic>FALSE</anamorphic>
						<file id="file-5">
							<name>P1090166.MOV</name>
							<pathurl>file://localhost/D%3a/Projects/Deep%20Learning/Prokofolio/MotionClipper/P1090166.MOV</pathurl>
							<rate>
								<timebase>24</timebase>
								<ntsc>FALSE</ntsc>
							</rate>
							<duration>10968</duration>
							<timecode>
								<rate>
									<timebase>24</timebase>
									<ntsc>FALSE</ntsc>
								</rate>
								<string>16:03:08:12</string>
								<frame>1386924</frame>
								<displayformat>NDF</displayformat>
							</timecode>
							<media>
								<video>
									<samplecharacteristics>
										<rate>
											<timebase>24</timebase>
											<ntsc>FALSE</ntsc>
										</rate>
										<width>1920</width>
										<height>1080</height>
										<anamorphic>FALSE</anamorphic>
										<pixelaspectratio>square</pixelaspectratio>
										<fielddominance>none</fielddominance>
									</samplecharacteristics>
								</video>
								<audio>
									<samplecharacteristics>
										<depth>16</depth>
										<samplerate>48000</samplerate>
									</samplecharacteristics>
									<channelcount>2</channelcount>
								</audio>
							</media>
						</file>
						<link>
							<linkclipref>clipitem-19</linkclipref>
							<mediatype>video</mediatype>
							<trackindex>1</trackindex>
							<clipindex>1</clipindex>
						</link>
						<link>
							<linkclipref>clipitem-21</linkclipref>
							<mediatype>audio</mediatype>
							<trackindex>1</trackindex>
							<clipindex>1</clipindex>
							<groupindex>1</groupindex>
						</link>
						<link>
							<linkclipref>clipitem-23</linkclipref>
							<mediatype>audio</mediatype>
							<trackindex>2</trackindex>
							<clipindex>1</clipindex>
							<groupindex>1</groupindex>
						</link>
						<logginginfo>
							<description />
							<scene />
							<shottake />
							<lognote />
							<good />
							<originalvideofilename />
							<originalaudiofilename />
						</logginginfo>
						<colorinfo>
							<lut />
							<lut1 />
							<asc_sop />
							<asc_sat />
							<lut2 />
						</colorinfo>
						<labels>
							<label2>Iris</label2>
						</labels>
					</clipitem>
					<clipitem id="clipitem-20">
						<masterclipid>masterclip-6</masterclipid>
						<name>P1090167.MOV</name>
						<enabled>TRUE</enabled>
						<duration>10584</duration>
						<rate>
							<timebase>24</timebase>
							<ntsc>FALSE</ntsc>
						</rate>
						<start>6325</start>
						<end>13030</end>
						<in>0</in>
						<out>6705</out>
						<pproTicksIn>0</pproTicksIn>
						<pproTicksOut>70965720000000</pproTicksOut>
						<alphatype>none</alphatype>
						<pixelaspectratio>square</pixelaspectratio>
						<anamorphic>FALSE</anamorphic>
						<file id="file-6">
							<name>P1090167.MOV</name>
							<pathurl>file://localhost/D%3a/Projects/Deep%20Learning/Prokofolio/MotionClipper/P1090167.MOV</pathurl>
							<rate>
								<timebase>24</timebase>
								<ntsc>FALSE</ntsc>
							</rate>
							<duration>10584</duration>
							<timecode>
								<rate>
									<timebase>24</timebase>
									<ntsc>FALSE</ntsc>
								</rate>
								<string>16:10:45:12</string>
								<frame>1397892</frame>
								<displayformat>NDF</displayformat>
							</timecode>
							<media>
								<video>
									<samplecharacteristics>
										<rate>
											<timebase>24</timebase>
											<ntsc>FALSE</ntsc>
										</rate>
										<width>1920</width>
										<height>1080</height>
										<anamorphic>FALSE</anamorphic>
										<pixelaspectratio>square</pixelaspectratio>
										<fielddominance>none</fielddominance>
									</samplecharacteristics>
								</video>
								<audio>
									<samplecharacteristics>
										<depth>16</depth>
										<samplerate>48000</samplerate>
									</samplecharacteristics>
									<channelcount>2</channelcount>
								</audio>
							</media>
						</file>
						<link>
							<linkclipref>clipitem-20</linkclipref>
							<mediatype>video</mediatype>
							<trackindex>1</trackindex>
							<clipindex>2</clipindex>
						</link>
						<link>
							<linkclipref>clipitem-22</linkclipref>
							<mediatype>audio</mediatype>
							<trackindex>1</trackindex>
							<clipindex>2</clipindex>
							<groupindex>1</groupindex>
						</link>
						<link>
							<linkclipref>clipitem-24</linkclipref>
							<mediatype>audio</mediatype>
							<trackindex>2</trackindex>
							<clipindex>2</clipindex>
							<groupindex>1</groupindex>
						</link>
						<logginginfo>
							<description />
							<scene />
							<shottake />
							<lognote />
							<good />
							<originalvideofilename />
							<originalaudiofilename />
						</logginginfo>
						<colorinfo>
							<lut />
							<lut1 />
							<asc_sop />
							<asc_sat />
							<lut2 />
						</colorinfo>
						<labels>
							<label2>Iris</label2>
						</labels>
					</clipitem>
					<enabled>TRUE</enabled>
					<locked>FALSE</locked>
				</track>
				<track MZ.TrackTargeted="0" TL.SQTrackExpanded="0" TL.SQTrackExpandedHeight="25" TL.SQTrackShy="0">
					<enabled>TRUE</enabled>
					<locked>FALSE</locked>
				</track>
				<track MZ.TrackTargeted="0" TL.SQTrackExpanded="0" TL.SQTrackExpandedHeight="25" TL.SQTrackShy="0">
					<enabled>TRUE</enabled>
					<locked>FALSE</locked>
				</track>
			</video>
			<audio>
				<numOutputChannels>2</numOutputChannels>
				<format>
					<samplecharacteristics>
						<depth>16</depth>
						<samplerate>48000</samplerate>
					</samplecharacteristics>
				</format>
				<outputs>
					<group>
						<index>1</index>
						<numchannels>1</numchannels>
						<downmix>0</downmix>
						<channel>
							<index>1</index>
						</channel>
					</group>
					<group>
						<index>2</index>
						<numchannels>1</numchannels>
						<downmix>0</downmix>
						<channel>
							<index>2</index>
						</channel>
					</group>
				</outputs>
				<track MZ.TrackTargeted="1" PannerCurrentValue="0.5" PannerIsInverted="true" PannerName="Balance" PannerStartKeyframe="-91445760000000000,0.5,0,0,0,0,0,0" TL.SQTrackAudioKeyframeStyle="0" TL.SQTrackExpanded="0" TL.SQTrackExpandedHeight="25" TL.SQTrackShy="0" currentExplodedTrackIndex="0" premiereTrackType="Stereo" totalExplodedTrackCount="2">
					<clipitem id="clipitem-21" premiereChannelType="stereo">
						<masterclipid>masterclip-5</masterclipid>
						<name>P1090166.MOV</name>
						<enabled>TRUE</enabled>
						<duration>10968</duration>
						<rate>
							<timebase>24</timebase>
							<ntsc>FALSE</ntsc>
						</rate>
						<start>0</start>
						<end>6325</end>
						<in>0</in>
						<out>6325</out>
						<pproTicksIn>0</pproTicksIn>
						<pproTicksOut>66943800000000</pproTicksOut>
						<file id="file-5" />
						<sourcetrack>
							<mediatype>audio</mediatype>
							<trackindex>1</trackindex>
						</sourcetrack>
						<link>
							<linkclipref>clipitem-19</linkclipref>
							<mediatype>video</mediatype>
							<trackindex>1</trackindex>
							<clipindex>1</clipindex>
						</link>
						<link>
							<linkclipref>clipitem-21</linkclipref>
							<mediatype>audio</mediatype>
							<trackindex>1</trackindex>
							<clipindex>1</clipindex>
							<groupindex>1</groupindex>
						</link>
						<link>
							<linkclipref>clipitem-23</linkclipref>
							<mediatype>audio</mediatype>
							<trackindex>2</trackindex>
							<clipindex>1</clipindex>
							<groupindex>1</groupindex>
						</link>
						<logginginfo>
							<description />
							<scene />
							<shottake />
							<lognote />
							<good />
							<originalvideofilename />
							<originalaudiofilename />
						</logginginfo>
						<colorinfo>
							<lut />
							<lut1 />
							<asc_sop />
							<asc_sat />
							<lut2 />
						</colorinfo>
						<labels>
							<label2>Iris</label2>
						</labels>
					</clipitem>
					<clipitem id="clipitem-22" premiereChannelType="stereo">
						<masterclipid>masterclip-6</masterclipid>
						<name>P1090167.MOV</name>
						<enabled>TRUE</enabled>
						<duration>10584</duration>
						<rate>
							<timebase>24</timebase>
							<ntsc>FALSE</ntsc>
						</rate>
						<start>6325</start>
						<end>13030</end>
						<in>0</in>
						<out>6705</out>
						<pproTicksIn>0</pproTicksIn>
						<pproTicksOut>70965720000000</pproTicksOut>
						<file id="file-6" />
						<sourcetrack>
							<mediatype>audio</mediatype>
							<trackindex>1</trackindex>
						</sourcetrack>
						<link>
							<linkclipref>clipitem-20</linkclipref>
							<mediatype>video</mediatype>
							<trackindex>1</trackindex>
							<clipindex>2</clipindex>
						</link>
						<link>
							<linkclipref>clipitem-22</linkclipref>
							<mediatype>audio</mediatype>
							<trackindex>1</trackindex>
							<clipindex>2</clipindex>
							<groupindex>1</groupindex>
						</link>
						<link>
							<linkclipref>clipitem-24</linkclipref>
							<mediatype>audio</mediatype>
							<trackindex>2</trackindex>
							<clipindex>2</clipindex>
							<groupindex>1</groupindex>
						</link>
						<logginginfo>
							<description />
							<scene />
							<shottake />
							<lognote />
							<good />
							<originalvideofilename />
							<originalaudiofilename />
						</logginginfo>
						<colorinfo>
							<lut />
							<lut1 />
							<asc_sop />
							<asc_sat />
							<lut2 />
						</colorinfo>
						<labels>
							<label2>Iris</label2>
						</labels>
					</clipitem>
					<enabled>TRUE</enabled>
					<locked>FALSE</locked>
					<outputchannelindex>1</outputchannelindex>
				</track>
				<track MZ.TrackTargeted="1" PannerCurrentValue="0.5" PannerIsInverted="true" PannerName="Balance" PannerStartKeyframe="-91445760000000000,0.5,0,0,0,0,0,0" TL.SQTrackAudioKeyframeStyle="0" TL.SQTrackExpanded="0" TL.SQTrackExpandedHeight="25" TL.SQTrackShy="0" currentExplodedTrackIndex="1" premiereTrackType="Stereo" totalExplodedTrackCount="2">
					<clipitem id="clipitem-23" premiereChannelType="stereo">
						<masterclipid>masterclip-5</masterclipid>
						<name>P1090166.MOV</name>
						<enabled>TRUE</enabled>
						<duration>10968</duration>
						<rate>
							<timebase>24</timebase>
							<ntsc>FALSE</ntsc>
						</rate>
						<start>0</start>
						<end>6325</end>
						<in>0</in>
						<out>6325</out>
						<pproTicksIn>0</pproTicksIn>
						<pproTicksOut>66943800000000</pproTicksOut>
						<file id="file-5" />
						<sourcetrack>
							<mediatype>audio</mediatype>
							<trackindex>2</trackindex>
						</sourcetrack>
						<link>
							<linkclipref>clipitem-19</linkclipref>
							<mediatype>video</mediatype>
							<trackindex>1</trackindex>
							<clipindex>1</clipindex>
						</link>
						<link>
							<linkclipref>clipitem-21</linkclipref>
							<mediatype>audio</mediatype>
							<trackindex>1</trackindex>
							<clipindex>1</clipindex>
							<groupindex>1</groupindex>
						</link>
						<link>
							<linkclipref>clipitem-23</linkclipref>
							<mediatype>audio</mediatype>
							<trackindex>2</trackindex>
							<clipindex>1</clipindex>
							<groupindex>1</groupindex>
						</link>
						<logginginfo>
							<description />
							<scene />
							<shottake />
							<lognote />
							<good />
							<originalvideofilename />
							<originalaudiofilename />
						</logginginfo>
						<colorinfo>
							<lut />
							<lut1 />
							<asc_sop />
							<asc_sat />
							<lut2 />
						</colorinfo>
						<labels>
							<label2>Iris</label2>
						</labels>
					</clipitem>
					<clipitem id="clipitem-24" premiereChannelType="stereo">
						<masterclipid>masterclip-6</masterclipid>
						<name>P1090167.MOV</name>
						<enabled>TRUE</enabled>
						<duration>10584</duration>
						<rate>
							<timebase>24</timebase>
							<ntsc>FALSE</ntsc>
						</rate>
						<start>6325</start>
						<end>13030</end>
						<in>0</in>
						<out>6705</out>
						<pproTicksIn>0</pproTicksIn>
						<pproTicksOut>70965720000000</pproTicksOut>
						<file id="file-6" />
						<sourcetrack>
							<mediatype>audio</mediatype>
							<trackindex>2</trackindex>
						</sourcetrack>
						<link>
							<linkclipref>clipitem-20</linkclipref>
							<mediatype>video</mediatype>
							<trackindex>1</trackindex>
							<clipindex>2</clipindex>
						</link>
						<link>
							<linkclipref>clipitem-22</linkclipref>
							<mediatype>audio</mediatype>
							<trackindex>1</trackindex>
							<clipindex>2</clipindex>
							<groupindex>1</groupindex>
						</link>
						<link>
							<linkclipref>clipitem-24</linkclipref>
							<mediatype>audio</mediatype>
							<trackindex>2</trackindex>
							<clipindex>2</clipindex>
							<groupindex>1</groupindex>
						</link>
						<logginginfo>
							<description />
							<scene />
							<shottake />
							<lognote />
							<good />
							<originalvideofilename />
							<originalaudiofilename />
						</logginginfo>
						<colorinfo>
							<lut />
							<lut1 />
							<asc_sop />
							<asc_sat />
							<lut2 />
						</colorinfo>
						<labels>
							<label2>Iris</label2>
						</labels>
					</clipitem>
					<enabled>TRUE</enabled>
					<locked>FALSE</locked>
					<outputchannelindex>2</outputchannelindex>
				</track>
				<track MZ.TrackTargeted="1" PannerCurrentValue="0.5" PannerIsInverted="true" PannerName="Balance" PannerStartKeyframe="-91445760000000000,0.5,0,0,0,0,0,0" TL.SQTrackAudioKeyframeStyle="0" TL.SQTrackExpanded="0" TL.SQTrackExpandedHeight="25" TL.SQTrackShy="0" currentExplodedTrackIndex="0" premiereTrackType="Stereo" totalExplodedTrackCount="2">
					<enabled>TRUE</enabled>
					<locked>FALSE</locked>
					<outputchannelindex>1</outputchannelindex>
				</track>
				<track MZ.TrackTargeted="1" PannerCurrentValue="0.5" PannerIsInverted="true" PannerName="Balance" PannerStartKeyframe="-91445760000000000,0.5,0,0,0,0,0,0" TL.SQTrackAudioKeyframeStyle="0" TL.SQTrackExpanded="0" TL.SQTrackExpandedHeight="25" TL.SQTrackShy="0" currentExplodedTrackIndex="1" premiereTrackType="Stereo" totalExplodedTrackCount="2">
					<enabled>TRUE</enabled>
					<locked>FALSE</locked>
					<outputchannelindex>2</outputchannelindex>
				</track>
				<track MZ.TrackTargeted="1" PannerCurrentValue="0.5" PannerIsInverted="true" PannerName="Balance" PannerStartKeyframe="-91445760000000000,0.5,0,0,0,0,0,0" TL.SQTrackAudioKeyframeStyle="0" TL.SQTrackExpanded="0" TL.SQTrackExpandedHeight="25" TL.SQTrackShy="0" currentExplodedTrackIndex="0" premiereTrackType="Stereo" totalExplodedTrackCount="2">
					<enabled>TRUE</enabled>
					<locked>FALSE</locked>
					<outputchannelindex>1</outputchannelindex>
				</track>
				<track MZ.TrackTargeted="1" PannerCurrentValue="0.5" PannerIsInverted="true" PannerName="Balance" PannerStartKeyframe="-91445760000000000,0.5,0,0,0,0,0,0" TL.SQTrackAudioKeyframeStyle="0" TL.SQTrackExpanded="0" TL.SQTrackExpandedHeight="25" TL.SQTrackShy="0" currentExplodedTrackIndex="1" premiereTrackType="Stereo" totalExplodedTrackCount="2">
					<enabled>TRUE</enabled>
					<locked>FALSE</locked>
					<outputchannelindex>2</outputchannelindex>
				</track>
			</audio>
		</media>
		<timecode>
			<rate>
				<timebase>24</timebase>
				<ntsc>FALSE</ntsc>
			</rate>
			<string>00:00:00:00</string>
			<frame>0</frame>
			<displayformat>NDF</displayformat>
		</timecode>
		<labels>
			<label2>Forest</label2>
		</labels>
	</sequence>
<sequence MZ.EditLine="0" MZ.Sequence.AudioTimeDisplayFormat="200" MZ.Sequence.EditingModeGUID="cc7991f5-c236-4db1-957e-2c71f924e81c" MZ.Sequence.PreviewFrameSizeHeight="1080" MZ.Sequence.PreviewFrameSizeWidth="1920" MZ.Sequence.PreviewRenderingClassID="1297106761" MZ.Sequence.PreviewRenderingPresetCodec="1297107278" MZ.Sequence.PreviewRenderingPresetPath="EncoderPresets\SequencePreview\cc7991f5-c236-4db1-957e-2c71f924e81c\I-Frame Only MPEG.epr" MZ.Sequence.PreviewUseMaxBitDepth="false" MZ.Sequence.PreviewUseMaxRenderQuality="false" MZ.Sequence.VideoTimeDisplayFormat="100" MZ.WorkInPoint="0" MZ.WorkOutPoint="116085312000000" Monitor.ProgramZoomIn="0" Monitor.ProgramZoomOut="137909520000000" TL.SQAVDividerPosition="0.5" TL.SQAudioVisibleBase="0" TL.SQHeaderWidth="236" TL.SQHideShyTracks="0" TL.SQTimePerPixel="0.64914772727272652" TL.SQVideoVisibleBase="0" TL.SQVisibleBaseTime="0" explodedTracks="true" id="sequence-3-motion-clipped">
		<uuid>82b99c5e-f699-4058-9fe6-5cb72a58645e</uuid>
		<duration>13030</duration>
		<rate>
			<timebase>24</timebase>
			<ntsc>FALSE</ntsc>
		</rate>
		<name>P1090166 - Motion clipped</name>
		<media>
			<video>
				<format>
					<samplecharacteristics>
						<rate>
							<timebase>24</timebase>
							<ntsc>FALSE</ntsc>
						</rate>
						<codec>
							<name>Apple ProRes 422</name>
							<appspecificdata>
								<appname>Final Cut Pro</appname>
								<appmanufacturer>Apple Inc.</appmanufacturer>
								<appversion>7.0</appversion>
								<data>
									<qtcodec>
										<codecname>Apple ProRes 422</codecname>
										<codectypename>Apple ProRes 422</codectypename>
										<codectypecode>apcn</codectypecode>
										<codecvendorcode>appl</codecvendorcode>
										<spatialquality>1024</spatialquality>
										<temporalquality>0</temporalquality>
										<keyframerate>0</keyframerate>
										<datarate>0</datarate>
									</qtcodec>
								</data>
							</appspecificdata>
						</codec>
						<width>1920</width>
						<height>1080</height>
						<anamorphic>FALSE</anamorphic>
						<pixelaspectratio>square</pixelaspectratio>
						<fielddominance>none</fielddominance>
						<colordepth>24</colordepth>
					</samplecharacteristics>
				</format>
				<track MZ.TrackName="GH4" MZ.TrackTargeted="1" TL.SQTrackExpanded="0" TL.SQTrackExpandedHeight="25" TL.SQTrackShy="0">
					<enabled>TRUE</enabled>
					<locked>FALSE</locked>
				<clipitem id="clipitem-3">
						<masterclipid>masterclip-5</masterclipid>
						<name>P1090166.MOV</name>
						<enabled>TRUE</enabled>
						<duration>10968</duration>
						<rate>
							<timebase>24</timebase>
							<ntsc>FALSE</ntsc>
						</rate>
						<start>30</start>
						<end>660</end>
						<in>30</in>
						<out>660</out>
						<pproTicksIn>317520000000</pproTicksIn>
						<pproTicksOut>6985440000000</pproTicksOut>
						<alphatype>none</alphatype>
						<pixelaspectratio>square</pixelaspectratio>
						<anamorphic>FALSE</anamorphic>
						<link>
							<linkclipref>clipitem-19</linkclipref>
							<mediatype>video</mediatype>
							<trackindex>1</trackindex>
							<clipindex>1</clipindex>
						</link>
						<link>
							<linkclipref>clipitem-21</linkclipref>
							<mediatype>audio</mediatype>
							<trackindex>1</trackindex>
							<clipindex>1</clipindex>
							<groupindex>1</groupindex>
						</link>
						<link>
							<linkclipref>clipitem-23</linkclipref>
							<mediatype>audio</mediatype>
							<trackindex>2</trackindex>
							<clipindex>1</clipindex>
							<groupindex>1</groupindex>
						</link>
						<logginginfo>
							<description />
							<scene />
							<shottake />
							<lognote />
							<good />
							<originalvideofilename />
							<originalaudiofilename />
						</logginginfo>
						<colorinfo>
							<lut />
							<lut1 />
							<asc_sop />
							<asc_sat />
							<lut2 />
						</colorinfo>
						<labels>
							<label2>Violet</label2>
						</labels>
					<file id="file-5">
							<name>P1090166.MOV</name>
							<pathurl>file://localhost/D%3a/Projects/Deep%20Learning/Prokofolio/MotionClipper/P1090166.MOV</pathurl>
							<rate>
								<timebase>24</timebase>
								<ntsc>FALSE</ntsc>
							</rate>
							<duration>10968</duration>
							<timecode>
								<rate>
									<timebase>24</timebase>
									<ntsc>FALSE</ntsc>
								</rate>
								<string>16:03:08:12</string>
								<frame>1386924</frame>
								<displayformat>NDF</displayformat>
							</timecode>
							<media>
								<video>
									<samplecharacteristics>
										<rate>
											<timebase>24</timebase>
											<ntsc>FALSE</ntsc>
										</rate>
										<width>1920</width>
										<height>1080</height>
										<anamorphic>FALSE</anamorphic>
										<pixelaspectratio>square</pixelaspectratio>
										<fielddominance>none</fielddominance>
									</samplecharacteristics>
								</video>
								<audio>
									<samplecharacteristics>
										<depth>16</depth>
										<samplerate>48000</samplerate>
									</samplecharacteristics>
									<channelcount>2</channelcount>
								</audio>
							</media>
						</file>
						</clipitem>
					<clipitem id="clipitem-4">
						<masterclipid>masterclip-5</masterclipid>
						<name>P1090166.MOV</name>
						<enabled>TRUE</enabled>
						<duration>10968</duration>
						<rate>
							<timebase>24</timebase>
							<ntsc>FALSE</ntsc>
						</rate>
						<start>720</start>
						<end>900</end>
						<in>720</in>
						<out>900</out>
						<pproTicksIn>7620480000000</pproTicksIn>
						<pproTicksOut>9525600000000</pproTicksOut>
						<alphatype>none</alphatype>
						<pixelaspectratio>square</pixelaspectratio>
						<anamorphic>FALSE</anamorphic>
						<link>
							<linkclipref>clipitem-19</linkclipref>
							<mediatype>video</mediatype>
							<trackindex>1</trackindex>
							<clipindex>1</clipindex>
						</link>
						<link>
							<linkclipref>clipitem-21</linkclipref>
							<mediatype>audio</mediatype>
							<trackindex>1</trackindex>
							<clipindex>1</clipindex>
							<groupindex>1</groupindex>
						</link>
						<link>
							<linkclipref>clipitem-23</linkclipref>
							<mediatype>audio</mediatype>
							<trackindex>2</trackindex>
							<clipindex>1</clipindex>
							<groupindex>1</groupindex>
						</link>
						<logginginfo>
							<description />
							<scene />
							<shottake />
							<lognote />
							<good />
							<originalvideofilename />
							<originalaudiofilename />
						</logginginfo>
						<colorinfo>
							<lut />
							<lut1 />
							<asc_sop />
							<asc_sat />
							<lut2 />
						</colorinfo>
						<labels>
							<label2>Violet</label2>
						</labels>
					<file id="file-5">
							</file>
						</clipitem>
					<clipitem id="clipitem-5">
						<masterclipid>masterclip-5</masterclipid>
						<name>P1090166.MOV</name>
						<enabled>TRUE</enabled>
						<duration>10968</duration>
						<rate>
							<timebase>24</timebase>
							<ntsc>FALSE</ntsc>
						</rate>
						<start>1110</start>
						<end>3270</end>
						<in>1110</in>
						<out>3270</out>
						<pproTicksIn>11748240000000</pproTicksIn>
						<pproTicksOut>34609680000000</pproTicksOut>
						<alphatype>none</alphatype>
						<pixelaspectratio>square</pixelaspectratio>
						<anamorphic>FALSE</anamorphic>
						<link>
							<linkclipref>clipitem-19</linkclipref>
							<mediatype>video</mediatype>
							<trackindex>1</trackindex>
							<clipindex>1</clipindex>
						</link>
						<link>
							<linkclipref>clipitem-21</linkclipref>
							<mediatype>audio</mediatype>
							<trackindex>1</trackindex>
							<clipindex>1</clipindex>
							<groupindex>1</groupindex>
						</link>
						<link>
							<linkclipref>clipitem-23</linkclipref>
							<mediatype>audio</mediatype>
							<trackindex>2</trackindex>
							<clipindex>1</clipindex>
							<groupindex>1</groupindex>
						</link>
						<logginginfo>
							<description />
							<scene />
							<shottake />
							<lognote />
							<good />
							<originalvideofilename />
							<originalaudiofilename />
						</logginginfo>
						<colorinfo>
							<lut />
							<lut1 />
							<asc_sop />
							<asc_sat />
							<lut2 />
						</colorinfo>
						<labels>
							<label2>Violet</label2>
						</labels>
					<file id="file-5">
							</file>
						</clipitem>
					<clipitem id="clipitem-6">
						<masterclipid>masterclip-5</masterclipid>
						<name>P1090166.MOV</name>
						<enabled>TRUE</enabled>
						<duration>10968</duration>
						<rate>
							<timebase>24</timebase>
							<ntsc>FALSE</ntsc>
						</rate>
						<start>3300</start>
						<end>3780</end>
						<in>3300</in>
						<out>3780</out>
						<pproTicksIn>34927200000000</pproTicksIn>
						<pproTicksOut>40007520000000</pproTicksOut>
						<alphatype>none</alphatype>
						<pixelaspectratio>square</pixelaspectratio>
						<anamorphic>FALSE</anamorphic>
						<link>
							<linkclipref>clipitem-19</linkclipref>
							<mediatype>video</mediatype>
							<trackindex>1</trackindex>
							<clipindex>1</clipindex>
						</link>
						<link>
							<linkclipref>clipitem-21</linkclipref>
							<mediatype>audio</mediatype>
							<trackindex>1</trackindex>
							<clipindex>1</clipindex>
							<groupindex>1</groupindex>
						</link>
						<link>
							<linkclipref>clipitem-23</linkclipref>
							<mediatype>audio</mediatype>
							<trackindex>2</trackindex>
							<clipindex>1</clipindex>
							<groupindex>1</groupindex>
						</link>
						<logginginfo>
							<description />
							<scene />
							<shottake />
							<lognote />
							<good />
							<originalvideofilename />
							<originalaudiofilename />
						</logginginfo>
						<colorinfo>
							<lut />
							<lut1 />
							<asc_sop />
							<asc_sat />
							<lut2 />
						</colorinfo>
						<labels>
							<label2>Violet</label2>
						</labels>
					<file id="file-5">
							</file>
						</clipitem>
					<clipitem id="clipitem-7">
						<masterclipid>masterclip-5</masterclipid>
						<name>P1090166.MOV</name>
						<enabled>TRUE</enabled>
						<duration>10968</duration>
						<rate>
							<timebase>24</timebase>
							<ntsc>FALSE</ntsc>
						</rate>
						<start>3810</start>
						<end>3870</end>
						<in>3810</in>
						<out>3870</out>
						<pproTicksIn>40325040000000</pproTicksIn>
						<pproTicksOut>40960080000000</pproTicksOut>
						<alphatype>none</alphatype>
						<pixelaspectratio>square</pixelaspectratio>
						<anamorphic>FALSE</anamorphic>
						<link>
							<linkclipref>clipitem-19</linkclipref>
							<mediatype>video</mediatype>
							<trackindex>1</trackindex>
							<clipindex>1</clipindex>
						</link>
						<link>
							<linkclipref>clipitem-21</linkclipref>
							<mediatype>audio</mediatype>
							<trackindex>1</trackindex>
							<clipindex>1</clipindex>
							<groupindex>1</groupindex>
						</link>
						<link>
							<linkclipref>clipitem-23</linkclipref>
							<mediatype>audio</mediatype>
							<trackindex>2</trackindex>
							<clipindex>1</clipindex>
							<groupindex>1</groupindex>
						</link>
						<logginginfo>
							<description />
							<scene />
							<shottake />
							<lognote />
							<good />
							<originalvideofilename />
							<originalaudiofilename />
						</logginginfo>
						<colorinfo>
							<lut />
							<lut1 />
							<asc_sop />
							<asc_sat />
							<lut2 />
						</colorinfo>
						<labels>
							<label2>Violet</label2>
						</labels>
					<file id="file-5">
							</file>
						</clipitem>
					<clipitem id="clipitem-8">
						<masterclipid>masterclip-5</masterclipid>
						<name>P1090166.MOV</name>
						<enabled>TRUE</enabled>
						<duration>10968</duration>
						<rate>
							<timebase>24</timebase>
							<ntsc>FALSE</ntsc>
						</rate>
						<start>3930</start>
						<end>3960</end>
						<in>3930</in>
						<out>3960</out>
						<pproTicksIn>41595120000000</pproTicksIn>
						<pproTicksOut>41912640000000</pproTicksOut>
						<alphatype>none</alphatype>
						<pixelaspectratio>square</pixelaspectratio>
						<anamorphic>FALSE</anamorphic>
						<link>
							<linkclipref>clipitem-19</linkclipref>
							<mediatype>video</mediatype>
							<trackindex>1</trackindex>
							<clipindex>1</clipindex>
						</link>
						<link>
							<linkclipref>clipitem-21</linkclipref>
							<mediatype>audio</mediatype>
							<trackindex>1</trackindex>
							<clipindex>1</clipindex>
							<groupindex>1</groupindex>
						</link>
						<link>
							<linkclipref>clipitem-23</linkclipref>
							<mediatype>audio</mediatype>
							<trackindex>2</trackindex>
							<clipindex>1</clipindex>
							<groupindex>1</groupindex>
						</link>
						<logginginfo>
							<description />
							<scene />
							<shottake />
							<lognote />
							<good />
							<originalvideofilename />
							<originalaudiofilename />
						</logginginfo>
						<colorinfo>
							<lut />
							<lut1 />
							<asc_sop />
							<asc_sat />
							<lut2 />
						</colorinfo>
						<labels>
							<label2>Violet</label2>
						</labels>
					<file id="file-5">
							</file>
						</clipitem>
					<clipitem id="clipitem-9">
						<masterclipid>masterclip-5</masterclipid>
						<name>P1090166.MOV</name>
						<enabled>TRUE</enabled>
						<duration>10968</duration>
						<rate>
							<timebase>24</timebase>
							<ntsc>FALSE</ntsc>
						</rate>
						<start>4020</start>
						<end>4080</end>
						<in>4020</in>
						<out>4080</out>
						<pproTicksIn>42547680000000</pproTicksIn>
						<pproTicksOut>43182720000000</pproTicksOut>
						<alphatype>none</alphatype>
						<pixelaspectratio>square</pixelaspectratio>
						<anamorphic>FALSE</anamorphic>
						<link>
							<linkclipref>clipitem-19</linkclipref>
							<mediatype>video</mediatype>
							<trackindex>1</trackindex>
							<clipindex>1</clipindex>
						</link>
						<link>
							<linkclipref>clipitem-21</linkclipref>
							<mediatype>audio</mediatype>
							<trackindex>1</trackindex>
							<clipindex>1</clipindex>
							<groupindex>1</groupindex>
						</link>
						<link>
							<linkclipref>clipitem-23</linkclipref>
							<mediatype>audio</mediatype>
							<trackindex>2</trackindex>
							<clipindex>1</clipindex>
							<groupindex>1</groupindex>
						</link>
						<logginginfo>
							<description />
							<scene />
							<shottake />
							<lognote />
							<good />
							<originalvideofilename />
							<originalaudiofilename />
						</logginginfo>
						<colorinfo>
							<lut />
							<lut1 />
							<asc_sop />
							<asc_sat />
							<lut2 />
						</colorinfo>
						<labels>
							<label2>Violet</label2>
						</labels>
					<file id="file-5">
							</file>
						</clipitem>
					<clipitem id="clipitem-10">
						<masterclipid>masterclip-5</masterclipid>
						<name>P1090166.MOV</name>
						<enabled>TRUE</enabled>
						<duration>10968</duration>
						<rate>
							<timebase>24</timebase>
							<ntsc>FALSE</ntsc>
						</rate>
						<start>4260</start>
						<end>4290</end>
						<in>4260</in>
						<out>4290</out>
						<pproTicksIn>45087840000000</pproTicksIn>
						<pproTicksOut>45405360000000</pproTicksOut>
						<alphatype>none</alphatype>
						<pixelaspectratio>square</pixelaspectratio>
						<anamorphic>FALSE</anamorphic>
						<link>
							<linkclipref>clipitem-19</linkclipref>
							<mediatype>video</mediatype>
							<trackindex>1</trackindex>
							<clipindex>1</clipindex>
						</link>
						<link>
							<linkclipref>clipitem-21</linkclipref>
							<mediatype>audio</mediatype>
							<trackindex>1</trackindex>
							<clipindex>1</clipindex>
							<groupindex>1</groupindex>
						</link>
						<link>
							<linkclipref>clipitem-23</linkclipref>
							<mediatype>audio</mediatype>
							<trackindex>2</trackindex>
							<clipindex>1</clipindex>
							<groupindex>1</groupindex>
						</link>
						<logginginfo>
							<description />
							<scene />
							<shottake />
							<lognote />
							<good />
							<originalvideofilename />
							<originalaudiofilename />
						</logginginfo>
						<colorinfo>
							<lut />
							<lut1 />
							<asc_sop />
							<asc_sat />
							<lut2 />
						</colorinfo>
						<labels>
							<label2>Violet</label2>
						</labels>
					<file id="file-5">
							</file>
						</clipitem>
					<clipitem id="clipitem-11">
						<masterclipid>masterclip-5</masterclipid>
						<name>P1090166.MOV</name>
						<enabled>TRUE</enabled>
						<duration>10968</duration>
						<rate>
							<timebase>24</timebase>
							<ntsc>FALSE</ntsc>
						</rate>
						<start>4320</start>
						<end>4440</end>
						<in>4320</in>
						<out>4440</out>
						<pproTicksIn>45722880000000</pproTicksIn>
						<pproTicksOut>46992960000000</pproTicksOut>
						<alphatype>none</alphatype>
						<pixelaspectratio>square</pixelaspectratio>
						<anamorphic>FALSE</anamorphic>
						<link>
							<linkclipref>clipitem-19</linkclipref>
							<mediatype>video</mediatype>
							<trackindex>1</trackindex>
							<clipindex>1</clipindex>
						</link>
						<link>
							<linkclipref>clipitem-21</linkclipref>
							<mediatype>audio</mediatype>
							<trackindex>1</trackindex>
							<clipindex>1</clipindex>
							<groupindex>1</groupindex>
						</link>
						<link>
							<linkclipref>clipitem-23</linkclipref>
							<mediatype>audio</mediatype>
							<trackindex>2</trackindex>
							<clipindex>1</clipindex>
							<groupindex>1</groupindex>
						</link>
						<logginginfo>
							<description />
							<scene />
							<shottake />
							<lognote />
							<good />
							<originalvideofilename />
							<originalaudiofilename />
						</logginginfo>
						<colorinfo>
							<lut />
							<lut1 />
							<asc_sop />
							<asc_sat />
							<lut2 />
						</colorinfo>
						<labels>
							<label2>Violet</label2>
						</labels>
					<file id="file-5">
							</file>
						</clipitem>
					<clipitem id="clipitem-12">
						<masterclipid>masterclip-5</masterclipid>
						<name>P1090166.MOV</name>
						<enabled>TRUE</enabled>
						<duration>10968</duration>
						<rate>
							<timebase>24</timebase>
							<ntsc>FALSE</ntsc>
						</rate>
						<start>4770</start>
						<end>4800</end>
						<in>4770</in>
						<out>4800</out>
						<pproTicksIn>50485680000000</pproTicksIn>
						<pproTicksOut>50803200000000</pproTicksOut>
						<alphatype>none</alphatype>
						<pixelaspectratio>square</pixelaspectratio>
						<anamorphic>FALSE</anamorphic>
						<link>
							<linkclipref>clipitem-19</linkclipref>
							<mediatype>video</mediatype>
							<trackindex>1</trackindex>
							<clipindex>1</clipindex>
						</link>
						<link>
							<linkclipref>clipitem-21</linkclipref>
							<mediatype>audio</mediatype>
							<trackindex>1</trackindex>
							<clipindex>1</clipindex>
							<groupindex>1</groupindex>
						</link>
						<link>
							<linkclipref>clipitem-23</linkclipref>
							<mediatype>audio</mediatype>
							<trackindex>2</trackindex>
							<clipindex>1</clipindex>
							<groupindex>1</groupindex>
						</link>
						<logginginfo>
							<description />
							<scene />
							<shottake />
							<lognote />
							<good />
							<originalvideofilename />
							<originalaudiofilename />
						</logginginfo>
						<colorinfo>
							<lut />
							<lut1 />
							<asc_sop />
							<asc_sat />
							<lut2 />
						</colorinfo>
						<labels>
							<label2>Violet</label2>
						</labels>
					<file id="file-5">
							</file>
						</clipitem>
					<clipitem id="clipitem-13">
						<masterclipid>masterclip-5</masterclipid>
						<name>P1090166.MOV</name>
						<enabled>TRUE</enabled>
						<duration>10968</duration>
						<rate>
							<timebase>24</timebase>
							<ntsc>FALSE</ntsc>
						</rate>
						<start>4830</start>
						<end>4920</end>
						<in>4830</in>
						<out>4920</out>
						<pproTicksIn>51120720000000</pproTicksIn>
						<pproTicksOut>52073280000000</pproTicksOut>
						<alphatype>none</alphatype>
						<pixelaspectratio>square</pixelaspectratio>
						<anamorphic>FALSE</anamorphic>
						<link>
							<linkclipref>clipitem-19</linkclipref>
							<mediatype>video</mediatype>
							<trackindex>1</trackindex>
							<clipindex>1</clipindex>
						</link>
						<link>
							<linkclipref>clipitem-21</linkclipref>
							<mediatype>audio</mediatype>
							<trackindex>1</trackindex>
							<clipindex>1</clipindex>
							<groupindex>1</groupindex>
						</link>
						<link>
							<linkclipref>clipitem-23</linkclipref>
							<mediatype>audio</mediatype>
							<trackindex>2</trackindex>
							<clipindex>1</clipindex>
							<groupindex>1</groupindex>
						</link>
						<logginginfo>
							<description />
							<scene />
							<shottake />
							<lognote />
							<good />
							<originalvideofilename />
							<originalaudiofilename />
						</logginginfo>
						<colorinfo>
							<lut />
							<lut1 />
							<asc_sop />
							<asc_sat />
							<lut2 />
						</colorinfo>
						<labels>
							<label2>Violet</label2>
						</labels>
					<file id="file-5">
							</file>
						</clipitem>
					<clipitem id="clipitem-14">
						<masterclipid>masterclip-5</masterclipid>
						<name>P1090166.MOV</name>
						<enabled>TRUE</enabled>
						<duration>10968</duration>
						<rate>
							<timebase>24</timebase>
							<ntsc>FALSE</ntsc>
						</rate>
						<start>5250</start>
						<end>7080</end>
						<in>5250</in>
						<out>7080</out>
						<pproTicksIn>55566000000000</pproTicksIn>
						<pproTicksOut>74934720000000</pproTicksOut>
						<alphatype>none</alphatype>
						<pixelaspectratio>square</pixelaspectratio>
						<anamorphic>FALSE</anamorphic>
						<link>
							<linkclipref>clipitem-19</linkclipref>
							<mediatype>video</mediatype>
							<trackindex>1</trackindex>
							<clipindex>1</clipindex>
						</link>
						<link>
							<linkclipref>clipitem-21</linkclipref>
							<mediatype>audio</mediatype>
							<trackindex>1</trackindex>
							<clipindex>1</clipindex>
							<groupindex>1</groupindex>
						</link>
						<link>
							<linkclipref>clipitem-23</linkclipref>
							<mediatype>audio</mediatype>
							<trackindex>2</trackindex>
							<clipindex>1</clipindex>
							<groupindex>1</groupindex>
						</link>
						<logginginfo>
							<description />
							<scene />
							<shottake />
							<lognote />
							<good />
							<originalvideofilename />
							<originalaudiofilename />
						</logginginfo>
						<colorinfo>
							<lut />
							<lut1 />
							<asc_sop />
							<asc_sat />
							<lut2 />
						</colorinfo>
						<labels>
							<label2>Violet</label2>
						</labels>
					<file id="file-5">
							</file>
						</clipitem>
					<clipitem id="clipitem-15">
						<masterclipid>masterclip-5</masterclipid>
						<name>P1090166.MOV</name>
						<enabled>TRUE</enabled>
						<duration>10968</duration>
						<rate>
							<timebase>24</timebase>
							<ntsc>FALSE</ntsc>
						</rate>
						<start>7410</start>
						<end>7440</end>
						<in>7410</in>
						<out>7440</out>
						<pproTicksIn>78427440000000</pproTicksIn>
						<pproTicksOut>78744960000000</pproTicksOut>
						<alphatype>none</alphatype>
						<pixelaspectratio>square</pixelaspectratio>
						<anamorphic>FALSE</anamorphic>
						<link>
							<linkclipref>clipitem-19</linkclipref>
							<mediatype>video</mediatype>
							<trackindex>1</trackindex>
							<clipindex>1</clipindex>
						</link>
						<link>
							<linkclipref>clipitem-21</linkclipref>
							<mediatype>audio</mediatype>
							<trackindex>1</trackindex>
							<clipindex>1</clipindex>
							<groupindex>1</groupindex>
						</link>
						<link>
							<linkclipref>clipitem-23</linkclipref>
							<mediatype>audio</mediatype>
							<trackindex>2</trackindex>
							<clipindex>1</clipindex>
							<groupindex>1</groupindex>
						</link>
						<logginginfo>
							<description />
							<scene />
							<shottake />
							<lognote />
							<good />
							<originalvideofilename />
							<originalaudiofilename />
						</logginginfo>
						<colorinfo>
							<lut />
							<lut1 />
							<asc_sop />
							<asc_sat />
							<lut2 />
						</colorinfo>
						<labels>
							<label2>Violet</label2>
						</labels>
					<file id="file-5">
							</file>
						</clipitem>
					<clipitem id="clipitem-16">
						<masterclipid>masterclip-5</masterclipid>
						<name>P1090166.MOV</name>
						<enabled>TRUE</enabled>
						<duration>10968</duration>
						<rate>
							<timebase>24</timebase>
							<ntsc>FALSE</ntsc>
						</rate>
						<start>7740</start>
						<end>7830</end>
						<in>7740</in>
						<out>7830</out>
						<pproTicksIn>81920160000000</pproTicksIn>
						<pproTicksOut>82872720000000</pproTicksOut>
						<alphatype>none</alphatype>
						<pixelaspectratio>square</pixelaspectratio>
						<anamorphic>FALSE</anamorphic>
						<link>
							<linkclipref>clipitem-19</linkclipref>
							<mediatype>video</mediatype>
							<trackindex>1</trackindex>
							<clipindex>1</clipindex>
						</link>
						<link>
							<linkclipref>clipitem-21</linkclipref>
							<mediatype>audio</mediatype>
							<trackindex>1</trackindex>
							<clipindex>1</clipindex>
							<groupindex>1</groupindex>
						</link>
						<link>
							<linkclipref>clipitem-23</linkclipref>
							<mediatype>audio</mediatype>
							<trackindex>2</trackindex>
							<clipindex>1</clipindex>
							<groupindex>1</groupindex>
						</link>
						<logginginfo>
							<description />
							<scene />
							<shottake />
							<lognote />
							<good />
							<originalvideofilename />
							<originalaudiofilename />
						</logginginfo>
						<colorinfo>
							<lut />
							<lut1 />
							<asc_sop />
							<asc_sat />
							<lut2 />
						</colorinfo>
						<labels>
							<label2>Violet</label2>
						</labels>
					<file id="file-5">
							</file>
						</clipitem>
					<clipitem id="clipitem-17">
						<masterclipid>masterclip-5</masterclipid>
						<name>P1090166.MOV</name>
						<enabled>TRUE</enabled>
						<duration>10968</duration>
						<rate>
							<timebase>24</timebase>
							<ntsc>FALSE</ntsc>
						</rate>
						<start>8040</start>
						<end>8400</end>
						<in>8040</in>
						<out>8400</out>
						<pproTicksIn>85095360000000</pproTicksIn>
						<pproTicksOut>88905600000000</pproTicksOut>
						<alphatype>none</alphatype>
						<pixelaspectratio>square</pixelaspectratio>
						<anamorphic>FALSE</anamorphic>
						<link>
							<linkclipref>clipitem-19</linkclipref>
							<mediatype>video</mediatype>
							<trackindex>1</trackindex>
							<clipindex>1</clipindex>
						</link>
						<link>
							<linkclipref>clipitem-21</linkclipref>
							<mediatype>audio</mediatype>
							<trackindex>1</trackindex>
							<clipindex>1</clipindex>
							<groupindex>1</groupindex>
						</link>
						<link>
							<linkclipref>clipitem-23</linkclipref>
							<mediatype>audio</mediatype>
							<trackindex>2</trackindex>
							<clipindex>1</clipindex>
							<groupindex>1</groupindex>
						</link>
						<logginginfo>
							<description />
							<scene />
							<shottake />
							<lognote />
							<good />
							<originalvideofilename />
							<originalaudiofilename />
						</logginginfo>
						<colorinfo>
							<lut />
							<lut1 />
							<asc_sop />
							<asc_sat />
							<lut2 />
						</colorinfo>
						<labels>
							<label2>Violet</label2>
						</labels>
					<file id="file-5">
							</file>
						</clipitem>
					<clipitem id="clipitem-18">
						<masterclipid>masterclip-5</masterclipid>
						<name>P1090166.MOV</name>
						<enabled>TRUE</enabled>
						<duration>10968</duration>
						<rate>
							<timebase>24</timebase>
							<ntsc>FALSE</ntsc>
						</rate>
						<start>8520</start>
						<end>8790</end>
						<in>8520</in>
						<out>8790</out>
						<pproTicksIn>90175680000000</pproTicksIn>
						<pproTicksOut>93033360000000</pproTicksOut>
						<alphatype>none</alphatype>
						<pixelaspectratio>square</pixelaspectratio>
						<anamorphic>FALSE</anamorphic>
						<link>
							<linkclipref>clipitem-19</linkclipref>
							<mediatype>video</mediatype>
							<trackindex>1</trackindex>
							<clipindex>1</clipindex>
						</link>
						<link>
							<linkclipref>clipitem-21</linkclipref>
							<mediatype>audio</mediatype>
							<trackindex>1</trackindex>
							<clipindex>1</clipindex>
							<groupindex>1</groupindex>
						</link>
						<link>
							<linkclipref>clipitem-23</linkclipref>
							<mediatype>audio</mediatype>
							<trackindex>2</trackindex>
							<clipindex>1</clipindex>
							<groupindex>1</groupindex>
						</link>
						<logginginfo>
							<description />
							<scene />
							<shottake />
							<lognote />
							<good />
							<originalvideofilename />
							<originalaudiofilename />
						</logginginfo>
						<colorinfo>
							<lut />
							<lut1 />
							<asc_sop />
							<asc_sat />
							<lut2 />
						</colorinfo>
						<labels>
							<label2>Violet</label2>
						</labels>
					<file id="file-5">
							</file>
						</clipitem>
					<clipitem id="clipitem-19">
						<masterclipid>masterclip-5</masterclipid>
						<name>P1090166.MOV</name>
						<enabled>TRUE</enabled>
						<duration>10968</duration>
						<rate>
							<timebase>24</timebase>
							<ntsc>FALSE</ntsc>
						</rate>
						<start>9030</start>
						<end>9270</end>
						<in>9030</in>
						<out>9270</out>
						<pproTicksIn>95573520000000</pproTicksIn>
						<pproTicksOut>98113680000000</pproTicksOut>
						<alphatype>none</alphatype>
						<pixelaspectratio>square</pixelaspectratio>
						<anamorphic>FALSE</anamorphic>
						<link>
							<linkclipref>clipitem-19</linkclipref>
							<mediatype>video</mediatype>
							<trackindex>1</trackindex>
							<clipindex>1</clipindex>
						</link>
						<link>
							<linkclipref>clipitem-21</linkclipref>
							<mediatype>audio</mediatype>
							<trackindex>1</trackindex>
							<clipindex>1</clipindex>
							<groupindex>1</groupindex>
						</link>
						<link>
							<linkclipref>clipitem-23</linkclipref>
							<mediatype>audio</mediatype>
							<trackindex>2</trackindex>
							<clipindex>1</clipindex>
							<groupindex>1</groupindex>
						</link>
						<logginginfo>
							<description />
							<scene />
							<shottake />
							<lognote />
							<good />
							<originalvideofilename />
							<originalaudiofilename />
						</logginginfo>
						<colorinfo>
							<lut />
							<lut1 />
							<asc_sop />
							<asc_sat />
							<lut2 />
						</colorinfo>
						<labels>
							<label2>Violet</label2>
						</labels>
					<file id="file-5">
							</file>
						</clipitem>
					<clipitem id="clipitem-20">
						<masterclipid>masterclip-5</masterclipid>
						<name>P1090166.MOV</name>
						<enabled>TRUE</enabled>
						<duration>10968</duration>
						<rate>
							<timebase>24</timebase>
							<ntsc>FALSE</ntsc>
						</rate>
						<start>9300</start>
						<end>10650</end>
						<in>9300</in>
						<out>10650</out>
						<pproTicksIn>98431200000000</pproTicksIn>
						<pproTicksOut>112719600000000</pproTicksOut>
						<alphatype>none</alphatype>
						<pixelaspectratio>square</pixelaspectratio>
						<anamorphic>FALSE</anamorphic>
						<link>
							<linkclipref>clipitem-19</linkclipref>
							<mediatype>video</mediatype>
							<trackindex>1</trackindex>
							<clipindex>1</clipindex>
						</link>
						<link>
							<linkclipref>clipitem-21</linkclipref>
							<mediatype>audio</mediatype>
							<trackindex>1</trackindex>
							<clipindex>1</clipindex>
							<groupindex>1</groupindex>
						</link>
						<link>
							<linkclipref>clipitem-23</linkclipref>
							<mediatype>audio</mediatype>
							<trackindex>2</trackindex>
							<clipindex>1</clipindex>
							<groupindex>1</groupindex>
						</link>
						<logginginfo>
							<description />
							<scene />
							<shottake />
							<lognote />
							<good />
							<originalvideofilename />
							<originalaudiofilename />
						</logginginfo>
						<colorinfo>
							<lut />
							<lut1 />
							<asc_sop />
							<asc_sat />
							<lut2 />
						</colorinfo>
						<labels>
							<label2>Violet</label2>
						</labels>
					<file id="file-5">
							</file>
						</clipitem>
					<clipitem id="clipitem-3">
						<masterclipid>masterclip-6</masterclipid>
						<name>P1090167.MOV</name>
						<enabled>TRUE</enabled>
						<duration>10584</duration>
						<rate>
							<timebase>24</timebase>
							<ntsc>FALSE</ntsc>
						</rate>
						<start>11190</start>
						<end>11910</end>
						<in>210</in>
						<out>930</out>
						<pproTicksIn>2222640000000</pproTicksIn>
						<pproTicksOut>9843120000000</pproTicksOut>
						<alphatype>none</alphatype>
						<pixelaspectratio>square</pixelaspectratio>
						<anamorphic>FALSE</anamorphic>
						<link>
							<linkclipref>clipitem-20</linkclipref>
							<mediatype>video</mediatype>
							<trackindex>1</trackindex>
							<clipindex>2</clipindex>
						</link>
						<link>
							<linkclipref>clipitem-22</linkclipref>
							<mediatype>audio</mediatype>
							<trackindex>1</trackindex>
							<clipindex>2</clipindex>
							<groupindex>1</groupindex>
						</link>
						<link>
							<linkclipref>clipitem-24</linkclipref>
							<mediatype>audio</mediatype>
							<trackindex>2</trackindex>
							<clipindex>2</clipindex>
							<groupindex>1</groupindex>
						</link>
						<logginginfo>
							<description />
							<scene />
							<shottake />
							<lognote />
							<good />
							<originalvideofilename />
							<originalaudiofilename />
						</logginginfo>
						<colorinfo>
							<lut />
							<lut1 />
							<asc_sop />
							<asc_sat />
							<lut2 />
						</colorinfo>
						<labels>
							<label2>Violet</label2>
						</labels>
					<file id="file-6">
							<name>P1090167.MOV</name>
							<pathurl>file://localhost/D%3a/Projects/Deep%20Learning/Prokofolio/MotionClipper/P1090167.MOV</pathurl>
							<rate>
								<timebase>24</timebase>
								<ntsc>FALSE</ntsc>
							</rate>
							<duration>10584</duration>
							<timecode>
								<rate>
									<timebase>24</timebase>
									<ntsc>FALSE</ntsc>
								</rate>
								<string>16:10:45:12</string>
								<frame>1397892</frame>
								<displayformat>NDF</displayformat>
							</timecode>
							<media>
								<video>
									<samplecharacteristics>
										<rate>
											<timebase>24</timebase>
											<ntsc>FALSE</ntsc>
										</rate>
										<width>1920</width>
										<height>1080</height>
										<anamorphic>FALSE</anamorphic>
										<pixelaspectratio>square</pixelaspectratio>
										<fielddominance>none</fielddominance>
									</samplecharacteristics>
								</video>
								<audio>
									<samplecharacteristics>
										<depth>16</depth>
										<samplerate>48000</samplerate>
									</samplecharacteristics>
									<channelcount>2</channelcount>
								</audio>
							</media>
						</file>
						</clipitem>
					<clipitem id="clipitem-4">
						<masterclipid>masterclip-6</masterclipid>
						<name>P1090167.MOV</name>
						<enabled>TRUE</enabled>
						<duration>10584</duration>
						<rate>
							<timebase>24</timebase>
							<ntsc>FALSE</ntsc>
						</rate>
						<start>12000</start>
						<end>13380</end>
						<in>1020</in>
						<out>2400</out>
						<pproTicksIn>10795680000000</pproTicksIn>
						<pproTicksOut>25401600000000</pproTicksOut>
						<alphatype>none</alphatype>
						<pixelaspectratio>square</pixelaspectratio>
						<anamorphic>FALSE</anamorphic>
						<link>
							<linkclipref>clipitem-20</linkclipref>
							<mediatype>video</mediatype>
							<trackindex>1</trackindex>
							<clipindex>2</clipindex>
						</link>
						<link>
							<linkclipref>clipitem-22</linkclipref>
							<mediatype>audio</mediatype>
							<trackindex>1</trackindex>
							<clipindex>2</clipindex>
							<groupindex>1</groupindex>
						</link>
						<link>
							<linkclipref>clipitem-24</linkclipref>
							<mediatype>audio</mediatype>
							<trackindex>2</trackindex>
							<clipindex>2</clipindex>
							<groupindex>1</groupindex>
						</link>
						<logginginfo>
							<description />
							<scene />
							<shottake />
							<lognote />
							<good />
							<originalvideofilename />
							<originalaudiofilename />
						</logginginfo>
						<colorinfo>
							<lut />
							<lut1 />
							<asc_sop />
							<asc_sat />
							<lut2 />
						</colorinfo>
						<labels>
							<label2>Violet</label2>
						</labels>
					<file id="file-6">
							</file>
						</clipitem>
					<clipitem id="clipitem-5">
						<masterclipid>masterclip-6</masterclipid>
						<name>P1090167.MOV</name>
						<enabled>TRUE</enabled>
						<duration>10584</duration>
						<rate>
							<timebase>24</timebase>
							<ntsc>FALSE</ntsc>
						</rate>
						<start>13560</start>
						<end>13620</end>
						<in>2580</in>
						<out>2640</out>
						<pproTicksIn>27306720000000</pproTicksIn>
						<pproTicksOut>27941760000000</pproTicksOut>
						<alphatype>none</alphatype>
						<pixelaspectratio>square</pixelaspectratio>
						<anamorphic>FALSE</anamorphic>
						<link>
							<linkclipref>clipitem-20</linkclipref>
							<mediatype>video</mediatype>
							<trackindex>1</trackindex>
							<clipindex>2</clipindex>
						</link>
						<link>
							<linkclipref>clipitem-22</linkclipref>
							<mediatype>audio</mediatype>
							<trackindex>1</trackindex>
							<clipindex>2</clipindex>
							<groupindex>1</groupindex>
						</link>
						<link>
							<linkclipref>clipitem-24</linkclipref>
							<mediatype>audio</mediatype>
							<trackindex>2</trackindex>
							<clipindex>2</clipindex>
							<groupindex>1</groupindex>
						</link>
						<logginginfo>
							<description />
							<scene />
							<shottake />
							<lognote />
							<good />
							<originalvideofilename />
							<originalaudiofilename />
						</logginginfo>
						<colorinfo>
							<lut />
							<lut1 />
							<asc_sop />
							<asc_sat />
							<lut2 />
						</colorinfo>
						<labels>
							<label2>Violet</label2>
						</labels>
					<file id="file-6">
							</file>
						</clipitem>
					<clipitem id="clipitem-6">
						<masterclipid>masterclip-6</masterclipid>
						<name>P1090167.MOV</name>
						<enabled>TRUE</enabled>
						<duration>10584</duration>
						<rate>
							<timebase>24</timebase>
							<ntsc>FALSE</ntsc>
						</rate>
						<start>13800</start>
						<end>14190</end>
						<in>2820</in>
						<out>3210</out>
						<pproTicksIn>29846880000000</pproTicksIn>
						<pproTicksOut>33974640000000</pproTicksOut>
						<alphatype>none</alphatype>
						<pixelaspectratio>square</pixelaspectratio>
						<anamorphic>FALSE</anamorphic>
						<link>
							<linkclipref>clipitem-20</linkclipref>
							<mediatype>video</mediatype>
							<trackindex>1</trackindex>
							<clipindex>2</clipindex>
						</link>
						<link>
							<linkclipref>clipitem-22</linkclipref>
							<mediatype>audio</mediatype>
							<trackindex>1</trackindex>
							<clipindex>2</clipindex>
							<groupindex>1</groupindex>
						</link>
						<link>
							<linkclipref>clipitem-24</linkclipref>
							<mediatype>audio</mediatype>
							<trackindex>2</trackindex>
							<clipindex>2</clipindex>
							<groupindex>1</groupindex>
						</link>
						<logginginfo>
							<description />
							<scene />
							<shottake />
							<lognote />
							<good />
							<originalvideofilename />
							<originalaudiofilename />
						</logginginfo>
						<colorinfo>
							<lut />
							<lut1 />
							<asc_sop />
							<asc_sat />
							<lut2 />
						</colorinfo>
						<labels>
							<label2>Violet</label2>
						</labels>
					<file id="file-6">
							</file>
						</clipitem>
					<clipitem id="clipitem-7">
						<masterclipid>masterclip-6</masterclipid>
						<name>P1090167.MOV</name>
						<enabled>TRUE</enabled>
						<duration>10584</duration>
						<rate>
							<timebase>24</timebase>
							<ntsc>FALSE</ntsc>
						</rate>
						<start>14730</start>
						<end>14790</end>
						<in>3750</in>
						<out>3810</out>
						<pproTicksIn>39690000000000</pproTicksIn>
						<pproTicksOut>40325040000000</pproTicksOut>
						<alphatype>none</alphatype>
						<pixelaspectratio>square</pixelaspectratio>
						<anamorphic>FALSE</anamorphic>
						<link>
							<linkclipref>clipitem-20</linkclipref>
							<mediatype>video</mediatype>
							<trackindex>1</trackindex>
							<clipindex>2</clipindex>
						</link>
						<link>
							<linkclipref>clipitem-22</linkclipref>
							<mediatype>audio</mediatype>
							<trackindex>1</trackindex>
							<clipindex>2</clipindex>
							<groupindex>1</groupindex>
						</link>
						<link>
							<linkclipref>clipitem-24</linkclipref>
							<mediatype>audio</mediatype>
							<trackindex>2</trackindex>
							<clipindex>2</clipindex>
							<groupindex>1</groupindex>
						</link>
						<logginginfo>
							<description />
							<scene />
							<shottake />
							<lognote />
							<good />
							<originalvideofilename />
							<originalaudiofilename />
						</logginginfo>
						<colorinfo>
							<lut />
							<lut1 />
							<asc_sop />
							<asc_sat />
							<lut2 />
						</colorinfo>
						<labels>
							<label2>Violet</label2>
						</labels>
					<file id="file-6">
							</file>
						</clipitem>
					<clipitem id="clipitem-8">
						<masterclipid>masterclip-6</masterclipid>
						<name>P1090167.MOV</name>
						<enabled>TRUE</enabled>
						<duration>10584</duration>
						<rate>
							<timebase>24</timebase>
							<ntsc>FALSE</ntsc>
						</rate>
						<start>14910</start>
						<end>15030</end>
						<in>3930</in>
						<out>4050</out>
						<pproTicksIn>41595120000000</pproTicksIn>
						<pproTicksOut>42865200000000</pproTicksOut>
						<alphatype>none</alphatype>
						<pixelaspectratio>square</pixelaspectratio>
						<anamorphic>FALSE</anamorphic>
						<link>
							<linkclipref>clipitem-20</linkclipref>
							<mediatype>video</mediatype>
							<trackindex>1</trackindex>
							<clipindex>2</clipindex>
						</link>
						<link>
							<linkclipref>clipitem-22</linkclipref>
							<mediatype>audio</mediatype>
							<trackindex>1</trackindex>
							<clipindex>2</clipindex>
							<groupindex>1</groupindex>
						</link>
						<link>
							<linkclipref>clipitem-24</linkclipref>
							<mediatype>audio</mediatype>
							<trackindex>2</trackindex>
							<clipindex>2</clipindex>
							<groupindex>1</groupindex>
						</link>
						<logginginfo>
							<description />
							<scene />
							<shottake />
							<lognote />
							<good />
							<originalvideofilename />
							<originalaudiofilename />
						</logginginfo>
						<colorinfo>
							<lut />
							<lut1 />
							<asc_sop />
							<asc_sat />
							<lut2 />
						</colorinfo>
						<labels>
							<label2>Violet</label2>
						</labels>
					<file id="file-6">
							</file>
						</clipitem>
					<clipitem id="clipitem-9">
						<masterclipid>masterclip-6</masterclipid>
						<name>P1090167.MOV</name>
						<enabled>TRUE</enabled>
						<duration>10584</duration>
						<rate>
							<timebase>24</timebase>
							<ntsc>FALSE</ntsc>
						</rate>
						<start>15570</start>
						<end>15720</end>
						<in>4590</in>
						<out>4740</out>
						<pproTicksIn>48580560000000</pproTicksIn>
						<pproTicksOut>50168160000000</pproTicksOut>
						<alphatype>none</alphatype>
						<pixelaspectratio>square</pixelaspectratio>
						<anamorphic>FALSE</anamorphic>
						<link>
							<linkclipref>clipitem-20</linkclipref>
							<mediatype>video</mediatype>
							<trackindex>1</trackindex>
							<clipindex>2</clipindex>
						</link>
						<link>
							<linkclipref>clipitem-22</linkclipref>
							<mediatype>audio</mediatype>
							<trackindex>1</trackindex>
							<clipindex>2</clipindex>
							<groupindex>1</groupindex>
						</link>
						<link>
							<linkclipref>clipitem-24</linkclipref>
							<mediatype>audio</mediatype>
							<trackindex>2</trackindex>
							<clipindex>2</clipindex>
							<groupindex>1</groupindex>
						</link>
						<logginginfo>
							<description />
							<scene />
							<shottake />
							<lognote />
							<good />
							<originalvideofilename />
							<originalaudiofilename />
						</logginginfo>
						<colorinfo>
							<lut />
							<lut1 />
							<asc_sop />
							<asc_sat />
							<lut2 />
						</colorinfo>
						<labels>
							<label2>Violet</label2>
						</labels>
					<file id="file-6">
							</file>
						</clipitem>
					<clipitem id="clipitem-10">
						<masterclipid>masterclip-6</masterclipid>
						<name>P1090167.MOV</name>
						<enabled>TRUE</enabled>
						<duration>10584</duration>
						<rate>
							<timebase>24</timebase>
							<ntsc>FALSE</ntsc>
						</rate>
						<start>15900</start>
						<end>17370</end>
						<in>4920</in>
						<out>6390</out>
						<pproTicksIn>52073280000000</pproTicksIn>
						<pproTicksOut>67631760000000</pproTicksOut>
						<alphatype>none</alphatype>
						<pixelaspectratio>square</pixelaspectratio>
						<anamorphic>FALSE</anamorphic>
						<link>
							<linkclipref>clipitem-20</linkclipref>
							<mediatype>video</mediatype>
							<trackindex>1</trackindex>
							<clipindex>2</clipindex>
						</link>
						<link>
							<linkclipref>clipitem-22</linkclipref>
							<mediatype>audio</mediatype>
							<trackindex>1</trackindex>
							<clipindex>2</clipindex>
							<groupindex>1</groupindex>
						</link>
						<link>
							<linkclipref>clipitem-24</linkclipref>
							<mediatype>audio</mediatype>
							<trackindex>2</trackindex>
							<clipindex>2</clipindex>
							<groupindex>1</groupindex>
						</link>
						<logginginfo>
							<description />
							<scene />
							<shottake />
							<lognote />
							<good />
							<originalvideofilename />
							<originalaudiofilename />
						</logginginfo>
						<colorinfo>
							<lut />
							<lut1 />
							<asc_sop />
							<asc_sat />
							<lut2 />
						</colorinfo>
						<labels>
							<label2>Violet</label2>
						</labels>
					<file id="file-6">
							</file>
						</clipitem>
					<clipitem id="clipitem-11">
						<masterclipid>masterclip-6</masterclipid>
						<name>P1090167.MOV</name>
						<enabled>TRUE</enabled>
						<duration>10584</duration>
						<rate>
							<timebase>24</timebase>
							<ntsc>FALSE</ntsc>
						</rate>
						<start>17490</start>
						<end>18720</end>
						<in>6510</in>
						<out>7740</out>
						<pproTicksIn>68901840000000</pproTicksIn>
						<pproTicksOut>81920160000000</pproTicksOut>
						<alphatype>none</alphatype>
						<pixelaspectratio>square</pixelaspectratio>
						<anamorphic>FALSE</anamorphic>
						<link>
							<linkclipref>clipitem-20</linkclipref>
							<mediatype>video</mediatype>
							<trackindex>1</trackindex>
							<clipindex>2</clipindex>
						</link>
						<link>
							<linkclipref>clipitem-22</linkclipref>
							<mediatype>audio</mediatype>
							<trackindex>1</trackindex>
							<clipindex>2</clipindex>
							<groupindex>1</groupindex>
						</link>
						<link>
							<linkclipref>clipitem-24</linkclipref>
							<mediatype>audio</mediatype>
							<trackindex>2</trackindex>
							<clipindex>2</clipindex>
							<groupindex>1</groupindex>
						</link>
						<logginginfo>
							<description />
							<scene />
							<shottake />
							<lognote />
							<good />
							<originalvideofilename />
							<originalaudiofilename />
						</logginginfo>
						<colorinfo>
							<lut />
							<lut1 />
							<asc_sop />
							<asc_sat />
							<lut2 />
						</colorinfo>
						<labels>
							<label2>Violet</label2>
						</labels>
					<file id="file-6">
							</file>
						</clipitem>
					<clipitem id="clipitem-12">
						<masterclipid>masterclip-6</masterclipid>
						<name>P1090167.MOV</name>
						<enabled>TRUE</enabled>
						<duration>10584</duration>
						<rate>
							<timebase>24</timebase>
							<ntsc>FALSE</ntsc>
						</rate>
						<start>18840</start>
						<end>20340</end>
						<in>7860</in>
						<out>9360</out>
						<pproTicksIn>83190240000000</pproTicksIn>
						<pproTicksOut>99066240000000</pproTicksOut>
						<alphatype>none</alphatype>
						<pixelaspectratio>square</pixelaspectratio>
						<anamorphic>FALSE</anamorphic>
						<link>
							<linkclipref>clipitem-20</linkclipref>
							<mediatype>video</mediatype>
							<trackindex>1</trackindex>
							<clipindex>2</clipindex>
						</link>
						<link>
							<linkclipref>clipitem-22</linkclipref>
							<mediatype>audio</mediatype>
							<trackindex>1</trackindex>
							<clipindex>2</clipindex>
							<groupindex>1</groupindex>
						</link>
						<link>
							<linkclipref>clipitem-24</linkclipref>
							<mediatype>audio</mediatype>
							<trackindex>2</trackindex>
							<clipindex>2</clipindex>
							<groupindex>1</groupindex>
						</link>
						<logginginfo>
							<description />
							<scene />
							<shottake />
							<lognote />
							<good />
							<originalvideofilename />
							<originalaudiofilename />
						</logginginfo>
						<colorinfo>
							<lut />
							<lut1 />
							<asc_sop />
							<asc_sat />
							<lut2 />
						</colorinfo>
						<labels>
							<label2>Violet</label2>
						</labels>
					<file id="file-6">
							</file>
						</clipitem>
					<clipitem id="clipitem-13">
						<masterclipid>masterclip-6</masterclipid>
						<name>P1090167.MOV</name>
						<enabled>TRUE</enabled>
						<duration>10584</duration>
						<rate>
							<timebase>24</timebase>
							<ntsc>FALSE</ntsc>
						</rate>
						<start>20430</start>
						<end>21060</end>
						<in>9450</in>
						<out>10080</out>
						<pproTicksIn>100018800000000</pproTicksIn>
						<pproTicksOut>106686720000000</pproTicksOut>
						<alphatype>none</alphatype>
						<pixelaspectratio>square</pixelaspectratio>
						<anamorphic>FALSE</anamorphic>
						<link>
							<linkclipref>clipitem-20</linkclipref>
							<mediatype>video</mediatype>
							<trackindex>1</trackindex>
							<clipindex>2</clipindex>
						</link>
						<link>
							<linkclipref>clipitem-22</linkclipref>
							<mediatype>audio</mediatype>
							<trackindex>1</trackindex>
							<clipindex>2</clipindex>
							<groupindex>1</groupindex>
						</link>
						<link>
							<linkclipref>clipitem-24</linkclipref>
							<mediatype>audio</mediatype>
							<trackindex>2</trackindex>
							<clipindex>2</clipindex>
							<groupindex>1</groupindex>
						</link>
						<logginginfo>
							<description />
							<scene />
							<shottake />
							<lognote />
							<good />
							<originalvideofilename />
							<originalaudiofilename />
						</logginginfo>
						<colorinfo>
							<lut />
							<lut1 />
							<asc_sop />
							<asc_sat />
							<lut2 />
						</colorinfo>
						<labels>
							<label2>Violet</label2>
						</labels>
					<file id="file-6">
							</file>
						</clipitem>
					<clipitem id="clipitem-14">
						<masterclipid>masterclip-6</masterclipid>
						<name>P1090167.MOV</name>
						<enabled>TRUE</enabled>
						<duration>10584</duration>
						<rate>
							<timebase>24</timebase>
							<ntsc>FALSE</ntsc>
						</rate>
						<start>21210</start>
						<end>21539</end>
						<in>10230</in>
						<out>10559</out>
						<pproTicksIn>108274320000000</pproTicksIn>
						<pproTicksOut>111756456000000</pproTicksOut>
						<alphatype>none</alphatype>
						<pixelaspectratio>square</pixelaspectratio>
						<anamorphic>FALSE</anamorphic>
						<link>
							<linkclipref>clipitem-20</linkclipref>
							<mediatype>video</mediatype>
							<trackindex>1</trackindex>
							<clipindex>2</clipindex>
						</link>
						<link>
							<linkclipref>clipitem-22</linkclipref>
							<mediatype>audio</mediatype>
							<trackindex>1</trackindex>
							<clipindex>2</clipindex>
							<groupindex>1</groupindex>
						</link>
						<link>
							<linkclipref>clipitem-24</linkclipref>
							<mediatype>audio</mediatype>
							<trackindex>2</trackindex>
							<clipindex>2</clipindex>
							<groupindex>1</groupindex>
						</link>
						<logginginfo>
							<description />
							<scene />
							<shottake />
							<lognote />
							<good />
							<originalvideofilename />
							<originalaudiofilename />
						</logginginfo>
						<colorinfo>
							<lut />
							<lut1 />
							<asc_sop />
							<asc_sat />
							<lut2 />
						</colorinfo>
						<labels>
							<label2>Violet</label2>
						</labels>
					<file id="file-6">
							</file>
						</clipitem>
					</track>
				<track MZ.TrackName="GH5" MZ.TrackTargeted="1" TL.SQTrackExpanded="0" TL.SQTrackExpandedHeight="25" TL.SQTrackShy="0">
					<enabled>TRUE</enabled>
					<locked>FALSE</locked>
				<clipitem id="clipitem-20">
						<masterclipid>masterclip-5</masterclipid>
						<name>P1090166.MOV</name>
						<enabled>TRUE</enabled>
						<duration>10968</duration>
						<rate>
							<timebase>24</timebase>
							<ntsc>FALSE</ntsc>
						</rate>
						<start>0</start>
						<end>30</end>
						<in>0</in>
						<out>30</out>
						<pproTicksIn>0</pproTicksIn>
						<pproTicksOut>317520000000</pproTicksOut>
						<alphatype>none</alphatype>
						<pixelaspectratio>square</pixelaspectratio>
						<anamorphic>FALSE</anamorphic>
						<link>
							<linkclipref>clipitem-19</linkclipref>
							<mediatype>video</mediatype>
							<trackindex>1</trackindex>
							<clipindex>1</clipindex>
						</link>
						<link>
							<linkclipref>clipitem-21</linkclipref>
							<mediatype>audio</mediatype>
							<trackindex>1</trackindex>
							<clipindex>1</clipindex>
							<groupindex>1</groupindex>
						</link>
						<link>
							<linkclipref>clipitem-23</linkclipref>
							<mediatype>audio</mediatype>
							<trackindex>2</trackindex>
							<clipindex>1</clipindex>
							<groupindex>1</groupindex>
						</link>
						<logginginfo>
							<description />
							<scene />
							<shottake />
							<lognote />
							<good />
							<originalvideofilename />
							<originalaudiofilename />
						</logginginfo>
						<colorinfo>
							<lut />
							<lut1 />
							<asc_sop />
							<asc_sat />
							<lut2 />
						</colorinfo>
						<labels>
							<label2>Rose</label2>
						</labels>
					<file id="file-5">
							</file>
						</clipitem>
					<clipitem id="clipitem-21">
						<masterclipid>masterclip-5</masterclipid>
						<name>P1090166.MOV</name>
						<enabled>TRUE</enabled>
						<duration>10968</duration>
						<rate>
							<timebase>24</timebase>
							<ntsc>FALSE</ntsc>
						</rate>
						<start>660</start>
						<end>720</end>
						<in>660</in>
						<out>720</out>
						<pproTicksIn>6985440000000</pproTicksIn>
						<pproTicksOut>7620480000000</pproTicksOut>
						<alphatype>none</alphatype>
						<pixelaspectratio>square</pixelaspectratio>
						<anamorphic>FALSE</anamorphic>
						<link>
							<linkclipref>clipitem-19</linkclipref>
							<mediatype>video</mediatype>
							<trackindex>1</trackindex>
							<clipindex>1</clipindex>
						</link>
						<link>
							<linkclipref>clipitem-21</linkclipref>
							<mediatype>audio</mediatype>
							<trackindex>1</trackindex>
							<clipindex>1</clipindex>
							<groupindex>1</groupindex>
						</link>
						<link>
							<linkclipref>clipitem-23</linkclipref>
							<mediatype>audio</mediatype>
							<trackindex>2</trackindex>
							<clipindex>1</clipindex>
							<groupindex>1</groupindex>
						</link>
						<logginginfo>
							<description />
							<scene />
							<shottake />
							<lognote />
							<good />
							<originalvideofilename />
							<originalaudiofilename />
						</logginginfo>
						<colorinfo>
							<lut />
							<lut1 />
							<asc_sop />
							<asc_sat />
							<lut2 />
						</colorinfo>
						<labels>
							<label2>Rose</label2>
						</labels>
					<file id="file-5">
							</file>
						</clipitem>
					<clipitem id="clipitem-22">
						<masterclipid>masterclip-5</masterclipid>
						<name>P1090166.MOV</name>
						<enabled>TRUE</enabled>
						<duration>10968</duration>
						<rate>
							<timebase>24</timebase>
							<ntsc>FALSE</ntsc>
						</rate>
						<start>900</start>
						<end>1110</end>
						<in>900</in>
						<out>1110</out>
						<pproTicksIn>9525600000000</pproTicksIn>
						<pproTicksOut>11748240000000</pproTicksOut>
						<alphatype>none</alphatype>
						<pixelaspectratio>square</pixelaspectratio>
						<anamorphic>FALSE</anamorphic>
						<link>
							<linkclipref>clipitem-19</linkclipref>
							<mediatype>video</mediatype>
							<trackindex>1</trackindex>
							<clipindex>1</clipindex>
						</link>
						<link>
							<linkclipref>clipitem-21</linkclipref>
							<mediatype>audio</mediatype>
							<trackindex>1</trackindex>
							<clipindex>1</clipindex>
							<groupindex>1</groupindex>
						</link>
						<link>
							<linkclipref>clipitem-23</linkclipref>
							<mediatype>audio</mediatype>
							<trackindex>2</trackindex>
							<clipindex>1</clipindex>
							<groupindex>1</groupindex>
						</link>
						<logginginfo>
							<description />
							<scene />
							<shottake />
							<lognote />
							<good />
							<originalvideofilename />
							<originalaudiofilename />
						</logginginfo>
						<colorinfo>
							<lut />
							<lut1 />
							<asc_sop />
							<asc_sat />
							<lut2 />
						</colorinfo>
						<labels>
							<label2>Rose</label2>
						</labels>
					<file id="file-5">
							</file>
						</clipitem>
					<clipitem id="clipitem-23">
						<masterclipid>masterclip-5</masterclipid>
						<name>P1090166.MOV</name>
						<enabled>TRUE</enabled>
						<duration>10968</duration>
						<rate>
							<timebase>24</timebase>
							<ntsc>FALSE</ntsc>
						</rate>
						<start>3270</start>
						<end>3300</end>
						<in>3270</in>
						<out>3300</out>
						<pproTicksIn>34609680000000</pproTicksIn>
						<pproTicksOut>34927200000000</pproTicksOut>
						<alphatype>none</alphatype>
						<pixelaspectratio>square</pixelaspectratio>
						<anamorphic>FALSE</anamorphic>
						<link>
							<linkclipref>clipitem-19</linkclipref>
							<mediatype>video</mediatype>
							<trackindex>1</trackindex>
							<clipindex>1</clipindex>
						</link>
						<link>
							<linkclipref>clipitem-21</linkclipref>
							<mediatype>audio</mediatype>
							<trackindex>1</trackindex>
							<clipindex>1</clipindex>
							<groupindex>1</groupindex>
						</link>
						<link>
							<linkclipref>clipitem-23</linkclipref>
							<mediatype>audio</mediatype>
							<trackindex>2</trackindex>
							<clipindex>1</clipindex>
							<groupindex>1</groupindex>
						</link>
						<logginginfo>
							<description />
							<scene />
							<shottake />
							<lognote />
							<good />
							<originalvideofilename />
							<originalaudiofilename />
						</logginginfo>
						<colorinfo>
							<lut />
							<lut1 />
							<asc_sop />
							<asc_sat />
							<lut2 />
						</colorinfo>
						<labels>
							<label2>Rose</label2>
						</labels>
					<file id="file-5">
							</file>
						</clipitem>
					<clipitem id="clipitem-24">
						<masterclipid>masterclip-5</masterclipid>
						<name>P1090166.MOV</name>
						<enabled>TRUE</enabled>
						<duration>10968</duration>
						<rate>
							<timebase>24</timebase>
							<ntsc>FALSE</ntsc>
						</rate>
						<start>3780</start>
						<end>3810</end>
						<in>3780</in>
						<out>3810</out>
						<pproTicksIn>40007520000000</pproTicksIn>
						<pproTicksOut>40325040000000</pproTicksOut>
						<alphatype>none</alphatype>
						<pixelaspectratio>square</pixelaspectratio>
						<anamorphic>FALSE</anamorphic>
						<link>
							<linkclipref>clipitem-19</linkclipref>
							<mediatype>video</mediatype>
							<trackindex>1</trackindex>
							<clipindex>1</clipindex>
						</link>
						<link>
							<linkclipref>clipitem-21</linkclipref>
							<mediatype>audio</mediatype>
							<trackindex>1</trackindex>
							<clipindex>1</clipindex>
							<groupindex>1</groupindex>
						</link>
						<link>
							<linkclipref>clipitem-23</linkclipref>
							<mediatype>audio</mediatype>
							<trackindex>2</trackindex>
							<clipindex>1</clipindex>
							<groupindex>1</groupindex>
						</link>
						<logginginfo>
							<description />
							<scene />
							<shottake />
							<lognote />
							<good />
							<originalvideofilename />
							<originalaudiofilename />
						</logginginfo>
						<colorinfo>
							<lut />
							<lut1 />
							<asc_sop />
							<asc_sat />
							<lut2 />
						</colorinfo>
						<labels>
							<label2>Rose</label2>
						</labels>
					<file id="file-5">
							</file>
						</clipitem>
					<clipitem id="clipitem-25">
						<masterclipid>masterclip-5</masterclipid>
						<name>P1090166.MOV</name>
						<enabled>TRUE</enabled>
						<duration>10968</duration>
						<rate>
							<timebase>24</timebase>
							<ntsc>FALSE</ntsc>
						</rate>
						<start>3870</start>
						<end>3930</end>
						<in>3870</in>
						<out>3930</out>
						<pproTicksIn>40960080000000</pproTicksIn>
						<pproTicksOut>41595120000000</pproTicksOut>
						<alphatype>none</alphatype>
						<pixelaspectratio>square</pixelaspectratio>
						<anamorphic>FALSE</anamorphic>
						<link>
							<linkclipref>clipitem-19</linkclipref>
							<mediatype>video</mediatype>
							<trackindex>1</trackindex>
							<clipindex>1</clipindex>
						</link>
						<link>
							<linkclipref>clipitem-21</linkclipref>
							<mediatype>audio</mediatype>
							<trackindex>1</trackindex>
							<clipindex>1</clipindex>
							<groupindex>1</groupindex>
						</link>
						<link>
							<linkclipref>clipitem-23</linkclipref>
							<mediatype>audio</mediatype>
							<trackindex>2</trackindex>
							<clipindex>1</clipindex>
							<groupindex>1</groupindex>
						</link>
						<logginginfo>
							<description />
							<scene />
							<shottake />
							<lognote />
							<good />
							<originalvideofilename />
							<originalaudiofilename />
						</logginginfo>
						<colorinfo>
							<lut />
							<lut1 />
							<asc_sop />
							<asc_sat />
							<lut2 />
						</colorinfo>
						<labels>
							<label2>Rose</label2>
						</labels>
					<file id="file-5">
							</file>
						</clipitem>
					<clipitem id="clipitem-26">
						<masterclipid>masterclip-5</masterclipid>
						<name>P1090166.MOV</name>
						<enabled>TRUE</enabled>
						<duration>10968</duration>
						<rate>
							<timebase>24</timebase>
							<ntsc>FALSE</ntsc>
						</rate>
						<start>3960</start>
						<end>4020</end>
						<in>3960</in>
						<out>4020</out>
						<pproTicksIn>41912640000000</pproTicksIn>
						<pproTicksOut>42547680000000</pproTicksOut>
						<alphatype>none</alphatype>
						<pixelaspectratio>square</pixelaspectratio>
						<anamorphic>FALSE</anamorphic>
						<link>
							<linkclipref>clipitem-19</linkclipref>
							<mediatype>video</mediatype>
							<trackindex>1</trackindex>
							<clipindex>1</clipindex>
						</link>
						<link>
							<linkclipref>clipitem-21</linkclipref>
							<mediatype>audio</mediatype>
							<trackindex>1</trackindex>
							<clipindex>1</clipindex>
							<groupindex>1</groupindex>
						</link>
						<link>
							<linkclipref>clipitem-23</linkclipref>
							<mediatype>audio</mediatype>
							<trackindex>2</trackindex>
							<clipindex>1</clipindex>
							<groupindex>1</groupindex>
						</link>
						<logginginfo>
							<description />
							<scene />
							<shottake />
							<lognote />
							<good />
							<originalvideofilename />
							<originalaudiofilename />
						</logginginfo>
						<colorinfo>
							<lut />
							<lut1 />
							<asc_sop />
							<asc_sat />
							<lut2 />
						</colorinfo>
						<labels>
							<label2>Rose</label2>
						</labels>
					<file id="file-5">
							</file>
						</clipitem>
					<clipitem id="clipitem-27">
						<masterclipid>masterclip-5</masterclipid>
						<name>P1090166.MOV</name>
						<enabled>TRUE</enabled>
						<duration>10968</duration>
						<rate>
							<timebase>24</timebase>
							<ntsc>FALSE</ntsc>
						</rate>
						<start>4080</start>
						<end>4260</end>
						<in>4080</in>
						<out>4260</out>
						<pproTicksIn>43182720000000</pproTicksIn>
						<pproTicksOut>45087840000000</pproTicksOut>
						<alphatype>none</alphatype>
						<pixelaspectratio>square</pixelaspectratio>
						<anamorphic>FALSE</anamorphic>
						<link>
							<linkclipref>clipitem-19</linkclipref>
							<mediatype>video</mediatype>
							<trackindex>1</trackindex>
							<clipindex>1</clipindex>
						</link>
						<link>
							<linkclipref>clipitem-21</linkclipref>
							<mediatype>audio</mediatype>
							<trackindex>1</trackindex>
							<clipindex>1</clipindex>
							<groupindex>1</groupindex>
						</link>
						<link>
							<linkclipref>clipitem-23</linkclipref>
							<mediatype>audio</mediatype>
							<trackindex>2</trackindex>
							<clipindex>1</clipindex>
							<groupindex>1</groupindex>
						</link>
						<logginginfo>
							<description />
							<scene />
							<shottake />
							<lognote />
							<good />
							<originalvideofilename />
							<originalaudiofilename />
						</logginginfo>
						<colorinfo>
							<lut />
							<lut1 />
							<asc_sop />
							<asc_sat />
							<lut2 />
						</colorinfo>
						<labels>
							<label2>Rose</label2>
						</labels>
					<file id="file-5">
							</file>
						</clipitem>
					<clipitem id="clipitem-28">
						<masterclipid>masterclip-5</masterclipid>
						<name>P1090166.MOV</name>
						<enabled>TRUE</enabled>
						<duration>10968</duration>
						<rate>
							<timebase>24</timebase>
							<ntsc>FALSE</ntsc>
						</rate>
						<start>4290</start>
						<end>4320</end>
						<in>4290</in>
						<out>4320</out>
						<pproTicksIn>45405360000000</pproTicksIn>
						<pproTicksOut>45722880000000</pproTicksOut>
						<alphatype>none</alphatype>
						<pixelaspectratio>square</pixelaspectratio>
						<anamorphic>FALSE</anamorphic>
						<link>
							<linkclipref>clipitem-19</linkclipref>
							<mediatype>video</mediatype>
							<trackindex>1</trackindex>
							<clipindex>1</clipindex>
						</link>
						<link>
							<linkclipref>clipitem-21</linkclipref>
							<mediatype>audio</mediatype>
							<trackindex>1</trackindex>
							<clipindex>1</clipindex>
							<groupindex>1</groupindex>
						</link>
						<link>
							<linkclipref>clipitem-23</linkclipref>
							<mediatype>audio</mediatype>
							<trackindex>2</trackindex>
							<clipindex>1</clipindex>
							<groupindex>1</groupindex>
						</link>
						<logginginfo>
							<description />
							<scene />
							<shottake />
							<lognote />
							<good />
							<originalvideofilename />
							<originalaudiofilename />
						</logginginfo>
						<colorinfo>
							<lut />
							<lut1 />
							<asc_sop />
							<asc_sat />
							<lut2 />
						</colorinfo>
						<labels>
							<label2>Rose</label2>
						</labels>
					<file id="file-5">
							</file>
						</clipitem>
					<clipitem id="clipitem-29">
						<masterclipid>masterclip-5</masterclipid>
						<name>P1090166.MOV</name>
						<enabled>TRUE</enabled>
						<duration>10968</duration>
						<rate>
							<timebase>24</timebase>
							<ntsc>FALSE</ntsc>
						</rate>
						<start>4440</start>
						<end>4770</end>
						<in>4440</in>
						<out>4770</out>
						<pproTicksIn>46992960000000</pproTicksIn>
						<pproTicksOut>50485680000000</pproTicksOut>
						<alphatype>none</alphatype>
						<pixelaspectratio>square</pixelaspectratio>
						<anamorphic>FALSE</anamorphic>
						<link>
							<linkclipref>clipitem-19</linkclipref>
							<mediatype>video</mediatype>
							<trackindex>1</trackindex>
							<clipindex>1</clipindex>
						</link>
						<link>
							<linkclipref>clipitem-21</linkclipref>
							<mediatype>audio</mediatype>
							<trackindex>1</trackindex>
							<clipindex>1</clipindex>
							<groupindex>1</groupindex>
						</link>
						<link>
							<linkclipref>clipitem-23</linkclipref>
							<mediatype>audio</mediatype>
							<trackindex>2</trackindex>
							<clipindex>1</clipindex>
							<groupindex>1</groupindex>
						</link>
						<logginginfo>
							<description />
							<scene />
							<shottake />
							<lognote />
							<good />
							<originalvideofilename />
							<originalaudiofilename />
						</logginginfo>
						<colorinfo>
							<lut />
							<lut1 />
							<asc_sop />
							<asc_sat />
							<lut2 />
						</colorinfo>
						<labels>
							<label2>Rose</label2>
						</labels>
					<file id="file-5">
							</file>
						</clipitem>
					<clipitem id="clipitem-30">
						<masterclipid>masterclip-5</masterclipid>
						<name>P1090166.MOV</name>
						<enabled>TRUE</enabled>
						<duration>10968</duration>
						<rate>
							<timebase>24</timebase>
							<ntsc>FALSE</ntsc>
						</rate>
						<start>4800</start>
						<end>4830</end>
						<in>4800</in>
						<out>4830</out>
						<pproTicksIn>50803200000000</pproTicksIn>
						<pproTicksOut>51120720000000</pproTicksOut>
						<alphatype>none</alphatype>
						<pixelaspectratio>square</pixelaspectratio>
						<anamorphic>FALSE</anamorphic>
						<link>
							<linkclipref>clipitem-19</linkclipref>
							<mediatype>video</mediatype>
							<trackindex>1</trackindex>
							<clipindex>1</clipindex>
						</link>
						<link>
							<linkclipref>clipitem-21</linkclipref>
							<mediatype>audio</mediatype>
							<trackindex>1</trackindex>
							<clipindex>1</clipindex>
							<groupindex>1</groupindex>
						</link>
						<link>
							<linkclipref>clipitem-23</linkclipref>
							<mediatype>audio</mediatype>
							<trackindex>2</trackindex>
							<clipindex>1</clipindex>
							<groupindex>1</groupindex>
						</link>
						<logginginfo>
							<description />
							<scene />
							<shottake />
							<lognote />
							<good />
							<originalvideofilename />
							<originalaudiofilename />
						</logginginfo>
						<colorinfo>
							<lut />
							<lut1 />
							<asc_sop />
							<asc_sat />
							<lut2 />
						</colorinfo>
						<labels>
							<label2>Rose</label2>
						</labels>
					<file id="file-5">
							</file>
						</clipitem>
					<clipitem id="clipitem-31">
						<masterclipid>masterclip-5</masterclipid>
						<name>P1090166.MOV</name>
						<enabled>TRUE</enabled>
						<duration>10968</duration>
						<rate>
							<timebase>24</timebase>
							<ntsc>FALSE</ntsc>
						</rate>
						<start>4920</start>
						<end>5250</end>
						<in>4920</in>
						<out>5250</out>
						<pproTicksIn>52073280000000</pproTicksIn>
						<pproTicksOut>55566000000000</pproTicksOut>
						<alphatype>none</alphatype>
						<pixelaspectratio>square</pixelaspectratio>
						<anamorphic>FALSE</anamorphic>
						<link>
							<linkclipref>clipitem-19</linkclipref>
							<mediatype>video</mediatype>
							<trackindex>1</trackindex>
							<clipindex>1</clipindex>
						</link>
						<link>
							<linkclipref>clipitem-21</linkclipref>
							<mediatype>audio</mediatype>
							<trackindex>1</trackindex>
							<clipindex>1</clipindex>
							<groupindex>1</groupindex>
						</link>
						<link>
							<linkclipref>clipitem-23</linkclipref>
							<mediatype>audio</mediatype>
							<trackindex>2</trackindex>
							<clipindex>1</clipindex>
							<groupindex>1</groupindex>
						</link>
						<logginginfo>
							<description />
							<scene />
							<shottake />
							<lognote />
							<good />
							<originalvideofilename />
							<originalaudiofilename />
						</logginginfo>
						<colorinfo>
							<lut />
							<lut1 />
							<asc_sop />
							<asc_sat />
							<lut2 />
						</colorinfo>
						<labels>
							<label2>Rose</label2>
						</labels>
					<file id="file-5">
							</file>
						</clipitem>
					<clipitem id="clipitem-32">
						<masterclipid>masterclip-5</masterclipid>
						<name>P1090166.MOV</name>
						<enabled>TRUE</enabled>
						<duration>10968</duration>
						<rate>
							<timebase>24</timebase>
							<ntsc>FALSE</ntsc>
						</rate>
						<start>7080</start>
						<end>7410</end>
						<in>7080</in>
						<out>7410</out>
						<pproTicksIn>74934720000000</pproTicksIn>
						<pproTicksOut>78427440000000</pproTicksOut>
						<alphatype>none</alphatype>
						<pixelaspectratio>square</pixelaspectratio>
						<anamorphic>FALSE</anamorphic>
						<link>
							<linkclipref>clipitem-19</linkclipref>
							<mediatype>video</mediatype>
							<trackindex>1</trackindex>
							<clipindex>1</clipindex>
						</link>
						<link>
							<linkclipref>clipitem-21</linkclipref>
							<mediatype>audio</mediatype>
							<trackindex>1</trackindex>
							<clipindex>1</clipindex>
							<groupindex>1</groupindex>
						</link>
						<link>
							<linkclipref>clipitem-23</linkclipref>
							<mediatype>audio</mediatype>
							<trackindex>2</trackindex>
							<clipindex>1</clipindex>
							<groupindex>1</groupindex>
						</link>
						<logginginfo>
							<description />
							<scene />
							<shottake />
							<lognote />
							<good />
							<originalvideofilename />
							<originalaudiofilename />
						</logginginfo>
						<colorinfo>
							<lut />
							<lut1 />
							<asc_sop />
							<asc_sat />
							<lut2 />
						</colorinfo>
						<labels>
							<label2>Rose</label2>
						</labels>
					<file id="file-5">
							</file>
						</clipitem>
					<clipitem id="clipitem-33">
						<masterclipid>masterclip-5</masterclipid>
						<name>P1090166.MOV</name>
						<enabled>TRUE</enabled>
						<duration>10968</duration>
						<rate>
							<timebase>24</timebase>
							<ntsc>FALSE</ntsc>
						</rate>
						<start>7440</start>
						<end>7740</end>
						<in>7440</in>
						<out>7740</out>
						<pproTicksIn>78744960000000</pproTicksIn>
						<pproTicksOut>81920160000000</pproTicksOut>
						<alphatype>none</alphatype>
						<pixelaspectratio>square</pixelaspectratio>
						<anamorphic>FALSE</anamorphic>
						<link>
							<linkclipref>clipitem-19</linkclipref>
							<mediatype>video</mediatype>
							<trackindex>1</trackindex>
							<clipindex>1</clipindex>
						</link>
						<link>
							<linkclipref>clipitem-21</linkclipref>
							<mediatype>audio</mediatype>
							<trackindex>1</trackindex>
							<clipindex>1</clipindex>
							<groupindex>1</groupindex>
						</link>
						<link>
							<linkclipref>clipitem-23</linkclipref>
							<mediatype>audio</mediatype>
							<trackindex>2</trackindex>
							<clipindex>1</clipindex>
							<groupindex>1</groupindex>
						</link>
						<logginginfo>
							<description />
							<scene />
							<shottake />
							<lognote />
							<good />
							<originalvideofilename />
							<originalaudiofilename />
						</logginginfo>
						<colorinfo>
							<lut />
							<lut1 />
							<asc_sop />
							<asc_sat />
							<lut2 />
						</colorinfo>
						<labels>
							<label2>Rose</label2>
						</labels>
					<file id="file-5">
							</file>
						</clipitem>
					<clipitem id="clipitem-34">
						<masterclipid>masterclip-5</masterclipid>
						<name>P1090166.MOV</name>
						<enabled>TRUE</enabled>
						<duration>10968</duration>
						<rate>
							<timebase>24</timebase>
							<ntsc>FALSE</ntsc>
						</rate>
						<start>7830</start>
						<end>8040</end>
						<in>7830</in>
						<out>8040</out>
						<pproTicksIn>82872720000000</pproTicksIn>
						<pproTicksOut>85095360000000</pproTicksOut>
						<alphatype>none</alphatype>
						<pixelaspectratio>square</pixelaspectratio>
						<anamorphic>FALSE</anamorphic>
						<link>
							<linkclipref>clipitem-19</linkclipref>
							<mediatype>video</mediatype>
							<trackindex>1</trackindex>
							<clipindex>1</clipindex>
						</link>
						<link>
							<linkclipref>clipitem-21</linkclipref>
							<mediatype>audio</mediatype>
							<trackindex>1</trackindex>
							<clipindex>1</clipindex>
							<groupindex>1</groupindex>
						</link>
						<link>
							<linkclipref>clipitem-23</linkclipref>
							<mediatype>audio</mediatype>
							<trackindex>2</trackindex>
							<clipindex>1</clipindex>
							<groupindex>1</groupindex>
						</link>
						<logginginfo>
							<description />
							<scene />
							<shottake />
							<lognote />
							<good />
							<originalvideofilename />
							<originalaudiofilename />
						</logginginfo>
						<colorinfo>
							<lut />
							<lut1 />
							<asc_sop />
							<asc_sat />
							<lut2 />
						</colorinfo>
						<labels>
							<label2>Rose</label2>
						</labels>
					<file id="file-5">
							</file>
						</clipitem>
					<clipitem id="clipitem-35">
						<masterclipid>masterclip-5</masterclipid>
						<name>P1090166.MOV</name>
						<enabled>TRUE</enabled>
						<duration>10968</duration>
						<rate>
							<timebase>24</timebase>
							<ntsc>FALSE</ntsc>
						</rate>
						<start>8400</start>
						<end>8520</end>
						<in>8400</in>
						<out>8520</out>
						<pproTicksIn>88905600000000</pproTicksIn>
						<pproTicksOut>90175680000000</pproTicksOut>
						<alphatype>none</alphatype>
						<pixelaspectratio>square</pixelaspectratio>
						<anamorphic>FALSE</anamorphic>
						<link>
							<linkclipref>clipitem-19</linkclipref>
							<mediatype>video</mediatype>
							<trackindex>1</trackindex>
							<clipindex>1</clipindex>
						</link>
						<link>
							<linkclipref>clipitem-21</linkclipref>
							<mediatype>audio</mediatype>
							<trackindex>1</trackindex>
							<clipindex>1</clipindex>
							<groupindex>1</groupindex>
						</link>
						<link>
							<linkclipref>clipitem-23</linkclipref>
							<mediatype>audio</mediatype>
							<trackindex>2</trackindex>
							<clipindex>1</clipindex>
							<groupindex>1</groupindex>
						</link>
						<logginginfo>
							<description />
							<scene />
							<shottake />
							<lognote />
							<good />
							<originalvideofilename />
							<originalaudiofilename />
						</logginginfo>
						<colorinfo>
							<lut />
							<lut1 />
							<asc_sop />
							<asc_sat />
							<lut2 />
						</colorinfo>
						<labels>
							<label2>Rose</label2>
						</labels>
					<file id="file-5">
							</file>
						</clipitem>
					<clipitem id="clipitem-36">
						<masterclipid>masterclip-5</masterclipid>
						<name>P1090166.MOV</name>
						<enabled>TRUE</enabled>
						<duration>10968</duration>
						<rate>
							<timebase>24</timebase>
							<ntsc>FALSE</ntsc>
						</rate>
						<start>8790</start>
						<end>9030</end>
						<in>8790</in>
						<out>9030</out>
						<pproTicksIn>93033360000000</pproTicksIn>
						<pproTicksOut>95573520000000</pproTicksOut>
						<alphatype>none</alphatype>
						<pixelaspectratio>square</pixelaspectratio>
						<anamorphic>FALSE</anamorphic>
						<link>
							<linkclipref>clipitem-19</linkclipref>
							<mediatype>video</mediatype>
							<trackindex>1</trackindex>
							<clipindex>1</clipindex>
						</link>
						<link>
							<linkclipref>clipitem-21</linkclipref>
							<mediatype>audio</mediatype>
							<trackindex>1</trackindex>
							<clipindex>1</clipindex>
							<groupindex>1</groupindex>
						</link>
						<link>
							<linkclipref>clipitem-23</linkclipref>
							<mediatype>audio</mediatype>
							<trackindex>2</trackindex>
							<clipindex>1</clipindex>
							<groupindex>1</groupindex>
						</link>
						<logginginfo>
							<description />
							<scene />
							<shottake />
							<lognote />
							<good />
							<originalvideofilename />
							<originalaudiofilename />
						</logginginfo>
						<colorinfo>
							<lut />
							<lut1 />
							<asc_sop />
							<asc_sat />
							<lut2 />
						</colorinfo>
						<labels>
							<label2>Rose</label2>
						</labels>
					<file id="file-5">
							</file>
						</clipitem>
					<clipitem id="clipitem-37">
						<masterclipid>masterclip-5</masterclipid>
						<name>P1090166.MOV</name>
						<enabled>TRUE</enabled>
						<duration>10968</duration>
						<rate>
							<timebase>24</timebase>
							<ntsc>FALSE</ntsc>
						</rate>
						<start>9270</start>
						<end>9300</end>
						<in>9270</in>
						<out>9300</out>
						<pproTicksIn>98113680000000</pproTicksIn>
						<pproTicksOut>98431200000000</pproTicksOut>
						<alphatype>none</alphatype>
						<pixelaspectratio>square</pixelaspectratio>
						<anamorphic>FALSE</anamorphic>
						<link>
							<linkclipref>clipitem-19</linkclipref>
							<mediatype>video</mediatype>
							<trackindex>1</trackindex>
							<clipindex>1</clipindex>
						</link>
						<link>
							<linkclipref>clipitem-21</linkclipref>
							<mediatype>audio</mediatype>
							<trackindex>1</trackindex>
							<clipindex>1</clipindex>
							<groupindex>1</groupindex>
						</link>
						<link>
							<linkclipref>clipitem-23</linkclipref>
							<mediatype>audio</mediatype>
							<trackindex>2</trackindex>
							<clipindex>1</clipindex>
							<groupindex>1</groupindex>
						</link>
						<logginginfo>
							<description />
							<scene />
							<shottake />
							<lognote />
							<good />
							<originalvideofilename />
							<originalaudiofilename />
						</logginginfo>
						<colorinfo>
							<lut />
							<lut1 />
							<asc_sop />
							<asc_sat />
							<lut2 />
						</colorinfo>
						<labels>
							<label2>Rose</label2>
						</labels>
					<file id="file-5">
							</file>
						</clipitem>
					<clipitem id="clipitem-38">
						<masterclipid>masterclip-5</masterclipid>
						<name>P1090166.MOV</name>
						<enabled>TRUE</enabled>
						<duration>10968</duration>
						<rate>
							<timebase>24</timebase>
							<ntsc>FALSE</ntsc>
						</rate>
						<start>10650</start>
						<end>10949</end>
						<in>10650</in>
						<out>10949</out>
						<pproTicksIn>112719600000000</pproTicksIn>
						<pproTicksOut>115884216000000</pproTicksOut>
						<alphatype>none</alphatype>
						<pixelaspectratio>square</pixelaspectratio>
						<anamorphic>FALSE</anamorphic>
						<link>
							<linkclipref>clipitem-19</linkclipref>
							<mediatype>video</mediatype>
							<trackindex>1</trackindex>
							<clipindex>1</clipindex>
						</link>
						<link>
							<linkclipref>clipitem-21</linkclipref>
							<mediatype>audio</mediatype>
							<trackindex>1</trackindex>
							<clipindex>1</clipindex>
							<groupindex>1</groupindex>
						</link>
						<link>
							<linkclipref>clipitem-23</linkclipref>
							<mediatype>audio</mediatype>
							<trackindex>2</trackindex>
							<clipindex>1</clipindex>
							<groupindex>1</groupindex>
						</link>
						<logginginfo>
							<description />
							<scene />
							<shottake />
							<lognote />
							<good />
							<originalvideofilename />
							<originalaudiofilename />
						</logginginfo>
						<colorinfo>
							<lut />
							<lut1 />
							<asc_sop />
							<asc_sat />
							<lut2 />
						</colorinfo>
						<labels>
							<label2>Rose</label2>
						</labels>
					<file id="file-5">
							</file>
						</clipitem>
					<clipitem id="clipitem-14">
						<masterclipid>masterclip-6</masterclipid>
						<name>P1090167.MOV</name>
						<enabled>TRUE</enabled>
						<duration>10584</duration>
						<rate>
							<timebase>24</timebase>
							<ntsc>FALSE</ntsc>
						</rate>
						<start>10980</start>
						<end>11190</end>
						<in>0</in>
						<out>210</out>
						<pproTicksIn>0</pproTicksIn>
						<pproTicksOut>2222640000000</pproTicksOut>
						<alphatype>none</alphatype>
						<pixelaspectratio>square</pixelaspectratio>
						<anamorphic>FALSE</anamorphic>
						<link>
							<linkclipref>clipitem-20</linkclipref>
							<mediatype>video</mediatype>
							<trackindex>1</trackindex>
							<clipindex>2</clipindex>
						</link>
						<link>
							<linkclipref>clipitem-22</linkclipref>
							<mediatype>audio</mediatype>
							<trackindex>1</trackindex>
							<clipindex>2</clipindex>
							<groupindex>1</groupindex>
						</link>
						<link>
							<linkclipref>clipitem-24</linkclipref>
							<mediatype>audio</mediatype>
							<trackindex>2</trackindex>
							<clipindex>2</clipindex>
							<groupindex>1</groupindex>
						</link>
						<logginginfo>
							<description />
							<scene />
							<shottake />
							<lognote />
							<good />
							<originalvideofilename />
							<originalaudiofilename />
						</logginginfo>
						<colorinfo>
							<lut />
							<lut1 />
							<asc_sop />
							<asc_sat />
							<lut2 />
						</colorinfo>
						<labels>
							<label2>Rose</label2>
						</labels>
					<file id="file-6">
							</file>
						</clipitem>
					<clipitem id="clipitem-15">
						<masterclipid>masterclip-6</masterclipid>
						<name>P1090167.MOV</name>
						<enabled>TRUE</enabled>
						<duration>10584</duration>
						<rate>
							<timebase>24</timebase>
							<ntsc>FALSE</ntsc>
						</rate>
						<start>11910</start>
						<end>12000</end>
						<in>930</in>
						<out>1020</out>
						<pproTicksIn>9843120000000</pproTicksIn>
						<pproTicksOut>10795680000000</pproTicksOut>
						<alphatype>none</alphatype>
						<pixelaspectratio>square</pixelaspectratio>
						<anamorphic>FALSE</anamorphic>
						<link>
							<linkclipref>clipitem-20</linkclipref>
							<mediatype>video</mediatype>
							<trackindex>1</trackindex>
							<clipindex>2</clipindex>
						</link>
						<link>
							<linkclipref>clipitem-22</linkclipref>
							<mediatype>audio</mediatype>
							<trackindex>1</trackindex>
							<clipindex>2</clipindex>
							<groupindex>1</groupindex>
						</link>
						<link>
							<linkclipref>clipitem-24</linkclipref>
							<mediatype>audio</mediatype>
							<trackindex>2</trackindex>
							<clipindex>2</clipindex>
							<groupindex>1</groupindex>
						</link>
						<logginginfo>
							<description />
							<scene />
							<shottake />
							<lognote />
							<good />
							<originalvideofilename />
							<originalaudiofilename />
						</logginginfo>
						<colorinfo>
							<lut />
							<lut1 />
							<asc_sop />
							<asc_sat />
							<lut2 />
						</colorinfo>
						<labels>
							<label2>Rose</label2>
						</labels>
					<file id="file-6">
							</file>
						</clipitem>
					<clipitem id="clipitem-16">
						<masterclipid>masterclip-6</masterclipid>
						<name>P1090167.MOV</name>
						<enabled>TRUE</enabled>
						<duration>10584</duration>
						<rate>
							<timebase>24</timebase>
							<ntsc>FALSE</ntsc>
						</rate>
						<start>13380</start>
						<end>13560</end>
						<in>2400</in>
						<out>2580</out>
						<pproTicksIn>25401600000000</pproTicksIn>
						<pproTicksOut>27306720000000</pproTicksOut>
						<alphatype>none</alphatype>
						<pixelaspectratio>square</pixelaspectratio>
						<anamorphic>FALSE</anamorphic>
						<link>
							<linkclipref>clipitem-20</linkclipref>
							<mediatype>video</mediatype>
							<trackindex>1</trackindex>
							<clipindex>2</clipindex>
						</link>
						<link>
							<linkclipref>clipitem-22</linkclipref>
							<mediatype>audio</mediatype>
							<trackindex>1</trackindex>
							<clipindex>2</clipindex>
							<groupindex>1</groupindex>
						</link>
						<link>
							<linkclipref>clipitem-24</linkclipref>
							<mediatype>audio</mediatype>
							<trackindex>2</trackindex>
							<clipindex>2</clipindex>
							<groupindex>1</groupindex>
						</link>
						<logginginfo>
							<description />
							<scene />
							<shottake />
							<lognote />
							<good />
							<originalvideofilename />
							<originalaudiofilename />
						</logginginfo>
						<colorinfo>
							<lut />
							<lut1 />
							<asc_sop />
							<asc_sat />
							<lut2 />
						</colorinfo>
						<labels>
							<label2>Rose</label2>
						</labels>
					<file id="file-6">
							</file>
						</clipitem>
					<clipitem id="clipitem-17">
						<masterclipid>masterclip-6</masterclipid>
						<name>P1090167.MOV</name>
						<enabled>TRUE</enabled>
						<duration>10584</duration>
						<rate>
							<timebase>24</timebase>
							<ntsc>FALSE</ntsc>
						</rate>
						<start>13620</start>
						<end>13800</end>
						<in>2640</in>
						<out>2820</out>
						<pproTicksIn>27941760000000</pproTicksIn>
						<pproTicksOut>29846880000000</pproTicksOut>
						<alphatype>none</alphatype>
						<pixelaspectratio>square</pixelaspectratio>
						<anamorphic>FALSE</anamorphic>
						<link>
							<linkclipref>clipitem-20</linkclipref>
							<mediatype>video</mediatype>
							<trackindex>1</trackindex>
							<clipindex>2</clipindex>
						</link>
						<link>
							<linkclipref>clipitem-22</linkclipref>
							<mediatype>audio</mediatype>
							<trackindex>1</trackindex>
							<clipindex>2</clipindex>
							<groupindex>1</groupindex>
						</link>
						<link>
							<linkclipref>clipitem-24</linkclipref>
							<mediatype>audio</mediatype>
							<trackindex>2</trackindex>
							<clipindex>2</clipindex>
							<groupindex>1</groupindex>
						</link>
						<logginginfo>
							<description />
							<scene />
							<shottake />
							<lognote />
							<good />
							<originalvideofilename />
							<originalaudiofilename />
						</logginginfo>
						<colorinfo>
							<lut />
							<lut1 />
							<asc_sop />
							<asc_sat />
							<lut2 />
						</colorinfo>
						<labels>
							<label2>Rose</label2>
						</labels>
					<file id="file-6">
							</file>
						</clipitem>
					<clipitem id="clipitem-18">
						<masterclipid>masterclip-6</masterclipid>
						<name>P1090167.MOV</name>
						<enabled>TRUE</enabled>
						<duration>10584</duration>
						<rate>
							<timebase>24</timebase>
							<ntsc>FALSE</ntsc>
						</rate>
						<start>14190</start>
						<end>14730</end>
						<in>3210</in>
						<out>3750</out>
						<pproTicksIn>33974640000000</pproTicksIn>
						<pproTicksOut>39690000000000</pproTicksOut>
						<alphatype>none</alphatype>
						<pixelaspectratio>square</pixelaspectratio>
						<anamorphic>FALSE</anamorphic>
						<link>
							<linkclipref>clipitem-20</linkclipref>
							<mediatype>video</mediatype>
							<trackindex>1</trackindex>
							<clipindex>2</clipindex>
						</link>
						<link>
							<linkclipref>clipitem-22</linkclipref>
							<mediatype>audio</mediatype>
							<trackindex>1</trackindex>
							<clipindex>2</clipindex>
							<groupindex>1</groupindex>
						</link>
						<link>
							<linkclipref>clipitem-24</linkclipref>
							<mediatype>audio</mediatype>
							<trackindex>2</trackindex>
							<clipindex>2</clipindex>
							<groupindex>1</groupindex>
						</link>
						<logginginfo>
							<description />
							<scene />
							<shottake />
							<lognote />
							<good />
							<originalvideofilename />
							<originalaudiofilename />
						</logginginfo>
						<colorinfo>
							<lut />
							<lut1 />
							<asc_sop />
							<asc_sat />
							<lut2 />
						</colorinfo>
						<labels>
							<label2>Rose</label2>
						</labels>
					<file id="file-6">
							</file>
						</clipitem>
					<clipitem id="clipitem-19">
						<masterclipid>masterclip-6</masterclipid>
						<name>P1090167.MOV</name>
						<enabled>TRUE</enabled>
						<duration>10584</duration>
						<rate>
							<timebase>24</timebase>
							<ntsc>FALSE</ntsc>
						</rate>
						<start>14790</start>
						<end>14910</end>
						<in>3810</in>
						<out>3930</out>
						<pproTicksIn>40325040000000</pproTicksIn>
						<pproTicksOut>41595120000000</pproTicksOut>
						<alphatype>none</alphatype>
						<pixelaspectratio>square</pixelaspectratio>
						<anamorphic>FALSE</anamorphic>
						<link>
							<linkclipref>clipitem-20</linkclipref>
							<mediatype>video</mediatype>
							<trackindex>1</trackindex>
							<clipindex>2</clipindex>
						</link>
						<link>
							<linkclipref>clipitem-22</linkclipref>
							<mediatype>audio</mediatype>
							<trackindex>1</trackindex>
							<clipindex>2</clipindex>
							<groupindex>1</groupindex>
						</link>
						<link>
							<linkclipref>clipitem-24</linkclipref>
							<mediatype>audio</mediatype>
							<trackindex>2</trackindex>
							<clipindex>2</clipindex>
							<groupindex>1</groupindex>
						</link>
						<logginginfo>
							<description />
							<scene />
							<shottake />
							<lognote />
							<good />
							<originalvideofilename />
							<originalaudiofilename />
						</logginginfo>
						<colorinfo>
							<lut />
							<lut1 />
							<asc_sop />
							<asc_sat />
							<lut2 />
						</colorinfo>
						<labels>
							<label2>Rose</label2>
						</labels>
					<file id="file-6">
							</file>
						</clipitem>
					<clipitem id="clipitem-20">
						<masterclipid>masterclip-6</masterclipid>
						<name>P1090167.MOV</name>
						<enabled>TRUE</enabled>
						<duration>10584</duration>
						<rate>
							<timebase>24</timebase>
							<ntsc>FALSE</ntsc>
						</rate>
						<start>15030</start>
						<end>15570</end>
						<in>4050</in>
						<out>4590</out>
						<pproTicksIn>42865200000000</pproTicksIn>
						<pproTicksOut>48580560000000</pproTicksOut>
						<alphatype>none</alphatype>
						<pixelaspectratio>square</pixelaspectratio>
						<anamorphic>FALSE</anamorphic>
						<link>
							<linkclipref>clipitem-20</linkclipref>
							<mediatype>video</mediatype>
							<trackindex>1</trackindex>
							<clipindex>2</clipindex>
						</link>
						<link>
							<linkclipref>clipitem-22</linkclipref>
							<mediatype>audio</mediatype>
							<trackindex>1</trackindex>
							<clipindex>2</clipindex>
							<groupindex>1</groupindex>
						</link>
						<link>
							<linkclipref>clipitem-24</linkclipref>
							<mediatype>audio</mediatype>
							<trackindex>2</trackindex>
							<clipindex>2</clipindex>
							<groupindex>1</groupindex>
						</link>
						<logginginfo>
							<description />
							<scene />
							<shottake />
							<lognote />
							<good />
							<originalvideofilename />
							<originalaudiofilename />
						</logginginfo>
						<colorinfo>
							<lut />
							<lut1 />
							<asc_sop />
							<asc_sat />
							<lut2 />
						</colorinfo>
						<labels>
							<label2>Rose</label2>
						</labels>
					<file id="file-6">
							</file>
						</clipitem>
					<clipitem id="clipitem-21">
						<masterclipid>masterclip-6</masterclipid>
						<name>P1090167.MOV</name>
						<enabled>TRUE</enabled>
						<duration>10584</duration>
						<rate>
							<timebase>24</timebase>
							<ntsc>FALSE</ntsc>
						</rate>
						<start>15720</start>
						<end>15900</end>
						<in>4740</in>
						<out>4920</out>
						<pproTicksIn>50168160000000</pproTicksIn>
						<pproTicksOut>52073280000000</pproTicksOut>
						<alphatype>none</alphatype>
						<pixelaspectratio>square</pixelaspectratio>
						<anamorphic>FALSE</anamorphic>
						<link>
							<linkclipref>clipitem-20</linkclipref>
							<mediatype>video</mediatype>
							<trackindex>1</trackindex>
							<clipindex>2</clipindex>
						</link>
						<link>
							<linkclipref>clipitem-22</linkclipref>
							<mediatype>audio</mediatype>
							<trackindex>1</trackindex>
							<clipindex>2</clipindex>
							<groupindex>1</groupindex>
						</link>
						<link>
							<linkclipref>clipitem-24</linkclipref>
							<mediatype>audio</mediatype>
							<trackindex>2</trackindex>
							<clipindex>2</clipindex>
							<groupindex>1</groupindex>
						</link>
						<logginginfo>
							<description />
							<scene />
							<shottake />
							<lognote />
							<good />
							<originalvideofilename />
							<originalaudiofilename />
						</logginginfo>
						<colorinfo>
							<lut />
							<lut1 />
							<asc_sop />
							<asc_sat />
							<lut2 />
						</colorinfo>
						<labels>
							<label2>Rose</label2>
						</labels>
					<file id="file-6">
							</file>
						</clipitem>
					<clipitem id="clipitem-22">
						<masterclipid>masterclip-6</masterclipid>
						<name>P1090167.MOV</name>
						<enabled>TRUE</enabled>
						<duration>10584</duration>
						<rate>
							<timebase>24</timebase>
							<ntsc>FALSE</ntsc>
						</rate>
						<start>17370</start>
						<end>17490</end>
						<in>6390</in>
						<out>6510</out>
						<pproTicksIn>67631760000000</pproTicksIn>
						<pproTicksOut>68901840000000</pproTicksOut>
						<alphatype>none</alphatype>
						<pixelaspectratio>square</pixelaspectratio>
						<anamorphic>FALSE</anamorphic>
						<link>
							<linkclipref>clipitem-20</linkclipref>
							<mediatype>video</mediatype>
							<trackindex>1</trackindex>
							<clipindex>2</clipindex>
						</link>
						<link>
							<linkclipref>clipitem-22</linkclipref>
							<mediatype>audio</mediatype>
							<trackindex>1</trackindex>
							<clipindex>2</clipindex>
							<groupindex>1</groupindex>
						</link>
						<link>
							<linkclipref>clipitem-24</linkclipref>
							<mediatype>audio</mediatype>
							<trackindex>2</trackindex>
							<clipindex>2</clipindex>
							<groupindex>1</groupindex>
						</link>
						<logginginfo>
							<description />
							<scene />
							<shottake />
							<lognote />
							<good />
							<originalvideofilename />
							<originalaudiofilename />
						</logginginfo>
						<colorinfo>
							<lut />
							<lut1 />
							<asc_sop />
							<asc_sat />
							<lut2 />
						</colorinfo>
						<labels>
							<label2>Rose</label2>
						</labels>
					<file id="file-6">
							</file>
						</clipitem>
					<clipitem id="clipitem-23">
						<masterclipid>masterclip-6</masterclipid>
						<name>P1090167.MOV</name>
						<enabled>TRUE</enabled>
						<duration>10584</duration>
						<rate>
							<timebase>24</timebase>
							<ntsc>FALSE</ntsc>
						</rate>
						<start>18720</start>
						<end>18840</end>
						<in>7740</in>
						<out>7860</out>
						<pproTicksIn>81920160000000</pproTicksIn>
						<pproTicksOut>83190240000000</pproTicksOut>
						<alphatype>none</alphatype>
						<pixelaspectratio>square</pixelaspectratio>
						<anamorphic>FALSE</anamorphic>
						<link>
							<linkclipref>clipitem-20</linkclipref>
							<mediatype>video</mediatype>
							<trackindex>1</trackindex>
							<clipindex>2</clipindex>
						</link>
						<link>
							<linkclipref>clipitem-22</linkclipref>
							<mediatype>audio</mediatype>
							<trackindex>1</trackindex>
							<clipindex>2</clipindex>
							<groupindex>1</groupindex>
						</link>
						<link>
							<linkclipref>clipitem-24</linkclipref>
							<mediatype>audio</mediatype>
							<trackindex>2</trackindex>
							<clipindex>2</clipindex>
							<groupindex>1</groupindex>
						</link>
						<logginginfo>
							<description />
							<scene />
							<shottake />
							<lognote />
							<good />
							<originalvideofilename />
							<originalaudiofilename />
						</logginginfo>
						<colorinfo>
							<lut />
							<lut1 />
							<asc_sop />
							<asc_sat />
							<lut2 />
						</colorinfo>
						<labels>
							<label2>Rose</label2>
						</labels>
					<file id="file-6">
							</file>
						</clipitem>
					<clipitem id="clipitem-24">
						<masterclipid>masterclip-6</masterclipid>
						<name>P1090167.MOV</name>
						<enabled>TRUE</enabled>
						<duration>10584</duration>
						<rate>
							<timebase>24</timebase>
							<ntsc>FALSE</ntsc>
						</rate>
						<start>20340</start>
						<end>20430</end>
						<in>9360</in>
						<out>9450</out>
						<pproTicksIn>99066240000000</pproTicksIn>
						<pproTicksOut>100018800000000</pproTicksOut>
						<alphatype>none</alphatype>
						<pixelaspectratio>square</pixelaspectratio>
						<anamorphic>FALSE</anamorphic>
						<link>
							<linkclipref>clipitem-20</linkclipref>
							<mediatype>video</mediatype>
							<trackindex>1</trackindex>
							<clipindex>2</clipindex>
						</link>
						<link>
							<linkclipref>clipitem-22</linkclipref>
							<mediatype>audio</mediatype>
							<trackindex>1</trackindex>
							<clipindex>2</clipindex>
							<groupindex>1</groupindex>
						</link>
						<link>
							<linkclipref>clipitem-24</linkclipref>
							<mediatype>audio</mediatype>
							<trackindex>2</trackindex>
							<clipindex>2</clipindex>
							<groupindex>1</groupindex>
						</link>
						<logginginfo>
							<description />
							<scene />
							<shottake />
							<lognote />
							<good />
							<originalvideofilename />
							<originalaudiofilename />
						</logginginfo>
						<colorinfo>
							<lut />
							<lut1 />
							<asc_sop />
							<asc_sat />
							<lut2 />
						</colorinfo>
						<labels>
							<label2>Rose</label2>
						</labels>
					<file id="file-6">
							</file>
						</clipitem>
					<clipitem id="clipitem-25">
						<masterclipid>masterclip-6</masterclipid>
						<name>P1090167.MOV</name>
						<enabled>TRUE</enabled>
						<duration>10584</duration>
						<rate>
							<timebase>24</timebase>
							<ntsc>FALSE</ntsc>
						</rate>
						<start>21060</start>
						<end>21210</end>
						<in>10080</in>
						<out>10230</out>
						<pproTicksIn>106686720000000</pproTicksIn>
						<pproTicksOut>108274320000000</pproTicksOut>
						<alphatype>none</alphatype>
						<pixelaspectratio>square</pixelaspectratio>
						<anamorphic>FALSE</anamorphic>
						<link>
							<linkclipref>clipitem-20</linkclipref>
							<mediatype>video</mediatype>
							<trackindex>1</trackindex>
							<clipindex>2</clipindex>
						</link>
						<link>
							<linkclipref>clipitem-22</linkclipref>
							<mediatype>audio</mediatype>
							<trackindex>1</trackindex>
							<clipindex>2</clipindex>
							<groupindex>1</groupindex>
						</link>
						<link>
							<linkclipref>clipitem-24</linkclipref>
							<mediatype>audio</mediatype>
							<trackindex>2</trackindex>
							<clipindex>2</clipindex>
							<groupindex>1</groupindex>
						</link>
						<logginginfo>
							<description />
							<scene />
							<shottake />
							<lognote />
							<good />
							<originalvideofilename />
							<originalaudiofilename />
						</logginginfo>
						<colorinfo>
							<lut />
							<lut1 />
							<asc_sop />
							<asc_sat />
							<lut2 />
						</colorinfo>
						<labels>
							<label2>Rose</label2>
						</labels>
					<file id="file-6">
							</file>
						</clipitem>
					</track>
				<track MZ.TrackName="GH4" MZ.TrackTargeted="0" TL.SQTrackExpanded="0" TL.SQTrackExpandedHeight="25" TL.SQTrackShy="0">
					<enabled>TRUE</enabled>
					<locked>FALSE</locked>
				</track>
				<track MZ.TrackName="GH5" MZ.TrackTargeted="0" TL.SQTrackExpanded="0" TL.SQTrackExpandedHeight="25" TL.SQTrackShy="0">
					<enabled>TRUE</enabled>
					<locked>FALSE</locked>
				</track>
				<track MZ.TrackName="GH4" MZ.TrackTargeted="0" TL.SQTrackExpanded="0" TL.SQTrackExpandedHeight="25" TL.SQTrackShy="0">
					<enabled>TRUE</enabled>
					<locked>FALSE</locked>
				</track>
			<track MZ.TrackName="GH5" MZ.TrackTargeted="0" TL.SQTrackExpanded="0" TL.SQTrackExpandedHeight="25" TL.SQTrackShy="0">
					<enabled>TRUE</enabled>
					<locked>FALSE</locked>
				</track>
			</video>
			<audio>
				<numOutputChannels>2</numOutputChannels>
				<format>
					<samplecharacteristics>
						<depth>16</depth>
						<samplerate>48000</samplerate>
					</samplecharacteristics>
				</format>
				<outputs>
					<group>
						<index>1</index>
						<numchannels>1</numchannels>
						<downmix>0</downmix>
						<channel>
							<index>1</index>
						</channel>
					</group>
					<group>
						<index>2</index>
						<numchannels>1</numchannels>
						<downmix>0</downmix>
						<channel>
							<index>2</index>
						</channel>
					</group>
				</outputs>
				</audio>
		</media>
		<timecode>
			<rate>
				<timebase>24</timebase>
				<ntsc>FALSE</ntsc>
			</rate>
			<string>00:00:00:00</string>
			<frame>0</frame>
			<displayformat>NDF</displayformat>
		</timecode>
		<labels>
			<label2>Forest</label2>
		</labels>
	</sequence>
</xmeml>