<xmeml version="4">
	<sequence MZ.EditLine="0" MZ.Sequence.AudioTimeDisplayFormat="200" MZ.Sequence.EditingModeGUID="9678af98-a7b7-4bdb-b477-7ac9c8df4a4e" MZ.Sequence.PreviewFrameSizeHeight="1080" MZ.Sequence.PreviewFrameSizeWidth="1728" MZ.Sequence.PreviewRenderingClassID="1297106761" MZ.Sequence.PreviewRenderingPresetCodec="1297107278" MZ.Sequence.PreviewRenderingPresetPath="EncoderPresets\SequencePreview\9678af98-a7b7-4bdb-b477-7ac9c8df4a4e\I-Frame Only MPEG.epr" MZ.Sequence.PreviewUseMaxBitDepth="false" MZ.Sequence.PreviewUseMaxRenderQuality="false" MZ.Sequence.VideoTimeDisplayFormat="104" MZ.WorkInPoint="0" MZ.WorkOutPoint="30431116800000" Monitor.ProgramZoomIn="0" Monitor.ProgramZoomOut="30431116800000" TL.SQAVDividerPosition="0.5" TL.SQAudioVisibleBase="0" TL.SQHeaderWidth="236" TL.SQHideShyTracks="0" TL.SQTimePerPixel="0.24958333333333332" TL.SQVideoVisibleBase="0" TL.SQVisibleBaseTime="0" explodedTracks="true" id="sequence-3">
		<uuid>1a65d1c7-fa91-4f40-9a7d-2665bceecc8a</uuid>
		<duration>3594</duration>
		<rate>
			<timebase>30</timebase>
			<ntsc>FALSE</ntsc>
		</rate>
		<name>Digital-Calibration</name>
		<media>
			<video>
				<format>
					<samplecharacteristics>
						<rate>
							<timebase>30</timebase>
							<ntsc>FALSE</ntsc>
						</rate>
						<codec>
							<name>Apple ProRes 422</name>
							<appspecificdata>
								<appname>Final Cut Pro</appname>
								<appmanufacturer>Apple Inc.</appmanufacturer>
								<appversion>7.0</appversion>
								<data>
									<qtcodec>
										<codecname>Apple ProRes 422</codecname>
										<codectypename>Apple ProRes 422</codectypename>
										<codectypecode>apcn</codectypecode>
										<codecvendorcode>appl</codecvendorcode>
										<spatialquality>1024</spatialquality>
										<temporalquality>0</temporalquality>
										<keyframerate>0</keyframerate>
										<datarate>0</datarate>
									</qtcodec>
								</data>
							</appspecificdata>
						</codec>
						<width>1920</width>
						<height>1200</height>
						<anamorphic>FALSE</anamorphic>
						<pixelaspectratio>square</pixelaspectratio>
						<fielddominance>none</fielddominance>
						<colordepth>24</colordepth>
					</samplecharacteristics>
				</format>
				<track MZ.TrackTargeted="1" TL.SQTrackExpanded="0" TL.SQTrackExpandedHeight="25" TL.SQTrackShy="0">
					<clipitem id="clipitem-7">
						<masterclipid>masterclip-3</masterclipid>
						<name>Digital-Calibration.mp4</name>
						<enabled>TRUE</enabled>
						<duration>3594</duration>
						<rate>
							<timebase>30</timebase>
							<ntsc>FALSE</ntsc>
						</rate>
						<start>0</start>
						<end>3594</end>
						<in>0</in>
						<out>3594</out>
						<pproTicksIn>0</pproTicksIn>
						<pproTicksOut>30431116800000</pproTicksOut>
						<alphatype>none</alphatype>
						<pixelaspectratio>square</pixelaspectratio>
						<anamorphic>FALSE</anamorphic>
						<file id="file-3">
							<name>Digital-Calibration.mp4</name>
							<pathurl>file://localhost/D%3a/Projects/Deep%20Learning/Prokofolio/MotionClipper/DigitalTest/DigitalTest/Digital-Calibration.mp4</pathurl>
							<rate>
								<timebase>30</timebase>
								<ntsc>FALSE</ntsc>
							</rate>
							<duration>3594</duration>
							<timecode>
								<rate>
									<timebase>30</timebase>
									<ntsc>FALSE</ntsc>
								</rate>
								<string>00:00:00:00</string>
								<frame>0</frame>
								<displayformat>NDF</displayformat>
							</timecode>
							<media>
								<video>
									<samplecharacteristics>
										<rate>
											<timebase>30</timebase>
											<ntsc>FALSE</ntsc>
										</rate>
										<width>1920</width>
										<height>1200</height>
										<anamorphic>FALSE</anamorphic>
										<pixelaspectratio>square</pixelaspectratio>
										<fielddominance>none</fielddominance>
									</samplecharacteristics>
								</video>
							</media>
						</file>
						<logginginfo>
							<description />
							<scene />
							<shottake />
							<lognote />
							<good />
							<originalvideofilename />
							<originalaudiofilename />
						</logginginfo>
						<colorinfo>
							<lut />
							<lut1 />
							<asc_sop />
							<asc_sat />
							<lut2 />
						</colorinfo>
						<labels>
							<label2>Violet</label2>
						</labels>
					</clipitem>
					<enabled>TRUE</enabled>
					<locked>FALSE</locked>
				</track>
				<track MZ.TrackTargeted="0" TL.SQTrackExpanded="0" TL.SQTrackExpandedHeight="25" TL.SQTrackShy="0">
					<enabled>TRUE</enabled>
					<locked>FALSE</locked>
				</track>
				<track MZ.TrackTargeted="0" TL.SQTrackExpanded="0" TL.SQTrackExpandedHeight="25" TL.SQTrackShy="0">
					<enabled>TRUE</enabled>
					<locked>FALSE</locked>
				</track>
			</video>
			<audio>
				<numOutputChannels>2</numOutputChannels>
				<format>
					<samplecharacteristics>
						<depth>16</depth>
						<samplerate>48000</samplerate>
					</samplecharacteristics>
				</format>
				<outputs>
					<group>
						<index>1</index>
						<numchannels>1</numchannels>
						<downmix>0</downmix>
						<channel>
							<index>1</index>
						</channel>
					</group>
					<group>
						<index>2</index>
						<numchannels>1</numchannels>
						<downmix>0</downmix>
						<channel>
							<index>2</index>
						</channel>
					</group>
				</outputs>
				<track MZ.TrackTargeted="1" PannerCurrentValue="0.5" PannerIsInverted="true" PannerName="Balance" PannerStartKeyframe="-91445760000000000,0.5,0,0,0,0,0,0" TL.SQTrackAudioKeyframeStyle="0" TL.SQTrackExpanded="0" TL.SQTrackExpandedHeight="25" TL.SQTrackShy="0" currentExplodedTrackIndex="0" premiereTrackType="Stereo" totalExplodedTrackCount="2">
					<enabled>TRUE</enabled>
					<locked>FALSE</locked>
					<outputchannelindex>1</outputchannelindex>
				</track>
				<track MZ.TrackTargeted="1" PannerCurrentValue="0.5" PannerIsInverted="true" PannerName="Balance" PannerStartKeyframe="-91445760000000000,0.5,0,0,0,0,0,0" TL.SQTrackAudioKeyframeStyle="0" TL.SQTrackExpanded="0" TL.SQTrackExpandedHeight="25" TL.SQTrackShy="0" currentExplodedTrackIndex="1" premiereTrackType="Stereo" totalExplodedTrackCount="2">
					<enabled>TRUE</enabled>
					<locked>FALSE</locked>
					<outputchannelindex>2</outputchannelindex>
				</track>
				<track MZ.TrackTargeted="1" PannerCurrentValue="0.5" PannerIsInverted="true" PannerName="Balance" PannerStartKeyframe="-91445760000000000,0.5,0,0,0,0,0,0" TL.SQTrackAudioKeyframeStyle="0" TL.SQTrackExpanded="0" TL.SQTrackExpandedHeight="25" TL.SQTrackShy="0" currentExplodedTrackIndex="0" premiereTrackType="Stereo" totalExplodedTrackCount="2">
					<enabled>TRUE</enabled>
					<locked>FALSE</locked>
					<outputchannelindex>1</outputchannelindex>
				</track>
				<track MZ.TrackTargeted="1" PannerCurrentValue="0.5" PannerIsInverted="true" PannerName="Balance" PannerStartKeyframe="-91445760000000000,0.5,0,0,0,0,0,0" TL.SQTrackAudioKeyframeStyle="0" TL.SQTrackExpanded="0" TL.SQTrackExpandedHeight="25" TL.SQTrackShy="0" currentExplodedTrackIndex="1" premiereTrackType="Stereo" totalExplodedTrackCount="2">
					<enabled>TRUE</enabled>
					<locked>FALSE</locked>
					<outputchannelindex>2</outputchannelindex>
				</track>
				<track MZ.TrackTargeted="1" PannerCurrentValue="0.5" PannerIsInverted="true" PannerName="Balance" PannerStartKeyframe="-91445760000000000,0.5,0,0,0,0,0,0" TL.SQTrackAudioKeyframeStyle="0" TL.SQTrackExpanded="0" TL.SQTrackExpandedHeight="25" TL.SQTrackShy="0" currentExplodedTrackIndex="0" premiereTrackType="Stereo" totalExplodedTrackCount="2">
					<enabled>TRUE</enabled>
					<locked>FALSE</locked>
					<outputchannelindex>1</outputchannelindex>
				</track>
				<track MZ.TrackTargeted="1" PannerCurrentValue="0.5" PannerIsInverted="true" PannerName="Balance" PannerStartKeyframe="-91445760000000000,0.5,0,0,0,0,0,0" TL.SQTrackAudioKeyframeStyle="0" TL.SQTrackExpanded="0" TL.SQTrackExpandedHeight="25" TL.SQTrackShy="0" currentExplodedTrackIndex="1" premiereTrackType="Stereo" totalExplodedTrackCount="2">
					<enabled>TRUE</enabled>
					<locked>FALSE</locked>
					<outputchannelindex>2</outputchannelindex>
				</track>
			</audio>
		</media>
		<timecode>
			<rate>
				<timebase>30</timebase>
				<ntsc>FALSE</ntsc>
			</rate>
			<string>00:00:00:00</string>
			<frame>0</frame>
			<displayformat>NDF</displayformat>
		</timecode>
		<labels>
			<label2>Forest</label2>
		</labels>
	</sequence>
<sequence MZ.EditLine="0" MZ.Sequence.AudioTimeDisplayFormat="200" MZ.Sequence.EditingModeGUID="9678af98-a7b7-4bdb-b477-7ac9c8df4a4e" MZ.Sequence.PreviewFrameSizeHeight="1080" MZ.Sequence.PreviewFrameSizeWidth="1728" MZ.Sequence.PreviewRenderingClassID="1297106761" MZ.Sequence.PreviewRenderingPresetCodec="1297107278" MZ.Sequence.PreviewRenderingPresetPath="EncoderPresets\SequencePreview\9678af98-a7b7-4bdb-b477-7ac9c8df4a4e\I-Frame Only MPEG.epr" MZ.Sequence.PreviewUseMaxBitDepth="false" MZ.Sequence.PreviewUseMaxRenderQuality="false" MZ.Sequence.VideoTimeDisplayFormat="104" MZ.WorkInPoint="0" MZ.WorkOutPoint="30431116800000" Monitor.ProgramZoomIn="0" Monitor.ProgramZoomOut="30431116800000" TL.SQAVDividerPosition="0.5" TL.SQAudioVisibleBase="0" TL.SQHeaderWidth="236" TL.SQHideShyTracks="0" TL.SQTimePerPixel="0.24958333333333332" TL.SQVideoVisibleBase="0" TL.SQVisibleBaseTime="0" explodedTracks="true" id="sequence-3-motion-clipped">
		<uuid>1863fd51-eab2-4b71-9dd2-439e9179101d</uuid>
		<duration>3594</duration>
		<rate>
			<timebase>30</timebase>
			<ntsc>FALSE</ntsc>
		</rate>
		<name>Digital-Calibration - Motion clipped</name>
		<media>
			<video>
				<format>
					<samplecharacteristics>
						<rate>
							<timebase>30</timebase>
							<ntsc>FALSE</ntsc>
						</rate>
						<codec>
							<name>Apple ProRes 422</name>
							<appspecificdata>
								<appname>Final Cut Pro</appname>
								<appmanufacturer>Apple Inc.</appmanufacturer>
								<appversion>7.0</appversion>
								<data>
									<qtcodec>
										<codecname>Apple ProRes 422</codecname>
										<codectypename>Apple ProRes 422</codectypename>
										<codectypecode>apcn</codectypecode>
										<codecvendorcode>appl</codecvendorcode>
										<spatialquality>1024</spatialquality>
										<temporalquality>0</temporalquality>
										<keyframerate>0</keyframerate>
										<datarate>0</datarate>
									</qtcodec>
								</data>
							</appspecificdata>
						</codec>
						<width>1920</width>
						<height>1200</height>
						<anamorphic>FALSE</anamorphic>
						<pixelaspectratio>square</pixelaspectratio>
						<fielddominance>none</fielddominance>
						<colordepth>24</colordepth>
					</samplecharacteristics>
				</format>
				<track MZ.TrackName="GH4" MZ.TrackTargeted="1" TL.SQTrackExpanded="0" TL.SQTrackExpandedHeight="25" TL.SQTrackShy="0">
					<enabled>TRUE</enabled>
					<locked>FALSE</locked>
				<clipitem id="clipitem-2">
						<masterclipid>masterclip-3</masterclipid>
						<name>Digital-Calibration.mp4</name>
						<enabled>TRUE</enabled>
						<duration>3594</duration>
						<rate>
							<timebase>30</timebase>
							<ntsc>FALSE</ntsc>
						</rate>
						<start>6</start>
						<end>24</end>
						<in>6</in>
						<out>24</out>
						<pproTicksIn>63504000000</pproTicksIn>
						<pproTicksOut>254016000000</pproTicksOut>
						<alphatype>none</alphatype>
						<pixelaspectratio>square</pixelaspectratio>
						<anamorphic>FALSE</anamorphic>
						<logginginfo>
							<description />
							<scene />
							<shottake />
							<lognote />
							<good />
							<originalvideofilename />
							<originalaudiofilename />
						</logginginfo>
						<colorinfo>
							<lut />
							<lut1 />
							<asc_sop />
							<asc_sat />
							<lut2 />
						</colorinfo>
						<labels>
							<label2>Violet</label2>
						</labels>
					<file id="file-3">
							<name>Digital-Calibration.mp4</name>
							<pathurl>file://localhost/D%3a/Projects/Deep%20Learning/Prokofolio/MotionClipper/DigitalTest/DigitalTest/Digital-Calibration.mp4</pathurl>
							<rate>
								<timebase>30</timebase>
								<ntsc>FALSE</ntsc>
							</rate>
							<duration>3594</duration>
							<timecode>
								<rate>
									<timebase>30</timebase>
									<ntsc>FALSE</ntsc>
								</rate>
								<string>00:00:00:00</string>
								<frame>0</frame>
								<displayformat>NDF</displayformat>
							</timecode>
							<media>
								<video>
									<samplecharacteristics>
										<rate>
											<timebase>30</timebase>
											<ntsc>FALSE</ntsc>
										</rate>
										<width>1920</width>
										<height>1200</height>
										<anamorphic>FALSE</anamorphic>
										<pixelaspectratio>square</pixelaspectratio>
										<fielddominance>none</fielddominance>
									</samplecharacteristics>
								</video>
							</media>
						</file>
						</clipitem>
					<clipitem id="clipitem-3">
						<masterclipid>masterclip-3</masterclipid>
						<name>Digital-Calibration.mp4</name>
						<enabled>TRUE</enabled>
						<duration>3594</duration>
						<rate>
							<timebase>30</timebase>
							<ntsc>FALSE</ntsc>
						</rate>
						<start>150</start>
						<end>152</end>
						<in>150</in>
						<out>152</out>
						<pproTicksIn>1587600000000</pproTicksIn>
						<pproTicksOut>1608768000000</pproTicksOut>
						<alphatype>none</alphatype>
						<pixelaspectratio>square</pixelaspectratio>
						<anamorphic>FALSE</anamorphic>
						<logginginfo>
							<description />
							<scene />
							<shottake />
							<lognote />
							<good />
							<originalvideofilename />
							<originalaudiofilename />
						</logginginfo>
						<colorinfo>
							<lut />
							<lut1 />
							<asc_sop />
							<asc_sat />
							<lut2 />
						</colorinfo>
						<labels>
							<label2>Violet</label2>
						</labels>
					<file id="file-3">
							</file>
						</clipitem>
					<clipitem id="clipitem-4">
						<masterclipid>masterclip-3</masterclipid>
						<name>Digital-Calibration.mp4</name>
						<enabled>TRUE</enabled>
						<duration>3594</duration>
						<rate>
							<timebase>30</timebase>
							<ntsc>FALSE</ntsc>
						</rate>
						<start>213</start>
						<end>225</end>
						<in>213</in>
						<out>225</out>
						<pproTicksIn>2254392000000</pproTicksIn>
						<pproTicksOut>2381400000000</pproTicksOut>
						<alphatype>none</alphatype>
						<pixelaspectratio>square</pixelaspectratio>
						<anamorphic>FALSE</anamorphic>
						<logginginfo>
							<description />
							<scene />
							<shottake />
							<lognote />
							<good />
							<originalvideofilename />
							<originalaudiofilename />
						</logginginfo>
						<colorinfo>
							<lut />
							<lut1 />
							<asc_sop />
							<asc_sat />
							<lut2 />
						</colorinfo>
						<labels>
							<label2>Violet</label2>
						</labels>
					<file id="file-3">
							</file>
						</clipitem>
					<clipitem id="clipitem-5">
						<masterclipid>masterclip-3</masterclipid>
						<name>Digital-Calibration.mp4</name>
						<enabled>TRUE</enabled>
						<duration>3594</duration>
						<rate>
							<timebase>30</timebase>
							<ntsc>FALSE</ntsc>
						</rate>
						<start>227</start>
						<end>229</end>
						<in>227</in>
						<out>229</out>
						<pproTicksIn>2402568000000</pproTicksIn>
						<pproTicksOut>2423736000000</pproTicksOut>
						<alphatype>none</alphatype>
						<pixelaspectratio>square</pixelaspectratio>
						<anamorphic>FALSE</anamorphic>
						<logginginfo>
							<description />
							<scene />
							<shottake />
							<lognote />
							<good />
							<originalvideofilename />
							<originalaudiofilename />
						</logginginfo>
						<colorinfo>
							<lut />
							<lut1 />
							<asc_sop />
							<asc_sat />
							<lut2 />
						</colorinfo>
						<labels>
							<label2>Violet</label2>
						</labels>
					<file id="file-3">
							</file>
						</clipitem>
					<clipitem id="clipitem-6">
						<masterclipid>masterclip-3</masterclipid>
						<name>Digital-Calibration.mp4</name>
						<enabled>TRUE</enabled>
						<duration>3594</duration>
						<rate>
							<timebase>30</timebase>
							<ntsc>FALSE</ntsc>
						</rate>
						<start>235</start>
						<end>256</end>
						<in>235</in>
						<out>256</out>
						<pproTicksIn>2487240000000</pproTicksIn>
						<pproTicksOut>2709504000000</pproTicksOut>
						<alphatype>none</alphatype>
						<pixelaspectratio>square</pixelaspectratio>
						<anamorphic>FALSE</anamorphic>
						<logginginfo>
							<description />
							<scene />
							<shottake />
							<lognote />
							<good />
							<originalvideofilename />
							<originalaudiofilename />
						</logginginfo>
						<colorinfo>
							<lut />
							<lut1 />
							<asc_sop />
							<asc_sat />
							<lut2 />
						</colorinfo>
						<labels>
							<label2>Violet</label2>
						</labels>
					<file id="file-3">
							</file>
						</clipitem>
					<clipitem id="clipitem-7">
						<masterclipid>masterclip-3</masterclipid>
						<name>Digital-Calibration.mp4</name>
						<enabled>TRUE</enabled>
						<duration>3594</duration>
						<rate>
							<timebase>30</timebase>
							<ntsc>FALSE</ntsc>
						</rate>
						<start>257</start>
						<end>259</end>
						<in>257</in>
						<out>259</out>
						<pproTicksIn>2720088000000</pproTicksIn>
						<pproTicksOut>2741256000000</pproTicksOut>
						<alphatype>none</alphatype>
						<pixelaspectratio>square</pixelaspectratio>
						<anamorphic>FALSE</anamorphic>
						<logginginfo>
							<description />
							<scene />
							<shottake />
							<lognote />
							<good />
							<originalvideofilename />
							<originalaudiofilename />
						</logginginfo>
						<colorinfo>
							<lut />
							<lut1 />
							<asc_sop />
							<asc_sat />
							<lut2 />
						</colorinfo>
						<labels>
							<label2>Violet</label2>
						</labels>
					<file id="file-3">
							</file>
						</clipitem>
					<clipitem id="clipitem-8">
						<masterclipid>masterclip-3</masterclipid>
						<name>Digital-Calibration.mp4</name>
						<enabled>TRUE</enabled>
						<duration>3594</duration>
						<rate>
							<timebase>30</timebase>
							<ntsc>FALSE</ntsc>
						</rate>
						<start>262</start>
						<end>274</end>
						<in>262</in>
						<out>274</out>
						<pproTicksIn>2773008000000</pproTicksIn>
						<pproTicksOut>2900016000000</pproTicksOut>
						<alphatype>none</alphatype>
						<pixelaspectratio>square</pixelaspectratio>
						<anamorphic>FALSE</anamorphic>
						<logginginfo>
							<description />
							<scene />
							<shottake />
							<lognote />
							<good />
							<originalvideofilename />
							<originalaudiofilename />
						</logginginfo>
						<colorinfo>
							<lut />
							<lut1 />
							<asc_sop />
							<asc_sat />
							<lut2 />
						</colorinfo>
						<labels>
							<label2>Violet</label2>
						</labels>
					<file id="file-3">
							</file>
						</clipitem>
					<clipitem id="clipitem-9">
						<masterclipid>masterclip-3</masterclipid>
						<name>Digital-Calibration.mp4</name>
						<enabled>TRUE</enabled>
						<duration>3594</duration>
						<rate>
							<timebase>30</timebase>
							<ntsc>FALSE</ntsc>
						</rate>
						<start>300</start>
						<end>302</end>
						<in>300</in>
						<out>302</out>
						<pproTicksIn>3175200000000</pproTicksIn>
						<pproTicksOut>3196368000000</pproTicksOut>
						<alphatype>none</alphatype>
						<pixelaspectratio>square</pixelaspectratio>
						<anamorphic>FALSE</anamorphic>
						<logginginfo>
							<description />
							<scene />
							<shottake />
							<lognote />
							<good />
							<originalvideofilename />
							<originalaudiofilename />
						</logginginfo>
						<colorinfo>
							<lut />
							<lut1 />
							<asc_sop />
							<asc_sat />
							<lut2 />
						</colorinfo>
						<labels>
							<label2>Violet</label2>
						</labels>
					<file id="file-3">
							</file>
						</clipitem>
					<clipitem id="clipitem-10">
						<masterclipid>masterclip-3</masterclipid>
						<name>Digital-Calibration.mp4</name>
						<enabled>TRUE</enabled>
						<duration>3594</duration>
						<rate>
							<timebase>30</timebase>
							<ntsc>FALSE</ntsc>
						</rate>
						<start>462</start>
						<end>668</end>
						<in>462</in>
						<out>668</out>
						<pproTicksIn>4889808000000</pproTicksIn>
						<pproTicksOut>7070112000000</pproTicksOut>
						<alphatype>none</alphatype>
						<pixelaspectratio>square</pixelaspectratio>
						<anamorphic>FALSE</anamorphic>
						<logginginfo>
							<description />
							<scene />
							<shottake />
							<lognote />
							<good />
							<originalvideofilename />
							<originalaudiofilename />
						</logginginfo>
						<colorinfo>
							<lut />
							<lut1 />
							<asc_sop />
							<asc_sat />
							<lut2 />
						</colorinfo>
						<labels>
							<label2>Violet</label2>
						</labels>
					<file id="file-3">
							</file>
						</clipitem>
					<clipitem id="clipitem-11">
						<masterclipid>masterclip-3</masterclipid>
						<name>Digital-Calibration.mp4</name>
						<enabled>TRUE</enabled>
						<duration>3594</duration>
						<rate>
							<timebase>30</timebase>
							<ntsc>FALSE</ntsc>
						</rate>
						<start>669</start>
						<end>803</end>
						<in>669</in>
						<out>803</out>
						<pproTicksIn>7080696000000</pproTicksIn>
						<pproTicksOut>8498952000000</pproTicksOut>
						<alphatype>none</alphatype>
						<pixelaspectratio>square</pixelaspectratio>
						<anamorphic>FALSE</anamorphic>
						<logginginfo>
							<description />
							<scene />
							<shottake />
							<lognote />
							<good />
							<originalvideofilename />
							<originalaudiofilename />
						</logginginfo>
						<colorinfo>
							<lut />
							<lut1 />
							<asc_sop />
							<asc_sat />
							<lut2 />
						</colorinfo>
						<labels>
							<label2>Violet</label2>
						</labels>
					<file id="file-3">
							</file>
						</clipitem>
					<clipitem id="clipitem-12">
						<masterclipid>masterclip-3</masterclipid>
						<name>Digital-Calibration.mp4</name>
						<enabled>TRUE</enabled>
						<duration>3594</duration>
						<rate>
							<timebase>30</timebase>
							<ntsc>FALSE</ntsc>
						</rate>
						<start>809</start>
						<end>846</end>
						<in>809</in>
						<out>846</out>
						<pproTicksIn>8562456000000</pproTicksIn>
						<pproTicksOut>8954064000000</pproTicksOut>
						<alphatype>none</alphatype>
						<pixelaspectratio>square</pixelaspectratio>
						<anamorphic>FALSE</anamorphic>
						<logginginfo>
							<description />
							<scene />
							<shottake />
							<lognote />
							<good />
							<originalvideofilename />
							<originalaudiofilename />
						</logginginfo>
						<colorinfo>
							<lut />
							<lut1 />
							<asc_sop />
							<asc_sat />
							<lut2 />
						</colorinfo>
						<labels>
							<label2>Violet</label2>
						</labels>
					<file id="file-3">
							</file>
						</clipitem>
					<clipitem id="clipitem-13">
						<masterclipid>masterclip-3</masterclipid>
						<name>Digital-Calibration.mp4</name>
						<enabled>TRUE</enabled>
						<duration>3594</duration>
						<rate>
							<timebase>30</timebase>
							<ntsc>FALSE</ntsc>
						</rate>
						<start>847</start>
						<end>848</end>
						<in>847</in>
						<out>848</out>
						<pproTicksIn>8964648000000</pproTicksIn>
						<pproTicksOut>8975232000000</pproTicksOut>
						<alphatype>none</alphatype>
						<pixelaspectratio>square</pixelaspectratio>
						<anamorphic>FALSE</anamorphic>
						<logginginfo>
							<description />
							<scene />
							<shottake />
							<lognote />
							<good />
							<originalvideofilename />
							<originalaudiofilename />
						</logginginfo>
						<colorinfo>
							<lut />
							<lut1 />
							<asc_sop />
							<asc_sat />
							<lut2 />
						</colorinfo>
						<labels>
							<label2>Violet</label2>
						</labels>
					<file id="file-3">
							</file>
						</clipitem>
					<clipitem id="clipitem-14">
						<masterclipid>masterclip-3</masterclipid>
						<name>Digital-Calibration.mp4</name>
						<enabled>TRUE</enabled>
						<duration>3594</duration>
						<rate>
							<timebase>30</timebase>
							<ntsc>FALSE</ntsc>
						</rate>
						<start>856</start>
						<end>857</end>
						<in>856</in>
						<out>857</out>
						<pproTicksIn>9059904000000</pproTicksIn>
						<pproTicksOut>9070488000000</pproTicksOut>
						<alphatype>none</alphatype>
						<pixelaspectratio>square</pixelaspectratio>
						<anamorphic>FALSE</anamorphic>
						<logginginfo>
							<description />
							<scene />
							<shottake />
							<lognote />
							<good />
							<originalvideofilename />
							<originalaudiofilename />
						</logginginfo>
						<colorinfo>
							<lut />
							<lut1 />
							<asc_sop />
							<asc_sat />
							<lut2 />
						</colorinfo>
						<labels>
							<label2>Violet</label2>
						</labels>
					<file id="file-3">
							</file>
						</clipitem>
					<clipitem id="clipitem-15">
						<masterclipid>masterclip-3</masterclipid>
						<name>Digital-Calibration.mp4</name>
						<enabled>TRUE</enabled>
						<duration>3594</duration>
						<rate>
							<timebase>30</timebase>
							<ntsc>FALSE</ntsc>
						</rate>
						<start>859</start>
						<end>931</end>
						<in>859</in>
						<out>931</out>
						<pproTicksIn>9091656000000</pproTicksIn>
						<pproTicksOut>9853704000000</pproTicksOut>
						<alphatype>none</alphatype>
						<pixelaspectratio>square</pixelaspectratio>
						<anamorphic>FALSE</anamorphic>
						<logginginfo>
							<description />
							<scene />
							<shottake />
							<lognote />
							<good />
							<originalvideofilename />
							<originalaudiofilename />
						</logginginfo>
						<colorinfo>
							<lut />
							<lut1 />
							<asc_sop />
							<asc_sat />
							<lut2 />
						</colorinfo>
						<labels>
							<label2>Violet</label2>
						</labels>
					<file id="file-3">
							</file>
						</clipitem>
					<clipitem id="clipitem-16">
						<masterclipid>masterclip-3</masterclipid>
						<name>Digital-Calibration.mp4</name>
						<enabled>TRUE</enabled>
						<duration>3594</duration>
						<rate>
							<timebase>30</timebase>
							<ntsc>FALSE</ntsc>
						</rate>
						<start>934</start>
						<end>950</end>
						<in>934</in>
						<out>950</out>
						<pproTicksIn>9885456000000</pproTicksIn>
						<pproTicksOut>10054800000000</pproTicksOut>
						<alphatype>none</alphatype>
						<pixelaspectratio>square</pixelaspectratio>
						<anamorphic>FALSE</anamorphic>
						<logginginfo>
							<description />
							<scene />
							<shottake />
							<lognote />
							<good />
							<originalvideofilename />
							<originalaudiofilename />
						</logginginfo>
						<colorinfo>
							<lut />
							<lut1 />
							<asc_sop />
							<asc_sat />
							<lut2 />
						</colorinfo>
						<labels>
							<label2>Violet</label2>
						</labels>
					<file id="file-3">
							</file>
						</clipitem>
					<clipitem id="clipitem-17">
						<masterclipid>masterclip-3</masterclipid>
						<name>Digital-Calibration.mp4</name>
						<enabled>TRUE</enabled>
						<duration>3594</duration>
						<rate>
							<timebase>30</timebase>
							<ntsc>FALSE</ntsc>
						</rate>
						<start>951</start>
						<end>967</end>
						<in>951</in>
						<out>967</out>
						<pproTicksIn>10065384000000</pproTicksIn>
						<pproTicksOut>10234728000000</pproTicksOut>
						<alphatype>none</alphatype>
						<pixelaspectratio>square</pixelaspectratio>
						<anamorphic>FALSE</anamorphic>
						<logginginfo>
							<description />
							<scene />
							<shottake />
							<lognote />
							<good />
							<originalvideofilename />
							<originalaudiofilename />
						</logginginfo>
						<colorinfo>
							<lut />
							<lut1 />
							<asc_sop />
							<asc_sat />
							<lut2 />
						</colorinfo>
						<labels>
							<label2>Violet</label2>
						</labels>
					<file id="file-3">
							</file>
						</clipitem>
					<clipitem id="clipitem-18">
						<masterclipid>masterclip-3</masterclipid>
						<name>Digital-Calibration.mp4</name>
						<enabled>TRUE</enabled>
						<duration>3594</duration>
						<rate>
							<timebase>30</timebase>
							<ntsc>FALSE</ntsc>
						</rate>
						<start>968</start>
						<end>974</end>
						<in>968</in>
						<out>974</out>
						<pproTicksIn>10245312000000</pproTicksIn>
						<pproTicksOut>10308816000000</pproTicksOut>
						<alphatype>none</alphatype>
						<pixelaspectratio>square</pixelaspectratio>
						<anamorphic>FALSE</anamorphic>
						<logginginfo>
							<description />
							<scene />
							<shottake />
							<lognote />
							<good />
							<originalvideofilename />
							<originalaudiofilename />
						</logginginfo>
						<colorinfo>
							<lut />
							<lut1 />
							<asc_sop />
							<asc_sat />
							<lut2 />
						</colorinfo>
						<labels>
							<label2>Violet</label2>
						</labels>
					<file id="file-3">
							</file>
						</clipitem>
					<clipitem id="clipitem-19">
						<masterclipid>masterclip-3</masterclipid>
						<name>Digital-Calibration.mp4</name>
						<enabled>TRUE</enabled>
						<duration>3594</duration>
						<rate>
							<timebase>30</timebase>
							<ntsc>FALSE</ntsc>
						</rate>
						<start>975</start>
						<end>981</end>
						<in>975</in>
						<out>981</out>
						<pproTicksIn>10319400000000</pproTicksIn>
						<pproTicksOut>10382904000000</pproTicksOut>
						<alphatype>none</alphatype>
						<pixelaspectratio>square</pixelaspectratio>
						<anamorphic>FALSE</anamorphic>
						<logginginfo>
							<description />
							<scene />
							<shottake />
							<lognote />
							<good />
							<originalvideofilename />
							<originalaudiofilename />
						</logginginfo>
						<colorinfo>
							<lut />
							<lut1 />
							<asc_sop />
							<asc_sat />
							<lut2 />
						</colorinfo>
						<labels>
							<label2>Violet</label2>
						</labels>
					<file id="file-3">
							</file>
						</clipitem>
					<clipitem id="clipitem-20">
						<masterclipid>masterclip-3</masterclipid>
						<name>Digital-Calibration.mp4</name>
						<enabled>TRUE</enabled>
						<duration>3594</duration>
						<rate>
							<timebase>30</timebase>
							<ntsc>FALSE</ntsc>
						</rate>
						<start>986</start>
						<end>1001</end>
						<in>986</in>
						<out>1001</out>
						<pproTicksIn>10435824000000</pproTicksIn>
						<pproTicksOut>10594584000000</pproTicksOut>
						<alphatype>none</alphatype>
						<pixelaspectratio>square</pixelaspectratio>
						<anamorphic>FALSE</anamorphic>
						<logginginfo>
							<description />
							<scene />
							<shottake />
							<lognote />
							<good />
							<originalvideofilename />
							<originalaudiofilename />
						</logginginfo>
						<colorinfo>
							<lut />
							<lut1 />
							<asc_sop />
							<asc_sat />
							<lut2 />
						</colorinfo>
						<labels>
							<label2>Violet</label2>
						</labels>
					<file id="file-3">
							</file>
						</clipitem>
					<clipitem id="clipitem-21">
						<masterclipid>masterclip-3</masterclipid>
						<name>Digital-Calibration.mp4</name>
						<enabled>TRUE</enabled>
						<duration>3594</duration>
						<rate>
							<timebase>30</timebase>
							<ntsc>FALSE</ntsc>
						</rate>
						<start>1003</start>
						<end>1019</end>
						<in>1003</in>
						<out>1019</out>
						<pproTicksIn>10615752000000</pproTicksIn>
						<pproTicksOut>10785096000000</pproTicksOut>
						<alphatype>none</alphatype>
						<pixelaspectratio>square</pixelaspectratio>
						<anamorphic>FALSE</anamorphic>
						<logginginfo>
							<description />
							<scene />
							<shottake />
							<lognote />
							<good />
							<originalvideofilename />
							<originalaudiofilename />
						</logginginfo>
						<colorinfo>
							<lut />
							<lut1 />
							<asc_sop />
							<asc_sat />
							<lut2 />
						</colorinfo>
						<labels>
							<label2>Violet</label2>
						</labels>
					<file id="file-3">
							</file>
						</clipitem>
					<clipitem id="clipitem-22">
						<masterclipid>masterclip-3</masterclipid>
						<name>Digital-Calibration.mp4</name>
						<enabled>TRUE</enabled>
						<duration>3594</duration>
						<rate>
							<timebase>30</timebase>
							<ntsc>FALSE</ntsc>
						</rate>
						<start>1020</start>
						<end>1053</end>
						<in>1020</in>
						<out>1053</out>
						<pproTicksIn>10795680000000</pproTicksIn>
						<pproTicksOut>11144952000000</pproTicksOut>
						<alphatype>none</alphatype>
						<pixelaspectratio>square</pixelaspectratio>
						<anamorphic>FALSE</anamorphic>
						<logginginfo>
							<description />
							<scene />
							<shottake />
							<lognote />
							<good />
							<originalvideofilename />
							<originalaudiofilename />
						</logginginfo>
						<colorinfo>
							<lut />
							<lut1 />
							<asc_sop />
							<asc_sat />
							<lut2 />
						</colorinfo>
						<labels>
							<label2>Violet</label2>
						</labels>
					<file id="file-3">
							</file>
						</clipitem>
					<clipitem id="clipitem-23">
						<masterclipid>masterclip-3</masterclipid>
						<name>Digital-Calibration.mp4</name>
						<enabled>TRUE</enabled>
						<duration>3594</duration>
						<rate>
							<timebase>30</timebase>
							<ntsc>FALSE</ntsc>
						</rate>
						<start>1054</start>
						<end>1070</end>
						<in>1054</in>
						<out>1070</out>
						<pproTicksIn>11155536000000</pproTicksIn>
						<pproTicksOut>11324880000000</pproTicksOut>
						<alphatype>none</alphatype>
						<pixelaspectratio>square</pixelaspectratio>
						<anamorphic>FALSE</anamorphic>
						<logginginfo>
							<description />
							<scene />
							<shottake />
							<lognote />
							<good />
							<originalvideofilename />
							<originalaudiofilename />
						</logginginfo>
						<colorinfo>
							<lut />
							<lut1 />
							<asc_sop />
							<asc_sat />
							<lut2 />
						</colorinfo>
						<labels>
							<label2>Violet</label2>
						</labels>
					<file id="file-3">
							</file>
						</clipitem>
					<clipitem id="clipitem-24">
						<masterclipid>masterclip-3</masterclipid>
						<name>Digital-Calibration.mp4</name>
						<enabled>TRUE</enabled>
						<duration>3594</duration>
						<rate>
							<timebase>30</timebase>
							<ntsc>FALSE</ntsc>
						</rate>
						<start>1075</start>
						<end>1089</end>
						<in>1075</in>
						<out>1089</out>
						<pproTicksIn>11377800000000</pproTicksIn>
						<pproTicksOut>11525976000000</pproTicksOut>
						<alphatype>none</alphatype>
						<pixelaspectratio>square</pixelaspectratio>
						<anamorphic>FALSE</anamorphic>
						<logginginfo>
							<description />
							<scene />
							<shottake />
							<lognote />
							<good />
							<originalvideofilename />
							<originalaudiofilename />
						</logginginfo>
						<colorinfo>
							<lut />
							<lut1 />
							<asc_sop />
							<asc_sat />
							<lut2 />
						</colorinfo>
						<labels>
							<label2>Violet</label2>
						</labels>
					<file id="file-3">
							</file>
						</clipitem>
					<clipitem id="clipitem-25">
						<masterclipid>masterclip-3</masterclipid>
						<name>Digital-Calibration.mp4</name>
						<enabled>TRUE</enabled>
						<duration>3594</duration>
						<rate>
							<timebase>30</timebase>
							<ntsc>FALSE</ntsc>
						</rate>
						<start>1090</start>
						<end>1093</end>
						<in>1090</in>
						<out>1093</out>
						<pproTicksIn>11536560000000</pproTicksIn>
						<pproTicksOut>11568312000000</pproTicksOut>
						<alphatype>none</alphatype>
						<pixelaspectratio>square</pixelaspectratio>
						<anamorphic>FALSE</anamorphic>
						<logginginfo>
							<description />
							<scene />
							<shottake />
							<lognote />
							<good />
							<originalvideofilename />
							<originalaudiofilename />
						</logginginfo>
						<colorinfo>
							<lut />
							<lut1 />
							<asc_sop />
							<asc_sat />
							<lut2 />
						</colorinfo>
						<labels>
							<label2>Violet</label2>
						</labels>
					<file id="file-3">
							</file>
						</clipitem>
					<clipitem id="clipitem-26">
						<masterclipid>masterclip-3</masterclipid>
						<name>Digital-Calibration.mp4</name>
						<enabled>TRUE</enabled>
						<duration>3594</duration>
						<rate>
							<timebase>30</timebase>
							<ntsc>FALSE</ntsc>
						</rate>
						<start>1148</start>
						<end>1150</end>
						<in>1148</in>
						<out>1150</out>
						<pproTicksIn>12150432000000</pproTicksIn>
						<pproTicksOut>12171600000000</pproTicksOut>
						<alphatype>none</alphatype>
						<pixelaspectratio>square</pixelaspectratio>
						<anamorphic>FALSE</anamorphic>
						<logginginfo>
							<description />
							<scene />
							<shottake />
							<lognote />
							<good />
							<originalvideofilename />
							<originalaudiofilename />
						</logginginfo>
						<colorinfo>
							<lut />
							<lut1 />
							<asc_sop />
							<asc_sat />
							<lut2 />
						</colorinfo>
						<labels>
							<label2>Violet</label2>
						</labels>
					<file id="file-3">
							</file>
						</clipitem>
					<clipitem id="clipitem-27">
						<masterclipid>masterclip-3</masterclipid>
						<name>Digital-Calibration.mp4</name>
						<enabled>TRUE</enabled>
						<duration>3594</duration>
						<rate>
							<timebase>30</timebase>
							<ntsc>FALSE</ntsc>
						</rate>
						<start>1153</start>
						<end>1155</end>
						<in>1153</in>
						<out>1155</out>
						<pproTicksIn>12203352000000</pproTicksIn>
						<pproTicksOut>12224520000000</pproTicksOut>
						<alphatype>none</alphatype>
						<pixelaspectratio>square</pixelaspectratio>
						<anamorphic>FALSE</anamorphic>
						<logginginfo>
							<description />
							<scene />
							<shottake />
							<lognote />
							<good />
							<originalvideofilename />
							<originalaudiofilename />
						</logginginfo>
						<colorinfo>
							<lut />
							<lut1 />
							<asc_sop />
							<asc_sat />
							<lut2 />
						</colorinfo>
						<labels>
							<label2>Violet</label2>
						</labels>
					<file id="file-3">
							</file>
						</clipitem>
					<clipitem id="clipitem-28">
						<masterclipid>masterclip-3</masterclipid>
						<name>Digital-Calibration.mp4</name>
						<enabled>TRUE</enabled>
						<duration>3594</duration>
						<rate>
							<timebase>30</timebase>
							<ntsc>FALSE</ntsc>
						</rate>
						<start>1157</start>
						<end>1159</end>
						<in>1157</in>
						<out>1159</out>
						<pproTicksIn>12245688000000</pproTicksIn>
						<pproTicksOut>12266856000000</pproTicksOut>
						<alphatype>none</alphatype>
						<pixelaspectratio>square</pixelaspectratio>
						<anamorphic>FALSE</anamorphic>
						<logginginfo>
							<description />
							<scene />
							<shottake />
							<lognote />
							<good />
							<originalvideofilename />
							<originalaudiofilename />
						</logginginfo>
						<colorinfo>
							<lut />
							<lut1 />
							<asc_sop />
							<asc_sat />
							<lut2 />
						</colorinfo>
						<labels>
							<label2>Violet</label2>
						</labels>
					<file id="file-3">
							</file>
						</clipitem>
					<clipitem id="clipitem-29">
						<masterclipid>masterclip-3</masterclipid>
						<name>Digital-Calibration.mp4</name>
						<enabled>TRUE</enabled>
						<duration>3594</duration>
						<rate>
							<timebase>30</timebase>
							<ntsc>FALSE</ntsc>
						</rate>
						<start>1161</start>
						<end>1162</end>
						<in>1161</in>
						<out>1162</out>
						<pproTicksIn>12288024000000</pproTicksIn>
						<pproTicksOut>12298608000000</pproTicksOut>
						<alphatype>none</alphatype>
						<pixelaspectratio>square</pixelaspectratio>
						<anamorphic>FALSE</anamorphic>
						<logginginfo>
							<description />
							<scene />
							<shottake />
							<lognote />
							<good />
							<originalvideofilename />
							<originalaudiofilename />
						</logginginfo>
						<colorinfo>
							<lut />
							<lut1 />
							<asc_sop />
							<asc_sat />
							<lut2 />
						</colorinfo>
						<labels>
							<label2>Violet</label2>
						</labels>
					<file id="file-3">
							</file>
						</clipitem>
					<clipitem id="clipitem-30">
						<masterclipid>masterclip-3</masterclipid>
						<name>Digital-Calibration.mp4</name>
						<enabled>TRUE</enabled>
						<duration>3594</duration>
						<rate>
							<timebase>30</timebase>
							<ntsc>FALSE</ntsc>
						</rate>
						<start>1174</start>
						<end>1176</end>
						<in>1174</in>
						<out>1176</out>
						<pproTicksIn>12425616000000</pproTicksIn>
						<pproTicksOut>12446784000000</pproTicksOut>
						<alphatype>none</alphatype>
						<pixelaspectratio>square</pixelaspectratio>
						<anamorphic>FALSE</anamorphic>
						<logginginfo>
							<description />
							<scene />
							<shottake />
							<lognote />
							<good />
							<originalvideofilename />
							<originalaudiofilename />
						</logginginfo>
						<colorinfo>
							<lut />
							<lut1 />
							<asc_sop />
							<asc_sat />
							<lut2 />
						</colorinfo>
						<labels>
							<label2>Violet</label2>
						</labels>
					<file id="file-3">
							</file>
						</clipitem>
					<clipitem id="clipitem-31">
						<masterclipid>masterclip-3</masterclipid>
						<name>Digital-Calibration.mp4</name>
						<enabled>TRUE</enabled>
						<duration>3594</duration>
						<rate>
							<timebase>30</timebase>
							<ntsc>FALSE</ntsc>
						</rate>
						<start>1181</start>
						<end>1182</end>
						<in>1181</in>
						<out>1182</out>
						<pproTicksIn>12499704000000</pproTicksIn>
						<pproTicksOut>12510288000000</pproTicksOut>
						<alphatype>none</alphatype>
						<pixelaspectratio>square</pixelaspectratio>
						<anamorphic>FALSE</anamorphic>
						<logginginfo>
							<description />
							<scene />
							<shottake />
							<lognote />
							<good />
							<originalvideofilename />
							<originalaudiofilename />
						</logginginfo>
						<colorinfo>
							<lut />
							<lut1 />
							<asc_sop />
							<asc_sat />
							<lut2 />
						</colorinfo>
						<labels>
							<label2>Violet</label2>
						</labels>
					<file id="file-3">
							</file>
						</clipitem>
					<clipitem id="clipitem-32">
						<masterclipid>masterclip-3</masterclipid>
						<name>Digital-Calibration.mp4</name>
						<enabled>TRUE</enabled>
						<duration>3594</duration>
						<rate>
							<timebase>30</timebase>
							<ntsc>FALSE</ntsc>
						</rate>
						<start>1199</start>
						<end>1200</end>
						<in>1199</in>
						<out>1200</out>
						<pproTicksIn>12690216000000</pproTicksIn>
						<pproTicksOut>12700800000000</pproTicksOut>
						<alphatype>none</alphatype>
						<pixelaspectratio>square</pixelaspectratio>
						<anamorphic>FALSE</anamorphic>
						<logginginfo>
							<description />
							<scene />
							<shottake />
							<lognote />
							<good />
							<originalvideofilename />
							<originalaudiofilename />
						</logginginfo>
						<colorinfo>
							<lut />
							<lut1 />
							<asc_sop />
							<asc_sat />
							<lut2 />
						</colorinfo>
						<labels>
							<label2>Violet</label2>
						</labels>
					<file id="file-3">
							</file>
						</clipitem>
					<clipitem id="clipitem-33">
						<masterclipid>masterclip-3</masterclipid>
						<name>Digital-Calibration.mp4</name>
						<enabled>TRUE</enabled>
						<duration>3594</duration>
						<rate>
							<timebase>30</timebase>
							<ntsc>FALSE</ntsc>
						</rate>
						<start>1212</start>
						<end>1213</end>
						<in>1212</in>
						<out>1213</out>
						<pproTicksIn>12827808000000</pproTicksIn>
						<pproTicksOut>12838392000000</pproTicksOut>
						<alphatype>none</alphatype>
						<pixelaspectratio>square</pixelaspectratio>
						<anamorphic>FALSE</anamorphic>
						<logginginfo>
							<description />
							<scene />
							<shottake />
							<lognote />
							<good />
							<originalvideofilename />
							<originalaudiofilename />
						</logginginfo>
						<colorinfo>
							<lut />
							<lut1 />
							<asc_sop />
							<asc_sat />
							<lut2 />
						</colorinfo>
						<labels>
							<label2>Violet</label2>
						</labels>
					<file id="file-3">
							</file>
						</clipitem>
					<clipitem id="clipitem-34">
						<masterclipid>masterclip-3</masterclipid>
						<name>Digital-Calibration.mp4</name>
						<enabled>TRUE</enabled>
						<duration>3594</duration>
						<rate>
							<timebase>30</timebase>
							<ntsc>FALSE</ntsc>
						</rate>
						<start>1215</start>
						<end>1216</end>
						<in>1215</in>
						<out>1216</out>
						<pproTicksIn>12859560000000</pproTicksIn>
						<pproTicksOut>12870144000000</pproTicksOut>
						<alphatype>none</alphatype>
						<pixelaspectratio>square</pixelaspectratio>
						<anamorphic>FALSE</anamorphic>
						<logginginfo>
							<description />
							<scene />
							<shottake />
							<lognote />
							<good />
							<originalvideofilename />
							<originalaudiofilename />
						</logginginfo>
						<colorinfo>
							<lut />
							<lut1 />
							<asc_sop />
							<asc_sat />
							<lut2 />
						</colorinfo>
						<labels>
							<label2>Violet</label2>
						</labels>
					<file id="file-3">
							</file>
						</clipitem>
					<clipitem id="clipitem-35">
						<masterclipid>masterclip-3</masterclipid>
						<name>Digital-Calibration.mp4</name>
						<enabled>TRUE</enabled>
						<duration>3594</duration>
						<rate>
							<timebase>30</timebase>
							<ntsc>FALSE</ntsc>
						</rate>
						<start>1217</start>
						<end>1220</end>
						<in>1217</in>
						<out>1220</out>
						<pproTicksIn>12880728000000</pproTicksIn>
						<pproTicksOut>12912480000000</pproTicksOut>
						<alphatype>none</alphatype>
						<pixelaspectratio>square</pixelaspectratio>
						<anamorphic>FALSE</anamorphic>
						<logginginfo>
							<description />
							<scene />
							<shottake />
							<lognote />
							<good />
							<originalvideofilename />
							<originalaudiofilename />
						</logginginfo>
						<colorinfo>
							<lut />
							<lut1 />
							<asc_sop />
							<asc_sat />
							<lut2 />
						</colorinfo>
						<labels>
							<label2>Violet</label2>
						</labels>
					<file id="file-3">
							</file>
						</clipitem>
					<clipitem id="clipitem-36">
						<masterclipid>masterclip-3</masterclipid>
						<name>Digital-Calibration.mp4</name>
						<enabled>TRUE</enabled>
						<duration>3594</duration>
						<rate>
							<timebase>30</timebase>
							<ntsc>FALSE</ntsc>
						</rate>
						<start>1225</start>
						<end>1226</end>
						<in>1225</in>
						<out>1226</out>
						<pproTicksIn>12965400000000</pproTicksIn>
						<pproTicksOut>12975984000000</pproTicksOut>
						<alphatype>none</alphatype>
						<pixelaspectratio>square</pixelaspectratio>
						<anamorphic>FALSE</anamorphic>
						<logginginfo>
							<description />
							<scene />
							<shottake />
							<lognote />
							<good />
							<originalvideofilename />
							<originalaudiofilename />
						</logginginfo>
						<colorinfo>
							<lut />
							<lut1 />
							<asc_sop />
							<asc_sat />
							<lut2 />
						</colorinfo>
						<labels>
							<label2>Violet</label2>
						</labels>
					<file id="file-3">
							</file>
						</clipitem>
					<clipitem id="clipitem-37">
						<masterclipid>masterclip-3</masterclipid>
						<name>Digital-Calibration.mp4</name>
						<enabled>TRUE</enabled>
						<duration>3594</duration>
						<rate>
							<timebase>30</timebase>
							<ntsc>FALSE</ntsc>
						</rate>
						<start>1249</start>
						<end>1251</end>
						<in>1249</in>
						<out>1251</out>
						<pproTicksIn>13219416000000</pproTicksIn>
						<pproTicksOut>13240584000000</pproTicksOut>
						<alphatype>none</alphatype>
						<pixelaspectratio>square</pixelaspectratio>
						<anamorphic>FALSE</anamorphic>
						<logginginfo>
							<description />
							<scene />
							<shottake />
							<lognote />
							<good />
							<originalvideofilename />
							<originalaudiofilename />
						</logginginfo>
						<colorinfo>
							<lut />
							<lut1 />
							<asc_sop />
							<asc_sat />
							<lut2 />
						</colorinfo>
						<labels>
							<label2>Violet</label2>
						</labels>
					<file id="file-3">
							</file>
						</clipitem>
					<clipitem id="clipitem-38">
						<masterclipid>masterclip-3</masterclipid>
						<name>Digital-Calibration.mp4</name>
						<enabled>TRUE</enabled>
						<duration>3594</duration>
						<rate>
							<timebase>30</timebase>
							<ntsc>FALSE</ntsc>
						</rate>
						<start>1259</start>
						<end>1261</end>
						<in>1259</in>
						<out>1261</out>
						<pproTicksIn>13325256000000</pproTicksIn>
						<pproTicksOut>13346424000000</pproTicksOut>
						<alphatype>none</alphatype>
						<pixelaspectratio>square</pixelaspectratio>
						<anamorphic>FALSE</anamorphic>
						<logginginfo>
							<description />
							<scene />
							<shottake />
							<lognote />
							<good />
							<originalvideofilename />
							<originalaudiofilename />
						</logginginfo>
						<colorinfo>
							<lut />
							<lut1 />
							<asc_sop />
							<asc_sat />
							<lut2 />
						</colorinfo>
						<labels>
							<label2>Violet</label2>
						</labels>
					<file id="file-3">
							</file>
						</clipitem>
					<clipitem id="clipitem-39">
						<masterclipid>masterclip-3</masterclipid>
						<name>Digital-Calibration.mp4</name>
						<enabled>TRUE</enabled>
						<duration>3594</duration>
						<rate>
							<timebase>30</timebase>
							<ntsc>FALSE</ntsc>
						</rate>
						<start>1266</start>
						<end>1267</end>
						<in>1266</in>
						<out>1267</out>
						<pproTicksIn>13399344000000</pproTicksIn>
						<pproTicksOut>13409928000000</pproTicksOut>
						<alphatype>none</alphatype>
						<pixelaspectratio>square</pixelaspectratio>
						<anamorphic>FALSE</anamorphic>
						<logginginfo>
							<description />
							<scene />
							<shottake />
							<lognote />
							<good />
							<originalvideofilename />
							<originalaudiofilename />
						</logginginfo>
						<colorinfo>
							<lut />
							<lut1 />
							<asc_sop />
							<asc_sat />
							<lut2 />
						</colorinfo>
						<labels>
							<label2>Violet</label2>
						</labels>
					<file id="file-3">
							</file>
						</clipitem>
					<clipitem id="clipitem-40">
						<masterclipid>masterclip-3</masterclipid>
						<name>Digital-Calibration.mp4</name>
						<enabled>TRUE</enabled>
						<duration>3594</duration>
						<rate>
							<timebase>30</timebase>
							<ntsc>FALSE</ntsc>
						</rate>
						<start>1293</start>
						<end>1294</end>
						<in>1293</in>
						<out>1294</out>
						<pproTicksIn>13685112000000</pproTicksIn>
						<pproTicksOut>13695696000000</pproTicksOut>
						<alphatype>none</alphatype>
						<pixelaspectratio>square</pixelaspectratio>
						<anamorphic>FALSE</anamorphic>
						<logginginfo>
							<description />
							<scene />
							<shottake />
							<lognote />
							<good />
							<originalvideofilename />
							<originalaudiofilename />
						</logginginfo>
						<colorinfo>
							<lut />
							<lut1 />
							<asc_sop />
							<asc_sat />
							<lut2 />
						</colorinfo>
						<labels>
							<label2>Violet</label2>
						</labels>
					<file id="file-3">
							</file>
						</clipitem>
					<clipitem id="clipitem-41">
						<masterclipid>masterclip-3</masterclipid>
						<name>Digital-Calibration.mp4</name>
						<enabled>TRUE</enabled>
						<duration>3594</duration>
						<rate>
							<timebase>30</timebase>
							<ntsc>FALSE</ntsc>
						</rate>
						<start>1317</start>
						<end>1318</end>
						<in>1317</in>
						<out>1318</out>
						<pproTicksIn>13939128000000</pproTicksIn>
						<pproTicksOut>13949712000000</pproTicksOut>
						<alphatype>none</alphatype>
						<pixelaspectratio>square</pixelaspectratio>
						<anamorphic>FALSE</anamorphic>
						<logginginfo>
							<description />
							<scene />
							<shottake />
							<lognote />
							<good />
							<originalvideofilename />
							<originalaudiofilename />
						</logginginfo>
						<colorinfo>
							<lut />
							<lut1 />
							<asc_sop />
							<asc_sat />
							<lut2 />
						</colorinfo>
						<labels>
							<label2>Violet</label2>
						</labels>
					<file id="file-3">
							</file>
						</clipitem>
					<clipitem id="clipitem-42">
						<masterclipid>masterclip-3</masterclipid>
						<name>Digital-Calibration.mp4</name>
						<enabled>TRUE</enabled>
						<duration>3594</duration>
						<rate>
							<timebase>30</timebase>
							<ntsc>FALSE</ntsc>
						</rate>
						<start>1324</start>
						<end>1326</end>
						<in>1324</in>
						<out>1326</out>
						<pproTicksIn>14013216000000</pproTicksIn>
						<pproTicksOut>14034384000000</pproTicksOut>
						<alphatype>none</alphatype>
						<pixelaspectratio>square</pixelaspectratio>
						<anamorphic>FALSE</anamorphic>
						<logginginfo>
							<description />
							<scene />
							<shottake />
							<lognote />
							<good />
							<originalvideofilename />
							<originalaudiofilename />
						</logginginfo>
						<colorinfo>
							<lut />
							<lut1 />
							<asc_sop />
							<asc_sat />
							<lut2 />
						</colorinfo>
						<labels>
							<label2>Violet</label2>
						</labels>
					<file id="file-3">
							</file>
						</clipitem>
					<clipitem id="clipitem-43">
						<masterclipid>masterclip-3</masterclipid>
						<name>Digital-Calibration.mp4</name>
						<enabled>TRUE</enabled>
						<duration>3594</duration>
						<rate>
							<timebase>30</timebase>
							<ntsc>FALSE</ntsc>
						</rate>
						<start>1333</start>
						<end>1335</end>
						<in>1333</in>
						<out>1335</out>
						<pproTicksIn>14108472000000</pproTicksIn>
						<pproTicksOut>14129640000000</pproTicksOut>
						<alphatype>none</alphatype>
						<pixelaspectratio>square</pixelaspectratio>
						<anamorphic>FALSE</anamorphic>
						<logginginfo>
							<description />
							<scene />
							<shottake />
							<lognote />
							<good />
							<originalvideofilename />
							<originalaudiofilename />
						</logginginfo>
						<colorinfo>
							<lut />
							<lut1 />
							<asc_sop />
							<asc_sat />
							<lut2 />
						</colorinfo>
						<labels>
							<label2>Violet</label2>
						</labels>
					<file id="file-3">
							</file>
						</clipitem>
					<clipitem id="clipitem-44">
						<masterclipid>masterclip-3</masterclipid>
						<name>Digital-Calibration.mp4</name>
						<enabled>TRUE</enabled>
						<duration>3594</duration>
						<rate>
							<timebase>30</timebase>
							<ntsc>FALSE</ntsc>
						</rate>
						<start>1348</start>
						<end>1349</end>
						<in>1348</in>
						<out>1349</out>
						<pproTicksIn>14267232000000</pproTicksIn>
						<pproTicksOut>14277816000000</pproTicksOut>
						<alphatype>none</alphatype>
						<pixelaspectratio>square</pixelaspectratio>
						<anamorphic>FALSE</anamorphic>
						<logginginfo>
							<description />
							<scene />
							<shottake />
							<lognote />
							<good />
							<originalvideofilename />
							<originalaudiofilename />
						</logginginfo>
						<colorinfo>
							<lut />
							<lut1 />
							<asc_sop />
							<asc_sat />
							<lut2 />
						</colorinfo>
						<labels>
							<label2>Violet</label2>
						</labels>
					<file id="file-3">
							</file>
						</clipitem>
					<clipitem id="clipitem-45">
						<masterclipid>masterclip-3</masterclipid>
						<name>Digital-Calibration.mp4</name>
						<enabled>TRUE</enabled>
						<duration>3594</duration>
						<rate>
							<timebase>30</timebase>
							<ntsc>FALSE</ntsc>
						</rate>
						<start>1350</start>
						<end>1352</end>
						<in>1350</in>
						<out>1352</out>
						<pproTicksIn>14288400000000</pproTicksIn>
						<pproTicksOut>14309568000000</pproTicksOut>
						<alphatype>none</alphatype>
						<pixelaspectratio>square</pixelaspectratio>
						<anamorphic>FALSE</anamorphic>
						<logginginfo>
							<description />
							<scene />
							<shottake />
							<lognote />
							<good />
							<originalvideofilename />
							<originalaudiofilename />
						</logginginfo>
						<colorinfo>
							<lut />
							<lut1 />
							<asc_sop />
							<asc_sat />
							<lut2 />
						</colorinfo>
						<labels>
							<label2>Violet</label2>
						</labels>
					<file id="file-3">
							</file>
						</clipitem>
					<clipitem id="clipitem-46">
						<masterclipid>masterclip-3</masterclipid>
						<name>Digital-Calibration.mp4</name>
						<enabled>TRUE</enabled>
						<duration>3594</duration>
						<rate>
							<timebase>30</timebase>
							<ntsc>FALSE</ntsc>
						</rate>
						<start>1355</start>
						<end>1356</end>
						<in>1355</in>
						<out>1356</out>
						<pproTicksIn>14341320000000</pproTicksIn>
						<pproTicksOut>14351904000000</pproTicksOut>
						<alphatype>none</alphatype>
						<pixelaspectratio>square</pixelaspectratio>
						<anamorphic>FALSE</anamorphic>
						<logginginfo>
							<description />
							<scene />
							<shottake />
							<lognote />
							<good />
							<originalvideofilename />
							<originalaudiofilename />
						</logginginfo>
						<colorinfo>
							<lut />
							<lut1 />
							<asc_sop />
							<asc_sat />
							<lut2 />
						</colorinfo>
						<labels>
							<label2>Violet</label2>
						</labels>
					<file id="file-3">
							</file>
						</clipitem>
					<clipitem id="clipitem-47">
						<masterclipid>masterclip-3</masterclipid>
						<name>Digital-Calibration.mp4</name>
						<enabled>TRUE</enabled>
						<duration>3594</duration>
						<rate>
							<timebase>30</timebase>
							<ntsc>FALSE</ntsc>
						</rate>
						<start>1357</start>
						<end>1358</end>
						<in>1357</in>
						<out>1358</out>
						<pproTicksIn>14362488000000</pproTicksIn>
						<pproTicksOut>14373072000000</pproTicksOut>
						<alphatype>none</alphatype>
						<pixelaspectratio>square</pixelaspectratio>
						<anamorphic>FALSE</anamorphic>
						<logginginfo>
							<description />
							<scene />
							<shottake />
							<lognote />
							<good />
							<originalvideofilename />
							<originalaudiofilename />
						</logginginfo>
						<colorinfo>
							<lut />
							<lut1 />
							<asc_sop />
							<asc_sat />
							<lut2 />
						</colorinfo>
						<labels>
							<label2>Violet</label2>
						</labels>
					<file id="file-3">
							</file>
						</clipitem>
					<clipitem id="clipitem-48">
						<masterclipid>masterclip-3</masterclipid>
						<name>Digital-Calibration.mp4</name>
						<enabled>TRUE</enabled>
						<duration>3594</duration>
						<rate>
							<timebase>30</timebase>
							<ntsc>FALSE</ntsc>
						</rate>
						<start>1361</start>
						<end>1363</end>
						<in>1361</in>
						<out>1363</out>
						<pproTicksIn>14404824000000</pproTicksIn>
						<pproTicksOut>14425992000000</pproTicksOut>
						<alphatype>none</alphatype>
						<pixelaspectratio>square</pixelaspectratio>
						<anamorphic>FALSE</anamorphic>
						<logginginfo>
							<description />
							<scene />
							<shottake />
							<lognote />
							<good />
							<originalvideofilename />
							<originalaudiofilename />
						</logginginfo>
						<colorinfo>
							<lut />
							<lut1 />
							<asc_sop />
							<asc_sat />
							<lut2 />
						</colorinfo>
						<labels>
							<label2>Violet</label2>
						</labels>
					<file id="file-3">
							</file>
						</clipitem>
					<clipitem id="clipitem-49">
						<masterclipid>masterclip-3</masterclipid>
						<name>Digital-Calibration.mp4</name>
						<enabled>TRUE</enabled>
						<duration>3594</duration>
						<rate>
							<timebase>30</timebase>
							<ntsc>FALSE</ntsc>
						</rate>
						<start>1422</start>
						<end>1423</end>
						<in>1422</in>
						<out>1423</out>
						<pproTicksIn>15050448000000</pproTicksIn>
						<pproTicksOut>15061032000000</pproTicksOut>
						<alphatype>none</alphatype>
						<pixelaspectratio>square</pixelaspectratio>
						<anamorphic>FALSE</anamorphic>
						<logginginfo>
							<description />
							<scene />
							<shottake />
							<lognote />
							<good />
							<originalvideofilename />
							<originalaudiofilename />
						</logginginfo>
						<colorinfo>
							<lut />
							<lut1 />
							<asc_sop />
							<asc_sat />
							<lut2 />
						</colorinfo>
						<labels>
							<label2>Violet</label2>
						</labels>
					<file id="file-3">
							</file>
						</clipitem>
					<clipitem id="clipitem-50">
						<masterclipid>masterclip-3</masterclipid>
						<name>Digital-Calibration.mp4</name>
						<enabled>TRUE</enabled>
						<duration>3594</duration>
						<rate>
							<timebase>30</timebase>
							<ntsc>FALSE</ntsc>
						</rate>
						<start>1425</start>
						<end>1428</end>
						<in>1425</in>
						<out>1428</out>
						<pproTicksIn>15082200000000</pproTicksIn>
						<pproTicksOut>15113952000000</pproTicksOut>
						<alphatype>none</alphatype>
						<pixelaspectratio>square</pixelaspectratio>
						<anamorphic>FALSE</anamorphic>
						<logginginfo>
							<description />
							<scene />
							<shottake />
							<lognote />
							<good />
							<originalvideofilename />
							<originalaudiofilename />
						</logginginfo>
						<colorinfo>
							<lut />
							<lut1 />
							<asc_sop />
							<asc_sat />
							<lut2 />
						</colorinfo>
						<labels>
							<label2>Violet</label2>
						</labels>
					<file id="file-3">
							</file>
						</clipitem>
					<clipitem id="clipitem-51">
						<masterclipid>masterclip-3</masterclipid>
						<name>Digital-Calibration.mp4</name>
						<enabled>TRUE</enabled>
						<duration>3594</duration>
						<rate>
							<timebase>30</timebase>
							<ntsc>FALSE</ntsc>
						</rate>
						<start>1514</start>
						<end>1768</end>
						<in>1514</in>
						<out>1768</out>
						<pproTicksIn>16024176000000</pproTicksIn>
						<pproTicksOut>18712512000000</pproTicksOut>
						<alphatype>none</alphatype>
						<pixelaspectratio>square</pixelaspectratio>
						<anamorphic>FALSE</anamorphic>
						<logginginfo>
							<description />
							<scene />
							<shottake />
							<lognote />
							<good />
							<originalvideofilename />
							<originalaudiofilename />
						</logginginfo>
						<colorinfo>
							<lut />
							<lut1 />
							<asc_sop />
							<asc_sat />
							<lut2 />
						</colorinfo>
						<labels>
							<label2>Violet</label2>
						</labels>
					<file id="file-3">
							</file>
						</clipitem>
					<clipitem id="clipitem-52">
						<masterclipid>masterclip-3</masterclipid>
						<name>Digital-Calibration.mp4</name>
						<enabled>TRUE</enabled>
						<duration>3594</duration>
						<rate>
							<timebase>30</timebase>
							<ntsc>FALSE</ntsc>
						</rate>
						<start>1789</start>
						<end>1796</end>
						<in>1789</in>
						<out>1796</out>
						<pproTicksIn>18934776000000</pproTicksIn>
						<pproTicksOut>19008864000000</pproTicksOut>
						<alphatype>none</alphatype>
						<pixelaspectratio>square</pixelaspectratio>
						<anamorphic>FALSE</anamorphic>
						<logginginfo>
							<description />
							<scene />
							<shottake />
							<lognote />
							<good />
							<originalvideofilename />
							<originalaudiofilename />
						</logginginfo>
						<colorinfo>
							<lut />
							<lut1 />
							<asc_sop />
							<asc_sat />
							<lut2 />
						</colorinfo>
						<labels>
							<label2>Violet</label2>
						</labels>
					<file id="file-3">
							</file>
						</clipitem>
					<clipitem id="clipitem-53">
						<masterclipid>masterclip-3</masterclipid>
						<name>Digital-Calibration.mp4</name>
						<enabled>TRUE</enabled>
						<duration>3594</duration>
						<rate>
							<timebase>30</timebase>
							<ntsc>FALSE</ntsc>
						</rate>
						<start>1800</start>
						<end>1801</end>
						<in>1800</in>
						<out>1801</out>
						<pproTicksIn>19051200000000</pproTicksIn>
						<pproTicksOut>19061784000000</pproTicksOut>
						<alphatype>none</alphatype>
						<pixelaspectratio>square</pixelaspectratio>
						<anamorphic>FALSE</anamorphic>
						<logginginfo>
							<description />
							<scene />
							<shottake />
							<lognote />
							<good />
							<originalvideofilename />
							<originalaudiofilename />
						</logginginfo>
						<colorinfo>
							<lut />
							<lut1 />
							<asc_sop />
							<asc_sat />
							<lut2 />
						</colorinfo>
						<labels>
							<label2>Violet</label2>
						</labels>
					<file id="file-3">
							</file>
						</clipitem>
					<clipitem id="clipitem-54">
						<masterclipid>masterclip-3</masterclipid>
						<name>Digital-Calibration.mp4</name>
						<enabled>TRUE</enabled>
						<duration>3594</duration>
						<rate>
							<timebase>30</timebase>
							<ntsc>FALSE</ntsc>
						</rate>
						<start>1950</start>
						<end>1980</end>
						<in>1950</in>
						<out>1980</out>
						<pproTicksIn>20638800000000</pproTicksIn>
						<pproTicksOut>20956320000000</pproTicksOut>
						<alphatype>none</alphatype>
						<pixelaspectratio>square</pixelaspectratio>
						<anamorphic>FALSE</anamorphic>
						<logginginfo>
							<description />
							<scene />
							<shottake />
							<lognote />
							<good />
							<originalvideofilename />
							<originalaudiofilename />
						</logginginfo>
						<colorinfo>
							<lut />
							<lut1 />
							<asc_sop />
							<asc_sat />
							<lut2 />
						</colorinfo>
						<labels>
							<label2>Violet</label2>
						</labels>
					<file id="file-3">
							</file>
						</clipitem>
					<clipitem id="clipitem-55">
						<masterclipid>masterclip-3</masterclipid>
						<name>Digital-Calibration.mp4</name>
						<enabled>TRUE</enabled>
						<duration>3594</duration>
						<rate>
							<timebase>30</timebase>
							<ntsc>FALSE</ntsc>
						</rate>
						<start>1986</start>
						<end>1999</end>
						<in>1986</in>
						<out>1999</out>
						<pproTicksIn>21019824000000</pproTicksIn>
						<pproTicksOut>21157416000000</pproTicksOut>
						<alphatype>none</alphatype>
						<pixelaspectratio>square</pixelaspectratio>
						<anamorphic>FALSE</anamorphic>
						<logginginfo>
							<description />
							<scene />
							<shottake />
							<lognote />
							<good />
							<originalvideofilename />
							<originalaudiofilename />
						</logginginfo>
						<colorinfo>
							<lut />
							<lut1 />
							<asc_sop />
							<asc_sat />
							<lut2 />
						</colorinfo>
						<labels>
							<label2>Violet</label2>
						</labels>
					<file id="file-3">
							</file>
						</clipitem>
					<clipitem id="clipitem-56">
						<masterclipid>masterclip-3</masterclipid>
						<name>Digital-Calibration.mp4</name>
						<enabled>TRUE</enabled>
						<duration>3594</duration>
						<rate>
							<timebase>30</timebase>
							<ntsc>FALSE</ntsc>
						</rate>
						<start>2003</start>
						<end>2104</end>
						<in>2003</in>
						<out>2104</out>
						<pproTicksIn>21199752000000</pproTicksIn>
						<pproTicksOut>22268736000000</pproTicksOut>
						<alphatype>none</alphatype>
						<pixelaspectratio>square</pixelaspectratio>
						<anamorphic>FALSE</anamorphic>
						<logginginfo>
							<description />
							<scene />
							<shottake />
							<lognote />
							<good />
							<originalvideofilename />
							<originalaudiofilename />
						</logginginfo>
						<colorinfo>
							<lut />
							<lut1 />
							<asc_sop />
							<asc_sat />
							<lut2 />
						</colorinfo>
						<labels>
							<label2>Violet</label2>
						</labels>
					<file id="file-3">
							</file>
						</clipitem>
					<clipitem id="clipitem-57">
						<masterclipid>masterclip-3</masterclipid>
						<name>Digital-Calibration.mp4</name>
						<enabled>TRUE</enabled>
						<duration>3594</duration>
						<rate>
							<timebase>30</timebase>
							<ntsc>FALSE</ntsc>
						</rate>
						<start>2107</start>
						<end>2185</end>
						<in>2107</in>
						<out>2185</out>
						<pproTicksIn>22300488000000</pproTicksIn>
						<pproTicksOut>23126040000000</pproTicksOut>
						<alphatype>none</alphatype>
						<pixelaspectratio>square</pixelaspectratio>
						<anamorphic>FALSE</anamorphic>
						<logginginfo>
							<description />
							<scene />
							<shottake />
							<lognote />
							<good />
							<originalvideofilename />
							<originalaudiofilename />
						</logginginfo>
						<colorinfo>
							<lut />
							<lut1 />
							<asc_sop />
							<asc_sat />
							<lut2 />
						</colorinfo>
						<labels>
							<label2>Violet</label2>
						</labels>
					<file id="file-3">
							</file>
						</clipitem>
					<clipitem id="clipitem-58">
						<masterclipid>masterclip-3</masterclipid>
						<name>Digital-Calibration.mp4</name>
						<enabled>TRUE</enabled>
						<duration>3594</duration>
						<rate>
							<timebase>30</timebase>
							<ntsc>FALSE</ntsc>
						</rate>
						<start>2226</start>
						<end>2401</end>
						<in>2226</in>
						<out>2401</out>
						<pproTicksIn>23559984000000</pproTicksIn>
						<pproTicksOut>25412184000000</pproTicksOut>
						<alphatype>none</alphatype>
						<pixelaspectratio>square</pixelaspectratio>
						<anamorphic>FALSE</anamorphic>
						<logginginfo>
							<description />
							<scene />
							<shottake />
							<lognote />
							<good />
							<originalvideofilename />
							<originalaudiofilename />
						</logginginfo>
						<colorinfo>
							<lut />
							<lut1 />
							<asc_sop />
							<asc_sat />
							<lut2 />
						</colorinfo>
						<labels>
							<label2>Violet</label2>
						</labels>
					<file id="file-3">
							</file>
						</clipitem>
					<clipitem id="clipitem-59">
						<masterclipid>masterclip-3</masterclipid>
						<name>Digital-Calibration.mp4</name>
						<enabled>TRUE</enabled>
						<duration>3594</duration>
						<rate>
							<timebase>30</timebase>
							<ntsc>FALSE</ntsc>
						</rate>
						<start>2445</start>
						<end>2707</end>
						<in>2445</in>
						<out>2707</out>
						<pproTicksIn>25877880000000</pproTicksIn>
						<pproTicksOut>28650888000000</pproTicksOut>
						<alphatype>none</alphatype>
						<pixelaspectratio>square</pixelaspectratio>
						<anamorphic>FALSE</anamorphic>
						<logginginfo>
							<description />
							<scene />
							<shottake />
							<lognote />
							<good />
							<originalvideofilename />
							<originalaudiofilename />
						</logginginfo>
						<colorinfo>
							<lut />
							<lut1 />
							<asc_sop />
							<asc_sat />
							<lut2 />
						</colorinfo>
						<labels>
							<label2>Violet</label2>
						</labels>
					<file id="file-3">
							</file>
						</clipitem>
					<clipitem id="clipitem-60">
						<masterclipid>masterclip-3</masterclipid>
						<name>Digital-Calibration.mp4</name>
						<enabled>TRUE</enabled>
						<duration>3594</duration>
						<rate>
							<timebase>30</timebase>
							<ntsc>FALSE</ntsc>
						</rate>
						<start>2744</start>
						<end>2795</end>
						<in>2744</in>
						<out>2795</out>
						<pproTicksIn>29042496000000</pproTicksIn>
						<pproTicksOut>29582280000000</pproTicksOut>
						<alphatype>none</alphatype>
						<pixelaspectratio>square</pixelaspectratio>
						<anamorphic>FALSE</anamorphic>
						<logginginfo>
							<description />
							<scene />
							<shottake />
							<lognote />
							<good />
							<originalvideofilename />
							<originalaudiofilename />
						</logginginfo>
						<colorinfo>
							<lut />
							<lut1 />
							<asc_sop />
							<asc_sat />
							<lut2 />
						</colorinfo>
						<labels>
							<label2>Violet</label2>
						</labels>
					<file id="file-3">
							</file>
						</clipitem>
					<clipitem id="clipitem-61">
						<masterclipid>masterclip-3</masterclipid>
						<name>Digital-Calibration.mp4</name>
						<enabled>TRUE</enabled>
						<duration>3594</duration>
						<rate>
							<timebase>30</timebase>
							<ntsc>FALSE</ntsc>
						</rate>
						<start>2796</start>
						<end>2800</end>
						<in>2796</in>
						<out>2800</out>
						<pproTicksIn>29592864000000</pproTicksIn>
						<pproTicksOut>29635200000000</pproTicksOut>
						<alphatype>none</alphatype>
						<pixelaspectratio>square</pixelaspectratio>
						<anamorphic>FALSE</anamorphic>
						<logginginfo>
							<description />
							<scene />
							<shottake />
							<lognote />
							<good />
							<originalvideofilename />
							<originalaudiofilename />
						</logginginfo>
						<colorinfo>
							<lut />
							<lut1 />
							<asc_sop />
							<asc_sat />
							<lut2 />
						</colorinfo>
						<labels>
							<label2>Violet</label2>
						</labels>
					<file id="file-3">
							</file>
						</clipitem>
					<clipitem id="clipitem-62">
						<masterclipid>masterclip-3</masterclipid>
						<name>Digital-Calibration.mp4</name>
						<enabled>TRUE</enabled>
						<duration>3594</duration>
						<rate>
							<timebase>30</timebase>
							<ntsc>FALSE</ntsc>
						</rate>
						<start>2825</start>
						<end>2829</end>
						<in>2825</in>
						<out>2829</out>
						<pproTicksIn>29899800000000</pproTicksIn>
						<pproTicksOut>29942136000000</pproTicksOut>
						<alphatype>none</alphatype>
						<pixelaspectratio>square</pixelaspectratio>
						<anamorphic>FALSE</anamorphic>
						<logginginfo>
							<description />
							<scene />
							<shottake />
							<lognote />
							<good />
							<originalvideofilename />
							<originalaudiofilename />
						</logginginfo>
						<colorinfo>
							<lut />
							<lut1 />
							<asc_sop />
							<asc_sat />
							<lut2 />
						</colorinfo>
						<labels>
							<label2>Violet</label2>
						</labels>
					<file id="file-3">
							</file>
						</clipitem>
					<clipitem id="clipitem-63">
						<masterclipid>masterclip-3</masterclipid>
						<name>Digital-Calibration.mp4</name>
						<enabled>TRUE</enabled>
						<duration>3594</duration>
						<rate>
							<timebase>30</timebase>
							<ntsc>FALSE</ntsc>
						</rate>
						<start>2842</start>
						<end>2843</end>
						<in>2842</in>
						<out>2843</out>
						<pproTicksIn>30079728000000</pproTicksIn>
						<pproTicksOut>30090312000000</pproTicksOut>
						<alphatype>none</alphatype>
						<pixelaspectratio>square</pixelaspectratio>
						<anamorphic>FALSE</anamorphic>
						<logginginfo>
							<description />
							<scene />
							<shottake />
							<lognote />
							<good />
							<originalvideofilename />
							<originalaudiofilename />
						</logginginfo>
						<colorinfo>
							<lut />
							<lut1 />
							<asc_sop />
							<asc_sat />
							<lut2 />
						</colorinfo>
						<labels>
							<label2>Violet</label2>
						</labels>
					<file id="file-3">
							</file>
						</clipitem>
					<clipitem id="clipitem-64">
						<masterclipid>masterclip-3</masterclipid>
						<name>Digital-Calibration.mp4</name>
						<enabled>TRUE</enabled>
						<duration>3594</duration>
						<rate>
							<timebase>30</timebase>
							<ntsc>FALSE</ntsc>
						</rate>
						<start>2844</start>
						<end>2849</end>
						<in>2844</in>
						<out>2849</out>
						<pproTicksIn>30100896000000</pproTicksIn>
						<pproTicksOut>30153816000000</pproTicksOut>
						<alphatype>none</alphatype>
						<pixelaspectratio>square</pixelaspectratio>
						<anamorphic>FALSE</anamorphic>
						<logginginfo>
							<description />
							<scene />
							<shottake />
							<lognote />
							<good />
							<originalvideofilename />
							<originalaudiofilename />
						</logginginfo>
						<colorinfo>
							<lut />
							<lut1 />
							<asc_sop />
							<asc_sat />
							<lut2 />
						</colorinfo>
						<labels>
							<label2>Violet</label2>
						</labels>
					<file id="file-3">
							</file>
						</clipitem>
					<clipitem id="clipitem-65">
						<masterclipid>masterclip-3</masterclipid>
						<name>Digital-Calibration.mp4</name>
						<enabled>TRUE</enabled>
						<duration>3594</duration>
						<rate>
							<timebase>30</timebase>
							<ntsc>FALSE</ntsc>
						</rate>
						<start>2850</start>
						<end>2851</end>
						<in>2850</in>
						<out>2851</out>
						<pproTicksIn>30164400000000</pproTicksIn>
						<pproTicksOut>30174984000000</pproTicksOut>
						<alphatype>none</alphatype>
						<pixelaspectratio>square</pixelaspectratio>
						<anamorphic>FALSE</anamorphic>
						<logginginfo>
							<description />
							<scene />
							<shottake />
							<lognote />
							<good />
							<originalvideofilename />
							<originalaudiofilename />
						</logginginfo>
						<colorinfo>
							<lut />
							<lut1 />
							<asc_sop />
							<asc_sat />
							<lut2 />
						</colorinfo>
						<labels>
							<label2>Violet</label2>
						</labels>
					<file id="file-3">
							</file>
						</clipitem>
					<clipitem id="clipitem-66">
						<masterclipid>masterclip-3</masterclipid>
						<name>Digital-Calibration.mp4</name>
						<enabled>TRUE</enabled>
						<duration>3594</duration>
						<rate>
							<timebase>30</timebase>
							<ntsc>FALSE</ntsc>
						</rate>
						<start>2856</start>
						<end>2864</end>
						<in>2856</in>
						<out>2864</out>
						<pproTicksIn>30227904000000</pproTicksIn>
						<pproTicksOut>30312576000000</pproTicksOut>
						<alphatype>none</alphatype>
						<pixelaspectratio>square</pixelaspectratio>
						<anamorphic>FALSE</anamorphic>
						<logginginfo>
							<description />
							<scene />
							<shottake />
							<lognote />
							<good />
							<originalvideofilename />
							<originalaudiofilename />
						</logginginfo>
						<colorinfo>
							<lut />
							<lut1 />
							<asc_sop />
							<asc_sat />
							<lut2 />
						</colorinfo>
						<labels>
							<label2>Violet</label2>
						</labels>
					<file id="file-3">
							</file>
						</clipitem>
					<clipitem id="clipitem-67">
						<masterclipid>masterclip-3</masterclipid>
						<name>Digital-Calibration.mp4</name>
						<enabled>TRUE</enabled>
						<duration>3594</duration>
						<rate>
							<timebase>30</timebase>
							<ntsc>FALSE</ntsc>
						</rate>
						<start>2866</start>
						<end>2870</end>
						<in>2866</in>
						<out>2870</out>
						<pproTicksIn>30333744000000</pproTicksIn>
						<pproTicksOut>30376080000000</pproTicksOut>
						<alphatype>none</alphatype>
						<pixelaspectratio>square</pixelaspectratio>
						<anamorphic>FALSE</anamorphic>
						<logginginfo>
							<description />
							<scene />
							<shottake />
							<lognote />
							<good />
							<originalvideofilename />
							<originalaudiofilename />
						</logginginfo>
						<colorinfo>
							<lut />
							<lut1 />
							<asc_sop />
							<asc_sat />
							<lut2 />
						</colorinfo>
						<labels>
							<label2>Violet</label2>
						</labels>
					<file id="file-3">
							</file>
						</clipitem>
					<clipitem id="clipitem-68">
						<masterclipid>masterclip-3</masterclipid>
						<name>Digital-Calibration.mp4</name>
						<enabled>TRUE</enabled>
						<duration>3594</duration>
						<rate>
							<timebase>30</timebase>
							<ntsc>FALSE</ntsc>
						</rate>
						<start>2872</start>
						<end>2878</end>
						<in>2872</in>
						<out>2878</out>
						<pproTicksIn>30397248000000</pproTicksIn>
						<pproTicksOut>30460752000000</pproTicksOut>
						<alphatype>none</alphatype>
						<pixelaspectratio>square</pixelaspectratio>
						<anamorphic>FALSE</anamorphic>
						<logginginfo>
							<description />
							<scene />
							<shottake />
							<lognote />
							<good />
							<originalvideofilename />
							<originalaudiofilename />
						</logginginfo>
						<colorinfo>
							<lut />
							<lut1 />
							<asc_sop />
							<asc_sat />
							<lut2 />
						</colorinfo>
						<labels>
							<label2>Violet</label2>
						</labels>
					<file id="file-3">
							</file>
						</clipitem>
					<clipitem id="clipitem-69">
						<masterclipid>masterclip-3</masterclipid>
						<name>Digital-Calibration.mp4</name>
						<enabled>TRUE</enabled>
						<duration>3594</duration>
						<rate>
							<timebase>30</timebase>
							<ntsc>FALSE</ntsc>
						</rate>
						<start>2881</start>
						<end>2886</end>
						<in>2881</in>
						<out>2886</out>
						<pproTicksIn>30492504000000</pproTicksIn>
						<pproTicksOut>30545424000000</pproTicksOut>
						<alphatype>none</alphatype>
						<pixelaspectratio>square</pixelaspectratio>
						<anamorphic>FALSE</anamorphic>
						<logginginfo>
							<description />
							<scene />
							<shottake />
							<lognote />
							<good />
							<originalvideofilename />
							<originalaudiofilename />
						</logginginfo>
						<colorinfo>
							<lut />
							<lut1 />
							<asc_sop />
							<asc_sat />
							<lut2 />
						</colorinfo>
						<labels>
							<label2>Violet</label2>
						</labels>
					<file id="file-3">
							</file>
						</clipitem>
					<clipitem id="clipitem-70">
						<masterclipid>masterclip-3</masterclipid>
						<name>Digital-Calibration.mp4</name>
						<enabled>TRUE</enabled>
						<duration>3594</duration>
						<rate>
							<timebase>30</timebase>
							<ntsc>FALSE</ntsc>
						</rate>
						<start>2889</start>
						<end>2894</end>
						<in>2889</in>
						<out>2894</out>
						<pproTicksIn>30577176000000</pproTicksIn>
						<pproTicksOut>30630096000000</pproTicksOut>
						<alphatype>none</alphatype>
						<pixelaspectratio>square</pixelaspectratio>
						<anamorphic>FALSE</anamorphic>
						<logginginfo>
							<description />
							<scene />
							<shottake />
							<lognote />
							<good />
							<originalvideofilename />
							<originalaudiofilename />
						</logginginfo>
						<colorinfo>
							<lut />
							<lut1 />
							<asc_sop />
							<asc_sat />
							<lut2 />
						</colorinfo>
						<labels>
							<label2>Violet</label2>
						</labels>
					<file id="file-3">
							</file>
						</clipitem>
					<clipitem id="clipitem-71">
						<masterclipid>masterclip-3</masterclipid>
						<name>Digital-Calibration.mp4</name>
						<enabled>TRUE</enabled>
						<duration>3594</duration>
						<rate>
							<timebase>30</timebase>
							<ntsc>FALSE</ntsc>
						</rate>
						<start>2900</start>
						<end>2903</end>
						<in>2900</in>
						<out>2903</out>
						<pproTicksIn>30693600000000</pproTicksIn>
						<pproTicksOut>30725352000000</pproTicksOut>
						<alphatype>none</alphatype>
						<pixelaspectratio>square</pixelaspectratio>
						<anamorphic>FALSE</anamorphic>
						<logginginfo>
							<description />
							<scene />
							<shottake />
							<lognote />
							<good />
							<originalvideofilename />
							<originalaudiofilename />
						</logginginfo>
						<colorinfo>
							<lut />
							<lut1 />
							<asc_sop />
							<asc_sat />
							<lut2 />
						</colorinfo>
						<labels>
							<label2>Violet</label2>
						</labels>
					<file id="file-3">
							</file>
						</clipitem>
					<clipitem id="clipitem-72">
						<masterclipid>masterclip-3</masterclipid>
						<name>Digital-Calibration.mp4</name>
						<enabled>TRUE</enabled>
						<duration>3594</duration>
						<rate>
							<timebase>30</timebase>
							<ntsc>FALSE</ntsc>
						</rate>
						<start>2910</start>
						<end>2912</end>
						<in>2910</in>
						<out>2912</out>
						<pproTicksIn>30799440000000</pproTicksIn>
						<pproTicksOut>30820608000000</pproTicksOut>
						<alphatype>none</alphatype>
						<pixelaspectratio>square</pixelaspectratio>
						<anamorphic>FALSE</anamorphic>
						<logginginfo>
							<description />
							<scene />
							<shottake />
							<lognote />
							<good />
							<originalvideofilename />
							<originalaudiofilename />
						</logginginfo>
						<colorinfo>
							<lut />
							<lut1 />
							<asc_sop />
							<asc_sat />
							<lut2 />
						</colorinfo>
						<labels>
							<label2>Violet</label2>
						</labels>
					<file id="file-3">
							</file>
						</clipitem>
					<clipitem id="clipitem-73">
						<masterclipid>masterclip-3</masterclipid>
						<name>Digital-Calibration.mp4</name>
						<enabled>TRUE</enabled>
						<duration>3594</duration>
						<rate>
							<timebase>30</timebase>
							<ntsc>FALSE</ntsc>
						</rate>
						<start>2915</start>
						<end>2921</end>
						<in>2915</in>
						<out>2921</out>
						<pproTicksIn>30852360000000</pproTicksIn>
						<pproTicksOut>30915864000000</pproTicksOut>
						<alphatype>none</alphatype>
						<pixelaspectratio>square</pixelaspectratio>
						<anamorphic>FALSE</anamorphic>
						<logginginfo>
							<description />
							<scene />
							<shottake />
							<lognote />
							<good />
							<originalvideofilename />
							<originalaudiofilename />
						</logginginfo>
						<colorinfo>
							<lut />
							<lut1 />
							<asc_sop />
							<asc_sat />
							<lut2 />
						</colorinfo>
						<labels>
							<label2>Violet</label2>
						</labels>
					<file id="file-3">
							</file>
						</clipitem>
					<clipitem id="clipitem-74">
						<masterclipid>masterclip-3</masterclipid>
						<name>Digital-Calibration.mp4</name>
						<enabled>TRUE</enabled>
						<duration>3594</duration>
						<rate>
							<timebase>30</timebase>
							<ntsc>FALSE</ntsc>
						</rate>
						<start>2928</start>
						<end>2931</end>
						<in>2928</in>
						<out>2931</out>
						<pproTicksIn>30989952000000</pproTicksIn>
						<pproTicksOut>31021704000000</pproTicksOut>
						<alphatype>none</alphatype>
						<pixelaspectratio>square</pixelaspectratio>
						<anamorphic>FALSE</anamorphic>
						<logginginfo>
							<description />
							<scene />
							<shottake />
							<lognote />
							<good />
							<originalvideofilename />
							<originalaudiofilename />
						</logginginfo>
						<colorinfo>
							<lut />
							<lut1 />
							<asc_sop />
							<asc_sat />
							<lut2 />
						</colorinfo>
						<labels>
							<label2>Violet</label2>
						</labels>
					<file id="file-3">
							</file>
						</clipitem>
					<clipitem id="clipitem-75">
						<masterclipid>masterclip-3</masterclipid>
						<name>Digital-Calibration.mp4</name>
						<enabled>TRUE</enabled>
						<duration>3594</duration>
						<rate>
							<timebase>30</timebase>
							<ntsc>FALSE</ntsc>
						</rate>
						<start>2938</start>
						<end>2941</end>
						<in>2938</in>
						<out>2941</out>
						<pproTicksIn>31095792000000</pproTicksIn>
						<pproTicksOut>31127544000000</pproTicksOut>
						<alphatype>none</alphatype>
						<pixelaspectratio>square</pixelaspectratio>
						<anamorphic>FALSE</anamorphic>
						<logginginfo>
							<description />
							<scene />
							<shottake />
							<lognote />
							<good />
							<originalvideofilename />
							<originalaudiofilename />
						</logginginfo>
						<colorinfo>
							<lut />
							<lut1 />
							<asc_sop />
							<asc_sat />
							<lut2 />
						</colorinfo>
						<labels>
							<label2>Violet</label2>
						</labels>
					<file id="file-3">
							</file>
						</clipitem>
					<clipitem id="clipitem-76">
						<masterclipid>masterclip-3</masterclipid>
						<name>Digital-Calibration.mp4</name>
						<enabled>TRUE</enabled>
						<duration>3594</duration>
						<rate>
							<timebase>30</timebase>
							<ntsc>FALSE</ntsc>
						</rate>
						<start>2950</start>
						<end>2953</end>
						<in>2950</in>
						<out>2953</out>
						<pproTicksIn>31222800000000</pproTicksIn>
						<pproTicksOut>31254552000000</pproTicksOut>
						<alphatype>none</alphatype>
						<pixelaspectratio>square</pixelaspectratio>
						<anamorphic>FALSE</anamorphic>
						<logginginfo>
							<description />
							<scene />
							<shottake />
							<lognote />
							<good />
							<originalvideofilename />
							<originalaudiofilename />
						</logginginfo>
						<colorinfo>
							<lut />
							<lut1 />
							<asc_sop />
							<asc_sat />
							<lut2 />
						</colorinfo>
						<labels>
							<label2>Violet</label2>
						</labels>
					<file id="file-3">
							</file>
						</clipitem>
					<clipitem id="clipitem-77">
						<masterclipid>masterclip-3</masterclipid>
						<name>Digital-Calibration.mp4</name>
						<enabled>TRUE</enabled>
						<duration>3594</duration>
						<rate>
							<timebase>30</timebase>
							<ntsc>FALSE</ntsc>
						</rate>
						<start>2984</start>
						<end>2990</end>
						<in>2984</in>
						<out>2990</out>
						<pproTicksIn>31582656000000</pproTicksIn>
						<pproTicksOut>31646160000000</pproTicksOut>
						<alphatype>none</alphatype>
						<pixelaspectratio>square</pixelaspectratio>
						<anamorphic>FALSE</anamorphic>
						<logginginfo>
							<description />
							<scene />
							<shottake />
							<lognote />
							<good />
							<originalvideofilename />
							<originalaudiofilename />
						</logginginfo>
						<colorinfo>
							<lut />
							<lut1 />
							<asc_sop />
							<asc_sat />
							<lut2 />
						</colorinfo>
						<labels>
							<label2>Violet</label2>
						</labels>
					<file id="file-3">
							</file>
						</clipitem>
					<clipitem id="clipitem-78">
						<masterclipid>masterclip-3</masterclipid>
						<name>Digital-Calibration.mp4</name>
						<enabled>TRUE</enabled>
						<duration>3594</duration>
						<rate>
							<timebase>30</timebase>
							<ntsc>FALSE</ntsc>
						</rate>
						<start>3020</start>
						<end>3023</end>
						<in>3020</in>
						<out>3023</out>
						<pproTicksIn>31963680000000</pproTicksIn>
						<pproTicksOut>31995432000000</pproTicksOut>
						<alphatype>none</alphatype>
						<pixelaspectratio>square</pixelaspectratio>
						<anamorphic>FALSE</anamorphic>
						<logginginfo>
							<description />
							<scene />
							<shottake />
							<lognote />
							<good />
							<originalvideofilename />
							<originalaudiofilename />
						</logginginfo>
						<colorinfo>
							<lut />
							<lut1 />
							<asc_sop />
							<asc_sat />
							<lut2 />
						</colorinfo>
						<labels>
							<label2>Violet</label2>
						</labels>
					<file id="file-3">
							</file>
						</clipitem>
					<clipitem id="clipitem-79">
						<masterclipid>masterclip-3</masterclipid>
						<name>Digital-Calibration.mp4</name>
						<enabled>TRUE</enabled>
						<duration>3594</duration>
						<rate>
							<timebase>30</timebase>
							<ntsc>FALSE</ntsc>
						</rate>
						<start>3042</start>
						<end>3047</end>
						<in>3042</in>
						<out>3047</out>
						<pproTicksIn>32196528000000</pproTicksIn>
						<pproTicksOut>32249448000000</pproTicksOut>
						<alphatype>none</alphatype>
						<pixelaspectratio>square</pixelaspectratio>
						<anamorphic>FALSE</anamorphic>
						<logginginfo>
							<description />
							<scene />
							<shottake />
							<lognote />
							<good />
							<originalvideofilename />
							<originalaudiofilename />
						</logginginfo>
						<colorinfo>
							<lut />
							<lut1 />
							<asc_sop />
							<asc_sat />
							<lut2 />
						</colorinfo>
						<labels>
							<label2>Violet</label2>
						</labels>
					<file id="file-3">
							</file>
						</clipitem>
					<clipitem id="clipitem-80">
						<masterclipid>masterclip-3</masterclipid>
						<name>Digital-Calibration.mp4</name>
						<enabled>TRUE</enabled>
						<duration>3594</duration>
						<rate>
							<timebase>30</timebase>
							<ntsc>FALSE</ntsc>
						</rate>
						<start>3051</start>
						<end>3054</end>
						<in>3051</in>
						<out>3054</out>
						<pproTicksIn>32291784000000</pproTicksIn>
						<pproTicksOut>32323536000000</pproTicksOut>
						<alphatype>none</alphatype>
						<pixelaspectratio>square</pixelaspectratio>
						<anamorphic>FALSE</anamorphic>
						<logginginfo>
							<description />
							<scene />
							<shottake />
							<lognote />
							<good />
							<originalvideofilename />
							<originalaudiofilename />
						</logginginfo>
						<colorinfo>
							<lut />
							<lut1 />
							<asc_sop />
							<asc_sat />
							<lut2 />
						</colorinfo>
						<labels>
							<label2>Violet</label2>
						</labels>
					<file id="file-3">
							</file>
						</clipitem>
					<clipitem id="clipitem-81">
						<masterclipid>masterclip-3</masterclipid>
						<name>Digital-Calibration.mp4</name>
						<enabled>TRUE</enabled>
						<duration>3594</duration>
						<rate>
							<timebase>30</timebase>
							<ntsc>FALSE</ntsc>
						</rate>
						<start>3103</start>
						<end>3113</end>
						<in>3103</in>
						<out>3113</out>
						<pproTicksIn>32842152000000</pproTicksIn>
						<pproTicksOut>32947992000000</pproTicksOut>
						<alphatype>none</alphatype>
						<pixelaspectratio>square</pixelaspectratio>
						<anamorphic>FALSE</anamorphic>
						<logginginfo>
							<description />
							<scene />
							<shottake />
							<lognote />
							<good />
							<originalvideofilename />
							<originalaudiofilename />
						</logginginfo>
						<colorinfo>
							<lut />
							<lut1 />
							<asc_sop />
							<asc_sat />
							<lut2 />
						</colorinfo>
						<labels>
							<label2>Violet</label2>
						</labels>
					<file id="file-3">
							</file>
						</clipitem>
					<clipitem id="clipitem-82">
						<masterclipid>masterclip-3</masterclipid>
						<name>Digital-Calibration.mp4</name>
						<enabled>TRUE</enabled>
						<duration>3594</duration>
						<rate>
							<timebase>30</timebase>
							<ntsc>FALSE</ntsc>
						</rate>
						<start>3129</start>
						<end>3137</end>
						<in>3129</in>
						<out>3137</out>
						<pproTicksIn>33117336000000</pproTicksIn>
						<pproTicksOut>33202008000000</pproTicksOut>
						<alphatype>none</alphatype>
						<pixelaspectratio>square</pixelaspectratio>
						<anamorphic>FALSE</anamorphic>
						<logginginfo>
							<description />
							<scene />
							<shottake />
							<lognote />
							<good />
							<originalvideofilename />
							<originalaudiofilename />
						</logginginfo>
						<colorinfo>
							<lut />
							<lut1 />
							<asc_sop />
							<asc_sat />
							<lut2 />
						</colorinfo>
						<labels>
							<label2>Violet</label2>
						</labels>
					<file id="file-3">
							</file>
						</clipitem>
					<clipitem id="clipitem-83">
						<masterclipid>masterclip-3</masterclipid>
						<name>Digital-Calibration.mp4</name>
						<enabled>TRUE</enabled>
						<duration>3594</duration>
						<rate>
							<timebase>30</timebase>
							<ntsc>FALSE</ntsc>
						</rate>
						<start>3142</start>
						<end>3154</end>
						<in>3142</in>
						<out>3154</out>
						<pproTicksIn>33254928000000</pproTicksIn>
						<pproTicksOut>33381936000000</pproTicksOut>
						<alphatype>none</alphatype>
						<pixelaspectratio>square</pixelaspectratio>
						<anamorphic>FALSE</anamorphic>
						<logginginfo>
							<description />
							<scene />
							<shottake />
							<lognote />
							<good />
							<originalvideofilename />
							<originalaudiofilename />
						</logginginfo>
						<colorinfo>
							<lut />
							<lut1 />
							<asc_sop />
							<asc_sat />
							<lut2 />
						</colorinfo>
						<labels>
							<label2>Violet</label2>
						</labels>
					<file id="file-3">
							</file>
						</clipitem>
					<clipitem id="clipitem-84">
						<masterclipid>masterclip-3</masterclipid>
						<name>Digital-Calibration.mp4</name>
						<enabled>TRUE</enabled>
						<duration>3594</duration>
						<rate>
							<timebase>30</timebase>
							<ntsc>FALSE</ntsc>
						</rate>
						<start>3165</start>
						<end>3176</end>
						<in>3165</in>
						<out>3176</out>
						<pproTicksIn>33498360000000</pproTicksIn>
						<pproTicksOut>33614784000000</pproTicksOut>
						<alphatype>none</alphatype>
						<pixelaspectratio>square</pixelaspectratio>
						<anamorphic>FALSE</anamorphic>
						<logginginfo>
							<description />
							<scene />
							<shottake />
							<lognote />
							<good />
							<originalvideofilename />
							<originalaudiofilename />
						</logginginfo>
						<colorinfo>
							<lut />
							<lut1 />
							<asc_sop />
							<asc_sat />
							<lut2 />
						</colorinfo>
						<labels>
							<label2>Violet</label2>
						</labels>
					<file id="file-3">
							</file>
						</clipitem>
					<clipitem id="clipitem-85">
						<masterclipid>masterclip-3</masterclipid>
						<name>Digital-Calibration.mp4</name>
						<enabled>TRUE</enabled>
						<duration>3594</duration>
						<rate>
							<timebase>30</timebase>
							<ntsc>FALSE</ntsc>
						</rate>
						<start>3182</start>
						<end>3203</end>
						<in>3182</in>
						<out>3203</out>
						<pproTicksIn>33678288000000</pproTicksIn>
						<pproTicksOut>33900552000000</pproTicksOut>
						<alphatype>none</alphatype>
						<pixelaspectratio>square</pixelaspectratio>
						<anamorphic>FALSE</anamorphic>
						<logginginfo>
							<description />
							<scene />
							<shottake />
							<lognote />
							<good />
							<originalvideofilename />
							<originalaudiofilename />
						</logginginfo>
						<colorinfo>
							<lut />
							<lut1 />
							<asc_sop />
							<asc_sat />
							<lut2 />
						</colorinfo>
						<labels>
							<label2>Violet</label2>
						</labels>
					<file id="file-3">
							</file>
						</clipitem>
					<clipitem id="clipitem-86">
						<masterclipid>masterclip-3</masterclipid>
						<name>Digital-Calibration.mp4</name>
						<enabled>TRUE</enabled>
						<duration>3594</duration>
						<rate>
							<timebase>30</timebase>
							<ntsc>FALSE</ntsc>
						</rate>
						<start>3223</start>
						<end>3226</end>
						<in>3223</in>
						<out>3226</out>
						<pproTicksIn>34112232000000</pproTicksIn>
						<pproTicksOut>34143984000000</pproTicksOut>
						<alphatype>none</alphatype>
						<pixelaspectratio>square</pixelaspectratio>
						<anamorphic>FALSE</anamorphic>
						<logginginfo>
							<description />
							<scene />
							<shottake />
							<lognote />
							<good />
							<originalvideofilename />
							<originalaudiofilename />
						</logginginfo>
						<colorinfo>
							<lut />
							<lut1 />
							<asc_sop />
							<asc_sat />
							<lut2 />
						</colorinfo>
						<labels>
							<label2>Violet</label2>
						</labels>
					<file id="file-3">
							</file>
						</clipitem>
					<clipitem id="clipitem-87">
						<masterclipid>masterclip-3</masterclipid>
						<name>Digital-Calibration.mp4</name>
						<enabled>TRUE</enabled>
						<duration>3594</duration>
						<rate>
							<timebase>30</timebase>
							<ntsc>FALSE</ntsc>
						</rate>
						<start>3246</start>
						<end>3251</end>
						<in>3246</in>
						<out>3251</out>
						<pproTicksIn>34355664000000</pproTicksIn>
						<pproTicksOut>34408584000000</pproTicksOut>
						<alphatype>none</alphatype>
						<pixelaspectratio>square</pixelaspectratio>
						<anamorphic>FALSE</anamorphic>
						<logginginfo>
							<description />
							<scene />
							<shottake />
							<lognote />
							<good />
							<originalvideofilename />
							<originalaudiofilename />
						</logginginfo>
						<colorinfo>
							<lut />
							<lut1 />
							<asc_sop />
							<asc_sat />
							<lut2 />
						</colorinfo>
						<labels>
							<label2>Violet</label2>
						</labels>
					<file id="file-3">
							</file>
						</clipitem>
					<clipitem id="clipitem-88">
						<masterclipid>masterclip-3</masterclipid>
						<name>Digital-Calibration.mp4</name>
						<enabled>TRUE</enabled>
						<duration>3594</duration>
						<rate>
							<timebase>30</timebase>
							<ntsc>FALSE</ntsc>
						</rate>
						<start>3260</start>
						<end>3264</end>
						<in>3260</in>
						<out>3264</out>
						<pproTicksIn>34503840000000</pproTicksIn>
						<pproTicksOut>34546176000000</pproTicksOut>
						<alphatype>none</alphatype>
						<pixelaspectratio>square</pixelaspectratio>
						<anamorphic>FALSE</anamorphic>
						<logginginfo>
							<description />
							<scene />
							<shottake />
							<lognote />
							<good />
							<originalvideofilename />
							<originalaudiofilename />
						</logginginfo>
						<colorinfo>
							<lut />
							<lut1 />
							<asc_sop />
							<asc_sat />
							<lut2 />
						</colorinfo>
						<labels>
							<label2>Violet</label2>
						</labels>
					<file id="file-3">
							</file>
						</clipitem>
					<clipitem id="clipitem-89">
						<masterclipid>masterclip-3</masterclipid>
						<name>Digital-Calibration.mp4</name>
						<enabled>TRUE</enabled>
						<duration>3594</duration>
						<rate>
							<timebase>30</timebase>
							<ntsc>FALSE</ntsc>
						</rate>
						<start>3276</start>
						<end>3279</end>
						<in>3276</in>
						<out>3279</out>
						<pproTicksIn>34673184000000</pproTicksIn>
						<pproTicksOut>34704936000000</pproTicksOut>
						<alphatype>none</alphatype>
						<pixelaspectratio>square</pixelaspectratio>
						<anamorphic>FALSE</anamorphic>
						<logginginfo>
							<description />
							<scene />
							<shottake />
							<lognote />
							<good />
							<originalvideofilename />
							<originalaudiofilename />
						</logginginfo>
						<colorinfo>
							<lut />
							<lut1 />
							<asc_sop />
							<asc_sat />
							<lut2 />
						</colorinfo>
						<labels>
							<label2>Violet</label2>
						</labels>
					<file id="file-3">
							</file>
						</clipitem>
					<clipitem id="clipitem-90">
						<masterclipid>masterclip-3</masterclipid>
						<name>Digital-Calibration.mp4</name>
						<enabled>TRUE</enabled>
						<duration>3594</duration>
						<rate>
							<timebase>30</timebase>
							<ntsc>FALSE</ntsc>
						</rate>
						<start>3295</start>
						<end>3299</end>
						<in>3295</in>
						<out>3299</out>
						<pproTicksIn>34874280000000</pproTicksIn>
						<pproTicksOut>34916616000000</pproTicksOut>
						<alphatype>none</alphatype>
						<pixelaspectratio>square</pixelaspectratio>
						<anamorphic>FALSE</anamorphic>
						<logginginfo>
							<description />
							<scene />
							<shottake />
							<lognote />
							<good />
							<originalvideofilename />
							<originalaudiofilename />
						</logginginfo>
						<colorinfo>
							<lut />
							<lut1 />
							<asc_sop />
							<asc_sat />
							<lut2 />
						</colorinfo>
						<labels>
							<label2>Violet</label2>
						</labels>
					<file id="file-3">
							</file>
						</clipitem>
					<clipitem id="clipitem-91">
						<masterclipid>masterclip-3</masterclipid>
						<name>Digital-Calibration.mp4</name>
						<enabled>TRUE</enabled>
						<duration>3594</duration>
						<rate>
							<timebase>30</timebase>
							<ntsc>FALSE</ntsc>
						</rate>
						<start>3309</start>
						<end>3312</end>
						<in>3309</in>
						<out>3312</out>
						<pproTicksIn>35022456000000</pproTicksIn>
						<pproTicksOut>35054208000000</pproTicksOut>
						<alphatype>none</alphatype>
						<pixelaspectratio>square</pixelaspectratio>
						<anamorphic>FALSE</anamorphic>
						<logginginfo>
							<description />
							<scene />
							<shottake />
							<lognote />
							<good />
							<originalvideofilename />
							<originalaudiofilename />
						</logginginfo>
						<colorinfo>
							<lut />
							<lut1 />
							<asc_sop />
							<asc_sat />
							<lut2 />
						</colorinfo>
						<labels>
							<label2>Violet</label2>
						</labels>
					<file id="file-3">
							</file>
						</clipitem>
					<clipitem id="clipitem-92">
						<masterclipid>masterclip-3</masterclipid>
						<name>Digital-Calibration.mp4</name>
						<enabled>TRUE</enabled>
						<duration>3594</duration>
						<rate>
							<timebase>30</timebase>
							<ntsc>FALSE</ntsc>
						</rate>
						<start>3326</start>
						<end>3327</end>
						<in>3326</in>
						<out>3327</out>
						<pproTicksIn>35202384000000</pproTicksIn>
						<pproTicksOut>35212968000000</pproTicksOut>
						<alphatype>none</alphatype>
						<pixelaspectratio>square</pixelaspectratio>
						<anamorphic>FALSE</anamorphic>
						<logginginfo>
							<description />
							<scene />
							<shottake />
							<lognote />
							<good />
							<originalvideofilename />
							<originalaudiofilename />
						</logginginfo>
						<colorinfo>
							<lut />
							<lut1 />
							<asc_sop />
							<asc_sat />
							<lut2 />
						</colorinfo>
						<labels>
							<label2>Violet</label2>
						</labels>
					<file id="file-3">
							</file>
						</clipitem>
					<clipitem id="clipitem-93">
						<masterclipid>masterclip-3</masterclipid>
						<name>Digital-Calibration.mp4</name>
						<enabled>TRUE</enabled>
						<duration>3594</duration>
						<rate>
							<timebase>30</timebase>
							<ntsc>FALSE</ntsc>
						</rate>
						<start>3342</start>
						<end>3346</end>
						<in>3342</in>
						<out>3346</out>
						<pproTicksIn>35371728000000</pproTicksIn>
						<pproTicksOut>35414064000000</pproTicksOut>
						<alphatype>none</alphatype>
						<pixelaspectratio>square</pixelaspectratio>
						<anamorphic>FALSE</anamorphic>
						<logginginfo>
							<description />
							<scene />
							<shottake />
							<lognote />
							<good />
							<originalvideofilename />
							<originalaudiofilename />
						</logginginfo>
						<colorinfo>
							<lut />
							<lut1 />
							<asc_sop />
							<asc_sat />
							<lut2 />
						</colorinfo>
						<labels>
							<label2>Violet</label2>
						</labels>
					<file id="file-3">
							</file>
						</clipitem>
					<clipitem id="clipitem-94">
						<masterclipid>masterclip-3</masterclipid>
						<name>Digital-Calibration.mp4</name>
						<enabled>TRUE</enabled>
						<duration>3594</duration>
						<rate>
							<timebase>30</timebase>
							<ntsc>FALSE</ntsc>
						</rate>
						<start>3347</start>
						<end>3348</end>
						<in>3347</in>
						<out>3348</out>
						<pproTicksIn>35424648000000</pproTicksIn>
						<pproTicksOut>35435232000000</pproTicksOut>
						<alphatype>none</alphatype>
						<pixelaspectratio>square</pixelaspectratio>
						<anamorphic>FALSE</anamorphic>
						<logginginfo>
							<description />
							<scene />
							<shottake />
							<lognote />
							<good />
							<originalvideofilename />
							<originalaudiofilename />
						</logginginfo>
						<colorinfo>
							<lut />
							<lut1 />
							<asc_sop />
							<asc_sat />
							<lut2 />
						</colorinfo>
						<labels>
							<label2>Violet</label2>
						</labels>
					<file id="file-3">
							</file>
						</clipitem>
					<clipitem id="clipitem-95">
						<masterclipid>masterclip-3</masterclipid>
						<name>Digital-Calibration.mp4</name>
						<enabled>TRUE</enabled>
						<duration>3594</duration>
						<rate>
							<timebase>30</timebase>
							<ntsc>FALSE</ntsc>
						</rate>
						<start>3365</start>
						<end>3374</end>
						<in>3365</in>
						<out>3374</out>
						<pproTicksIn>35615160000000</pproTicksIn>
						<pproTicksOut>35710416000000</pproTicksOut>
						<alphatype>none</alphatype>
						<pixelaspectratio>square</pixelaspectratio>
						<anamorphic>FALSE</anamorphic>
						<logginginfo>
							<description />
							<scene />
							<shottake />
							<lognote />
							<good />
							<originalvideofilename />
							<originalaudiofilename />
						</logginginfo>
						<colorinfo>
							<lut />
							<lut1 />
							<asc_sop />
							<asc_sat />
							<lut2 />
						</colorinfo>
						<labels>
							<label2>Violet</label2>
						</labels>
					<file id="file-3">
							</file>
						</clipitem>
					<clipitem id="clipitem-96">
						<masterclipid>masterclip-3</masterclipid>
						<name>Digital-Calibration.mp4</name>
						<enabled>TRUE</enabled>
						<duration>3594</duration>
						<rate>
							<timebase>30</timebase>
							<ntsc>FALSE</ntsc>
						</rate>
						<start>3527</start>
						<end>3549</end>
						<in>3527</in>
						<out>3549</out>
						<pproTicksIn>37329768000000</pproTicksIn>
						<pproTicksOut>37562616000000</pproTicksOut>
						<alphatype>none</alphatype>
						<pixelaspectratio>square</pixelaspectratio>
						<anamorphic>FALSE</anamorphic>
						<logginginfo>
							<description />
							<scene />
							<shottake />
							<lognote />
							<good />
							<originalvideofilename />
							<originalaudiofilename />
						</logginginfo>
						<colorinfo>
							<lut />
							<lut1 />
							<asc_sop />
							<asc_sat />
							<lut2 />
						</colorinfo>
						<labels>
							<label2>Violet</label2>
						</labels>
					<file id="file-3">
							</file>
						</clipitem>
					<clipitem id="clipitem-97">
						<masterclipid>masterclip-3</masterclipid>
						<name>Digital-Calibration.mp4</name>
						<enabled>TRUE</enabled>
						<duration>3594</duration>
						<rate>
							<timebase>30</timebase>
							<ntsc>FALSE</ntsc>
						</rate>
						<start>3557</start>
						<end>3592</end>
						<in>3557</in>
						<out>3592</out>
						<pproTicksIn>37647288000000</pproTicksIn>
						<pproTicksOut>38017728000000</pproTicksOut>
						<alphatype>none</alphatype>
						<pixelaspectratio>square</pixelaspectratio>
						<anamorphic>FALSE</anamorphic>
						<logginginfo>
							<description />
							<scene />
							<shottake />
							<lognote />
							<good />
							<originalvideofilename />
							<originalaudiofilename />
						</logginginfo>
						<colorinfo>
							<lut />
							<lut1 />
							<asc_sop />
							<asc_sat />
							<lut2 />
						</colorinfo>
						<labels>
							<label2>Violet</label2>
						</labels>
					<file id="file-3">
							</file>
						</clipitem>
					</track>
				<track MZ.TrackName="GH5" MZ.TrackTargeted="1" TL.SQTrackExpanded="0" TL.SQTrackExpandedHeight="25" TL.SQTrackShy="0">
					<enabled>TRUE</enabled>
					<locked>FALSE</locked>
				<clipitem id="clipitem-97">
						<masterclipid>masterclip-3</masterclipid>
						<name>Digital-Calibration.mp4</name>
						<enabled>TRUE</enabled>
						<duration>3594</duration>
						<rate>
							<timebase>30</timebase>
							<ntsc>FALSE</ntsc>
						</rate>
						<start>0</start>
						<end>6</end>
						<in>0</in>
						<out>6</out>
						<pproTicksIn>0</pproTicksIn>
						<pproTicksOut>63504000000</pproTicksOut>
						<alphatype>none</alphatype>
						<pixelaspectratio>square</pixelaspectratio>
						<anamorphic>FALSE</anamorphic>
						<logginginfo>
							<description />
							<scene />
							<shottake />
							<lognote />
							<good />
							<originalvideofilename />
							<originalaudiofilename />
						</logginginfo>
						<colorinfo>
							<lut />
							<lut1 />
							<asc_sop />
							<asc_sat />
							<lut2 />
						</colorinfo>
						<labels>
							<label2>Rose</label2>
						</labels>
					<file id="file-3">
							</file>
						</clipitem>
					<clipitem id="clipitem-98">
						<masterclipid>masterclip-3</masterclipid>
						<name>Digital-Calibration.mp4</name>
						<enabled>TRUE</enabled>
						<duration>3594</duration>
						<rate>
							<timebase>30</timebase>
							<ntsc>FALSE</ntsc>
						</rate>
						<start>24</start>
						<end>150</end>
						<in>24</in>
						<out>150</out>
						<pproTicksIn>254016000000</pproTicksIn>
						<pproTicksOut>1587600000000</pproTicksOut>
						<alphatype>none</alphatype>
						<pixelaspectratio>square</pixelaspectratio>
						<anamorphic>FALSE</anamorphic>
						<logginginfo>
							<description />
							<scene />
							<shottake />
							<lognote />
							<good />
							<originalvideofilename />
							<originalaudiofilename />
						</logginginfo>
						<colorinfo>
							<lut />
							<lut1 />
							<asc_sop />
							<asc_sat />
							<lut2 />
						</colorinfo>
						<labels>
							<label2>Rose</label2>
						</labels>
					<file id="file-3">
							</file>
						</clipitem>
					<clipitem id="clipitem-99">
						<masterclipid>masterclip-3</masterclipid>
						<name>Digital-Calibration.mp4</name>
						<enabled>TRUE</enabled>
						<duration>3594</duration>
						<rate>
							<timebase>30</timebase>
							<ntsc>FALSE</ntsc>
						</rate>
						<start>152</start>
						<end>213</end>
						<in>152</in>
						<out>213</out>
						<pproTicksIn>1608768000000</pproTicksIn>
						<pproTicksOut>2254392000000</pproTicksOut>
						<alphatype>none</alphatype>
						<pixelaspectratio>square</pixelaspectratio>
						<anamorphic>FALSE</anamorphic>
						<logginginfo>
							<description />
							<scene />
							<shottake />
							<lognote />
							<good />
							<originalvideofilename />
							<originalaudiofilename />
						</logginginfo>
						<colorinfo>
							<lut />
							<lut1 />
							<asc_sop />
							<asc_sat />
							<lut2 />
						</colorinfo>
						<labels>
							<label2>Rose</label2>
						</labels>
					<file id="file-3">
							</file>
						</clipitem>
					<clipitem id="clipitem-100">
						<masterclipid>masterclip-3</masterclipid>
						<name>Digital-Calibration.mp4</name>
						<enabled>TRUE</enabled>
						<duration>3594</duration>
						<rate>
							<timebase>30</timebase>
							<ntsc>FALSE</ntsc>
						</rate>
						<start>225</start>
						<end>227</end>
						<in>225</in>
						<out>227</out>
						<pproTicksIn>2381400000000</pproTicksIn>
						<pproTicksOut>2402568000000</pproTicksOut>
						<alphatype>none</alphatype>
						<pixelaspectratio>square</pixelaspectratio>
						<anamorphic>FALSE</anamorphic>
						<logginginfo>
							<description />
							<scene />
							<shottake />
							<lognote />
							<good />
							<originalvideofilename />
							<originalaudiofilename />
						</logginginfo>
						<colorinfo>
							<lut />
							<lut1 />
							<asc_sop />
							<asc_sat />
							<lut2 />
						</colorinfo>
						<labels>
							<label2>Rose</label2>
						</labels>
					<file id="file-3">
							</file>
						</clipitem>
					<clipitem id="clipitem-101">
						<masterclipid>masterclip-3</masterclipid>
						<name>Digital-Calibration.mp4</name>
						<enabled>TRUE</enabled>
						<duration>3594</duration>
						<rate>
							<timebase>30</timebase>
							<ntsc>FALSE</ntsc>
						</rate>
						<start>229</start>
						<end>235</end>
						<in>229</in>
						<out>235</out>
						<pproTicksIn>2423736000000</pproTicksIn>
						<pproTicksOut>2487240000000</pproTicksOut>
						<alphatype>none</alphatype>
						<pixelaspectratio>square</pixelaspectratio>
						<anamorphic>FALSE</anamorphic>
						<logginginfo>
							<description />
							<scene />
							<shottake />
							<lognote />
							<good />
							<originalvideofilename />
							<originalaudiofilename />
						</logginginfo>
						<colorinfo>
							<lut />
							<lut1 />
							<asc_sop />
							<asc_sat />
							<lut2 />
						</colorinfo>
						<labels>
							<label2>Rose</label2>
						</labels>
					<file id="file-3">
							</file>
						</clipitem>
					<clipitem id="clipitem-102">
						<masterclipid>masterclip-3</masterclipid>
						<name>Digital-Calibration.mp4</name>
						<enabled>TRUE</enabled>
						<duration>3594</duration>
						<rate>
							<timebase>30</timebase>
							<ntsc>FALSE</ntsc>
						</rate>
						<start>256</start>
						<end>257</end>
						<in>256</in>
						<out>257</out>
						<pproTicksIn>2709504000000</pproTicksIn>
						<pproTicksOut>2720088000000</pproTicksOut>
						<alphatype>none</alphatype>
						<pixelaspectratio>square</pixelaspectratio>
						<anamorphic>FALSE</anamorphic>
						<logginginfo>
							<description />
							<scene />
							<shottake />
							<lognote />
							<good />
							<originalvideofilename />
							<originalaudiofilename />
						</logginginfo>
						<colorinfo>
							<lut />
							<lut1 />
							<asc_sop />
							<asc_sat />
							<lut2 />
						</colorinfo>
						<labels>
							<label2>Rose</label2>
						</labels>
					<file id="file-3">
							</file>
						</clipitem>
					<clipitem id="clipitem-103">
						<masterclipid>masterclip-3</masterclipid>
						<name>Digital-Calibration.mp4</name>
						<enabled>TRUE</enabled>
						<duration>3594</duration>
						<rate>
							<timebase>30</timebase>
							<ntsc>FALSE</ntsc>
						</rate>
						<start>259</start>
						<end>262</end>
						<in>259</in>
						<out>262</out>
						<pproTicksIn>2741256000000</pproTicksIn>
						<pproTicksOut>2773008000000</pproTicksOut>
						<alphatype>none</alphatype>
						<pixelaspectratio>square</pixelaspectratio>
						<anamorphic>FALSE</anamorphic>
						<logginginfo>
							<description />
							<scene />
							<shottake />
							<lognote />
							<good />
							<originalvideofilename />
							<originalaudiofilename />
						</logginginfo>
						<colorinfo>
							<lut />
							<lut1 />
							<asc_sop />
							<asc_sat />
							<lut2 />
						</colorinfo>
						<labels>
							<label2>Rose</label2>
						</labels>
					<file id="file-3">
							</file>
						</clipitem>
					<clipitem id="clipitem-104">
						<masterclipid>masterclip-3</masterclipid>
						<name>Digital-Calibration.mp4</name>
						<enabled>TRUE</enabled>
						<duration>3594</duration>
						<rate>
							<timebase>30</timebase>
							<ntsc>FALSE</ntsc>
						</rate>
						<start>274</start>
						<end>300</end>
						<in>274</in>
						<out>300</out>
						<pproTicksIn>2900016000000</pproTicksIn>
						<pproTicksOut>3175200000000</pproTicksOut>
						<alphatype>none</alphatype>
						<pixelaspectratio>square</pixelaspectratio>
						<anamorphic>FALSE</anamorphic>
						<logginginfo>
							<description />
							<scene />
							<shottake />
							<lognote />
							<good />
							<originalvideofilename />
							<originalaudiofilename />
						</logginginfo>
						<colorinfo>
							<lut />
							<lut1 />
							<asc_sop />
							<asc_sat />
							<lut2 />
						</colorinfo>
						<labels>
							<label2>Rose</label2>
						</labels>
					<file id="file-3">
							</file>
						</clipitem>
					<clipitem id="clipitem-105">
						<masterclipid>masterclip-3</masterclipid>
						<name>Digital-Calibration.mp4</name>
						<enabled>TRUE</enabled>
						<duration>3594</duration>
						<rate>
							<timebase>30</timebase>
							<ntsc>FALSE</ntsc>
						</rate>
						<start>302</start>
						<end>462</end>
						<in>302</in>
						<out>462</out>
						<pproTicksIn>3196368000000</pproTicksIn>
						<pproTicksOut>4889808000000</pproTicksOut>
						<alphatype>none</alphatype>
						<pixelaspectratio>square</pixelaspectratio>
						<anamorphic>FALSE</anamorphic>
						<logginginfo>
							<description />
							<scene />
							<shottake />
							<lognote />
							<good />
							<originalvideofilename />
							<originalaudiofilename />
						</logginginfo>
						<colorinfo>
							<lut />
							<lut1 />
							<asc_sop />
							<asc_sat />
							<lut2 />
						</colorinfo>
						<labels>
							<label2>Rose</label2>
						</labels>
					<file id="file-3">
							</file>
						</clipitem>
					<clipitem id="clipitem-106">
						<masterclipid>masterclip-3</masterclipid>
						<name>Digital-Calibration.mp4</name>
						<enabled>TRUE</enabled>
						<duration>3594</duration>
						<rate>
							<timebase>30</timebase>
							<ntsc>FALSE</ntsc>
						</rate>
						<start>668</start>
						<end>669</end>
						<in>668</in>
						<out>669</out>
						<pproTicksIn>7070112000000</pproTicksIn>
						<pproTicksOut>7080696000000</pproTicksOut>
						<alphatype>none</alphatype>
						<pixelaspectratio>square</pixelaspectratio>
						<anamorphic>FALSE</anamorphic>
						<logginginfo>
							<description />
							<scene />
							<shottake />
							<lognote />
							<good />
							<originalvideofilename />
							<originalaudiofilename />
						</logginginfo>
						<colorinfo>
							<lut />
							<lut1 />
							<asc_sop />
							<asc_sat />
							<lut2 />
						</colorinfo>
						<labels>
							<label2>Rose</label2>
						</labels>
					<file id="file-3">
							</file>
						</clipitem>
					<clipitem id="clipitem-107">
						<masterclipid>masterclip-3</masterclipid>
						<name>Digital-Calibration.mp4</name>
						<enabled>TRUE</enabled>
						<duration>3594</duration>
						<rate>
							<timebase>30</timebase>
							<ntsc>FALSE</ntsc>
						</rate>
						<start>803</start>
						<end>809</end>
						<in>803</in>
						<out>809</out>
						<pproTicksIn>8498952000000</pproTicksIn>
						<pproTicksOut>8562456000000</pproTicksOut>
						<alphatype>none</alphatype>
						<pixelaspectratio>square</pixelaspectratio>
						<anamorphic>FALSE</anamorphic>
						<logginginfo>
							<description />
							<scene />
							<shottake />
							<lognote />
							<good />
							<originalvideofilename />
							<originalaudiofilename />
						</logginginfo>
						<colorinfo>
							<lut />
							<lut1 />
							<asc_sop />
							<asc_sat />
							<lut2 />
						</colorinfo>
						<labels>
							<label2>Rose</label2>
						</labels>
					<file id="file-3">
							</file>
						</clipitem>
					<clipitem id="clipitem-108">
						<masterclipid>masterclip-3</masterclipid>
						<name>Digital-Calibration.mp4</name>
						<enabled>TRUE</enabled>
						<duration>3594</duration>
						<rate>
							<timebase>30</timebase>
							<ntsc>FALSE</ntsc>
						</rate>
						<start>846</start>
						<end>847</end>
						<in>846</in>
						<out>847</out>
						<pproTicksIn>8954064000000</pproTicksIn>
						<pproTicksOut>8964648000000</pproTicksOut>
						<alphatype>none</alphatype>
						<pixelaspectratio>square</pixelaspectratio>
						<anamorphic>FALSE</anamorphic>
						<logginginfo>
							<description />
							<scene />
							<shottake />
							<lognote />
							<good />
							<originalvideofilename />
							<originalaudiofilename />
						</logginginfo>
						<colorinfo>
							<lut />
							<lut1 />
							<asc_sop />
							<asc_sat />
							<lut2 />
						</colorinfo>
						<labels>
							<label2>Rose</label2>
						</labels>
					<file id="file-3">
							</file>
						</clipitem>
					<clipitem id="clipitem-109">
						<masterclipid>masterclip-3</masterclipid>
						<name>Digital-Calibration.mp4</name>
						<enabled>TRUE</enabled>
						<duration>3594</duration>
						<rate>
							<timebase>30</timebase>
							<ntsc>FALSE</ntsc>
						</rate>
						<start>848</start>
						<end>856</end>
						<in>848</in>
						<out>856</out>
						<pproTicksIn>8975232000000</pproTicksIn>
						<pproTicksOut>9059904000000</pproTicksOut>
						<alphatype>none</alphatype>
						<pixelaspectratio>square</pixelaspectratio>
						<anamorphic>FALSE</anamorphic>
						<logginginfo>
							<description />
							<scene />
							<shottake />
							<lognote />
							<good />
							<originalvideofilename />
							<originalaudiofilename />
						</logginginfo>
						<colorinfo>
							<lut />
							<lut1 />
							<asc_sop />
							<asc_sat />
							<lut2 />
						</colorinfo>
						<labels>
							<label2>Rose</label2>
						</labels>
					<file id="file-3">
							</file>
						</clipitem>
					<clipitem id="clipitem-110">
						<masterclipid>masterclip-3</masterclipid>
						<name>Digital-Calibration.mp4</name>
						<enabled>TRUE</enabled>
						<duration>3594</duration>
						<rate>
							<timebase>30</timebase>
							<ntsc>FALSE</ntsc>
						</rate>
						<start>857</start>
						<end>859</end>
						<in>857</in>
						<out>859</out>
						<pproTicksIn>9070488000000</pproTicksIn>
						<pproTicksOut>9091656000000</pproTicksOut>
						<alphatype>none</alphatype>
						<pixelaspectratio>square</pixelaspectratio>
						<anamorphic>FALSE</anamorphic>
						<logginginfo>
							<description />
							<scene />
							<shottake />
							<lognote />
							<good />
							<originalvideofilename />
							<originalaudiofilename />
						</logginginfo>
						<colorinfo>
							<lut />
							<lut1 />
							<asc_sop />
							<asc_sat />
							<lut2 />
						</colorinfo>
						<labels>
							<label2>Rose</label2>
						</labels>
					<file id="file-3">
							</file>
						</clipitem>
					<clipitem id="clipitem-111">
						<masterclipid>masterclip-3</masterclipid>
						<name>Digital-Calibration.mp4</name>
						<enabled>TRUE</enabled>
						<duration>3594</duration>
						<rate>
							<timebase>30</timebase>
							<ntsc>FALSE</ntsc>
						</rate>
						<start>931</start>
						<end>934</end>
						<in>931</in>
						<out>934</out>
						<pproTicksIn>9853704000000</pproTicksIn>
						<pproTicksOut>9885456000000</pproTicksOut>
						<alphatype>none</alphatype>
						<pixelaspectratio>square</pixelaspectratio>
						<anamorphic>FALSE</anamorphic>
						<logginginfo>
							<description />
							<scene />
							<shottake />
							<lognote />
							<good />
							<originalvideofilename />
							<originalaudiofilename />
						</logginginfo>
						<colorinfo>
							<lut />
							<lut1 />
							<asc_sop />
							<asc_sat />
							<lut2 />
						</colorinfo>
						<labels>
							<label2>Rose</label2>
						</labels>
					<file id="file-3">
							</file>
						</clipitem>
					<clipitem id="clipitem-112">
						<masterclipid>masterclip-3</masterclipid>
						<name>Digital-Calibration.mp4</name>
						<enabled>TRUE</enabled>
						<duration>3594</duration>
						<rate>
							<timebase>30</timebase>
							<ntsc>FALSE</ntsc>
						</rate>
						<start>950</start>
						<end>951</end>
						<in>950</in>
						<out>951</out>
						<pproTicksIn>10054800000000</pproTicksIn>
						<pproTicksOut>10065384000000</pproTicksOut>
						<alphatype>none</alphatype>
						<pixelaspectratio>square</pixelaspectratio>
						<anamorphic>FALSE</anamorphic>
						<logginginfo>
							<description />
							<scene />
							<shottake />
							<lognote />
							<good />
							<originalvideofilename />
							<originalaudiofilename />
						</logginginfo>
						<colorinfo>
							<lut />
							<lut1 />
							<asc_sop />
							<asc_sat />
							<lut2 />
						</colorinfo>
						<labels>
							<label2>Rose</label2>
						</labels>
					<file id="file-3">
							</file>
						</clipitem>
					<clipitem id="clipitem-113">
						<masterclipid>masterclip-3</masterclipid>
						<name>Digital-Calibration.mp4</name>
						<enabled>TRUE</enabled>
						<duration>3594</duration>
						<rate>
							<timebase>30</timebase>
							<ntsc>FALSE</ntsc>
						</rate>
						<start>967</start>
						<end>968</end>
						<in>967</in>
						<out>968</out>
						<pproTicksIn>10234728000000</pproTicksIn>
						<pproTicksOut>10245312000000</pproTicksOut>
						<alphatype>none</alphatype>
						<pixelaspectratio>square</pixelaspectratio>
						<anamorphic>FALSE</anamorphic>
						<logginginfo>
							<description />
							<scene />
							<shottake />
							<lognote />
							<good />
							<originalvideofilename />
							<originalaudiofilename />
						</logginginfo>
						<colorinfo>
							<lut />
							<lut1 />
							<asc_sop />
							<asc_sat />
							<lut2 />
						</colorinfo>
						<labels>
							<label2>Rose</label2>
						</labels>
					<file id="file-3">
							</file>
						</clipitem>
					<clipitem id="clipitem-114">
						<masterclipid>masterclip-3</masterclipid>
						<name>Digital-Calibration.mp4</name>
						<enabled>TRUE</enabled>
						<duration>3594</duration>
						<rate>
							<timebase>30</timebase>
							<ntsc>FALSE</ntsc>
						</rate>
						<start>974</start>
						<end>975</end>
						<in>974</in>
						<out>975</out>
						<pproTicksIn>10308816000000</pproTicksIn>
						<pproTicksOut>10319400000000</pproTicksOut>
						<alphatype>none</alphatype>
						<pixelaspectratio>square</pixelaspectratio>
						<anamorphic>FALSE</anamorphic>
						<logginginfo>
							<description />
							<scene />
							<shottake />
							<lognote />
							<good />
							<originalvideofilename />
							<originalaudiofilename />
						</logginginfo>
						<colorinfo>
							<lut />
							<lut1 />
							<asc_sop />
							<asc_sat />
							<lut2 />
						</colorinfo>
						<labels>
							<label2>Rose</label2>
						</labels>
					<file id="file-3">
							</file>
						</clipitem>
					<clipitem id="clipitem-115">
						<masterclipid>masterclip-3</masterclipid>
						<name>Digital-Calibration.mp4</name>
						<enabled>TRUE</enabled>
						<duration>3594</duration>
						<rate>
							<timebase>30</timebase>
							<ntsc>FALSE</ntsc>
						</rate>
						<start>981</start>
						<end>986</end>
						<in>981</in>
						<out>986</out>
						<pproTicksIn>10382904000000</pproTicksIn>
						<pproTicksOut>10435824000000</pproTicksOut>
						<alphatype>none</alphatype>
						<pixelaspectratio>square</pixelaspectratio>
						<anamorphic>FALSE</anamorphic>
						<logginginfo>
							<description />
							<scene />
							<shottake />
							<lognote />
							<good />
							<originalvideofilename />
							<originalaudiofilename />
						</logginginfo>
						<colorinfo>
							<lut />
							<lut1 />
							<asc_sop />
							<asc_sat />
							<lut2 />
						</colorinfo>
						<labels>
							<label2>Rose</label2>
						</labels>
					<file id="file-3">
							</file>
						</clipitem>
					<clipitem id="clipitem-116">
						<masterclipid>masterclip-3</masterclipid>
						<name>Digital-Calibration.mp4</name>
						<enabled>TRUE</enabled>
						<duration>3594</duration>
						<rate>
							<timebase>30</timebase>
							<ntsc>FALSE</ntsc>
						</rate>
						<start>1001</start>
						<end>1003</end>
						<in>1001</in>
						<out>1003</out>
						<pproTicksIn>10594584000000</pproTicksIn>
						<pproTicksOut>10615752000000</pproTicksOut>
						<alphatype>none</alphatype>
						<pixelaspectratio>square</pixelaspectratio>
						<anamorphic>FALSE</anamorphic>
						<logginginfo>
							<description />
							<scene />
							<shottake />
							<lognote />
							<good />
							<originalvideofilename />
							<originalaudiofilename />
						</logginginfo>
						<colorinfo>
							<lut />
							<lut1 />
							<asc_sop />
							<asc_sat />
							<lut2 />
						</colorinfo>
						<labels>
							<label2>Rose</label2>
						</labels>
					<file id="file-3">
							</file>
						</clipitem>
					<clipitem id="clipitem-117">
						<masterclipid>masterclip-3</masterclipid>
						<name>Digital-Calibration.mp4</name>
						<enabled>TRUE</enabled>
						<duration>3594</duration>
						<rate>
							<timebase>30</timebase>
							<ntsc>FALSE</ntsc>
						</rate>
						<start>1019</start>
						<end>1020</end>
						<in>1019</in>
						<out>1020</out>
						<pproTicksIn>10785096000000</pproTicksIn>
						<pproTicksOut>10795680000000</pproTicksOut>
						<alphatype>none</alphatype>
						<pixelaspectratio>square</pixelaspectratio>
						<anamorphic>FALSE</anamorphic>
						<logginginfo>
							<description />
							<scene />
							<shottake />
							<lognote />
							<good />
							<originalvideofilename />
							<originalaudiofilename />
						</logginginfo>
						<colorinfo>
							<lut />
							<lut1 />
							<asc_sop />
							<asc_sat />
							<lut2 />
						</colorinfo>
						<labels>
							<label2>Rose</label2>
						</labels>
					<file id="file-3">
							</file>
						</clipitem>
					<clipitem id="clipitem-118">
						<masterclipid>masterclip-3</masterclipid>
						<name>Digital-Calibration.mp4</name>
						<enabled>TRUE</enabled>
						<duration>3594</duration>
						<rate>
							<timebase>30</timebase>
							<ntsc>FALSE</ntsc>
						</rate>
						<start>1053</start>
						<end>1054</end>
						<in>1053</in>
						<out>1054</out>
						<pproTicksIn>11144952000000</pproTicksIn>
						<pproTicksOut>11155536000000</pproTicksOut>
						<alphatype>none</alphatype>
						<pixelaspectratio>square</pixelaspectratio>
						<anamorphic>FALSE</anamorphic>
						<logginginfo>
							<description />
							<scene />
							<shottake />
							<lognote />
							<good />
							<originalvideofilename />
							<originalaudiofilename />
						</logginginfo>
						<colorinfo>
							<lut />
							<lut1 />
							<asc_sop />
							<asc_sat />
							<lut2 />
						</colorinfo>
						<labels>
							<label2>Rose</label2>
						</labels>
					<file id="file-3">
							</file>
						</clipitem>
					<clipitem id="clipitem-119">
						<masterclipid>masterclip-3</masterclipid>
						<name>Digital-Calibration.mp4</name>
						<enabled>TRUE</enabled>
						<duration>3594</duration>
						<rate>
							<timebase>30</timebase>
							<ntsc>FALSE</ntsc>
						</rate>
						<start>1070</start>
						<end>1075</end>
						<in>1070</in>
						<out>1075</out>
						<pproTicksIn>11324880000000</pproTicksIn>
						<pproTicksOut>11377800000000</pproTicksOut>
						<alphatype>none</alphatype>
						<pixelaspectratio>square</pixelaspectratio>
						<anamorphic>FALSE</anamorphic>
						<logginginfo>
							<description />
							<scene />
							<shottake />
							<lognote />
							<good />
							<originalvideofilename />
							<originalaudiofilename />
						</logginginfo>
						<colorinfo>
							<lut />
							<lut1 />
							<asc_sop />
							<asc_sat />
							<lut2 />
						</colorinfo>
						<labels>
							<label2>Rose</label2>
						</labels>
					<file id="file-3">
							</file>
						</clipitem>
					<clipitem id="clipitem-120">
						<masterclipid>masterclip-3</masterclipid>
						<name>Digital-Calibration.mp4</name>
						<enabled>TRUE</enabled>
						<duration>3594</duration>
						<rate>
							<timebase>30</timebase>
							<ntsc>FALSE</ntsc>
						</rate>
						<start>1089</start>
						<end>1090</end>
						<in>1089</in>
						<out>1090</out>
						<pproTicksIn>11525976000000</pproTicksIn>
						<pproTicksOut>11536560000000</pproTicksOut>
						<alphatype>none</alphatype>
						<pixelaspectratio>square</pixelaspectratio>
						<anamorphic>FALSE</anamorphic>
						<logginginfo>
							<description />
							<scene />
							<shottake />
							<lognote />
							<good />
							<originalvideofilename />
							<originalaudiofilename />
						</logginginfo>
						<colorinfo>
							<lut />
							<lut1 />
							<asc_sop />
							<asc_sat />
							<lut2 />
						</colorinfo>
						<labels>
							<label2>Rose</label2>
						</labels>
					<file id="file-3">
							</file>
						</clipitem>
					<clipitem id="clipitem-121">
						<masterclipid>masterclip-3</masterclipid>
						<name>Digital-Calibration.mp4</name>
						<enabled>TRUE</enabled>
						<duration>3594</duration>
						<rate>
							<timebase>30</timebase>
							<ntsc>FALSE</ntsc>
						</rate>
						<start>1093</start>
						<end>1148</end>
						<in>1093</in>
						<out>1148</out>
						<pproTicksIn>11568312000000</pproTicksIn>
						<pproTicksOut>12150432000000</pproTicksOut>
						<alphatype>none</alphatype>
						<pixelaspectratio>square</pixelaspectratio>
						<anamorphic>FALSE</anamorphic>
						<logginginfo>
							<description />
							<scene />
							<shottake />
							<lognote />
							<good />
							<originalvideofilename />
							<originalaudiofilename />
						</logginginfo>
						<colorinfo>
							<lut />
							<lut1 />
							<asc_sop />
							<asc_sat />
							<lut2 />
						</colorinfo>
						<labels>
							<label2>Rose</label2>
						</labels>
					<file id="file-3">
							</file>
						</clipitem>
					<clipitem id="clipitem-122">
						<masterclipid>masterclip-3</masterclipid>
						<name>Digital-Calibration.mp4</name>
						<enabled>TRUE</enabled>
						<duration>3594</duration>
						<rate>
							<timebase>30</timebase>
							<ntsc>FALSE</ntsc>
						</rate>
						<start>1150</start>
						<end>1153</end>
						<in>1150</in>
						<out>1153</out>
						<pproTicksIn>12171600000000</pproTicksIn>
						<pproTicksOut>12203352000000</pproTicksOut>
						<alphatype>none</alphatype>
						<pixelaspectratio>square</pixelaspectratio>
						<anamorphic>FALSE</anamorphic>
						<logginginfo>
							<description />
							<scene />
							<shottake />
							<lognote />
							<good />
							<originalvideofilename />
							<originalaudiofilename />
						</logginginfo>
						<colorinfo>
							<lut />
							<lut1 />
							<asc_sop />
							<asc_sat />
							<lut2 />
						</colorinfo>
						<labels>
							<label2>Rose</label2>
						</labels>
					<file id="file-3">
							</file>
						</clipitem>
					<clipitem id="clipitem-123">
						<masterclipid>masterclip-3</masterclipid>
						<name>Digital-Calibration.mp4</name>
						<enabled>TRUE</enabled>
						<duration>3594</duration>
						<rate>
							<timebase>30</timebase>
							<ntsc>FALSE</ntsc>
						</rate>
						<start>1155</start>
						<end>1157</end>
						<in>1155</in>
						<out>1157</out>
						<pproTicksIn>12224520000000</pproTicksIn>
						<pproTicksOut>12245688000000</pproTicksOut>
						<alphatype>none</alphatype>
						<pixelaspectratio>square</pixelaspectratio>
						<anamorphic>FALSE</anamorphic>
						<logginginfo>
							<description />
							<scene />
							<shottake />
							<lognote />
							<good />
							<originalvideofilename />
							<originalaudiofilename />
						</logginginfo>
						<colorinfo>
							<lut />
							<lut1 />
							<asc_sop />
							<asc_sat />
							<lut2 />
						</colorinfo>
						<labels>
							<label2>Rose</label2>
						</labels>
					<file id="file-3">
							</file>
						</clipitem>
					<clipitem id="clipitem-124">
						<masterclipid>masterclip-3</masterclipid>
						<name>Digital-Calibration.mp4</name>
						<enabled>TRUE</enabled>
						<duration>3594</duration>
						<rate>
							<timebase>30</timebase>
							<ntsc>FALSE</ntsc>
						</rate>
						<start>1159</start>
						<end>1161</end>
						<in>1159</in>
						<out>1161</out>
						<pproTicksIn>12266856000000</pproTicksIn>
						<pproTicksOut>12288024000000</pproTicksOut>
						<alphatype>none</alphatype>
						<pixelaspectratio>square</pixelaspectratio>
						<anamorphic>FALSE</anamorphic>
						<logginginfo>
							<description />
							<scene />
							<shottake />
							<lognote />
							<good />
							<originalvideofilename />
							<originalaudiofilename />
						</logginginfo>
						<colorinfo>
							<lut />
							<lut1 />
							<asc_sop />
							<asc_sat />
							<lut2 />
						</colorinfo>
						<labels>
							<label2>Rose</label2>
						</labels>
					<file id="file-3">
							</file>
						</clipitem>
					<clipitem id="clipitem-125">
						<masterclipid>masterclip-3</masterclipid>
						<name>Digital-Calibration.mp4</name>
						<enabled>TRUE</enabled>
						<duration>3594</duration>
						<rate>
							<timebase>30</timebase>
							<ntsc>FALSE</ntsc>
						</rate>
						<start>1162</start>
						<end>1174</end>
						<in>1162</in>
						<out>1174</out>
						<pproTicksIn>12298608000000</pproTicksIn>
						<pproTicksOut>12425616000000</pproTicksOut>
						<alphatype>none</alphatype>
						<pixelaspectratio>square</pixelaspectratio>
						<anamorphic>FALSE</anamorphic>
						<logginginfo>
							<description />
							<scene />
							<shottake />
							<lognote />
							<good />
							<originalvideofilename />
							<originalaudiofilename />
						</logginginfo>
						<colorinfo>
							<lut />
							<lut1 />
							<asc_sop />
							<asc_sat />
							<lut2 />
						</colorinfo>
						<labels>
							<label2>Rose</label2>
						</labels>
					<file id="file-3">
							</file>
						</clipitem>
					<clipitem id="clipitem-126">
						<masterclipid>masterclip-3</masterclipid>
						<name>Digital-Calibration.mp4</name>
						<enabled>TRUE</enabled>
						<duration>3594</duration>
						<rate>
							<timebase>30</timebase>
							<ntsc>FALSE</ntsc>
						</rate>
						<start>1176</start>
						<end>1181</end>
						<in>1176</in>
						<out>1181</out>
						<pproTicksIn>12446784000000</pproTicksIn>
						<pproTicksOut>12499704000000</pproTicksOut>
						<alphatype>none</alphatype>
						<pixelaspectratio>square</pixelaspectratio>
						<anamorphic>FALSE</anamorphic>
						<logginginfo>
							<description />
							<scene />
							<shottake />
							<lognote />
							<good />
							<originalvideofilename />
							<originalaudiofilename />
						</logginginfo>
						<colorinfo>
							<lut />
							<lut1 />
							<asc_sop />
							<asc_sat />
							<lut2 />
						</colorinfo>
						<labels>
							<label2>Rose</label2>
						</labels>
					<file id="file-3">
							</file>
						</clipitem>
					<clipitem id="clipitem-127">
						<masterclipid>masterclip-3</masterclipid>
						<name>Digital-Calibration.mp4</name>
						<enabled>TRUE</enabled>
						<duration>3594</duration>
						<rate>
							<timebase>30</timebase>
							<ntsc>FALSE</ntsc>
						</rate>
						<start>1182</start>
						<end>1199</end>
						<in>1182</in>
						<out>1199</out>
						<pproTicksIn>12510288000000</pproTicksIn>
						<pproTicksOut>12690216000000</pproTicksOut>
						<alphatype>none</alphatype>
						<pixelaspectratio>square</pixelaspectratio>
						<anamorphic>FALSE</anamorphic>
						<logginginfo>
							<description />
							<scene />
							<shottake />
							<lognote />
							<good />
							<originalvideofilename />
							<originalaudiofilename />
						</logginginfo>
						<colorinfo>
							<lut />
							<lut1 />
							<asc_sop />
							<asc_sat />
							<lut2 />
						</colorinfo>
						<labels>
							<label2>Rose</label2>
						</labels>
					<file id="file-3">
							</file>
						</clipitem>
					<clipitem id="clipitem-128">
						<masterclipid>masterclip-3</masterclipid>
						<name>Digital-Calibration.mp4</name>
						<enabled>TRUE</enabled>
						<duration>3594</duration>
						<rate>
							<timebase>30</timebase>
							<ntsc>FALSE</ntsc>
						</rate>
						<start>1200</start>
						<end>1212</end>
						<in>1200</in>
						<out>1212</out>
						<pproTicksIn>12700800000000</pproTicksIn>
						<pproTicksOut>12827808000000</pproTicksOut>
						<alphatype>none</alphatype>
						<pixelaspectratio>square</pixelaspectratio>
						<anamorphic>FALSE</anamorphic>
						<logginginfo>
							<description />
							<scene />
							<shottake />
							<lognote />
							<good />
							<originalvideofilename />
							<originalaudiofilename />
						</logginginfo>
						<colorinfo>
							<lut />
							<lut1 />
							<asc_sop />
							<asc_sat />
							<lut2 />
						</colorinfo>
						<labels>
							<label2>Rose</label2>
						</labels>
					<file id="file-3">
							</file>
						</clipitem>
					<clipitem id="clipitem-129">
						<masterclipid>masterclip-3</masterclipid>
						<name>Digital-Calibration.mp4</name>
						<enabled>TRUE</enabled>
						<duration>3594</duration>
						<rate>
							<timebase>30</timebase>
							<ntsc>FALSE</ntsc>
						</rate>
						<start>1213</start>
						<end>1215</end>
						<in>1213</in>
						<out>1215</out>
						<pproTicksIn>12838392000000</pproTicksIn>
						<pproTicksOut>12859560000000</pproTicksOut>
						<alphatype>none</alphatype>
						<pixelaspectratio>square</pixelaspectratio>
						<anamorphic>FALSE</anamorphic>
						<logginginfo>
							<description />
							<scene />
							<shottake />
							<lognote />
							<good />
							<originalvideofilename />
							<originalaudiofilename />
						</logginginfo>
						<colorinfo>
							<lut />
							<lut1 />
							<asc_sop />
							<asc_sat />
							<lut2 />
						</colorinfo>
						<labels>
							<label2>Rose</label2>
						</labels>
					<file id="file-3">
							</file>
						</clipitem>
					<clipitem id="clipitem-130">
						<masterclipid>masterclip-3</masterclipid>
						<name>Digital-Calibration.mp4</name>
						<enabled>TRUE</enabled>
						<duration>3594</duration>
						<rate>
							<timebase>30</timebase>
							<ntsc>FALSE</ntsc>
						</rate>
						<start>1216</start>
						<end>1217</end>
						<in>1216</in>
						<out>1217</out>
						<pproTicksIn>12870144000000</pproTicksIn>
						<pproTicksOut>12880728000000</pproTicksOut>
						<alphatype>none</alphatype>
						<pixelaspectratio>square</pixelaspectratio>
						<anamorphic>FALSE</anamorphic>
						<logginginfo>
							<description />
							<scene />
							<shottake />
							<lognote />
							<good />
							<originalvideofilename />
							<originalaudiofilename />
						</logginginfo>
						<colorinfo>
							<lut />
							<lut1 />
							<asc_sop />
							<asc_sat />
							<lut2 />
						</colorinfo>
						<labels>
							<label2>Rose</label2>
						</labels>
					<file id="file-3">
							</file>
						</clipitem>
					<clipitem id="clipitem-131">
						<masterclipid>masterclip-3</masterclipid>
						<name>Digital-Calibration.mp4</name>
						<enabled>TRUE</enabled>
						<duration>3594</duration>
						<rate>
							<timebase>30</timebase>
							<ntsc>FALSE</ntsc>
						</rate>
						<start>1220</start>
						<end>1225</end>
						<in>1220</in>
						<out>1225</out>
						<pproTicksIn>12912480000000</pproTicksIn>
						<pproTicksOut>12965400000000</pproTicksOut>
						<alphatype>none</alphatype>
						<pixelaspectratio>square</pixelaspectratio>
						<anamorphic>FALSE</anamorphic>
						<logginginfo>
							<description />
							<scene />
							<shottake />
							<lognote />
							<good />
							<originalvideofilename />
							<originalaudiofilename />
						</logginginfo>
						<colorinfo>
							<lut />
							<lut1 />
							<asc_sop />
							<asc_sat />
							<lut2 />
						</colorinfo>
						<labels>
							<label2>Rose</label2>
						</labels>
					<file id="file-3">
							</file>
						</clipitem>
					<clipitem id="clipitem-132">
						<masterclipid>masterclip-3</masterclipid>
						<name>Digital-Calibration.mp4</name>
						<enabled>TRUE</enabled>
						<duration>3594</duration>
						<rate>
							<timebase>30</timebase>
							<ntsc>FALSE</ntsc>
						</rate>
						<start>1226</start>
						<end>1249</end>
						<in>1226</in>
						<out>1249</out>
						<pproTicksIn>12975984000000</pproTicksIn>
						<pproTicksOut>13219416000000</pproTicksOut>
						<alphatype>none</alphatype>
						<pixelaspectratio>square</pixelaspectratio>
						<anamorphic>FALSE</anamorphic>
						<logginginfo>
							<description />
							<scene />
							<shottake />
							<lognote />
							<good />
							<originalvideofilename />
							<originalaudiofilename />
						</logginginfo>
						<colorinfo>
							<lut />
							<lut1 />
							<asc_sop />
							<asc_sat />
							<lut2 />
						</colorinfo>
						<labels>
							<label2>Rose</label2>
						</labels>
					<file id="file-3">
							</file>
						</clipitem>
					<clipitem id="clipitem-133">
						<masterclipid>masterclip-3</masterclipid>
						<name>Digital-Calibration.mp4</name>
						<enabled>TRUE</enabled>
						<duration>3594</duration>
						<rate>
							<timebase>30</timebase>
							<ntsc>FALSE</ntsc>
						</rate>
						<start>1251</start>
						<end>1259</end>
						<in>1251</in>
						<out>1259</out>
						<pproTicksIn>13240584000000</pproTicksIn>
						<pproTicksOut>13325256000000</pproTicksOut>
						<alphatype>none</alphatype>
						<pixelaspectratio>square</pixelaspectratio>
						<anamorphic>FALSE</anamorphic>
						<logginginfo>
							<description />
							<scene />
							<shottake />
							<lognote />
							<good />
							<originalvideofilename />
							<originalaudiofilename />
						</logginginfo>
						<colorinfo>
							<lut />
							<lut1 />
							<asc_sop />
							<asc_sat />
							<lut2 />
						</colorinfo>
						<labels>
							<label2>Rose</label2>
						</labels>
					<file id="file-3">
							</file>
						</clipitem>
					<clipitem id="clipitem-134">
						<masterclipid>masterclip-3</masterclipid>
						<name>Digital-Calibration.mp4</name>
						<enabled>TRUE</enabled>
						<duration>3594</duration>
						<rate>
							<timebase>30</timebase>
							<ntsc>FALSE</ntsc>
						</rate>
						<start>1261</start>
						<end>1266</end>
						<in>1261</in>
						<out>1266</out>
						<pproTicksIn>13346424000000</pproTicksIn>
						<pproTicksOut>13399344000000</pproTicksOut>
						<alphatype>none</alphatype>
						<pixelaspectratio>square</pixelaspectratio>
						<anamorphic>FALSE</anamorphic>
						<logginginfo>
							<description />
							<scene />
							<shottake />
							<lognote />
							<good />
							<originalvideofilename />
							<originalaudiofilename />
						</logginginfo>
						<colorinfo>
							<lut />
							<lut1 />
							<asc_sop />
							<asc_sat />
							<lut2 />
						</colorinfo>
						<labels>
							<label2>Rose</label2>
						</labels>
					<file id="file-3">
							</file>
						</clipitem>
					<clipitem id="clipitem-135">
						<masterclipid>masterclip-3</masterclipid>
						<name>Digital-Calibration.mp4</name>
						<enabled>TRUE</enabled>
						<duration>3594</duration>
						<rate>
							<timebase>30</timebase>
							<ntsc>FALSE</ntsc>
						</rate>
						<start>1267</start>
						<end>1293</end>
						<in>1267</in>
						<out>1293</out>
						<pproTicksIn>13409928000000</pproTicksIn>
						<pproTicksOut>13685112000000</pproTicksOut>
						<alphatype>none</alphatype>
						<pixelaspectratio>square</pixelaspectratio>
						<anamorphic>FALSE</anamorphic>
						<logginginfo>
							<description />
							<scene />
							<shottake />
							<lognote />
							<good />
							<originalvideofilename />
							<originalaudiofilename />
						</logginginfo>
						<colorinfo>
							<lut />
							<lut1 />
							<asc_sop />
							<asc_sat />
							<lut2 />
						</colorinfo>
						<labels>
							<label2>Rose</label2>
						</labels>
					<file id="file-3">
							</file>
						</clipitem>
					<clipitem id="clipitem-136">
						<masterclipid>masterclip-3</masterclipid>
						<name>Digital-Calibration.mp4</name>
						<enabled>TRUE</enabled>
						<duration>3594</duration>
						<rate>
							<timebase>30</timebase>
							<ntsc>FALSE</ntsc>
						</rate>
						<start>1294</start>
						<end>1317</end>
						<in>1294</in>
						<out>1317</out>
						<pproTicksIn>13695696000000</pproTicksIn>
						<pproTicksOut>13939128000000</pproTicksOut>
						<alphatype>none</alphatype>
						<pixelaspectratio>square</pixelaspectratio>
						<anamorphic>FALSE</anamorphic>
						<logginginfo>
							<description />
							<scene />
							<shottake />
							<lognote />
							<good />
							<originalvideofilename />
							<originalaudiofilename />
						</logginginfo>
						<colorinfo>
							<lut />
							<lut1 />
							<asc_sop />
							<asc_sat />
							<lut2 />
						</colorinfo>
						<labels>
							<label2>Rose</label2>
						</labels>
					<file id="file-3">
							</file>
						</clipitem>
					<clipitem id="clipitem-137">
						<masterclipid>masterclip-3</masterclipid>
						<name>Digital-Calibration.mp4</name>
						<enabled>TRUE</enabled>
						<duration>3594</duration>
						<rate>
							<timebase>30</timebase>
							<ntsc>FALSE</ntsc>
						</rate>
						<start>1318</start>
						<end>1324</end>
						<in>1318</in>
						<out>1324</out>
						<pproTicksIn>13949712000000</pproTicksIn>
						<pproTicksOut>14013216000000</pproTicksOut>
						<alphatype>none</alphatype>
						<pixelaspectratio>square</pixelaspectratio>
						<anamorphic>FALSE</anamorphic>
						<logginginfo>
							<description />
							<scene />
							<shottake />
							<lognote />
							<good />
							<originalvideofilename />
							<originalaudiofilename />
						</logginginfo>
						<colorinfo>
							<lut />
							<lut1 />
							<asc_sop />
							<asc_sat />
							<lut2 />
						</colorinfo>
						<labels>
							<label2>Rose</label2>
						</labels>
					<file id="file-3">
							</file>
						</clipitem>
					<clipitem id="clipitem-138">
						<masterclipid>masterclip-3</masterclipid>
						<name>Digital-Calibration.mp4</name>
						<enabled>TRUE</enabled>
						<duration>3594</duration>
						<rate>
							<timebase>30</timebase>
							<ntsc>FALSE</ntsc>
						</rate>
						<start>1326</start>
						<end>1333</end>
						<in>1326</in>
						<out>1333</out>
						<pproTicksIn>14034384000000</pproTicksIn>
						<pproTicksOut>14108472000000</pproTicksOut>
						<alphatype>none</alphatype>
						<pixelaspectratio>square</pixelaspectratio>
						<anamorphic>FALSE</anamorphic>
						<logginginfo>
							<description />
							<scene />
							<shottake />
							<lognote />
							<good />
							<originalvideofilename />
							<originalaudiofilename />
						</logginginfo>
						<colorinfo>
							<lut />
							<lut1 />
							<asc_sop />
							<asc_sat />
							<lut2 />
						</colorinfo>
						<labels>
							<label2>Rose</label2>
						</labels>
					<file id="file-3">
							</file>
						</clipitem>
					<clipitem id="clipitem-139">
						<masterclipid>masterclip-3</masterclipid>
						<name>Digital-Calibration.mp4</name>
						<enabled>TRUE</enabled>
						<duration>3594</duration>
						<rate>
							<timebase>30</timebase>
							<ntsc>FALSE</ntsc>
						</rate>
						<start>1335</start>
						<end>1348</end>
						<in>1335</in>
						<out>1348</out>
						<pproTicksIn>14129640000000</pproTicksIn>
						<pproTicksOut>14267232000000</pproTicksOut>
						<alphatype>none</alphatype>
						<pixelaspectratio>square</pixelaspectratio>
						<anamorphic>FALSE</anamorphic>
						<logginginfo>
							<description />
							<scene />
							<shottake />
							<lognote />
							<good />
							<originalvideofilename />
							<originalaudiofilename />
						</logginginfo>
						<colorinfo>
							<lut />
							<lut1 />
							<asc_sop />
							<asc_sat />
							<lut2 />
						</colorinfo>
						<labels>
							<label2>Rose</label2>
						</labels>
					<file id="file-3">
							</file>
						</clipitem>
					<clipitem id="clipitem-140">
						<masterclipid>masterclip-3</masterclipid>
						<name>Digital-Calibration.mp4</name>
						<enabled>TRUE</enabled>
						<duration>3594</duration>
						<rate>
							<timebase>30</timebase>
							<ntsc>FALSE</ntsc>
						</rate>
						<start>1349</start>
						<end>1350</end>
						<in>1349</in>
						<out>1350</out>
						<pproTicksIn>14277816000000</pproTicksIn>
						<pproTicksOut>14288400000000</pproTicksOut>
						<alphatype>none</alphatype>
						<pixelaspectratio>square</pixelaspectratio>
						<anamorphic>FALSE</anamorphic>
						<logginginfo>
							<description />
							<scene />
							<shottake />
							<lognote />
							<good />
							<originalvideofilename />
							<originalaudiofilename />
						</logginginfo>
						<colorinfo>
							<lut />
							<lut1 />
							<asc_sop />
							<asc_sat />
							<lut2 />
						</colorinfo>
						<labels>
							<label2>Rose</label2>
						</labels>
					<file id="file-3">
							</file>
						</clipitem>
					<clipitem id="clipitem-141">
						<masterclipid>masterclip-3</masterclipid>
						<name>Digital-Calibration.mp4</name>
						<enabled>TRUE</enabled>
						<duration>3594</duration>
						<rate>
							<timebase>30</timebase>
							<ntsc>FALSE</ntsc>
						</rate>
						<start>1352</start>
						<end>1355</end>
						<in>1352</in>
						<out>1355</out>
						<pproTicksIn>14309568000000</pproTicksIn>
						<pproTicksOut>14341320000000</pproTicksOut>
						<alphatype>none</alphatype>
						<pixelaspectratio>square</pixelaspectratio>
						<anamorphic>FALSE</anamorphic>
						<logginginfo>
							<description />
							<scene />
							<shottake />
							<lognote />
							<good />
							<originalvideofilename />
							<originalaudiofilename />
						</logginginfo>
						<colorinfo>
							<lut />
							<lut1 />
							<asc_sop />
							<asc_sat />
							<lut2 />
						</colorinfo>
						<labels>
							<label2>Rose</label2>
						</labels>
					<file id="file-3">
							</file>
						</clipitem>
					<clipitem id="clipitem-142">
						<masterclipid>masterclip-3</masterclipid>
						<name>Digital-Calibration.mp4</name>
						<enabled>TRUE</enabled>
						<duration>3594</duration>
						<rate>
							<timebase>30</timebase>
							<ntsc>FALSE</ntsc>
						</rate>
						<start>1356</start>
						<end>1357</end>
						<in>1356</in>
						<out>1357</out>
						<pproTicksIn>14351904000000</pproTicksIn>
						<pproTicksOut>14362488000000</pproTicksOut>
						<alphatype>none</alphatype>
						<pixelaspectratio>square</pixelaspectratio>
						<anamorphic>FALSE</anamorphic>
						<logginginfo>
							<description />
							<scene />
							<shottake />
							<lognote />
							<good />
							<originalvideofilename />
							<originalaudiofilename />
						</logginginfo>
						<colorinfo>
							<lut />
							<lut1 />
							<asc_sop />
							<asc_sat />
							<lut2 />
						</colorinfo>
						<labels>
							<label2>Rose</label2>
						</labels>
					<file id="file-3">
							</file>
						</clipitem>
					<clipitem id="clipitem-143">
						<masterclipid>masterclip-3</masterclipid>
						<name>Digital-Calibration.mp4</name>
						<enabled>TRUE</enabled>
						<duration>3594</duration>
						<rate>
							<timebase>30</timebase>
							<ntsc>FALSE</ntsc>
						</rate>
						<start>1358</start>
						<end>1361</end>
						<in>1358</in>
						<out>1361</out>
						<pproTicksIn>14373072000000</pproTicksIn>
						<pproTicksOut>14404824000000</pproTicksOut>
						<alphatype>none</alphatype>
						<pixelaspectratio>square</pixelaspectratio>
						<anamorphic>FALSE</anamorphic>
						<logginginfo>
							<description />
							<scene />
							<shottake />
							<lognote />
							<good />
							<originalvideofilename />
							<originalaudiofilename />
						</logginginfo>
						<colorinfo>
							<lut />
							<lut1 />
							<asc_sop />
							<asc_sat />
							<lut2 />
						</colorinfo>
						<labels>
							<label2>Rose</label2>
						</labels>
					<file id="file-3">
							</file>
						</clipitem>
					<clipitem id="clipitem-144">
						<masterclipid>masterclip-3</masterclipid>
						<name>Digital-Calibration.mp4</name>
						<enabled>TRUE</enabled>
						<duration>3594</duration>
						<rate>
							<timebase>30</timebase>
							<ntsc>FALSE</ntsc>
						</rate>
						<start>1363</start>
						<end>1422</end>
						<in>1363</in>
						<out>1422</out>
						<pproTicksIn>14425992000000</pproTicksIn>
						<pproTicksOut>15050448000000</pproTicksOut>
						<alphatype>none</alphatype>
						<pixelaspectratio>square</pixelaspectratio>
						<anamorphic>FALSE</anamorphic>
						<logginginfo>
							<description />
							<scene />
							<shottake />
							<lognote />
							<good />
							<originalvideofilename />
							<originalaudiofilename />
						</logginginfo>
						<colorinfo>
							<lut />
							<lut1 />
							<asc_sop />
							<asc_sat />
							<lut2 />
						</colorinfo>
						<labels>
							<label2>Rose</label2>
						</labels>
					<file id="file-3">
							</file>
						</clipitem>
					<clipitem id="clipitem-145">
						<masterclipid>masterclip-3</masterclipid>
						<name>Digital-Calibration.mp4</name>
						<enabled>TRUE</enabled>
						<duration>3594</duration>
						<rate>
							<timebase>30</timebase>
							<ntsc>FALSE</ntsc>
						</rate>
						<start>1423</start>
						<end>1425</end>
						<in>1423</in>
						<out>1425</out>
						<pproTicksIn>15061032000000</pproTicksIn>
						<pproTicksOut>15082200000000</pproTicksOut>
						<alphatype>none</alphatype>
						<pixelaspectratio>square</pixelaspectratio>
						<anamorphic>FALSE</anamorphic>
						<logginginfo>
							<description />
							<scene />
							<shottake />
							<lognote />
							<good />
							<originalvideofilename />
							<originalaudiofilename />
						</logginginfo>
						<colorinfo>
							<lut />
							<lut1 />
							<asc_sop />
							<asc_sat />
							<lut2 />
						</colorinfo>
						<labels>
							<label2>Rose</label2>
						</labels>
					<file id="file-3">
							</file>
						</clipitem>
					<clipitem id="clipitem-146">
						<masterclipid>masterclip-3</masterclipid>
						<name>Digital-Calibration.mp4</name>
						<enabled>TRUE</enabled>
						<duration>3594</duration>
						<rate>
							<timebase>30</timebase>
							<ntsc>FALSE</ntsc>
						</rate>
						<start>1428</start>
						<end>1514</end>
						<in>1428</in>
						<out>1514</out>
						<pproTicksIn>15113952000000</pproTicksIn>
						<pproTicksOut>16024176000000</pproTicksOut>
						<alphatype>none</alphatype>
						<pixelaspectratio>square</pixelaspectratio>
						<anamorphic>FALSE</anamorphic>
						<logginginfo>
							<description />
							<scene />
							<shottake />
							<lognote />
							<good />
							<originalvideofilename />
							<originalaudiofilename />
						</logginginfo>
						<colorinfo>
							<lut />
							<lut1 />
							<asc_sop />
							<asc_sat />
							<lut2 />
						</colorinfo>
						<labels>
							<label2>Rose</label2>
						</labels>
					<file id="file-3">
							</file>
						</clipitem>
					<clipitem id="clipitem-147">
						<masterclipid>masterclip-3</masterclipid>
						<name>Digital-Calibration.mp4</name>
						<enabled>TRUE</enabled>
						<duration>3594</duration>
						<rate>
							<timebase>30</timebase>
							<ntsc>FALSE</ntsc>
						</rate>
						<start>1768</start>
						<end>1789</end>
						<in>1768</in>
						<out>1789</out>
						<pproTicksIn>18712512000000</pproTicksIn>
						<pproTicksOut>18934776000000</pproTicksOut>
						<alphatype>none</alphatype>
						<pixelaspectratio>square</pixelaspectratio>
						<anamorphic>FALSE</anamorphic>
						<logginginfo>
							<description />
							<scene />
							<shottake />
							<lognote />
							<good />
							<originalvideofilename />
							<originalaudiofilename />
						</logginginfo>
						<colorinfo>
							<lut />
							<lut1 />
							<asc_sop />
							<asc_sat />
							<lut2 />
						</colorinfo>
						<labels>
							<label2>Rose</label2>
						</labels>
					<file id="file-3">
							</file>
						</clipitem>
					<clipitem id="clipitem-148">
						<masterclipid>masterclip-3</masterclipid>
						<name>Digital-Calibration.mp4</name>
						<enabled>TRUE</enabled>
						<duration>3594</duration>
						<rate>
							<timebase>30</timebase>
							<ntsc>FALSE</ntsc>
						</rate>
						<start>1796</start>
						<end>1800</end>
						<in>1796</in>
						<out>1800</out>
						<pproTicksIn>19008864000000</pproTicksIn>
						<pproTicksOut>19051200000000</pproTicksOut>
						<alphatype>none</alphatype>
						<pixelaspectratio>square</pixelaspectratio>
						<anamorphic>FALSE</anamorphic>
						<logginginfo>
							<description />
							<scene />
							<shottake />
							<lognote />
							<good />
							<originalvideofilename />
							<originalaudiofilename />
						</logginginfo>
						<colorinfo>
							<lut />
							<lut1 />
							<asc_sop />
							<asc_sat />
							<lut2 />
						</colorinfo>
						<labels>
							<label2>Rose</label2>
						</labels>
					<file id="file-3">
							</file>
						</clipitem>
					<clipitem id="clipitem-149">
						<masterclipid>masterclip-3</masterclipid>
						<name>Digital-Calibration.mp4</name>
						<enabled>TRUE</enabled>
						<duration>3594</duration>
						<rate>
							<timebase>30</timebase>
							<ntsc>FALSE</ntsc>
						</rate>
						<start>1801</start>
						<end>1950</end>
						<in>1801</in>
						<out>1950</out>
						<pproTicksIn>19061784000000</pproTicksIn>
						<pproTicksOut>20638800000000</pproTicksOut>
						<alphatype>none</alphatype>
						<pixelaspectratio>square</pixelaspectratio>
						<anamorphic>FALSE</anamorphic>
						<logginginfo>
							<description />
							<scene />
							<shottake />
							<lognote />
							<good />
							<originalvideofilename />
							<originalaudiofilename />
						</logginginfo>
						<colorinfo>
							<lut />
							<lut1 />
							<asc_sop />
							<asc_sat />
							<lut2 />
						</colorinfo>
						<labels>
							<label2>Rose</label2>
						</labels>
					<file id="file-3">
							</file>
						</clipitem>
					<clipitem id="clipitem-150">
						<masterclipid>masterclip-3</masterclipid>
						<name>Digital-Calibration.mp4</name>
						<enabled>TRUE</enabled>
						<duration>3594</duration>
						<rate>
							<timebase>30</timebase>
							<ntsc>FALSE</ntsc>
						</rate>
						<start>1980</start>
						<end>1986</end>
						<in>1980</in>
						<out>1986</out>
						<pproTicksIn>20956320000000</pproTicksIn>
						<pproTicksOut>21019824000000</pproTicksOut>
						<alphatype>none</alphatype>
						<pixelaspectratio>square</pixelaspectratio>
						<anamorphic>FALSE</anamorphic>
						<logginginfo>
							<description />
							<scene />
							<shottake />
							<lognote />
							<good />
							<originalvideofilename />
							<originalaudiofilename />
						</logginginfo>
						<colorinfo>
							<lut />
							<lut1 />
							<asc_sop />
							<asc_sat />
							<lut2 />
						</colorinfo>
						<labels>
							<label2>Rose</label2>
						</labels>
					<file id="file-3">
							</file>
						</clipitem>
					<clipitem id="clipitem-151">
						<masterclipid>masterclip-3</masterclipid>
						<name>Digital-Calibration.mp4</name>
						<enabled>TRUE</enabled>
						<duration>3594</duration>
						<rate>
							<timebase>30</timebase>
							<ntsc>FALSE</ntsc>
						</rate>
						<start>1999</start>
						<end>2003</end>
						<in>1999</in>
						<out>2003</out>
						<pproTicksIn>21157416000000</pproTicksIn>
						<pproTicksOut>21199752000000</pproTicksOut>
						<alphatype>none</alphatype>
						<pixelaspectratio>square</pixelaspectratio>
						<anamorphic>FALSE</anamorphic>
						<logginginfo>
							<description />
							<scene />
							<shottake />
							<lognote />
							<good />
							<originalvideofilename />
							<originalaudiofilename />
						</logginginfo>
						<colorinfo>
							<lut />
							<lut1 />
							<asc_sop />
							<asc_sat />
							<lut2 />
						</colorinfo>
						<labels>
							<label2>Rose</label2>
						</labels>
					<file id="file-3">
							</file>
						</clipitem>
					<clipitem id="clipitem-152">
						<masterclipid>masterclip-3</masterclipid>
						<name>Digital-Calibration.mp4</name>
						<enabled>TRUE</enabled>
						<duration>3594</duration>
						<rate>
							<timebase>30</timebase>
							<ntsc>FALSE</ntsc>
						</rate>
						<start>2104</start>
						<end>2107</end>
						<in>2104</in>
						<out>2107</out>
						<pproTicksIn>22268736000000</pproTicksIn>
						<pproTicksOut>22300488000000</pproTicksOut>
						<alphatype>none</alphatype>
						<pixelaspectratio>square</pixelaspectratio>
						<anamorphic>FALSE</anamorphic>
						<logginginfo>
							<description />
							<scene />
							<shottake />
							<lognote />
							<good />
							<originalvideofilename />
							<originalaudiofilename />
						</logginginfo>
						<colorinfo>
							<lut />
							<lut1 />
							<asc_sop />
							<asc_sat />
							<lut2 />
						</colorinfo>
						<labels>
							<label2>Rose</label2>
						</labels>
					<file id="file-3">
							</file>
						</clipitem>
					<clipitem id="clipitem-153">
						<masterclipid>masterclip-3</masterclipid>
						<name>Digital-Calibration.mp4</name>
						<enabled>TRUE</enabled>
						<duration>3594</duration>
						<rate>
							<timebase>30</timebase>
							<ntsc>FALSE</ntsc>
						</rate>
						<start>2185</start>
						<end>2226</end>
						<in>2185</in>
						<out>2226</out>
						<pproTicksIn>23126040000000</pproTicksIn>
						<pproTicksOut>23559984000000</pproTicksOut>
						<alphatype>none</alphatype>
						<pixelaspectratio>square</pixelaspectratio>
						<anamorphic>FALSE</anamorphic>
						<logginginfo>
							<description />
							<scene />
							<shottake />
							<lognote />
							<good />
							<originalvideofilename />
							<originalaudiofilename />
						</logginginfo>
						<colorinfo>
							<lut />
							<lut1 />
							<asc_sop />
							<asc_sat />
							<lut2 />
						</colorinfo>
						<labels>
							<label2>Rose</label2>
						</labels>
					<file id="file-3">
							</file>
						</clipitem>
					<clipitem id="clipitem-154">
						<masterclipid>masterclip-3</masterclipid>
						<name>Digital-Calibration.mp4</name>
						<enabled>TRUE</enabled>
						<duration>3594</duration>
						<rate>
							<timebase>30</timebase>
							<ntsc>FALSE</ntsc>
						</rate>
						<start>2401</start>
						<end>2445</end>
						<in>2401</in>
						<out>2445</out>
						<pproTicksIn>25412184000000</pproTicksIn>
						<pproTicksOut>25877880000000</pproTicksOut>
						<alphatype>none</alphatype>
						<pixelaspectratio>square</pixelaspectratio>
						<anamorphic>FALSE</anamorphic>
						<logginginfo>
							<description />
							<scene />
							<shottake />
							<lognote />
							<good />
							<originalvideofilename />
							<originalaudiofilename />
						</logginginfo>
						<colorinfo>
							<lut />
							<lut1 />
							<asc_sop />
							<asc_sat />
							<lut2 />
						</colorinfo>
						<labels>
							<label2>Rose</label2>
						</labels>
					<file id="file-3">
							</file>
						</clipitem>
					<clipitem id="clipitem-155">
						<masterclipid>masterclip-3</masterclipid>
						<name>Digital-Calibration.mp4</name>
						<enabled>TRUE</enabled>
						<duration>3594</duration>
						<rate>
							<timebase>30</timebase>
							<ntsc>FALSE</ntsc>
						</rate>
						<start>2707</start>
						<end>2744</end>
						<in>2707</in>
						<out>2744</out>
						<pproTicksIn>28650888000000</pproTicksIn>
						<pproTicksOut>29042496000000</pproTicksOut>
						<alphatype>none</alphatype>
						<pixelaspectratio>square</pixelaspectratio>
						<anamorphic>FALSE</anamorphic>
						<logginginfo>
							<description />
							<scene />
							<shottake />
							<lognote />
							<good />
							<originalvideofilename />
							<originalaudiofilename />
						</logginginfo>
						<colorinfo>
							<lut />
							<lut1 />
							<asc_sop />
							<asc_sat />
							<lut2 />
						</colorinfo>
						<labels>
							<label2>Rose</label2>
						</labels>
					<file id="file-3">
							</file>
						</clipitem>
					<clipitem id="clipitem-156">
						<masterclipid>masterclip-3</masterclipid>
						<name>Digital-Calibration.mp4</name>
						<enabled>TRUE</enabled>
						<duration>3594</duration>
						<rate>
							<timebase>30</timebase>
							<ntsc>FALSE</ntsc>
						</rate>
						<start>2795</start>
						<end>2796</end>
						<in>2795</in>
						<out>2796</out>
						<pproTicksIn>29582280000000</pproTicksIn>
						<pproTicksOut>29592864000000</pproTicksOut>
						<alphatype>none</alphatype>
						<pixelaspectratio>square</pixelaspectratio>
						<anamorphic>FALSE</anamorphic>
						<logginginfo>
							<description />
							<scene />
							<shottake />
							<lognote />
							<good />
							<originalvideofilename />
							<originalaudiofilename />
						</logginginfo>
						<colorinfo>
							<lut />
							<lut1 />
							<asc_sop />
							<asc_sat />
							<lut2 />
						</colorinfo>
						<labels>
							<label2>Rose</label2>
						</labels>
					<file id="file-3">
							</file>
						</clipitem>
					<clipitem id="clipitem-157">
						<masterclipid>masterclip-3</masterclipid>
						<name>Digital-Calibration.mp4</name>
						<enabled>TRUE</enabled>
						<duration>3594</duration>
						<rate>
							<timebase>30</timebase>
							<ntsc>FALSE</ntsc>
						</rate>
						<start>2800</start>
						<end>2825</end>
						<in>2800</in>
						<out>2825</out>
						<pproTicksIn>29635200000000</pproTicksIn>
						<pproTicksOut>29899800000000</pproTicksOut>
						<alphatype>none</alphatype>
						<pixelaspectratio>square</pixelaspectratio>
						<anamorphic>FALSE</anamorphic>
						<logginginfo>
							<description />
							<scene />
							<shottake />
							<lognote />
							<good />
							<originalvideofilename />
							<originalaudiofilename />
						</logginginfo>
						<colorinfo>
							<lut />
							<lut1 />
							<asc_sop />
							<asc_sat />
							<lut2 />
						</colorinfo>
						<labels>
							<label2>Rose</label2>
						</labels>
					<file id="file-3">
							</file>
						</clipitem>
					<clipitem id="clipitem-158">
						<masterclipid>masterclip-3</masterclipid>
						<name>Digital-Calibration.mp4</name>
						<enabled>TRUE</enabled>
						<duration>3594</duration>
						<rate>
							<timebase>30</timebase>
							<ntsc>FALSE</ntsc>
						</rate>
						<start>2829</start>
						<end>2842</end>
						<in>2829</in>
						<out>2842</out>
						<pproTicksIn>29942136000000</pproTicksIn>
						<pproTicksOut>30079728000000</pproTicksOut>
						<alphatype>none</alphatype>
						<pixelaspectratio>square</pixelaspectratio>
						<anamorphic>FALSE</anamorphic>
						<logginginfo>
							<description />
							<scene />
							<shottake />
							<lognote />
							<good />
							<originalvideofilename />
							<originalaudiofilename />
						</logginginfo>
						<colorinfo>
							<lut />
							<lut1 />
							<asc_sop />
							<asc_sat />
							<lut2 />
						</colorinfo>
						<labels>
							<label2>Rose</label2>
						</labels>
					<file id="file-3">
							</file>
						</clipitem>
					<clipitem id="clipitem-159">
						<masterclipid>masterclip-3</masterclipid>
						<name>Digital-Calibration.mp4</name>
						<enabled>TRUE</enabled>
						<duration>3594</duration>
						<rate>
							<timebase>30</timebase>
							<ntsc>FALSE</ntsc>
						</rate>
						<start>2843</start>
						<end>2844</end>
						<in>2843</in>
						<out>2844</out>
						<pproTicksIn>30090312000000</pproTicksIn>
						<pproTicksOut>30100896000000</pproTicksOut>
						<alphatype>none</alphatype>
						<pixelaspectratio>square</pixelaspectratio>
						<anamorphic>FALSE</anamorphic>
						<logginginfo>
							<description />
							<scene />
							<shottake />
							<lognote />
							<good />
							<originalvideofilename />
							<originalaudiofilename />
						</logginginfo>
						<colorinfo>
							<lut />
							<lut1 />
							<asc_sop />
							<asc_sat />
							<lut2 />
						</colorinfo>
						<labels>
							<label2>Rose</label2>
						</labels>
					<file id="file-3">
							</file>
						</clipitem>
					<clipitem id="clipitem-160">
						<masterclipid>masterclip-3</masterclipid>
						<name>Digital-Calibration.mp4</name>
						<enabled>TRUE</enabled>
						<duration>3594</duration>
						<rate>
							<timebase>30</timebase>
							<ntsc>FALSE</ntsc>
						</rate>
						<start>2849</start>
						<end>2850</end>
						<in>2849</in>
						<out>2850</out>
						<pproTicksIn>30153816000000</pproTicksIn>
						<pproTicksOut>30164400000000</pproTicksOut>
						<alphatype>none</alphatype>
						<pixelaspectratio>square</pixelaspectratio>
						<anamorphic>FALSE</anamorphic>
						<logginginfo>
							<description />
							<scene />
							<shottake />
							<lognote />
							<good />
							<originalvideofilename />
							<originalaudiofilename />
						</logginginfo>
						<colorinfo>
							<lut />
							<lut1 />
							<asc_sop />
							<asc_sat />
							<lut2 />
						</colorinfo>
						<labels>
							<label2>Rose</label2>
						</labels>
					<file id="file-3">
							</file>
						</clipitem>
					<clipitem id="clipitem-161">
						<masterclipid>masterclip-3</masterclipid>
						<name>Digital-Calibration.mp4</name>
						<enabled>TRUE</enabled>
						<duration>3594</duration>
						<rate>
							<timebase>30</timebase>
							<ntsc>FALSE</ntsc>
						</rate>
						<start>2851</start>
						<end>2856</end>
						<in>2851</in>
						<out>2856</out>
						<pproTicksIn>30174984000000</pproTicksIn>
						<pproTicksOut>30227904000000</pproTicksOut>
						<alphatype>none</alphatype>
						<pixelaspectratio>square</pixelaspectratio>
						<anamorphic>FALSE</anamorphic>
						<logginginfo>
							<description />
							<scene />
							<shottake />
							<lognote />
							<good />
							<originalvideofilename />
							<originalaudiofilename />
						</logginginfo>
						<colorinfo>
							<lut />
							<lut1 />
							<asc_sop />
							<asc_sat />
							<lut2 />
						</colorinfo>
						<labels>
							<label2>Rose</label2>
						</labels>
					<file id="file-3">
							</file>
						</clipitem>
					<clipitem id="clipitem-162">
						<masterclipid>masterclip-3</masterclipid>
						<name>Digital-Calibration.mp4</name>
						<enabled>TRUE</enabled>
						<duration>3594</duration>
						<rate>
							<timebase>30</timebase>
							<ntsc>FALSE</ntsc>
						</rate>
						<start>2864</start>
						<end>2866</end>
						<in>2864</in>
						<out>2866</out>
						<pproTicksIn>30312576000000</pproTicksIn>
						<pproTicksOut>30333744000000</pproTicksOut>
						<alphatype>none</alphatype>
						<pixelaspectratio>square</pixelaspectratio>
						<anamorphic>FALSE</anamorphic>
						<logginginfo>
							<description />
							<scene />
							<shottake />
							<lognote />
							<good />
							<originalvideofilename />
							<originalaudiofilename />
						</logginginfo>
						<colorinfo>
							<lut />
							<lut1 />
							<asc_sop />
							<asc_sat />
							<lut2 />
						</colorinfo>
						<labels>
							<label2>Rose</label2>
						</labels>
					<file id="file-3">
							</file>
						</clipitem>
					<clipitem id="clipitem-163">
						<masterclipid>masterclip-3</masterclipid>
						<name>Digital-Calibration.mp4</name>
						<enabled>TRUE</enabled>
						<duration>3594</duration>
						<rate>
							<timebase>30</timebase>
							<ntsc>FALSE</ntsc>
						</rate>
						<start>2870</start>
						<end>2872</end>
						<in>2870</in>
						<out>2872</out>
						<pproTicksIn>30376080000000</pproTicksIn>
						<pproTicksOut>30397248000000</pproTicksOut>
						<alphatype>none</alphatype>
						<pixelaspectratio>square</pixelaspectratio>
						<anamorphic>FALSE</anamorphic>
						<logginginfo>
							<description />
							<scene />
							<shottake />
							<lognote />
							<good />
							<originalvideofilename />
							<originalaudiofilename />
						</logginginfo>
						<colorinfo>
							<lut />
							<lut1 />
							<asc_sop />
							<asc_sat />
							<lut2 />
						</colorinfo>
						<labels>
							<label2>Rose</label2>
						</labels>
					<file id="file-3">
							</file>
						</clipitem>
					<clipitem id="clipitem-164">
						<masterclipid>masterclip-3</masterclipid>
						<name>Digital-Calibration.mp4</name>
						<enabled>TRUE</enabled>
						<duration>3594</duration>
						<rate>
							<timebase>30</timebase>
							<ntsc>FALSE</ntsc>
						</rate>
						<start>2878</start>
						<end>2881</end>
						<in>2878</in>
						<out>2881</out>
						<pproTicksIn>30460752000000</pproTicksIn>
						<pproTicksOut>30492504000000</pproTicksOut>
						<alphatype>none</alphatype>
						<pixelaspectratio>square</pixelaspectratio>
						<anamorphic>FALSE</anamorphic>
						<logginginfo>
							<description />
							<scene />
							<shottake />
							<lognote />
							<good />
							<originalvideofilename />
							<originalaudiofilename />
						</logginginfo>
						<colorinfo>
							<lut />
							<lut1 />
							<asc_sop />
							<asc_sat />
							<lut2 />
						</colorinfo>
						<labels>
							<label2>Rose</label2>
						</labels>
					<file id="file-3">
							</file>
						</clipitem>
					<clipitem id="clipitem-165">
						<masterclipid>masterclip-3</masterclipid>
						<name>Digital-Calibration.mp4</name>
						<enabled>TRUE</enabled>
						<duration>3594</duration>
						<rate>
							<timebase>30</timebase>
							<ntsc>FALSE</ntsc>
						</rate>
						<start>2886</start>
						<end>2889</end>
						<in>2886</in>
						<out>2889</out>
						<pproTicksIn>30545424000000</pproTicksIn>
						<pproTicksOut>30577176000000</pproTicksOut>
						<alphatype>none</alphatype>
						<pixelaspectratio>square</pixelaspectratio>
						<anamorphic>FALSE</anamorphic>
						<logginginfo>
							<description />
							<scene />
							<shottake />
							<lognote />
							<good />
							<originalvideofilename />
							<originalaudiofilename />
						</logginginfo>
						<colorinfo>
							<lut />
							<lut1 />
							<asc_sop />
							<asc_sat />
							<lut2 />
						</colorinfo>
						<labels>
							<label2>Rose</label2>
						</labels>
					<file id="file-3">
							</file>
						</clipitem>
					<clipitem id="clipitem-166">
						<masterclipid>masterclip-3</masterclipid>
						<name>Digital-Calibration.mp4</name>
						<enabled>TRUE</enabled>
						<duration>3594</duration>
						<rate>
							<timebase>30</timebase>
							<ntsc>FALSE</ntsc>
						</rate>
						<start>2894</start>
						<end>2900</end>
						<in>2894</in>
						<out>2900</out>
						<pproTicksIn>30630096000000</pproTicksIn>
						<pproTicksOut>30693600000000</pproTicksOut>
						<alphatype>none</alphatype>
						<pixelaspectratio>square</pixelaspectratio>
						<anamorphic>FALSE</anamorphic>
						<logginginfo>
							<description />
							<scene />
							<shottake />
							<lognote />
							<good />
							<originalvideofilename />
							<originalaudiofilename />
						</logginginfo>
						<colorinfo>
							<lut />
							<lut1 />
							<asc_sop />
							<asc_sat />
							<lut2 />
						</colorinfo>
						<labels>
							<label2>Rose</label2>
						</labels>
					<file id="file-3">
							</file>
						</clipitem>
					<clipitem id="clipitem-167">
						<masterclipid>masterclip-3</masterclipid>
						<name>Digital-Calibration.mp4</name>
						<enabled>TRUE</enabled>
						<duration>3594</duration>
						<rate>
							<timebase>30</timebase>
							<ntsc>FALSE</ntsc>
						</rate>
						<start>2903</start>
						<end>2910</end>
						<in>2903</in>
						<out>2910</out>
						<pproTicksIn>30725352000000</pproTicksIn>
						<pproTicksOut>30799440000000</pproTicksOut>
						<alphatype>none</alphatype>
						<pixelaspectratio>square</pixelaspectratio>
						<anamorphic>FALSE</anamorphic>
						<logginginfo>
							<description />
							<scene />
							<shottake />
							<lognote />
							<good />
							<originalvideofilename />
							<originalaudiofilename />
						</logginginfo>
						<colorinfo>
							<lut />
							<lut1 />
							<asc_sop />
							<asc_sat />
							<lut2 />
						</colorinfo>
						<labels>
							<label2>Rose</label2>
						</labels>
					<file id="file-3">
							</file>
						</clipitem>
					<clipitem id="clipitem-168">
						<masterclipid>masterclip-3</masterclipid>
						<name>Digital-Calibration.mp4</name>
						<enabled>TRUE</enabled>
						<duration>3594</duration>
						<rate>
							<timebase>30</timebase>
							<ntsc>FALSE</ntsc>
						</rate>
						<start>2912</start>
						<end>2915</end>
						<in>2912</in>
						<out>2915</out>
						<pproTicksIn>30820608000000</pproTicksIn>
						<pproTicksOut>30852360000000</pproTicksOut>
						<alphatype>none</alphatype>
						<pixelaspectratio>square</pixelaspectratio>
						<anamorphic>FALSE</anamorphic>
						<logginginfo>
							<description />
							<scene />
							<shottake />
							<lognote />
							<good />
							<originalvideofilename />
							<originalaudiofilename />
						</logginginfo>
						<colorinfo>
							<lut />
							<lut1 />
							<asc_sop />
							<asc_sat />
							<lut2 />
						</colorinfo>
						<labels>
							<label2>Rose</label2>
						</labels>
					<file id="file-3">
							</file>
						</clipitem>
					<clipitem id="clipitem-169">
						<masterclipid>masterclip-3</masterclipid>
						<name>Digital-Calibration.mp4</name>
						<enabled>TRUE</enabled>
						<duration>3594</duration>
						<rate>
							<timebase>30</timebase>
							<ntsc>FALSE</ntsc>
						</rate>
						<start>2921</start>
						<end>2928</end>
						<in>2921</in>
						<out>2928</out>
						<pproTicksIn>30915864000000</pproTicksIn>
						<pproTicksOut>30989952000000</pproTicksOut>
						<alphatype>none</alphatype>
						<pixelaspectratio>square</pixelaspectratio>
						<anamorphic>FALSE</anamorphic>
						<logginginfo>
							<description />
							<scene />
							<shottake />
							<lognote />
							<good />
							<originalvideofilename />
							<originalaudiofilename />
						</logginginfo>
						<colorinfo>
							<lut />
							<lut1 />
							<asc_sop />
							<asc_sat />
							<lut2 />
						</colorinfo>
						<labels>
							<label2>Rose</label2>
						</labels>
					<file id="file-3">
							</file>
						</clipitem>
					<clipitem id="clipitem-170">
						<masterclipid>masterclip-3</masterclipid>
						<name>Digital-Calibration.mp4</name>
						<enabled>TRUE</enabled>
						<duration>3594</duration>
						<rate>
							<timebase>30</timebase>
							<ntsc>FALSE</ntsc>
						</rate>
						<start>2931</start>
						<end>2938</end>
						<in>2931</in>
						<out>2938</out>
						<pproTicksIn>31021704000000</pproTicksIn>
						<pproTicksOut>31095792000000</pproTicksOut>
						<alphatype>none</alphatype>
						<pixelaspectratio>square</pixelaspectratio>
						<anamorphic>FALSE</anamorphic>
						<logginginfo>
							<description />
							<scene />
							<shottake />
							<lognote />
							<good />
							<originalvideofilename />
							<originalaudiofilename />
						</logginginfo>
						<colorinfo>
							<lut />
							<lut1 />
							<asc_sop />
							<asc_sat />
							<lut2 />
						</colorinfo>
						<labels>
							<label2>Rose</label2>
						</labels>
					<file id="file-3">
							</file>
						</clipitem>
					<clipitem id="clipitem-171">
						<masterclipid>masterclip-3</masterclipid>
						<name>Digital-Calibration.mp4</name>
						<enabled>TRUE</enabled>
						<duration>3594</duration>
						<rate>
							<timebase>30</timebase>
							<ntsc>FALSE</ntsc>
						</rate>
						<start>2941</start>
						<end>2950</end>
						<in>2941</in>
						<out>2950</out>
						<pproTicksIn>31127544000000</pproTicksIn>
						<pproTicksOut>31222800000000</pproTicksOut>
						<alphatype>none</alphatype>
						<pixelaspectratio>square</pixelaspectratio>
						<anamorphic>FALSE</anamorphic>
						<logginginfo>
							<description />
							<scene />
							<shottake />
							<lognote />
							<good />
							<originalvideofilename />
							<originalaudiofilename />
						</logginginfo>
						<colorinfo>
							<lut />
							<lut1 />
							<asc_sop />
							<asc_sat />
							<lut2 />
						</colorinfo>
						<labels>
							<label2>Rose</label2>
						</labels>
					<file id="file-3">
							</file>
						</clipitem>
					<clipitem id="clipitem-172">
						<masterclipid>masterclip-3</masterclipid>
						<name>Digital-Calibration.mp4</name>
						<enabled>TRUE</enabled>
						<duration>3594</duration>
						<rate>
							<timebase>30</timebase>
							<ntsc>FALSE</ntsc>
						</rate>
						<start>2953</start>
						<end>2984</end>
						<in>2953</in>
						<out>2984</out>
						<pproTicksIn>31254552000000</pproTicksIn>
						<pproTicksOut>31582656000000</pproTicksOut>
						<alphatype>none</alphatype>
						<pixelaspectratio>square</pixelaspectratio>
						<anamorphic>FALSE</anamorphic>
						<logginginfo>
							<description />
							<scene />
							<shottake />
							<lognote />
							<good />
							<originalvideofilename />
							<originalaudiofilename />
						</logginginfo>
						<colorinfo>
							<lut />
							<lut1 />
							<asc_sop />
							<asc_sat />
							<lut2 />
						</colorinfo>
						<labels>
							<label2>Rose</label2>
						</labels>
					<file id="file-3">
							</file>
						</clipitem>
					<clipitem id="clipitem-173">
						<masterclipid>masterclip-3</masterclipid>
						<name>Digital-Calibration.mp4</name>
						<enabled>TRUE</enabled>
						<duration>3594</duration>
						<rate>
							<timebase>30</timebase>
							<ntsc>FALSE</ntsc>
						</rate>
						<start>2990</start>
						<end>3020</end>
						<in>2990</in>
						<out>3020</out>
						<pproTicksIn>31646160000000</pproTicksIn>
						<pproTicksOut>31963680000000</pproTicksOut>
						<alphatype>none</alphatype>
						<pixelaspectratio>square</pixelaspectratio>
						<anamorphic>FALSE</anamorphic>
						<logginginfo>
							<description />
							<scene />
							<shottake />
							<lognote />
							<good />
							<originalvideofilename />
							<originalaudiofilename />
						</logginginfo>
						<colorinfo>
							<lut />
							<lut1 />
							<asc_sop />
							<asc_sat />
							<lut2 />
						</colorinfo>
						<labels>
							<label2>Rose</label2>
						</labels>
					<file id="file-3">
							</file>
						</clipitem>
					<clipitem id="clipitem-174">
						<masterclipid>masterclip-3</masterclipid>
						<name>Digital-Calibration.mp4</name>
						<enabled>TRUE</enabled>
						<duration>3594</duration>
						<rate>
							<timebase>30</timebase>
							<ntsc>FALSE</ntsc>
						</rate>
						<start>3023</start>
						<end>3042</end>
						<in>3023</in>
						<out>3042</out>
						<pproTicksIn>31995432000000</pproTicksIn>
						<pproTicksOut>32196528000000</pproTicksOut>
						<alphatype>none</alphatype>
						<pixelaspectratio>square</pixelaspectratio>
						<anamorphic>FALSE</anamorphic>
						<logginginfo>
							<description />
							<scene />
							<shottake />
							<lognote />
							<good />
							<originalvideofilename />
							<originalaudiofilename />
						</logginginfo>
						<colorinfo>
							<lut />
							<lut1 />
							<asc_sop />
							<asc_sat />
							<lut2 />
						</colorinfo>
						<labels>
							<label2>Rose</label2>
						</labels>
					<file id="file-3">
							</file>
						</clipitem>
					<clipitem id="clipitem-175">
						<masterclipid>masterclip-3</masterclipid>
						<name>Digital-Calibration.mp4</name>
						<enabled>TRUE</enabled>
						<duration>3594</duration>
						<rate>
							<timebase>30</timebase>
							<ntsc>FALSE</ntsc>
						</rate>
						<start>3047</start>
						<end>3051</end>
						<in>3047</in>
						<out>3051</out>
						<pproTicksIn>32249448000000</pproTicksIn>
						<pproTicksOut>32291784000000</pproTicksOut>
						<alphatype>none</alphatype>
						<pixelaspectratio>square</pixelaspectratio>
						<anamorphic>FALSE</anamorphic>
						<logginginfo>
							<description />
							<scene />
							<shottake />
							<lognote />
							<good />
							<originalvideofilename />
							<originalaudiofilename />
						</logginginfo>
						<colorinfo>
							<lut />
							<lut1 />
							<asc_sop />
							<asc_sat />
							<lut2 />
						</colorinfo>
						<labels>
							<label2>Rose</label2>
						</labels>
					<file id="file-3">
							</file>
						</clipitem>
					<clipitem id="clipitem-176">
						<masterclipid>masterclip-3</masterclipid>
						<name>Digital-Calibration.mp4</name>
						<enabled>TRUE</enabled>
						<duration>3594</duration>
						<rate>
							<timebase>30</timebase>
							<ntsc>FALSE</ntsc>
						</rate>
						<start>3054</start>
						<end>3103</end>
						<in>3054</in>
						<out>3103</out>
						<pproTicksIn>32323536000000</pproTicksIn>
						<pproTicksOut>32842152000000</pproTicksOut>
						<alphatype>none</alphatype>
						<pixelaspectratio>square</pixelaspectratio>
						<anamorphic>FALSE</anamorphic>
						<logginginfo>
							<description />
							<scene />
							<shottake />
							<lognote />
							<good />
							<originalvideofilename />
							<originalaudiofilename />
						</logginginfo>
						<colorinfo>
							<lut />
							<lut1 />
							<asc_sop />
							<asc_sat />
							<lut2 />
						</colorinfo>
						<labels>
							<label2>Rose</label2>
						</labels>
					<file id="file-3">
							</file>
						</clipitem>
					<clipitem id="clipitem-177">
						<masterclipid>masterclip-3</masterclipid>
						<name>Digital-Calibration.mp4</name>
						<enabled>TRUE</enabled>
						<duration>3594</duration>
						<rate>
							<timebase>30</timebase>
							<ntsc>FALSE</ntsc>
						</rate>
						<start>3113</start>
						<end>3129</end>
						<in>3113</in>
						<out>3129</out>
						<pproTicksIn>32947992000000</pproTicksIn>
						<pproTicksOut>33117336000000</pproTicksOut>
						<alphatype>none</alphatype>
						<pixelaspectratio>square</pixelaspectratio>
						<anamorphic>FALSE</anamorphic>
						<logginginfo>
							<description />
							<scene />
							<shottake />
							<lognote />
							<good />
							<originalvideofilename />
							<originalaudiofilename />
						</logginginfo>
						<colorinfo>
							<lut />
							<lut1 />
							<asc_sop />
							<asc_sat />
							<lut2 />
						</colorinfo>
						<labels>
							<label2>Rose</label2>
						</labels>
					<file id="file-3">
							</file>
						</clipitem>
					<clipitem id="clipitem-178">
						<masterclipid>masterclip-3</masterclipid>
						<name>Digital-Calibration.mp4</name>
						<enabled>TRUE</enabled>
						<duration>3594</duration>
						<rate>
							<timebase>30</timebase>
							<ntsc>FALSE</ntsc>
						</rate>
						<start>3137</start>
						<end>3142</end>
						<in>3137</in>
						<out>3142</out>
						<pproTicksIn>33202008000000</pproTicksIn>
						<pproTicksOut>33254928000000</pproTicksOut>
						<alphatype>none</alphatype>
						<pixelaspectratio>square</pixelaspectratio>
						<anamorphic>FALSE</anamorphic>
						<logginginfo>
							<description />
							<scene />
							<shottake />
							<lognote />
							<good />
							<originalvideofilename />
							<originalaudiofilename />
						</logginginfo>
						<colorinfo>
							<lut />
							<lut1 />
							<asc_sop />
							<asc_sat />
							<lut2 />
						</colorinfo>
						<labels>
							<label2>Rose</label2>
						</labels>
					<file id="file-3">
							</file>
						</clipitem>
					<clipitem id="clipitem-179">
						<masterclipid>masterclip-3</masterclipid>
						<name>Digital-Calibration.mp4</name>
						<enabled>TRUE</enabled>
						<duration>3594</duration>
						<rate>
							<timebase>30</timebase>
							<ntsc>FALSE</ntsc>
						</rate>
						<start>3154</start>
						<end>3165</end>
						<in>3154</in>
						<out>3165</out>
						<pproTicksIn>33381936000000</pproTicksIn>
						<pproTicksOut>33498360000000</pproTicksOut>
						<alphatype>none</alphatype>
						<pixelaspectratio>square</pixelaspectratio>
						<anamorphic>FALSE</anamorphic>
						<logginginfo>
							<description />
							<scene />
							<shottake />
							<lognote />
							<good />
							<originalvideofilename />
							<originalaudiofilename />
						</logginginfo>
						<colorinfo>
							<lut />
							<lut1 />
							<asc_sop />
							<asc_sat />
							<lut2 />
						</colorinfo>
						<labels>
							<label2>Rose</label2>
						</labels>
					<file id="file-3">
							</file>
						</clipitem>
					<clipitem id="clipitem-180">
						<masterclipid>masterclip-3</masterclipid>
						<name>Digital-Calibration.mp4</name>
						<enabled>TRUE</enabled>
						<duration>3594</duration>
						<rate>
							<timebase>30</timebase>
							<ntsc>FALSE</ntsc>
						</rate>
						<start>3176</start>
						<end>3182</end>
						<in>3176</in>
						<out>3182</out>
						<pproTicksIn>33614784000000</pproTicksIn>
						<pproTicksOut>33678288000000</pproTicksOut>
						<alphatype>none</alphatype>
						<pixelaspectratio>square</pixelaspectratio>
						<anamorphic>FALSE</anamorphic>
						<logginginfo>
							<description />
							<scene />
							<shottake />
							<lognote />
							<good />
							<originalvideofilename />
							<originalaudiofilename />
						</logginginfo>
						<colorinfo>
							<lut />
							<lut1 />
							<asc_sop />
							<asc_sat />
							<lut2 />
						</colorinfo>
						<labels>
							<label2>Rose</label2>
						</labels>
					<file id="file-3">
							</file>
						</clipitem>
					<clipitem id="clipitem-181">
						<masterclipid>masterclip-3</masterclipid>
						<name>Digital-Calibration.mp4</name>
						<enabled>TRUE</enabled>
						<duration>3594</duration>
						<rate>
							<timebase>30</timebase>
							<ntsc>FALSE</ntsc>
						</rate>
						<start>3203</start>
						<end>3223</end>
						<in>3203</in>
						<out>3223</out>
						<pproTicksIn>33900552000000</pproTicksIn>
						<pproTicksOut>34112232000000</pproTicksOut>
						<alphatype>none</alphatype>
						<pixelaspectratio>square</pixelaspectratio>
						<anamorphic>FALSE</anamorphic>
						<logginginfo>
							<description />
							<scene />
							<shottake />
							<lognote />
							<good />
							<originalvideofilename />
							<originalaudiofilename />
						</logginginfo>
						<colorinfo>
							<lut />
							<lut1 />
							<asc_sop />
							<asc_sat />
							<lut2 />
						</colorinfo>
						<labels>
							<label2>Rose</label2>
						</labels>
					<file id="file-3">
							</file>
						</clipitem>
					<clipitem id="clipitem-182">
						<masterclipid>masterclip-3</masterclipid>
						<name>Digital-Calibration.mp4</name>
						<enabled>TRUE</enabled>
						<duration>3594</duration>
						<rate>
							<timebase>30</timebase>
							<ntsc>FALSE</ntsc>
						</rate>
						<start>3226</start>
						<end>3246</end>
						<in>3226</in>
						<out>3246</out>
						<pproTicksIn>34143984000000</pproTicksIn>
						<pproTicksOut>34355664000000</pproTicksOut>
						<alphatype>none</alphatype>
						<pixelaspectratio>square</pixelaspectratio>
						<anamorphic>FALSE</anamorphic>
						<logginginfo>
							<description />
							<scene />
							<shottake />
							<lognote />
							<good />
							<originalvideofilename />
							<originalaudiofilename />
						</logginginfo>
						<colorinfo>
							<lut />
							<lut1 />
							<asc_sop />
							<asc_sat />
							<lut2 />
						</colorinfo>
						<labels>
							<label2>Rose</label2>
						</labels>
					<file id="file-3">
							</file>
						</clipitem>
					<clipitem id="clipitem-183">
						<masterclipid>masterclip-3</masterclipid>
						<name>Digital-Calibration.mp4</name>
						<enabled>TRUE</enabled>
						<duration>3594</duration>
						<rate>
							<timebase>30</timebase>
							<ntsc>FALSE</ntsc>
						</rate>
						<start>3251</start>
						<end>3260</end>
						<in>3251</in>
						<out>3260</out>
						<pproTicksIn>34408584000000</pproTicksIn>
						<pproTicksOut>34503840000000</pproTicksOut>
						<alphatype>none</alphatype>
						<pixelaspectratio>square</pixelaspectratio>
						<anamorphic>FALSE</anamorphic>
						<logginginfo>
							<description />
							<scene />
							<shottake />
							<lognote />
							<good />
							<originalvideofilename />
							<originalaudiofilename />
						</logginginfo>
						<colorinfo>
							<lut />
							<lut1 />
							<asc_sop />
							<asc_sat />
							<lut2 />
						</colorinfo>
						<labels>
							<label2>Rose</label2>
						</labels>
					<file id="file-3">
							</file>
						</clipitem>
					<clipitem id="clipitem-184">
						<masterclipid>masterclip-3</masterclipid>
						<name>Digital-Calibration.mp4</name>
						<enabled>TRUE</enabled>
						<duration>3594</duration>
						<rate>
							<timebase>30</timebase>
							<ntsc>FALSE</ntsc>
						</rate>
						<start>3264</start>
						<end>3276</end>
						<in>3264</in>
						<out>3276</out>
						<pproTicksIn>34546176000000</pproTicksIn>
						<pproTicksOut>34673184000000</pproTicksOut>
						<alphatype>none</alphatype>
						<pixelaspectratio>square</pixelaspectratio>
						<anamorphic>FALSE</anamorphic>
						<logginginfo>
							<description />
							<scene />
							<shottake />
							<lognote />
							<good />
							<originalvideofilename />
							<originalaudiofilename />
						</logginginfo>
						<colorinfo>
							<lut />
							<lut1 />
							<asc_sop />
							<asc_sat />
							<lut2 />
						</colorinfo>
						<labels>
							<label2>Rose</label2>
						</labels>
					<file id="file-3">
							</file>
						</clipitem>
					<clipitem id="clipitem-185">
						<masterclipid>masterclip-3</masterclipid>
						<name>Digital-Calibration.mp4</name>
						<enabled>TRUE</enabled>
						<duration>3594</duration>
						<rate>
							<timebase>30</timebase>
							<ntsc>FALSE</ntsc>
						</rate>
						<start>3279</start>
						<end>3295</end>
						<in>3279</in>
						<out>3295</out>
						<pproTicksIn>34704936000000</pproTicksIn>
						<pproTicksOut>34874280000000</pproTicksOut>
						<alphatype>none</alphatype>
						<pixelaspectratio>square</pixelaspectratio>
						<anamorphic>FALSE</anamorphic>
						<logginginfo>
							<description />
							<scene />
							<shottake />
							<lognote />
							<good />
							<originalvideofilename />
							<originalaudiofilename />
						</logginginfo>
						<colorinfo>
							<lut />
							<lut1 />
							<asc_sop />
							<asc_sat />
							<lut2 />
						</colorinfo>
						<labels>
							<label2>Rose</label2>
						</labels>
					<file id="file-3">
							</file>
						</clipitem>
					<clipitem id="clipitem-186">
						<masterclipid>masterclip-3</masterclipid>
						<name>Digital-Calibration.mp4</name>
						<enabled>TRUE</enabled>
						<duration>3594</duration>
						<rate>
							<timebase>30</timebase>
							<ntsc>FALSE</ntsc>
						</rate>
						<start>3299</start>
						<end>3309</end>
						<in>3299</in>
						<out>3309</out>
						<pproTicksIn>34916616000000</pproTicksIn>
						<pproTicksOut>35022456000000</pproTicksOut>
						<alphatype>none</alphatype>
						<pixelaspectratio>square</pixelaspectratio>
						<anamorphic>FALSE</anamorphic>
						<logginginfo>
							<description />
							<scene />
							<shottake />
							<lognote />
							<good />
							<originalvideofilename />
							<originalaudiofilename />
						</logginginfo>
						<colorinfo>
							<lut />
							<lut1 />
							<asc_sop />
							<asc_sat />
							<lut2 />
						</colorinfo>
						<labels>
							<label2>Rose</label2>
						</labels>
					<file id="file-3">
							</file>
						</clipitem>
					<clipitem id="clipitem-187">
						<masterclipid>masterclip-3</masterclipid>
						<name>Digital-Calibration.mp4</name>
						<enabled>TRUE</enabled>
						<duration>3594</duration>
						<rate>
							<timebase>30</timebase>
							<ntsc>FALSE</ntsc>
						</rate>
						<start>3312</start>
						<end>3326</end>
						<in>3312</in>
						<out>3326</out>
						<pproTicksIn>35054208000000</pproTicksIn>
						<pproTicksOut>35202384000000</pproTicksOut>
						<alphatype>none</alphatype>
						<pixelaspectratio>square</pixelaspectratio>
						<anamorphic>FALSE</anamorphic>
						<logginginfo>
							<description />
							<scene />
							<shottake />
							<lognote />
							<good />
							<originalvideofilename />
							<originalaudiofilename />
						</logginginfo>
						<colorinfo>
							<lut />
							<lut1 />
							<asc_sop />
							<asc_sat />
							<lut2 />
						</colorinfo>
						<labels>
							<label2>Rose</label2>
						</labels>
					<file id="file-3">
							</file>
						</clipitem>
					<clipitem id="clipitem-188">
						<masterclipid>masterclip-3</masterclipid>
						<name>Digital-Calibration.mp4</name>
						<enabled>TRUE</enabled>
						<duration>3594</duration>
						<rate>
							<timebase>30</timebase>
							<ntsc>FALSE</ntsc>
						</rate>
						<start>3327</start>
						<end>3342</end>
						<in>3327</in>
						<out>3342</out>
						<pproTicksIn>35212968000000</pproTicksIn>
						<pproTicksOut>35371728000000</pproTicksOut>
						<alphatype>none</alphatype>
						<pixelaspectratio>square</pixelaspectratio>
						<anamorphic>FALSE</anamorphic>
						<logginginfo>
							<description />
							<scene />
							<shottake />
							<lognote />
							<good />
							<originalvideofilename />
							<originalaudiofilename />
						</logginginfo>
						<colorinfo>
							<lut />
							<lut1 />
							<asc_sop />
							<asc_sat />
							<lut2 />
						</colorinfo>
						<labels>
							<label2>Rose</label2>
						</labels>
					<file id="file-3">
							</file>
						</clipitem>
					<clipitem id="clipitem-189">
						<masterclipid>masterclip-3</masterclipid>
						<name>Digital-Calibration.mp4</name>
						<enabled>TRUE</enabled>
						<duration>3594</duration>
						<rate>
							<timebase>30</timebase>
							<ntsc>FALSE</ntsc>
						</rate>
						<start>3346</start>
						<end>3347</end>
						<in>3346</in>
						<out>3347</out>
						<pproTicksIn>35414064000000</pproTicksIn>
						<pproTicksOut>35424648000000</pproTicksOut>
						<alphatype>none</alphatype>
						<pixelaspectratio>square</pixelaspectratio>
						<anamorphic>FALSE</anamorphic>
						<logginginfo>
							<description />
							<scene />
							<shottake />
							<lognote />
							<good />
							<originalvideofilename />
							<originalaudiofilename />
						</logginginfo>
						<colorinfo>
							<lut />
							<lut1 />
							<asc_sop />
							<asc_sat />
							<lut2 />
						</colorinfo>
						<labels>
							<label2>Rose</label2>
						</labels>
					<file id="file-3">
							</file>
						</clipitem>
					<clipitem id="clipitem-190">
						<masterclipid>masterclip-3</masterclipid>
						<name>Digital-Calibration.mp4</name>
						<enabled>TRUE</enabled>
						<duration>3594</duration>
						<rate>
							<timebase>30</timebase>
							<ntsc>FALSE</ntsc>
						</rate>
						<start>3348</start>
						<end>3365</end>
						<in>3348</in>
						<out>3365</out>
						<pproTicksIn>35435232000000</pproTicksIn>
						<pproTicksOut>35615160000000</pproTicksOut>
						<alphatype>none</alphatype>
						<pixelaspectratio>square</pixelaspectratio>
						<anamorphic>FALSE</anamorphic>
						<logginginfo>
							<description />
							<scene />
							<shottake />
							<lognote />
							<good />
							<originalvideofilename />
							<originalaudiofilename />
						</logginginfo>
						<colorinfo>
							<lut />
							<lut1 />
							<asc_sop />
							<asc_sat />
							<lut2 />
						</colorinfo>
						<labels>
							<label2>Rose</label2>
						</labels>
					<file id="file-3">
							</file>
						</clipitem>
					<clipitem id="clipitem-191">
						<masterclipid>masterclip-3</masterclipid>
						<name>Digital-Calibration.mp4</name>
						<enabled>TRUE</enabled>
						<duration>3594</duration>
						<rate>
							<timebase>30</timebase>
							<ntsc>FALSE</ntsc>
						</rate>
						<start>3374</start>
						<end>3527</end>
						<in>3374</in>
						<out>3527</out>
						<pproTicksIn>35710416000000</pproTicksIn>
						<pproTicksOut>37329768000000</pproTicksOut>
						<alphatype>none</alphatype>
						<pixelaspectratio>square</pixelaspectratio>
						<anamorphic>FALSE</anamorphic>
						<logginginfo>
							<description />
							<scene />
							<shottake />
							<lognote />
							<good />
							<originalvideofilename />
							<originalaudiofilename />
						</logginginfo>
						<colorinfo>
							<lut />
							<lut1 />
							<asc_sop />
							<asc_sat />
							<lut2 />
						</colorinfo>
						<labels>
							<label2>Rose</label2>
						</labels>
					<file id="file-3">
							</file>
						</clipitem>
					<clipitem id="clipitem-192">
						<masterclipid>masterclip-3</masterclipid>
						<name>Digital-Calibration.mp4</name>
						<enabled>TRUE</enabled>
						<duration>3594</duration>
						<rate>
							<timebase>30</timebase>
							<ntsc>FALSE</ntsc>
						</rate>
						<start>3549</start>
						<end>3557</end>
						<in>3549</in>
						<out>3557</out>
						<pproTicksIn>37562616000000</pproTicksIn>
						<pproTicksOut>37647288000000</pproTicksOut>
						<alphatype>none</alphatype>
						<pixelaspectratio>square</pixelaspectratio>
						<anamorphic>FALSE</anamorphic>
						<logginginfo>
							<description />
							<scene />
							<shottake />
							<lognote />
							<good />
							<originalvideofilename />
							<originalaudiofilename />
						</logginginfo>
						<colorinfo>
							<lut />
							<lut1 />
							<asc_sop />
							<asc_sat />
							<lut2 />
						</colorinfo>
						<labels>
							<label2>Rose</label2>
						</labels>
					<file id="file-3">
							</file>
						</clipitem>
					</track>
				<track MZ.TrackName="GH4" MZ.TrackTargeted="0" TL.SQTrackExpanded="0" TL.SQTrackExpandedHeight="25" TL.SQTrackShy="0">
					<enabled>TRUE</enabled>
					<locked>FALSE</locked>
				</track>
				<track MZ.TrackName="GH5" MZ.TrackTargeted="0" TL.SQTrackExpanded="0" TL.SQTrackExpandedHeight="25" TL.SQTrackShy="0">
					<enabled>TRUE</enabled>
					<locked>FALSE</locked>
				</track>
				<track MZ.TrackName="GH4" MZ.TrackTargeted="0" TL.SQTrackExpanded="0" TL.SQTrackExpandedHeight="25" TL.SQTrackShy="0">
					<enabled>TRUE</enabled>
					<locked>FALSE</locked>
				</track>
			<track MZ.TrackName="GH5" MZ.TrackTargeted="0" TL.SQTrackExpanded="0" TL.SQTrackExpandedHeight="25" TL.SQTrackShy="0">
					<enabled>TRUE</enabled>
					<locked>FALSE</locked>
				</track>
			</video>
			<audio>
				<numOutputChannels>2</numOutputChannels>
				<format>
					<samplecharacteristics>
						<depth>16</depth>
						<samplerate>48000</samplerate>
					</samplecharacteristics>
				</format>
				<outputs>
					<group>
						<index>1</index>
						<numchannels>1</numchannels>
						<downmix>0</downmix>
						<channel>
							<index>1</index>
						</channel>
					</group>
					<group>
						<index>2</index>
						<numchannels>1</numchannels>
						<downmix>0</downmix>
						<channel>
							<index>2</index>
						</channel>
					</group>
				</outputs>
				</audio>
		</media>
		<timecode>
			<rate>
				<timebase>30</timebase>
				<ntsc>FALSE</ntsc>
			</rate>
			<string>00:00:00:00</string>
			<frame>0</frame>
			<displayformat>NDF</displayformat>
		</timecode>
		<labels>
			<label2>Forest</label2>
		</labels>
	</sequence>
</xmeml>