<xmeml version="4">
	<sequence MZ.EditLine="0" MZ.Sequence.AudioTimeDisplayFormat="200" MZ.Sequence.EditingModeGUID="9678af98-a7b7-4bdb-b477-7ac9c8df4a4e" MZ.Sequence.PreviewFrameSizeHeight="1080" MZ.Sequence.PreviewFrameSizeWidth="1728" MZ.Sequence.PreviewRenderingClassID="1297106761" MZ.Sequence.PreviewRenderingPresetCodec="1297107278" MZ.Sequence.PreviewRenderingPresetPath="EncoderPresets\SequencePreview\9678af98-a7b7-4bdb-b477-7ac9c8df4a4e\I-Frame Only MPEG.epr" MZ.Sequence.PreviewUseMaxBitDepth="false" MZ.Sequence.PreviewUseMaxRenderQuality="false" MZ.Sequence.VideoTimeDisplayFormat="104" MZ.WorkInPoint="0" MZ.WorkOutPoint="30431116800000" Monitor.ProgramZoomIn="0" Monitor.ProgramZoomOut="30431116800000" TL.SQAVDividerPosition="0.5" TL.SQAudioVisibleBase="0" TL.SQHeaderWidth="236" TL.SQHideShyTracks="0" TL.SQTimePerPixel="0.24958333333333332" TL.SQVideoVisibleBase="0" TL.SQVisibleBaseTime="0" explodedTracks="true" id="sequence-3">
		<uuid>1a65d1c7-fa91-4f40-9a7d-2665bceecc8a</uuid>
		<duration>3594</duration>
		<rate>
			<timebase>30</timebase>
			<ntsc>FALSE</ntsc>
		</rate>
		<name>Digital-Calibration</name>
		<media>
			<video>
				<format>
					<samplecharacteristics>
						<rate>
							<timebase>30</timebase>
							<ntsc>FALSE</ntsc>
						</rate>
						<codec>
							<name>Apple ProRes 422</name>
							<appspecificdata>
								<appname>Final Cut Pro</appname>
								<appmanufacturer>Apple Inc.</appmanufacturer>
								<appversion>7.0</appversion>
								<data>
									<qtcodec>
										<codecname>Apple ProRes 422</codecname>
										<codectypename>Apple ProRes 422</codectypename>
										<codectypecode>apcn</codectypecode>
										<codecvendorcode>appl</codecvendorcode>
										<spatialquality>1024</spatialquality>
										<temporalquality>0</temporalquality>
										<keyframerate>0</keyframerate>
										<datarate>0</datarate>
									</qtcodec>
								</data>
							</appspecificdata>
						</codec>
						<width>1920</width>
						<height>1200</height>
						<anamorphic>FALSE</anamorphic>
						<pixelaspectratio>square</pixelaspectratio>
						<fielddominance>none</fielddominance>
						<colordepth>24</colordepth>
					</samplecharacteristics>
				</format>
				<track MZ.TrackTargeted="1" TL.SQTrackExpanded="0" TL.SQTrackExpandedHeight="25" TL.SQTrackShy="0">
					<clipitem id="clipitem-7">
						<masterclipid>masterclip-3</masterclipid>
						<name>Digital-Calibration.mp4</name>
						<enabled>TRUE</enabled>
						<duration>3594</duration>
						<rate>
							<timebase>30</timebase>
							<ntsc>FALSE</ntsc>
						</rate>
						<start>0</start>
						<end>3594</end>
						<in>0</in>
						<out>3594</out>
						<pproTicksIn>0</pproTicksIn>
						<pproTicksOut>30431116800000</pproTicksOut>
						<alphatype>none</alphatype>
						<pixelaspectratio>square</pixelaspectratio>
						<anamorphic>FALSE</anamorphic>
						<file id="file-3">
							<name>Digital-Calibration.mp4</name>
							<pathurl>file://localhost/D%3a/Projects/Deep%20Learning/Prokofolio/MotionClipper/DigitalTest/DigitalTest/Digital-Calibration.mp4</pathurl>
							<rate>
								<timebase>30</timebase>
								<ntsc>FALSE</ntsc>
							</rate>
							<duration>3594</duration>
							<timecode>
								<rate>
									<timebase>30</timebase>
									<ntsc>FALSE</ntsc>
								</rate>
								<string>00:00:00:00</string>
								<frame>0</frame>
								<displayformat>NDF</displayformat>
							</timecode>
							<media>
								<video>
									<samplecharacteristics>
										<rate>
											<timebase>30</timebase>
											<ntsc>FALSE</ntsc>
										</rate>
										<width>1920</width>
										<height>1200</height>
										<anamorphic>FALSE</anamorphic>
										<pixelaspectratio>square</pixelaspectratio>
										<fielddominance>none</fielddominance>
									</samplecharacteristics>
								</video>
							</media>
						</file>
						<logginginfo>
							<description />
							<scene />
							<shottake />
							<lognote />
							<good />
							<originalvideofilename />
							<originalaudiofilename />
						</logginginfo>
						<colorinfo>
							<lut />
							<lut1 />
							<asc_sop />
							<asc_sat />
							<lut2 />
						</colorinfo>
						<labels>
							<label2>Violet</label2>
						</labels>
					</clipitem>
					<enabled>TRUE</enabled>
					<locked>FALSE</locked>
				</track>
				<track MZ.TrackTargeted="0" TL.SQTrackExpanded="0" TL.SQTrackExpandedHeight="25" TL.SQTrackShy="0">
					<enabled>TRUE</enabled>
					<locked>FALSE</locked>
				</track>
				<track MZ.TrackTargeted="0" TL.SQTrackExpanded="0" TL.SQTrackExpandedHeight="25" TL.SQTrackShy="0">
					<enabled>TRUE</enabled>
					<locked>FALSE</locked>
				</track>
			</video>
			<audio>
				<numOutputChannels>2</numOutputChannels>
				<format>
					<samplecharacteristics>
						<depth>16</depth>
						<samplerate>48000</samplerate>
					</samplecharacteristics>
				</format>
				<outputs>
					<group>
						<index>1</index>
						<numchannels>1</numchannels>
						<downmix>0</downmix>
						<channel>
							<index>1</index>
						</channel>
					</group>
					<group>
						<index>2</index>
						<numchannels>1</numchannels>
						<downmix>0</downmix>
						<channel>
							<index>2</index>
						</channel>
					</group>
				</outputs>
				<track MZ.TrackTargeted="1" PannerCurrentValue="0.5" PannerIsInverted="true" PannerName="Balance" PannerStartKeyframe="-91445760000000000,0.5,0,0,0,0,0,0" TL.SQTrackAudioKeyframeStyle="0" TL.SQTrackExpanded="0" TL.SQTrackExpandedHeight="25" TL.SQTrackShy="0" currentExplodedTrackIndex="0" premiereTrackType="Stereo" totalExplodedTrackCount="2">
					<enabled>TRUE</enabled>
					<locked>FALSE</locked>
					<outputchannelindex>1</outputchannelindex>
				</track>
				<track MZ.TrackTargeted="1" PannerCurrentValue="0.5" PannerIsInverted="true" PannerName="Balance" PannerStartKeyframe="-91445760000000000,0.5,0,0,0,0,0,0" TL.SQTrackAudioKeyframeStyle="0" TL.SQTrackExpanded="0" TL.SQTrackExpandedHeight="25" TL.SQTrackShy="0" currentExplodedTrackIndex="1" premiereTrackType="Stereo" totalExplodedTrackCount="2">
					<enabled>TRUE</enabled>
					<locked>FALSE</locked>
					<outputchannelindex>2</outputchannelindex>
				</track>
				<track MZ.TrackTargeted="1" PannerCurrentValue="0.5" PannerIsInverted="true" PannerName="Balance" PannerStartKeyframe="-91445760000000000,0.5,0,0,0,0,0,0" TL.SQTrackAudioKeyframeStyle="0" TL.SQTrackExpanded="0" TL.SQTrackExpandedHeight="25" TL.SQTrackShy="0" currentExplodedTrackIndex="0" premiereTrackType="Stereo" totalExplodedTrackCount="2">
					<enabled>TRUE</enabled>
					<locked>FALSE</locked>
					<outputchannelindex>1</outputchannelindex>
				</track>
				<track MZ.TrackTargeted="1" PannerCurrentValue="0.5" PannerIsInverted="true" PannerName="Balance" PannerStartKeyframe="-91445760000000000,0.5,0,0,0,0,0,0" TL.SQTrackAudioKeyframeStyle="0" TL.SQTrackExpanded="0" TL.SQTrackExpandedHeight="25" TL.SQTrackShy="0" currentExplodedTrackIndex="1" premiereTrackType="Stereo" totalExplodedTrackCount="2">
					<enabled>TRUE</enabled>
					<locked>FALSE</locked>
					<outputchannelindex>2</outputchannelindex>
				</track>
				<track MZ.TrackTargeted="1" PannerCurrentValue="0.5" PannerIsInverted="true" PannerName="Balance" PannerStartKeyframe="-91445760000000000,0.5,0,0,0,0,0,0" TL.SQTrackAudioKeyframeStyle="0" TL.SQTrackExpanded="0" TL.SQTrackExpandedHeight="25" TL.SQTrackShy="0" currentExplodedTrackIndex="0" premiereTrackType="Stereo" totalExplodedTrackCount="2">
					<enabled>TRUE</enabled>
					<locked>FALSE</locked>
					<outputchannelindex>1</outputchannelindex>
				</track>
				<track MZ.TrackTargeted="1" PannerCurrentValue="0.5" PannerIsInverted="true" PannerName="Balance" PannerStartKeyframe="-91445760000000000,0.5,0,0,0,0,0,0" TL.SQTrackAudioKeyframeStyle="0" TL.SQTrackExpanded="0" TL.SQTrackExpandedHeight="25" TL.SQTrackShy="0" currentExplodedTrackIndex="1" premiereTrackType="Stereo" totalExplodedTrackCount="2">
					<enabled>TRUE</enabled>
					<locked>FALSE</locked>
					<outputchannelindex>2</outputchannelindex>
				</track>
			</audio>
		</media>
		<timecode>
			<rate>
				<timebase>30</timebase>
				<ntsc>FALSE</ntsc>
			</rate>
			<string>00:00:00:00</string>
			<frame>0</frame>
			<displayformat>NDF</displayformat>
		</timecode>
		<labels>
			<label2>Forest</label2>
		</labels>
	</sequence>
<sequence MZ.EditLine="0" MZ.Sequence.AudioTimeDisplayFormat="200" MZ.Sequence.EditingModeGUID="9678af98-a7b7-4bdb-b477-7ac9c8df4a4e" MZ.Sequence.PreviewFrameSizeHeight="1080" MZ.Sequence.PreviewFrameSizeWidth="1728" MZ.Sequence.PreviewRenderingClassID="1297106761" MZ.Sequence.PreviewRenderingPresetCodec="1297107278" MZ.Sequence.PreviewRenderingPresetPath="EncoderPresets\SequencePreview\9678af98-a7b7-4bdb-b477-7ac9c8df4a4e\I-Frame Only MPEG.epr" MZ.Sequence.PreviewUseMaxBitDepth="false" MZ.Sequence.PreviewUseMaxRenderQuality="false" MZ.Sequence.VideoTimeDisplayFormat="104" MZ.WorkInPoint="0" MZ.WorkOutPoint="30431116800000" Monitor.ProgramZoomIn="0" Monitor.ProgramZoomOut="30431116800000" TL.SQAVDividerPosition="0.5" TL.SQAudioVisibleBase="0" TL.SQHeaderWidth="236" TL.SQHideShyTracks="0" TL.SQTimePerPixel="0.24958333333333332" TL.SQVideoVisibleBase="0" TL.SQVisibleBaseTime="0" explodedTracks="true" id="sequence-3-motion-clipped">
		<uuid>6bf61979-179d-4e4e-9d9d-d1a88fe0121e</uuid>
		<duration>3594</duration>
		<rate>
			<timebase>30</timebase>
			<ntsc>FALSE</ntsc>
		</rate>
		<name>Digital-Calibration - Motion clipped</name>
		<media>
			<video>
				<format>
					<samplecharacteristics>
						<rate>
							<timebase>30</timebase>
							<ntsc>FALSE</ntsc>
						</rate>
						<codec>
							<name>Apple ProRes 422</name>
							<appspecificdata>
								<appname>Final Cut Pro</appname>
								<appmanufacturer>Apple Inc.</appmanufacturer>
								<appversion>7.0</appversion>
								<data>
									<qtcodec>
										<codecname>Apple ProRes 422</codecname>
										<codectypename>Apple ProRes 422</codectypename>
										<codectypecode>apcn</codectypecode>
										<codecvendorcode>appl</codecvendorcode>
										<spatialquality>1024</spatialquality>
										<temporalquality>0</temporalquality>
										<keyframerate>0</keyframerate>
										<datarate>0</datarate>
									</qtcodec>
								</data>
							</appspecificdata>
						</codec>
						<width>1920</width>
						<height>1200</height>
						<anamorphic>FALSE</anamorphic>
						<pixelaspectratio>square</pixelaspectratio>
						<fielddominance>none</fielddominance>
						<colordepth>24</colordepth>
					</samplecharacteristics>
				</format>
				<track MZ.TrackName="GH4" MZ.TrackTargeted="1" TL.SQTrackExpanded="0" TL.SQTrackExpandedHeight="25" TL.SQTrackShy="0">
					<enabled>TRUE</enabled>
					<locked>FALSE</locked>
				<clipitem id="clipitem-2">
						<masterclipid>masterclip-3</masterclipid>
						<name>Digital-Calibration.mp4</name>
						<enabled>TRUE</enabled>
						<duration>3594</duration>
						<rate>
							<timebase>30</timebase>
							<ntsc>FALSE</ntsc>
						</rate>
						<start>6</start>
						<end>18</end>
						<in>6</in>
						<out>18</out>
						<pproTicksIn>63504000000</pproTicksIn>
						<pproTicksOut>190512000000</pproTicksOut>
						<alphatype>none</alphatype>
						<pixelaspectratio>square</pixelaspectratio>
						<anamorphic>FALSE</anamorphic>
						<logginginfo>
							<description />
							<scene />
							<shottake />
							<lognote />
							<good />
							<originalvideofilename />
							<originalaudiofilename />
						</logginginfo>
						<colorinfo>
							<lut />
							<lut1 />
							<asc_sop />
							<asc_sat />
							<lut2 />
						</colorinfo>
						<labels>
							<label2>Violet</label2>
						</labels>
					<file id="file-3">
							<name>Digital-Calibration.mp4</name>
							<pathurl>file://localhost/D%3a/Projects/Deep%20Learning/Prokofolio/MotionClipper/DigitalTest/DigitalTest/Digital-Calibration.mp4</pathurl>
							<rate>
								<timebase>30</timebase>
								<ntsc>FALSE</ntsc>
							</rate>
							<duration>3594</duration>
							<timecode>
								<rate>
									<timebase>30</timebase>
									<ntsc>FALSE</ntsc>
								</rate>
								<string>00:00:00:00</string>
								<frame>0</frame>
								<displayformat>NDF</displayformat>
							</timecode>
							<media>
								<video>
									<samplecharacteristics>
										<rate>
											<timebase>30</timebase>
											<ntsc>FALSE</ntsc>
										</rate>
										<width>1920</width>
										<height>1200</height>
										<anamorphic>FALSE</anamorphic>
										<pixelaspectratio>square</pixelaspectratio>
										<fielddominance>none</fielddominance>
									</samplecharacteristics>
								</video>
							</media>
						</file>
						</clipitem>
					<clipitem id="clipitem-3">
						<masterclipid>masterclip-3</masterclipid>
						<name>Digital-Calibration.mp4</name>
						<enabled>TRUE</enabled>
						<duration>3594</duration>
						<rate>
							<timebase>30</timebase>
							<ntsc>FALSE</ntsc>
						</rate>
						<start>213</start>
						<end>223</end>
						<in>213</in>
						<out>223</out>
						<pproTicksIn>2254392000000</pproTicksIn>
						<pproTicksOut>2360232000000</pproTicksOut>
						<alphatype>none</alphatype>
						<pixelaspectratio>square</pixelaspectratio>
						<anamorphic>FALSE</anamorphic>
						<logginginfo>
							<description />
							<scene />
							<shottake />
							<lognote />
							<good />
							<originalvideofilename />
							<originalaudiofilename />
						</logginginfo>
						<colorinfo>
							<lut />
							<lut1 />
							<asc_sop />
							<asc_sat />
							<lut2 />
						</colorinfo>
						<labels>
							<label2>Violet</label2>
						</labels>
					<file id="file-3">
							</file>
						</clipitem>
					<clipitem id="clipitem-4">
						<masterclipid>masterclip-3</masterclipid>
						<name>Digital-Calibration.mp4</name>
						<enabled>TRUE</enabled>
						<duration>3594</duration>
						<rate>
							<timebase>30</timebase>
							<ntsc>FALSE</ntsc>
						</rate>
						<start>226</start>
						<end>228</end>
						<in>226</in>
						<out>228</out>
						<pproTicksIn>2391984000000</pproTicksIn>
						<pproTicksOut>2413152000000</pproTicksOut>
						<alphatype>none</alphatype>
						<pixelaspectratio>square</pixelaspectratio>
						<anamorphic>FALSE</anamorphic>
						<logginginfo>
							<description />
							<scene />
							<shottake />
							<lognote />
							<good />
							<originalvideofilename />
							<originalaudiofilename />
						</logginginfo>
						<colorinfo>
							<lut />
							<lut1 />
							<asc_sop />
							<asc_sat />
							<lut2 />
						</colorinfo>
						<labels>
							<label2>Violet</label2>
						</labels>
					<file id="file-3">
							</file>
						</clipitem>
					<clipitem id="clipitem-5">
						<masterclipid>masterclip-3</masterclipid>
						<name>Digital-Calibration.mp4</name>
						<enabled>TRUE</enabled>
						<duration>3594</duration>
						<rate>
							<timebase>30</timebase>
							<ntsc>FALSE</ntsc>
						</rate>
						<start>235</start>
						<end>253</end>
						<in>235</in>
						<out>253</out>
						<pproTicksIn>2487240000000</pproTicksIn>
						<pproTicksOut>2677752000000</pproTicksOut>
						<alphatype>none</alphatype>
						<pixelaspectratio>square</pixelaspectratio>
						<anamorphic>FALSE</anamorphic>
						<logginginfo>
							<description />
							<scene />
							<shottake />
							<lognote />
							<good />
							<originalvideofilename />
							<originalaudiofilename />
						</logginginfo>
						<colorinfo>
							<lut />
							<lut1 />
							<asc_sop />
							<asc_sat />
							<lut2 />
						</colorinfo>
						<labels>
							<label2>Violet</label2>
						</labels>
					<file id="file-3">
							</file>
						</clipitem>
					<clipitem id="clipitem-6">
						<masterclipid>masterclip-3</masterclipid>
						<name>Digital-Calibration.mp4</name>
						<enabled>TRUE</enabled>
						<duration>3594</duration>
						<rate>
							<timebase>30</timebase>
							<ntsc>FALSE</ntsc>
						</rate>
						<start>257</start>
						<end>258</end>
						<in>257</in>
						<out>258</out>
						<pproTicksIn>2720088000000</pproTicksIn>
						<pproTicksOut>2730672000000</pproTicksOut>
						<alphatype>none</alphatype>
						<pixelaspectratio>square</pixelaspectratio>
						<anamorphic>FALSE</anamorphic>
						<logginginfo>
							<description />
							<scene />
							<shottake />
							<lognote />
							<good />
							<originalvideofilename />
							<originalaudiofilename />
						</logginginfo>
						<colorinfo>
							<lut />
							<lut1 />
							<asc_sop />
							<asc_sat />
							<lut2 />
						</colorinfo>
						<labels>
							<label2>Violet</label2>
						</labels>
					<file id="file-3">
							</file>
						</clipitem>
					<clipitem id="clipitem-7">
						<masterclipid>masterclip-3</masterclipid>
						<name>Digital-Calibration.mp4</name>
						<enabled>TRUE</enabled>
						<duration>3594</duration>
						<rate>
							<timebase>30</timebase>
							<ntsc>FALSE</ntsc>
						</rate>
						<start>262</start>
						<end>269</end>
						<in>262</in>
						<out>269</out>
						<pproTicksIn>2773008000000</pproTicksIn>
						<pproTicksOut>2847096000000</pproTicksOut>
						<alphatype>none</alphatype>
						<pixelaspectratio>square</pixelaspectratio>
						<anamorphic>FALSE</anamorphic>
						<logginginfo>
							<description />
							<scene />
							<shottake />
							<lognote />
							<good />
							<originalvideofilename />
							<originalaudiofilename />
						</logginginfo>
						<colorinfo>
							<lut />
							<lut1 />
							<asc_sop />
							<asc_sat />
							<lut2 />
						</colorinfo>
						<labels>
							<label2>Violet</label2>
						</labels>
					<file id="file-3">
							</file>
						</clipitem>
					<clipitem id="clipitem-8">
						<masterclipid>masterclip-3</masterclipid>
						<name>Digital-Calibration.mp4</name>
						<enabled>TRUE</enabled>
						<duration>3594</duration>
						<rate>
							<timebase>30</timebase>
							<ntsc>FALSE</ntsc>
						</rate>
						<start>462</start>
						<end>601</end>
						<in>462</in>
						<out>601</out>
						<pproTicksIn>4889808000000</pproTicksIn>
						<pproTicksOut>6360984000000</pproTicksOut>
						<alphatype>none</alphatype>
						<pixelaspectratio>square</pixelaspectratio>
						<anamorphic>FALSE</anamorphic>
						<logginginfo>
							<description />
							<scene />
							<shottake />
							<lognote />
							<good />
							<originalvideofilename />
							<originalaudiofilename />
						</logginginfo>
						<colorinfo>
							<lut />
							<lut1 />
							<asc_sop />
							<asc_sat />
							<lut2 />
						</colorinfo>
						<labels>
							<label2>Violet</label2>
						</labels>
					<file id="file-3">
							</file>
						</clipitem>
					<clipitem id="clipitem-9">
						<masterclipid>masterclip-3</masterclipid>
						<name>Digital-Calibration.mp4</name>
						<enabled>TRUE</enabled>
						<duration>3594</duration>
						<rate>
							<timebase>30</timebase>
							<ntsc>FALSE</ntsc>
						</rate>
						<start>604</start>
						<end>654</end>
						<in>604</in>
						<out>654</out>
						<pproTicksIn>6392736000000</pproTicksIn>
						<pproTicksOut>6921936000000</pproTicksOut>
						<alphatype>none</alphatype>
						<pixelaspectratio>square</pixelaspectratio>
						<anamorphic>FALSE</anamorphic>
						<logginginfo>
							<description />
							<scene />
							<shottake />
							<lognote />
							<good />
							<originalvideofilename />
							<originalaudiofilename />
						</logginginfo>
						<colorinfo>
							<lut />
							<lut1 />
							<asc_sop />
							<asc_sat />
							<lut2 />
						</colorinfo>
						<labels>
							<label2>Violet</label2>
						</labels>
					<file id="file-3">
							</file>
						</clipitem>
					<clipitem id="clipitem-10">
						<masterclipid>masterclip-3</masterclipid>
						<name>Digital-Calibration.mp4</name>
						<enabled>TRUE</enabled>
						<duration>3594</duration>
						<rate>
							<timebase>30</timebase>
							<ntsc>FALSE</ntsc>
						</rate>
						<start>656</start>
						<end>667</end>
						<in>656</in>
						<out>667</out>
						<pproTicksIn>6943104000000</pproTicksIn>
						<pproTicksOut>7059528000000</pproTicksOut>
						<alphatype>none</alphatype>
						<pixelaspectratio>square</pixelaspectratio>
						<anamorphic>FALSE</anamorphic>
						<logginginfo>
							<description />
							<scene />
							<shottake />
							<lognote />
							<good />
							<originalvideofilename />
							<originalaudiofilename />
						</logginginfo>
						<colorinfo>
							<lut />
							<lut1 />
							<asc_sop />
							<asc_sat />
							<lut2 />
						</colorinfo>
						<labels>
							<label2>Violet</label2>
						</labels>
					<file id="file-3">
							</file>
						</clipitem>
					<clipitem id="clipitem-11">
						<masterclipid>masterclip-3</masterclipid>
						<name>Digital-Calibration.mp4</name>
						<enabled>TRUE</enabled>
						<duration>3594</duration>
						<rate>
							<timebase>30</timebase>
							<ntsc>FALSE</ntsc>
						</rate>
						<start>669</start>
						<end>697</end>
						<in>669</in>
						<out>697</out>
						<pproTicksIn>7080696000000</pproTicksIn>
						<pproTicksOut>7377048000000</pproTicksOut>
						<alphatype>none</alphatype>
						<pixelaspectratio>square</pixelaspectratio>
						<anamorphic>FALSE</anamorphic>
						<logginginfo>
							<description />
							<scene />
							<shottake />
							<lognote />
							<good />
							<originalvideofilename />
							<originalaudiofilename />
						</logginginfo>
						<colorinfo>
							<lut />
							<lut1 />
							<asc_sop />
							<asc_sat />
							<lut2 />
						</colorinfo>
						<labels>
							<label2>Violet</label2>
						</labels>
					<file id="file-3">
							</file>
						</clipitem>
					<clipitem id="clipitem-12">
						<masterclipid>masterclip-3</masterclipid>
						<name>Digital-Calibration.mp4</name>
						<enabled>TRUE</enabled>
						<duration>3594</duration>
						<rate>
							<timebase>30</timebase>
							<ntsc>FALSE</ntsc>
						</rate>
						<start>699</start>
						<end>801</end>
						<in>699</in>
						<out>801</out>
						<pproTicksIn>7398216000000</pproTicksIn>
						<pproTicksOut>8477784000000</pproTicksOut>
						<alphatype>none</alphatype>
						<pixelaspectratio>square</pixelaspectratio>
						<anamorphic>FALSE</anamorphic>
						<logginginfo>
							<description />
							<scene />
							<shottake />
							<lognote />
							<good />
							<originalvideofilename />
							<originalaudiofilename />
						</logginginfo>
						<colorinfo>
							<lut />
							<lut1 />
							<asc_sop />
							<asc_sat />
							<lut2 />
						</colorinfo>
						<labels>
							<label2>Violet</label2>
						</labels>
					<file id="file-3">
							</file>
						</clipitem>
					<clipitem id="clipitem-13">
						<masterclipid>masterclip-3</masterclipid>
						<name>Digital-Calibration.mp4</name>
						<enabled>TRUE</enabled>
						<duration>3594</duration>
						<rate>
							<timebase>30</timebase>
							<ntsc>FALSE</ntsc>
						</rate>
						<start>809</start>
						<end>835</end>
						<in>809</in>
						<out>835</out>
						<pproTicksIn>8562456000000</pproTicksIn>
						<pproTicksOut>8837640000000</pproTicksOut>
						<alphatype>none</alphatype>
						<pixelaspectratio>square</pixelaspectratio>
						<anamorphic>FALSE</anamorphic>
						<logginginfo>
							<description />
							<scene />
							<shottake />
							<lognote />
							<good />
							<originalvideofilename />
							<originalaudiofilename />
						</logginginfo>
						<colorinfo>
							<lut />
							<lut1 />
							<asc_sop />
							<asc_sat />
							<lut2 />
						</colorinfo>
						<labels>
							<label2>Violet</label2>
						</labels>
					<file id="file-3">
							</file>
						</clipitem>
					<clipitem id="clipitem-14">
						<masterclipid>masterclip-3</masterclipid>
						<name>Digital-Calibration.mp4</name>
						<enabled>TRUE</enabled>
						<duration>3594</duration>
						<rate>
							<timebase>30</timebase>
							<ntsc>FALSE</ntsc>
						</rate>
						<start>838</start>
						<end>840</end>
						<in>838</in>
						<out>840</out>
						<pproTicksIn>8869392000000</pproTicksIn>
						<pproTicksOut>8890560000000</pproTicksOut>
						<alphatype>none</alphatype>
						<pixelaspectratio>square</pixelaspectratio>
						<anamorphic>FALSE</anamorphic>
						<logginginfo>
							<description />
							<scene />
							<shottake />
							<lognote />
							<good />
							<originalvideofilename />
							<originalaudiofilename />
						</logginginfo>
						<colorinfo>
							<lut />
							<lut1 />
							<asc_sop />
							<asc_sat />
							<lut2 />
						</colorinfo>
						<labels>
							<label2>Violet</label2>
						</labels>
					<file id="file-3">
							</file>
						</clipitem>
					<clipitem id="clipitem-15">
						<masterclipid>masterclip-3</masterclipid>
						<name>Digital-Calibration.mp4</name>
						<enabled>TRUE</enabled>
						<duration>3594</duration>
						<rate>
							<timebase>30</timebase>
							<ntsc>FALSE</ntsc>
						</rate>
						<start>841</start>
						<end>843</end>
						<in>841</in>
						<out>843</out>
						<pproTicksIn>8901144000000</pproTicksIn>
						<pproTicksOut>8922312000000</pproTicksOut>
						<alphatype>none</alphatype>
						<pixelaspectratio>square</pixelaspectratio>
						<anamorphic>FALSE</anamorphic>
						<logginginfo>
							<description />
							<scene />
							<shottake />
							<lognote />
							<good />
							<originalvideofilename />
							<originalaudiofilename />
						</logginginfo>
						<colorinfo>
							<lut />
							<lut1 />
							<asc_sop />
							<asc_sat />
							<lut2 />
						</colorinfo>
						<labels>
							<label2>Violet</label2>
						</labels>
					<file id="file-3">
							</file>
						</clipitem>
					<clipitem id="clipitem-16">
						<masterclipid>masterclip-3</masterclipid>
						<name>Digital-Calibration.mp4</name>
						<enabled>TRUE</enabled>
						<duration>3594</duration>
						<rate>
							<timebase>30</timebase>
							<ntsc>FALSE</ntsc>
						</rate>
						<start>847</start>
						<end>848</end>
						<in>847</in>
						<out>848</out>
						<pproTicksIn>8964648000000</pproTicksIn>
						<pproTicksOut>8975232000000</pproTicksOut>
						<alphatype>none</alphatype>
						<pixelaspectratio>square</pixelaspectratio>
						<anamorphic>FALSE</anamorphic>
						<logginginfo>
							<description />
							<scene />
							<shottake />
							<lognote />
							<good />
							<originalvideofilename />
							<originalaudiofilename />
						</logginginfo>
						<colorinfo>
							<lut />
							<lut1 />
							<asc_sop />
							<asc_sat />
							<lut2 />
						</colorinfo>
						<labels>
							<label2>Violet</label2>
						</labels>
					<file id="file-3">
							</file>
						</clipitem>
					<clipitem id="clipitem-17">
						<masterclipid>masterclip-3</masterclipid>
						<name>Digital-Calibration.mp4</name>
						<enabled>TRUE</enabled>
						<duration>3594</duration>
						<rate>
							<timebase>30</timebase>
							<ntsc>FALSE</ntsc>
						</rate>
						<start>856</start>
						<end>857</end>
						<in>856</in>
						<out>857</out>
						<pproTicksIn>9059904000000</pproTicksIn>
						<pproTicksOut>9070488000000</pproTicksOut>
						<alphatype>none</alphatype>
						<pixelaspectratio>square</pixelaspectratio>
						<anamorphic>FALSE</anamorphic>
						<logginginfo>
							<description />
							<scene />
							<shottake />
							<lognote />
							<good />
							<originalvideofilename />
							<originalaudiofilename />
						</logginginfo>
						<colorinfo>
							<lut />
							<lut1 />
							<asc_sop />
							<asc_sat />
							<lut2 />
						</colorinfo>
						<labels>
							<label2>Violet</label2>
						</labels>
					<file id="file-3">
							</file>
						</clipitem>
					<clipitem id="clipitem-18">
						<masterclipid>masterclip-3</masterclipid>
						<name>Digital-Calibration.mp4</name>
						<enabled>TRUE</enabled>
						<duration>3594</duration>
						<rate>
							<timebase>30</timebase>
							<ntsc>FALSE</ntsc>
						</rate>
						<start>859</start>
						<end>867</end>
						<in>859</in>
						<out>867</out>
						<pproTicksIn>9091656000000</pproTicksIn>
						<pproTicksOut>9176328000000</pproTicksOut>
						<alphatype>none</alphatype>
						<pixelaspectratio>square</pixelaspectratio>
						<anamorphic>FALSE</anamorphic>
						<logginginfo>
							<description />
							<scene />
							<shottake />
							<lognote />
							<good />
							<originalvideofilename />
							<originalaudiofilename />
						</logginginfo>
						<colorinfo>
							<lut />
							<lut1 />
							<asc_sop />
							<asc_sat />
							<lut2 />
						</colorinfo>
						<labels>
							<label2>Violet</label2>
						</labels>
					<file id="file-3">
							</file>
						</clipitem>
					<clipitem id="clipitem-19">
						<masterclipid>masterclip-3</masterclipid>
						<name>Digital-Calibration.mp4</name>
						<enabled>TRUE</enabled>
						<duration>3594</duration>
						<rate>
							<timebase>30</timebase>
							<ntsc>FALSE</ntsc>
						</rate>
						<start>870</start>
						<end>878</end>
						<in>870</in>
						<out>878</out>
						<pproTicksIn>9208080000000</pproTicksIn>
						<pproTicksOut>9292752000000</pproTicksOut>
						<alphatype>none</alphatype>
						<pixelaspectratio>square</pixelaspectratio>
						<anamorphic>FALSE</anamorphic>
						<logginginfo>
							<description />
							<scene />
							<shottake />
							<lognote />
							<good />
							<originalvideofilename />
							<originalaudiofilename />
						</logginginfo>
						<colorinfo>
							<lut />
							<lut1 />
							<asc_sop />
							<asc_sat />
							<lut2 />
						</colorinfo>
						<labels>
							<label2>Violet</label2>
						</labels>
					<file id="file-3">
							</file>
						</clipitem>
					<clipitem id="clipitem-20">
						<masterclipid>masterclip-3</masterclipid>
						<name>Digital-Calibration.mp4</name>
						<enabled>TRUE</enabled>
						<duration>3594</duration>
						<rate>
							<timebase>30</timebase>
							<ntsc>FALSE</ntsc>
						</rate>
						<start>881</start>
						<end>887</end>
						<in>881</in>
						<out>887</out>
						<pproTicksIn>9324504000000</pproTicksIn>
						<pproTicksOut>9388008000000</pproTicksOut>
						<alphatype>none</alphatype>
						<pixelaspectratio>square</pixelaspectratio>
						<anamorphic>FALSE</anamorphic>
						<logginginfo>
							<description />
							<scene />
							<shottake />
							<lognote />
							<good />
							<originalvideofilename />
							<originalaudiofilename />
						</logginginfo>
						<colorinfo>
							<lut />
							<lut1 />
							<asc_sop />
							<asc_sat />
							<lut2 />
						</colorinfo>
						<labels>
							<label2>Violet</label2>
						</labels>
					<file id="file-3">
							</file>
						</clipitem>
					<clipitem id="clipitem-21">
						<masterclipid>masterclip-3</masterclipid>
						<name>Digital-Calibration.mp4</name>
						<enabled>TRUE</enabled>
						<duration>3594</duration>
						<rate>
							<timebase>30</timebase>
							<ntsc>FALSE</ntsc>
						</rate>
						<start>889</start>
						<end>896</end>
						<in>889</in>
						<out>896</out>
						<pproTicksIn>9409176000000</pproTicksIn>
						<pproTicksOut>9483264000000</pproTicksOut>
						<alphatype>none</alphatype>
						<pixelaspectratio>square</pixelaspectratio>
						<anamorphic>FALSE</anamorphic>
						<logginginfo>
							<description />
							<scene />
							<shottake />
							<lognote />
							<good />
							<originalvideofilename />
							<originalaudiofilename />
						</logginginfo>
						<colorinfo>
							<lut />
							<lut1 />
							<asc_sop />
							<asc_sat />
							<lut2 />
						</colorinfo>
						<labels>
							<label2>Violet</label2>
						</labels>
					<file id="file-3">
							</file>
						</clipitem>
					<clipitem id="clipitem-22">
						<masterclipid>masterclip-3</masterclipid>
						<name>Digital-Calibration.mp4</name>
						<enabled>TRUE</enabled>
						<duration>3594</duration>
						<rate>
							<timebase>30</timebase>
							<ntsc>FALSE</ntsc>
						</rate>
						<start>897</start>
						<end>912</end>
						<in>897</in>
						<out>912</out>
						<pproTicksIn>9493848000000</pproTicksIn>
						<pproTicksOut>9652608000000</pproTicksOut>
						<alphatype>none</alphatype>
						<pixelaspectratio>square</pixelaspectratio>
						<anamorphic>FALSE</anamorphic>
						<logginginfo>
							<description />
							<scene />
							<shottake />
							<lognote />
							<good />
							<originalvideofilename />
							<originalaudiofilename />
						</logginginfo>
						<colorinfo>
							<lut />
							<lut1 />
							<asc_sop />
							<asc_sat />
							<lut2 />
						</colorinfo>
						<labels>
							<label2>Violet</label2>
						</labels>
					<file id="file-3">
							</file>
						</clipitem>
					<clipitem id="clipitem-23">
						<masterclipid>masterclip-3</masterclipid>
						<name>Digital-Calibration.mp4</name>
						<enabled>TRUE</enabled>
						<duration>3594</duration>
						<rate>
							<timebase>30</timebase>
							<ntsc>FALSE</ntsc>
						</rate>
						<start>916</start>
						<end>929</end>
						<in>916</in>
						<out>929</out>
						<pproTicksIn>9694944000000</pproTicksIn>
						<pproTicksOut>9832536000000</pproTicksOut>
						<alphatype>none</alphatype>
						<pixelaspectratio>square</pixelaspectratio>
						<anamorphic>FALSE</anamorphic>
						<logginginfo>
							<description />
							<scene />
							<shottake />
							<lognote />
							<good />
							<originalvideofilename />
							<originalaudiofilename />
						</logginginfo>
						<colorinfo>
							<lut />
							<lut1 />
							<asc_sop />
							<asc_sat />
							<lut2 />
						</colorinfo>
						<labels>
							<label2>Violet</label2>
						</labels>
					<file id="file-3">
							</file>
						</clipitem>
					<clipitem id="clipitem-24">
						<masterclipid>masterclip-3</masterclipid>
						<name>Digital-Calibration.mp4</name>
						<enabled>TRUE</enabled>
						<duration>3594</duration>
						<rate>
							<timebase>30</timebase>
							<ntsc>FALSE</ntsc>
						</rate>
						<start>933</start>
						<end>947</end>
						<in>933</in>
						<out>947</out>
						<pproTicksIn>9874872000000</pproTicksIn>
						<pproTicksOut>10023048000000</pproTicksOut>
						<alphatype>none</alphatype>
						<pixelaspectratio>square</pixelaspectratio>
						<anamorphic>FALSE</anamorphic>
						<logginginfo>
							<description />
							<scene />
							<shottake />
							<lognote />
							<good />
							<originalvideofilename />
							<originalaudiofilename />
						</logginginfo>
						<colorinfo>
							<lut />
							<lut1 />
							<asc_sop />
							<asc_sat />
							<lut2 />
						</colorinfo>
						<labels>
							<label2>Violet</label2>
						</labels>
					<file id="file-3">
							</file>
						</clipitem>
					<clipitem id="clipitem-25">
						<masterclipid>masterclip-3</masterclipid>
						<name>Digital-Calibration.mp4</name>
						<enabled>TRUE</enabled>
						<duration>3594</duration>
						<rate>
							<timebase>30</timebase>
							<ntsc>FALSE</ntsc>
						</rate>
						<start>951</start>
						<end>963</end>
						<in>951</in>
						<out>963</out>
						<pproTicksIn>10065384000000</pproTicksIn>
						<pproTicksOut>10192392000000</pproTicksOut>
						<alphatype>none</alphatype>
						<pixelaspectratio>square</pixelaspectratio>
						<anamorphic>FALSE</anamorphic>
						<logginginfo>
							<description />
							<scene />
							<shottake />
							<lognote />
							<good />
							<originalvideofilename />
							<originalaudiofilename />
						</logginginfo>
						<colorinfo>
							<lut />
							<lut1 />
							<asc_sop />
							<asc_sat />
							<lut2 />
						</colorinfo>
						<labels>
							<label2>Violet</label2>
						</labels>
					<file id="file-3">
							</file>
						</clipitem>
					<clipitem id="clipitem-26">
						<masterclipid>masterclip-3</masterclipid>
						<name>Digital-Calibration.mp4</name>
						<enabled>TRUE</enabled>
						<duration>3594</duration>
						<rate>
							<timebase>30</timebase>
							<ntsc>FALSE</ntsc>
						</rate>
						<start>967</start>
						<end>973</end>
						<in>967</in>
						<out>973</out>
						<pproTicksIn>10234728000000</pproTicksIn>
						<pproTicksOut>10298232000000</pproTicksOut>
						<alphatype>none</alphatype>
						<pixelaspectratio>square</pixelaspectratio>
						<anamorphic>FALSE</anamorphic>
						<logginginfo>
							<description />
							<scene />
							<shottake />
							<lognote />
							<good />
							<originalvideofilename />
							<originalaudiofilename />
						</logginginfo>
						<colorinfo>
							<lut />
							<lut1 />
							<asc_sop />
							<asc_sat />
							<lut2 />
						</colorinfo>
						<labels>
							<label2>Violet</label2>
						</labels>
					<file id="file-3">
							</file>
						</clipitem>
					<clipitem id="clipitem-27">
						<masterclipid>masterclip-3</masterclipid>
						<name>Digital-Calibration.mp4</name>
						<enabled>TRUE</enabled>
						<duration>3594</duration>
						<rate>
							<timebase>30</timebase>
							<ntsc>FALSE</ntsc>
						</rate>
						<start>974</start>
						<end>978</end>
						<in>974</in>
						<out>978</out>
						<pproTicksIn>10308816000000</pproTicksIn>
						<pproTicksOut>10351152000000</pproTicksOut>
						<alphatype>none</alphatype>
						<pixelaspectratio>square</pixelaspectratio>
						<anamorphic>FALSE</anamorphic>
						<logginginfo>
							<description />
							<scene />
							<shottake />
							<lognote />
							<good />
							<originalvideofilename />
							<originalaudiofilename />
						</logginginfo>
						<colorinfo>
							<lut />
							<lut1 />
							<asc_sop />
							<asc_sat />
							<lut2 />
						</colorinfo>
						<labels>
							<label2>Violet</label2>
						</labels>
					<file id="file-3">
							</file>
						</clipitem>
					<clipitem id="clipitem-28">
						<masterclipid>masterclip-3</masterclipid>
						<name>Digital-Calibration.mp4</name>
						<enabled>TRUE</enabled>
						<duration>3594</duration>
						<rate>
							<timebase>30</timebase>
							<ntsc>FALSE</ntsc>
						</rate>
						<start>979</start>
						<end>980</end>
						<in>979</in>
						<out>980</out>
						<pproTicksIn>10361736000000</pproTicksIn>
						<pproTicksOut>10372320000000</pproTicksOut>
						<alphatype>none</alphatype>
						<pixelaspectratio>square</pixelaspectratio>
						<anamorphic>FALSE</anamorphic>
						<logginginfo>
							<description />
							<scene />
							<shottake />
							<lognote />
							<good />
							<originalvideofilename />
							<originalaudiofilename />
						</logginginfo>
						<colorinfo>
							<lut />
							<lut1 />
							<asc_sop />
							<asc_sat />
							<lut2 />
						</colorinfo>
						<labels>
							<label2>Violet</label2>
						</labels>
					<file id="file-3">
							</file>
						</clipitem>
					<clipitem id="clipitem-29">
						<masterclipid>masterclip-3</masterclipid>
						<name>Digital-Calibration.mp4</name>
						<enabled>TRUE</enabled>
						<duration>3594</duration>
						<rate>
							<timebase>30</timebase>
							<ntsc>FALSE</ntsc>
						</rate>
						<start>986</start>
						<end>996</end>
						<in>986</in>
						<out>996</out>
						<pproTicksIn>10435824000000</pproTicksIn>
						<pproTicksOut>10541664000000</pproTicksOut>
						<alphatype>none</alphatype>
						<pixelaspectratio>square</pixelaspectratio>
						<anamorphic>FALSE</anamorphic>
						<logginginfo>
							<description />
							<scene />
							<shottake />
							<lognote />
							<good />
							<originalvideofilename />
							<originalaudiofilename />
						</logginginfo>
						<colorinfo>
							<lut />
							<lut1 />
							<asc_sop />
							<asc_sat />
							<lut2 />
						</colorinfo>
						<labels>
							<label2>Violet</label2>
						</labels>
					<file id="file-3">
							</file>
						</clipitem>
					<clipitem id="clipitem-30">
						<masterclipid>masterclip-3</masterclipid>
						<name>Digital-Calibration.mp4</name>
						<enabled>TRUE</enabled>
						<duration>3594</duration>
						<rate>
							<timebase>30</timebase>
							<ntsc>FALSE</ntsc>
						</rate>
						<start>997</start>
						<end>1000</end>
						<in>997</in>
						<out>1000</out>
						<pproTicksIn>10552248000000</pproTicksIn>
						<pproTicksOut>10584000000000</pproTicksOut>
						<alphatype>none</alphatype>
						<pixelaspectratio>square</pixelaspectratio>
						<anamorphic>FALSE</anamorphic>
						<logginginfo>
							<description />
							<scene />
							<shottake />
							<lognote />
							<good />
							<originalvideofilename />
							<originalaudiofilename />
						</logginginfo>
						<colorinfo>
							<lut />
							<lut1 />
							<asc_sop />
							<asc_sat />
							<lut2 />
						</colorinfo>
						<labels>
							<label2>Violet</label2>
						</labels>
					<file id="file-3">
							</file>
						</clipitem>
					<clipitem id="clipitem-31">
						<masterclipid>masterclip-3</masterclipid>
						<name>Digital-Calibration.mp4</name>
						<enabled>TRUE</enabled>
						<duration>3594</duration>
						<rate>
							<timebase>30</timebase>
							<ntsc>FALSE</ntsc>
						</rate>
						<start>1002</start>
						<end>1014</end>
						<in>1002</in>
						<out>1014</out>
						<pproTicksIn>10605168000000</pproTicksIn>
						<pproTicksOut>10732176000000</pproTicksOut>
						<alphatype>none</alphatype>
						<pixelaspectratio>square</pixelaspectratio>
						<anamorphic>FALSE</anamorphic>
						<logginginfo>
							<description />
							<scene />
							<shottake />
							<lognote />
							<good />
							<originalvideofilename />
							<originalaudiofilename />
						</logginginfo>
						<colorinfo>
							<lut />
							<lut1 />
							<asc_sop />
							<asc_sat />
							<lut2 />
						</colorinfo>
						<labels>
							<label2>Violet</label2>
						</labels>
					<file id="file-3">
							</file>
						</clipitem>
					<clipitem id="clipitem-32">
						<masterclipid>masterclip-3</masterclipid>
						<name>Digital-Calibration.mp4</name>
						<enabled>TRUE</enabled>
						<duration>3594</duration>
						<rate>
							<timebase>30</timebase>
							<ntsc>FALSE</ntsc>
						</rate>
						<start>1016</start>
						<end>1017</end>
						<in>1016</in>
						<out>1017</out>
						<pproTicksIn>10753344000000</pproTicksIn>
						<pproTicksOut>10763928000000</pproTicksOut>
						<alphatype>none</alphatype>
						<pixelaspectratio>square</pixelaspectratio>
						<anamorphic>FALSE</anamorphic>
						<logginginfo>
							<description />
							<scene />
							<shottake />
							<lognote />
							<good />
							<originalvideofilename />
							<originalaudiofilename />
						</logginginfo>
						<colorinfo>
							<lut />
							<lut1 />
							<asc_sop />
							<asc_sat />
							<lut2 />
						</colorinfo>
						<labels>
							<label2>Violet</label2>
						</labels>
					<file id="file-3">
							</file>
						</clipitem>
					<clipitem id="clipitem-33">
						<masterclipid>masterclip-3</masterclipid>
						<name>Digital-Calibration.mp4</name>
						<enabled>TRUE</enabled>
						<duration>3594</duration>
						<rate>
							<timebase>30</timebase>
							<ntsc>FALSE</ntsc>
						</rate>
						<start>1020</start>
						<end>1024</end>
						<in>1020</in>
						<out>1024</out>
						<pproTicksIn>10795680000000</pproTicksIn>
						<pproTicksOut>10838016000000</pproTicksOut>
						<alphatype>none</alphatype>
						<pixelaspectratio>square</pixelaspectratio>
						<anamorphic>FALSE</anamorphic>
						<logginginfo>
							<description />
							<scene />
							<shottake />
							<lognote />
							<good />
							<originalvideofilename />
							<originalaudiofilename />
						</logginginfo>
						<colorinfo>
							<lut />
							<lut1 />
							<asc_sop />
							<asc_sat />
							<lut2 />
						</colorinfo>
						<labels>
							<label2>Violet</label2>
						</labels>
					<file id="file-3">
							</file>
						</clipitem>
					<clipitem id="clipitem-34">
						<masterclipid>masterclip-3</masterclipid>
						<name>Digital-Calibration.mp4</name>
						<enabled>TRUE</enabled>
						<duration>3594</duration>
						<rate>
							<timebase>30</timebase>
							<ntsc>FALSE</ntsc>
						</rate>
						<start>1025</start>
						<end>1031</end>
						<in>1025</in>
						<out>1031</out>
						<pproTicksIn>10848600000000</pproTicksIn>
						<pproTicksOut>10912104000000</pproTicksOut>
						<alphatype>none</alphatype>
						<pixelaspectratio>square</pixelaspectratio>
						<anamorphic>FALSE</anamorphic>
						<logginginfo>
							<description />
							<scene />
							<shottake />
							<lognote />
							<good />
							<originalvideofilename />
							<originalaudiofilename />
						</logginginfo>
						<colorinfo>
							<lut />
							<lut1 />
							<asc_sop />
							<asc_sat />
							<lut2 />
						</colorinfo>
						<labels>
							<label2>Violet</label2>
						</labels>
					<file id="file-3">
							</file>
						</clipitem>
					<clipitem id="clipitem-35">
						<masterclipid>masterclip-3</masterclipid>
						<name>Digital-Calibration.mp4</name>
						<enabled>TRUE</enabled>
						<duration>3594</duration>
						<rate>
							<timebase>30</timebase>
							<ntsc>FALSE</ntsc>
						</rate>
						<start>1033</start>
						<end>1034</end>
						<in>1033</in>
						<out>1034</out>
						<pproTicksIn>10933272000000</pproTicksIn>
						<pproTicksOut>10943856000000</pproTicksOut>
						<alphatype>none</alphatype>
						<pixelaspectratio>square</pixelaspectratio>
						<anamorphic>FALSE</anamorphic>
						<logginginfo>
							<description />
							<scene />
							<shottake />
							<lognote />
							<good />
							<originalvideofilename />
							<originalaudiofilename />
						</logginginfo>
						<colorinfo>
							<lut />
							<lut1 />
							<asc_sop />
							<asc_sat />
							<lut2 />
						</colorinfo>
						<labels>
							<label2>Violet</label2>
						</labels>
					<file id="file-3">
							</file>
						</clipitem>
					<clipitem id="clipitem-36">
						<masterclipid>masterclip-3</masterclipid>
						<name>Digital-Calibration.mp4</name>
						<enabled>TRUE</enabled>
						<duration>3594</duration>
						<rate>
							<timebase>30</timebase>
							<ntsc>FALSE</ntsc>
						</rate>
						<start>1037</start>
						<end>1050</end>
						<in>1037</in>
						<out>1050</out>
						<pproTicksIn>10975608000000</pproTicksIn>
						<pproTicksOut>11113200000000</pproTicksOut>
						<alphatype>none</alphatype>
						<pixelaspectratio>square</pixelaspectratio>
						<anamorphic>FALSE</anamorphic>
						<logginginfo>
							<description />
							<scene />
							<shottake />
							<lognote />
							<good />
							<originalvideofilename />
							<originalaudiofilename />
						</logginginfo>
						<colorinfo>
							<lut />
							<lut1 />
							<asc_sop />
							<asc_sat />
							<lut2 />
						</colorinfo>
						<labels>
							<label2>Violet</label2>
						</labels>
					<file id="file-3">
							</file>
						</clipitem>
					<clipitem id="clipitem-37">
						<masterclipid>masterclip-3</masterclipid>
						<name>Digital-Calibration.mp4</name>
						<enabled>TRUE</enabled>
						<duration>3594</duration>
						<rate>
							<timebase>30</timebase>
							<ntsc>FALSE</ntsc>
						</rate>
						<start>1055</start>
						<end>1066</end>
						<in>1055</in>
						<out>1066</out>
						<pproTicksIn>11166120000000</pproTicksIn>
						<pproTicksOut>11282544000000</pproTicksOut>
						<alphatype>none</alphatype>
						<pixelaspectratio>square</pixelaspectratio>
						<anamorphic>FALSE</anamorphic>
						<logginginfo>
							<description />
							<scene />
							<shottake />
							<lognote />
							<good />
							<originalvideofilename />
							<originalaudiofilename />
						</logginginfo>
						<colorinfo>
							<lut />
							<lut1 />
							<asc_sop />
							<asc_sat />
							<lut2 />
						</colorinfo>
						<labels>
							<label2>Violet</label2>
						</labels>
					<file id="file-3">
							</file>
						</clipitem>
					<clipitem id="clipitem-38">
						<masterclipid>masterclip-3</masterclipid>
						<name>Digital-Calibration.mp4</name>
						<enabled>TRUE</enabled>
						<duration>3594</duration>
						<rate>
							<timebase>30</timebase>
							<ntsc>FALSE</ntsc>
						</rate>
						<start>1075</start>
						<end>1088</end>
						<in>1075</in>
						<out>1088</out>
						<pproTicksIn>11377800000000</pproTicksIn>
						<pproTicksOut>11515392000000</pproTicksOut>
						<alphatype>none</alphatype>
						<pixelaspectratio>square</pixelaspectratio>
						<anamorphic>FALSE</anamorphic>
						<logginginfo>
							<description />
							<scene />
							<shottake />
							<lognote />
							<good />
							<originalvideofilename />
							<originalaudiofilename />
						</logginginfo>
						<colorinfo>
							<lut />
							<lut1 />
							<asc_sop />
							<asc_sat />
							<lut2 />
						</colorinfo>
						<labels>
							<label2>Violet</label2>
						</labels>
					<file id="file-3">
							</file>
						</clipitem>
					<clipitem id="clipitem-39">
						<masterclipid>masterclip-3</masterclipid>
						<name>Digital-Calibration.mp4</name>
						<enabled>TRUE</enabled>
						<duration>3594</duration>
						<rate>
							<timebase>30</timebase>
							<ntsc>FALSE</ntsc>
						</rate>
						<start>1090</start>
						<end>1091</end>
						<in>1090</in>
						<out>1091</out>
						<pproTicksIn>11536560000000</pproTicksIn>
						<pproTicksOut>11547144000000</pproTicksOut>
						<alphatype>none</alphatype>
						<pixelaspectratio>square</pixelaspectratio>
						<anamorphic>FALSE</anamorphic>
						<logginginfo>
							<description />
							<scene />
							<shottake />
							<lognote />
							<good />
							<originalvideofilename />
							<originalaudiofilename />
						</logginginfo>
						<colorinfo>
							<lut />
							<lut1 />
							<asc_sop />
							<asc_sat />
							<lut2 />
						</colorinfo>
						<labels>
							<label2>Violet</label2>
						</labels>
					<file id="file-3">
							</file>
						</clipitem>
					<clipitem id="clipitem-40">
						<masterclipid>masterclip-3</masterclipid>
						<name>Digital-Calibration.mp4</name>
						<enabled>TRUE</enabled>
						<duration>3594</duration>
						<rate>
							<timebase>30</timebase>
							<ntsc>FALSE</ntsc>
						</rate>
						<start>1259</start>
						<end>1260</end>
						<in>1259</in>
						<out>1260</out>
						<pproTicksIn>13325256000000</pproTicksIn>
						<pproTicksOut>13335840000000</pproTicksOut>
						<alphatype>none</alphatype>
						<pixelaspectratio>square</pixelaspectratio>
						<anamorphic>FALSE</anamorphic>
						<logginginfo>
							<description />
							<scene />
							<shottake />
							<lognote />
							<good />
							<originalvideofilename />
							<originalaudiofilename />
						</logginginfo>
						<colorinfo>
							<lut />
							<lut1 />
							<asc_sop />
							<asc_sat />
							<lut2 />
						</colorinfo>
						<labels>
							<label2>Violet</label2>
						</labels>
					<file id="file-3">
							</file>
						</clipitem>
					<clipitem id="clipitem-41">
						<masterclipid>masterclip-3</masterclipid>
						<name>Digital-Calibration.mp4</name>
						<enabled>TRUE</enabled>
						<duration>3594</duration>
						<rate>
							<timebase>30</timebase>
							<ntsc>FALSE</ntsc>
						</rate>
						<start>1333</start>
						<end>1334</end>
						<in>1333</in>
						<out>1334</out>
						<pproTicksIn>14108472000000</pproTicksIn>
						<pproTicksOut>14119056000000</pproTicksOut>
						<alphatype>none</alphatype>
						<pixelaspectratio>square</pixelaspectratio>
						<anamorphic>FALSE</anamorphic>
						<logginginfo>
							<description />
							<scene />
							<shottake />
							<lognote />
							<good />
							<originalvideofilename />
							<originalaudiofilename />
						</logginginfo>
						<colorinfo>
							<lut />
							<lut1 />
							<asc_sop />
							<asc_sat />
							<lut2 />
						</colorinfo>
						<labels>
							<label2>Violet</label2>
						</labels>
					<file id="file-3">
							</file>
						</clipitem>
					<clipitem id="clipitem-42">
						<masterclipid>masterclip-3</masterclipid>
						<name>Digital-Calibration.mp4</name>
						<enabled>TRUE</enabled>
						<duration>3594</duration>
						<rate>
							<timebase>30</timebase>
							<ntsc>FALSE</ntsc>
						</rate>
						<start>1361</start>
						<end>1362</end>
						<in>1361</in>
						<out>1362</out>
						<pproTicksIn>14404824000000</pproTicksIn>
						<pproTicksOut>14415408000000</pproTicksOut>
						<alphatype>none</alphatype>
						<pixelaspectratio>square</pixelaspectratio>
						<anamorphic>FALSE</anamorphic>
						<logginginfo>
							<description />
							<scene />
							<shottake />
							<lognote />
							<good />
							<originalvideofilename />
							<originalaudiofilename />
						</logginginfo>
						<colorinfo>
							<lut />
							<lut1 />
							<asc_sop />
							<asc_sat />
							<lut2 />
						</colorinfo>
						<labels>
							<label2>Violet</label2>
						</labels>
					<file id="file-3">
							</file>
						</clipitem>
					<clipitem id="clipitem-43">
						<masterclipid>masterclip-3</masterclipid>
						<name>Digital-Calibration.mp4</name>
						<enabled>TRUE</enabled>
						<duration>3594</duration>
						<rate>
							<timebase>30</timebase>
							<ntsc>FALSE</ntsc>
						</rate>
						<start>1422</start>
						<end>1423</end>
						<in>1422</in>
						<out>1423</out>
						<pproTicksIn>15050448000000</pproTicksIn>
						<pproTicksOut>15061032000000</pproTicksOut>
						<alphatype>none</alphatype>
						<pixelaspectratio>square</pixelaspectratio>
						<anamorphic>FALSE</anamorphic>
						<logginginfo>
							<description />
							<scene />
							<shottake />
							<lognote />
							<good />
							<originalvideofilename />
							<originalaudiofilename />
						</logginginfo>
						<colorinfo>
							<lut />
							<lut1 />
							<asc_sop />
							<asc_sat />
							<lut2 />
						</colorinfo>
						<labels>
							<label2>Violet</label2>
						</labels>
					<file id="file-3">
							</file>
						</clipitem>
					<clipitem id="clipitem-44">
						<masterclipid>masterclip-3</masterclipid>
						<name>Digital-Calibration.mp4</name>
						<enabled>TRUE</enabled>
						<duration>3594</duration>
						<rate>
							<timebase>30</timebase>
							<ntsc>FALSE</ntsc>
						</rate>
						<start>1425</start>
						<end>1426</end>
						<in>1425</in>
						<out>1426</out>
						<pproTicksIn>15082200000000</pproTicksIn>
						<pproTicksOut>15092784000000</pproTicksOut>
						<alphatype>none</alphatype>
						<pixelaspectratio>square</pixelaspectratio>
						<anamorphic>FALSE</anamorphic>
						<logginginfo>
							<description />
							<scene />
							<shottake />
							<lognote />
							<good />
							<originalvideofilename />
							<originalaudiofilename />
						</logginginfo>
						<colorinfo>
							<lut />
							<lut1 />
							<asc_sop />
							<asc_sat />
							<lut2 />
						</colorinfo>
						<labels>
							<label2>Violet</label2>
						</labels>
					<file id="file-3">
							</file>
						</clipitem>
					<clipitem id="clipitem-45">
						<masterclipid>masterclip-3</masterclipid>
						<name>Digital-Calibration.mp4</name>
						<enabled>TRUE</enabled>
						<duration>3594</duration>
						<rate>
							<timebase>30</timebase>
							<ntsc>FALSE</ntsc>
						</rate>
						<start>1514</start>
						<end>1541</end>
						<in>1514</in>
						<out>1541</out>
						<pproTicksIn>16024176000000</pproTicksIn>
						<pproTicksOut>16309944000000</pproTicksOut>
						<alphatype>none</alphatype>
						<pixelaspectratio>square</pixelaspectratio>
						<anamorphic>FALSE</anamorphic>
						<logginginfo>
							<description />
							<scene />
							<shottake />
							<lognote />
							<good />
							<originalvideofilename />
							<originalaudiofilename />
						</logginginfo>
						<colorinfo>
							<lut />
							<lut1 />
							<asc_sop />
							<asc_sat />
							<lut2 />
						</colorinfo>
						<labels>
							<label2>Violet</label2>
						</labels>
					<file id="file-3">
							</file>
						</clipitem>
					<clipitem id="clipitem-46">
						<masterclipid>masterclip-3</masterclipid>
						<name>Digital-Calibration.mp4</name>
						<enabled>TRUE</enabled>
						<duration>3594</duration>
						<rate>
							<timebase>30</timebase>
							<ntsc>FALSE</ntsc>
						</rate>
						<start>1543</start>
						<end>1544</end>
						<in>1543</in>
						<out>1544</out>
						<pproTicksIn>16331112000000</pproTicksIn>
						<pproTicksOut>16341696000000</pproTicksOut>
						<alphatype>none</alphatype>
						<pixelaspectratio>square</pixelaspectratio>
						<anamorphic>FALSE</anamorphic>
						<logginginfo>
							<description />
							<scene />
							<shottake />
							<lognote />
							<good />
							<originalvideofilename />
							<originalaudiofilename />
						</logginginfo>
						<colorinfo>
							<lut />
							<lut1 />
							<asc_sop />
							<asc_sat />
							<lut2 />
						</colorinfo>
						<labels>
							<label2>Violet</label2>
						</labels>
					<file id="file-3">
							</file>
						</clipitem>
					<clipitem id="clipitem-47">
						<masterclipid>masterclip-3</masterclipid>
						<name>Digital-Calibration.mp4</name>
						<enabled>TRUE</enabled>
						<duration>3594</duration>
						<rate>
							<timebase>30</timebase>
							<ntsc>FALSE</ntsc>
						</rate>
						<start>1546</start>
						<end>1576</end>
						<in>1546</in>
						<out>1576</out>
						<pproTicksIn>16362864000000</pproTicksIn>
						<pproTicksOut>16680384000000</pproTicksOut>
						<alphatype>none</alphatype>
						<pixelaspectratio>square</pixelaspectratio>
						<anamorphic>FALSE</anamorphic>
						<logginginfo>
							<description />
							<scene />
							<shottake />
							<lognote />
							<good />
							<originalvideofilename />
							<originalaudiofilename />
						</logginginfo>
						<colorinfo>
							<lut />
							<lut1 />
							<asc_sop />
							<asc_sat />
							<lut2 />
						</colorinfo>
						<labels>
							<label2>Violet</label2>
						</labels>
					<file id="file-3">
							</file>
						</clipitem>
					<clipitem id="clipitem-48">
						<masterclipid>masterclip-3</masterclipid>
						<name>Digital-Calibration.mp4</name>
						<enabled>TRUE</enabled>
						<duration>3594</duration>
						<rate>
							<timebase>30</timebase>
							<ntsc>FALSE</ntsc>
						</rate>
						<start>1577</start>
						<end>1588</end>
						<in>1577</in>
						<out>1588</out>
						<pproTicksIn>16690968000000</pproTicksIn>
						<pproTicksOut>16807392000000</pproTicksOut>
						<alphatype>none</alphatype>
						<pixelaspectratio>square</pixelaspectratio>
						<anamorphic>FALSE</anamorphic>
						<logginginfo>
							<description />
							<scene />
							<shottake />
							<lognote />
							<good />
							<originalvideofilename />
							<originalaudiofilename />
						</logginginfo>
						<colorinfo>
							<lut />
							<lut1 />
							<asc_sop />
							<asc_sat />
							<lut2 />
						</colorinfo>
						<labels>
							<label2>Violet</label2>
						</labels>
					<file id="file-3">
							</file>
						</clipitem>
					<clipitem id="clipitem-49">
						<masterclipid>masterclip-3</masterclipid>
						<name>Digital-Calibration.mp4</name>
						<enabled>TRUE</enabled>
						<duration>3594</duration>
						<rate>
							<timebase>30</timebase>
							<ntsc>FALSE</ntsc>
						</rate>
						<start>1589</start>
						<end>1606</end>
						<in>1589</in>
						<out>1606</out>
						<pproTicksIn>16817976000000</pproTicksIn>
						<pproTicksOut>16997904000000</pproTicksOut>
						<alphatype>none</alphatype>
						<pixelaspectratio>square</pixelaspectratio>
						<anamorphic>FALSE</anamorphic>
						<logginginfo>
							<description />
							<scene />
							<shottake />
							<lognote />
							<good />
							<originalvideofilename />
							<originalaudiofilename />
						</logginginfo>
						<colorinfo>
							<lut />
							<lut1 />
							<asc_sop />
							<asc_sat />
							<lut2 />
						</colorinfo>
						<labels>
							<label2>Violet</label2>
						</labels>
					<file id="file-3">
							</file>
						</clipitem>
					<clipitem id="clipitem-50">
						<masterclipid>masterclip-3</masterclipid>
						<name>Digital-Calibration.mp4</name>
						<enabled>TRUE</enabled>
						<duration>3594</duration>
						<rate>
							<timebase>30</timebase>
							<ntsc>FALSE</ntsc>
						</rate>
						<start>1607</start>
						<end>1622</end>
						<in>1607</in>
						<out>1622</out>
						<pproTicksIn>17008488000000</pproTicksIn>
						<pproTicksOut>17167248000000</pproTicksOut>
						<alphatype>none</alphatype>
						<pixelaspectratio>square</pixelaspectratio>
						<anamorphic>FALSE</anamorphic>
						<logginginfo>
							<description />
							<scene />
							<shottake />
							<lognote />
							<good />
							<originalvideofilename />
							<originalaudiofilename />
						</logginginfo>
						<colorinfo>
							<lut />
							<lut1 />
							<asc_sop />
							<asc_sat />
							<lut2 />
						</colorinfo>
						<labels>
							<label2>Violet</label2>
						</labels>
					<file id="file-3">
							</file>
						</clipitem>
					<clipitem id="clipitem-51">
						<masterclipid>masterclip-3</masterclipid>
						<name>Digital-Calibration.mp4</name>
						<enabled>TRUE</enabled>
						<duration>3594</duration>
						<rate>
							<timebase>30</timebase>
							<ntsc>FALSE</ntsc>
						</rate>
						<start>1623</start>
						<end>1634</end>
						<in>1623</in>
						<out>1634</out>
						<pproTicksIn>17177832000000</pproTicksIn>
						<pproTicksOut>17294256000000</pproTicksOut>
						<alphatype>none</alphatype>
						<pixelaspectratio>square</pixelaspectratio>
						<anamorphic>FALSE</anamorphic>
						<logginginfo>
							<description />
							<scene />
							<shottake />
							<lognote />
							<good />
							<originalvideofilename />
							<originalaudiofilename />
						</logginginfo>
						<colorinfo>
							<lut />
							<lut1 />
							<asc_sop />
							<asc_sat />
							<lut2 />
						</colorinfo>
						<labels>
							<label2>Violet</label2>
						</labels>
					<file id="file-3">
							</file>
						</clipitem>
					<clipitem id="clipitem-52">
						<masterclipid>masterclip-3</masterclipid>
						<name>Digital-Calibration.mp4</name>
						<enabled>TRUE</enabled>
						<duration>3594</duration>
						<rate>
							<timebase>30</timebase>
							<ntsc>FALSE</ntsc>
						</rate>
						<start>1635</start>
						<end>1764</end>
						<in>1635</in>
						<out>1764</out>
						<pproTicksIn>17304840000000</pproTicksIn>
						<pproTicksOut>18670176000000</pproTicksOut>
						<alphatype>none</alphatype>
						<pixelaspectratio>square</pixelaspectratio>
						<anamorphic>FALSE</anamorphic>
						<logginginfo>
							<description />
							<scene />
							<shottake />
							<lognote />
							<good />
							<originalvideofilename />
							<originalaudiofilename />
						</logginginfo>
						<colorinfo>
							<lut />
							<lut1 />
							<asc_sop />
							<asc_sat />
							<lut2 />
						</colorinfo>
						<labels>
							<label2>Violet</label2>
						</labels>
					<file id="file-3">
							</file>
						</clipitem>
					<clipitem id="clipitem-53">
						<masterclipid>masterclip-3</masterclipid>
						<name>Digital-Calibration.mp4</name>
						<enabled>TRUE</enabled>
						<duration>3594</duration>
						<rate>
							<timebase>30</timebase>
							<ntsc>FALSE</ntsc>
						</rate>
						<start>1789</start>
						<end>1793</end>
						<in>1789</in>
						<out>1793</out>
						<pproTicksIn>18934776000000</pproTicksIn>
						<pproTicksOut>18977112000000</pproTicksOut>
						<alphatype>none</alphatype>
						<pixelaspectratio>square</pixelaspectratio>
						<anamorphic>FALSE</anamorphic>
						<logginginfo>
							<description />
							<scene />
							<shottake />
							<lognote />
							<good />
							<originalvideofilename />
							<originalaudiofilename />
						</logginginfo>
						<colorinfo>
							<lut />
							<lut1 />
							<asc_sop />
							<asc_sat />
							<lut2 />
						</colorinfo>
						<labels>
							<label2>Violet</label2>
						</labels>
					<file id="file-3">
							</file>
						</clipitem>
					<clipitem id="clipitem-54">
						<masterclipid>masterclip-3</masterclipid>
						<name>Digital-Calibration.mp4</name>
						<enabled>TRUE</enabled>
						<duration>3594</duration>
						<rate>
							<timebase>30</timebase>
							<ntsc>FALSE</ntsc>
						</rate>
						<start>1950</start>
						<end>1975</end>
						<in>1950</in>
						<out>1975</out>
						<pproTicksIn>20638800000000</pproTicksIn>
						<pproTicksOut>20903400000000</pproTicksOut>
						<alphatype>none</alphatype>
						<pixelaspectratio>square</pixelaspectratio>
						<anamorphic>FALSE</anamorphic>
						<logginginfo>
							<description />
							<scene />
							<shottake />
							<lognote />
							<good />
							<originalvideofilename />
							<originalaudiofilename />
						</logginginfo>
						<colorinfo>
							<lut />
							<lut1 />
							<asc_sop />
							<asc_sat />
							<lut2 />
						</colorinfo>
						<labels>
							<label2>Violet</label2>
						</labels>
					<file id="file-3">
							</file>
						</clipitem>
					<clipitem id="clipitem-55">
						<masterclipid>masterclip-3</masterclipid>
						<name>Digital-Calibration.mp4</name>
						<enabled>TRUE</enabled>
						<duration>3594</duration>
						<rate>
							<timebase>30</timebase>
							<ntsc>FALSE</ntsc>
						</rate>
						<start>1986</start>
						<end>1993</end>
						<in>1986</in>
						<out>1993</out>
						<pproTicksIn>21019824000000</pproTicksIn>
						<pproTicksOut>21093912000000</pproTicksOut>
						<alphatype>none</alphatype>
						<pixelaspectratio>square</pixelaspectratio>
						<anamorphic>FALSE</anamorphic>
						<logginginfo>
							<description />
							<scene />
							<shottake />
							<lognote />
							<good />
							<originalvideofilename />
							<originalaudiofilename />
						</logginginfo>
						<colorinfo>
							<lut />
							<lut1 />
							<asc_sop />
							<asc_sat />
							<lut2 />
						</colorinfo>
						<labels>
							<label2>Violet</label2>
						</labels>
					<file id="file-3">
							</file>
						</clipitem>
					<clipitem id="clipitem-56">
						<masterclipid>masterclip-3</masterclipid>
						<name>Digital-Calibration.mp4</name>
						<enabled>TRUE</enabled>
						<duration>3594</duration>
						<rate>
							<timebase>30</timebase>
							<ntsc>FALSE</ntsc>
						</rate>
						<start>2003</start>
						<end>2082</end>
						<in>2003</in>
						<out>2082</out>
						<pproTicksIn>21199752000000</pproTicksIn>
						<pproTicksOut>22035888000000</pproTicksOut>
						<alphatype>none</alphatype>
						<pixelaspectratio>square</pixelaspectratio>
						<anamorphic>FALSE</anamorphic>
						<logginginfo>
							<description />
							<scene />
							<shottake />
							<lognote />
							<good />
							<originalvideofilename />
							<originalaudiofilename />
						</logginginfo>
						<colorinfo>
							<lut />
							<lut1 />
							<asc_sop />
							<asc_sat />
							<lut2 />
						</colorinfo>
						<labels>
							<label2>Violet</label2>
						</labels>
					<file id="file-3">
							</file>
						</clipitem>
					<clipitem id="clipitem-57">
						<masterclipid>masterclip-3</masterclipid>
						<name>Digital-Calibration.mp4</name>
						<enabled>TRUE</enabled>
						<duration>3594</duration>
						<rate>
							<timebase>30</timebase>
							<ntsc>FALSE</ntsc>
						</rate>
						<start>2083</start>
						<end>2096</end>
						<in>2083</in>
						<out>2096</out>
						<pproTicksIn>22046472000000</pproTicksIn>
						<pproTicksOut>22184064000000</pproTicksOut>
						<alphatype>none</alphatype>
						<pixelaspectratio>square</pixelaspectratio>
						<anamorphic>FALSE</anamorphic>
						<logginginfo>
							<description />
							<scene />
							<shottake />
							<lognote />
							<good />
							<originalvideofilename />
							<originalaudiofilename />
						</logginginfo>
						<colorinfo>
							<lut />
							<lut1 />
							<asc_sop />
							<asc_sat />
							<lut2 />
						</colorinfo>
						<labels>
							<label2>Violet</label2>
						</labels>
					<file id="file-3">
							</file>
						</clipitem>
					<clipitem id="clipitem-58">
						<masterclipid>masterclip-3</masterclipid>
						<name>Digital-Calibration.mp4</name>
						<enabled>TRUE</enabled>
						<duration>3594</duration>
						<rate>
							<timebase>30</timebase>
							<ntsc>FALSE</ntsc>
						</rate>
						<start>2107</start>
						<end>2180</end>
						<in>2107</in>
						<out>2180</out>
						<pproTicksIn>22300488000000</pproTicksIn>
						<pproTicksOut>23073120000000</pproTicksOut>
						<alphatype>none</alphatype>
						<pixelaspectratio>square</pixelaspectratio>
						<anamorphic>FALSE</anamorphic>
						<logginginfo>
							<description />
							<scene />
							<shottake />
							<lognote />
							<good />
							<originalvideofilename />
							<originalaudiofilename />
						</logginginfo>
						<colorinfo>
							<lut />
							<lut1 />
							<asc_sop />
							<asc_sat />
							<lut2 />
						</colorinfo>
						<labels>
							<label2>Violet</label2>
						</labels>
					<file id="file-3">
							</file>
						</clipitem>
					<clipitem id="clipitem-59">
						<masterclipid>masterclip-3</masterclipid>
						<name>Digital-Calibration.mp4</name>
						<enabled>TRUE</enabled>
						<duration>3594</duration>
						<rate>
							<timebase>30</timebase>
							<ntsc>FALSE</ntsc>
						</rate>
						<start>2226</start>
						<end>2397</end>
						<in>2226</in>
						<out>2397</out>
						<pproTicksIn>23559984000000</pproTicksIn>
						<pproTicksOut>25369848000000</pproTicksOut>
						<alphatype>none</alphatype>
						<pixelaspectratio>square</pixelaspectratio>
						<anamorphic>FALSE</anamorphic>
						<logginginfo>
							<description />
							<scene />
							<shottake />
							<lognote />
							<good />
							<originalvideofilename />
							<originalaudiofilename />
						</logginginfo>
						<colorinfo>
							<lut />
							<lut1 />
							<asc_sop />
							<asc_sat />
							<lut2 />
						</colorinfo>
						<labels>
							<label2>Violet</label2>
						</labels>
					<file id="file-3">
							</file>
						</clipitem>
					<clipitem id="clipitem-60">
						<masterclipid>masterclip-3</masterclipid>
						<name>Digital-Calibration.mp4</name>
						<enabled>TRUE</enabled>
						<duration>3594</duration>
						<rate>
							<timebase>30</timebase>
							<ntsc>FALSE</ntsc>
						</rate>
						<start>2445</start>
						<end>2462</end>
						<in>2445</in>
						<out>2462</out>
						<pproTicksIn>25877880000000</pproTicksIn>
						<pproTicksOut>26057808000000</pproTicksOut>
						<alphatype>none</alphatype>
						<pixelaspectratio>square</pixelaspectratio>
						<anamorphic>FALSE</anamorphic>
						<logginginfo>
							<description />
							<scene />
							<shottake />
							<lognote />
							<good />
							<originalvideofilename />
							<originalaudiofilename />
						</logginginfo>
						<colorinfo>
							<lut />
							<lut1 />
							<asc_sop />
							<asc_sat />
							<lut2 />
						</colorinfo>
						<labels>
							<label2>Violet</label2>
						</labels>
					<file id="file-3">
							</file>
						</clipitem>
					<clipitem id="clipitem-61">
						<masterclipid>masterclip-3</masterclipid>
						<name>Digital-Calibration.mp4</name>
						<enabled>TRUE</enabled>
						<duration>3594</duration>
						<rate>
							<timebase>30</timebase>
							<ntsc>FALSE</ntsc>
						</rate>
						<start>2463</start>
						<end>2465</end>
						<in>2463</in>
						<out>2465</out>
						<pproTicksIn>26068392000000</pproTicksIn>
						<pproTicksOut>26089560000000</pproTicksOut>
						<alphatype>none</alphatype>
						<pixelaspectratio>square</pixelaspectratio>
						<anamorphic>FALSE</anamorphic>
						<logginginfo>
							<description />
							<scene />
							<shottake />
							<lognote />
							<good />
							<originalvideofilename />
							<originalaudiofilename />
						</logginginfo>
						<colorinfo>
							<lut />
							<lut1 />
							<asc_sop />
							<asc_sat />
							<lut2 />
						</colorinfo>
						<labels>
							<label2>Violet</label2>
						</labels>
					<file id="file-3">
							</file>
						</clipitem>
					<clipitem id="clipitem-62">
						<masterclipid>masterclip-3</masterclipid>
						<name>Digital-Calibration.mp4</name>
						<enabled>TRUE</enabled>
						<duration>3594</duration>
						<rate>
							<timebase>30</timebase>
							<ntsc>FALSE</ntsc>
						</rate>
						<start>2468</start>
						<end>2484</end>
						<in>2468</in>
						<out>2484</out>
						<pproTicksIn>26121312000000</pproTicksIn>
						<pproTicksOut>26290656000000</pproTicksOut>
						<alphatype>none</alphatype>
						<pixelaspectratio>square</pixelaspectratio>
						<anamorphic>FALSE</anamorphic>
						<logginginfo>
							<description />
							<scene />
							<shottake />
							<lognote />
							<good />
							<originalvideofilename />
							<originalaudiofilename />
						</logginginfo>
						<colorinfo>
							<lut />
							<lut1 />
							<asc_sop />
							<asc_sat />
							<lut2 />
						</colorinfo>
						<labels>
							<label2>Violet</label2>
						</labels>
					<file id="file-3">
							</file>
						</clipitem>
					<clipitem id="clipitem-63">
						<masterclipid>masterclip-3</masterclipid>
						<name>Digital-Calibration.mp4</name>
						<enabled>TRUE</enabled>
						<duration>3594</duration>
						<rate>
							<timebase>30</timebase>
							<ntsc>FALSE</ntsc>
						</rate>
						<start>2486</start>
						<end>2499</end>
						<in>2486</in>
						<out>2499</out>
						<pproTicksIn>26311824000000</pproTicksIn>
						<pproTicksOut>26449416000000</pproTicksOut>
						<alphatype>none</alphatype>
						<pixelaspectratio>square</pixelaspectratio>
						<anamorphic>FALSE</anamorphic>
						<logginginfo>
							<description />
							<scene />
							<shottake />
							<lognote />
							<good />
							<originalvideofilename />
							<originalaudiofilename />
						</logginginfo>
						<colorinfo>
							<lut />
							<lut1 />
							<asc_sop />
							<asc_sat />
							<lut2 />
						</colorinfo>
						<labels>
							<label2>Violet</label2>
						</labels>
					<file id="file-3">
							</file>
						</clipitem>
					<clipitem id="clipitem-64">
						<masterclipid>masterclip-3</masterclipid>
						<name>Digital-Calibration.mp4</name>
						<enabled>TRUE</enabled>
						<duration>3594</duration>
						<rate>
							<timebase>30</timebase>
							<ntsc>FALSE</ntsc>
						</rate>
						<start>2500</start>
						<end>2638</end>
						<in>2500</in>
						<out>2638</out>
						<pproTicksIn>26460000000000</pproTicksIn>
						<pproTicksOut>27920592000000</pproTicksOut>
						<alphatype>none</alphatype>
						<pixelaspectratio>square</pixelaspectratio>
						<anamorphic>FALSE</anamorphic>
						<logginginfo>
							<description />
							<scene />
							<shottake />
							<lognote />
							<good />
							<originalvideofilename />
							<originalaudiofilename />
						</logginginfo>
						<colorinfo>
							<lut />
							<lut1 />
							<asc_sop />
							<asc_sat />
							<lut2 />
						</colorinfo>
						<labels>
							<label2>Violet</label2>
						</labels>
					<file id="file-3">
							</file>
						</clipitem>
					<clipitem id="clipitem-65">
						<masterclipid>masterclip-3</masterclipid>
						<name>Digital-Calibration.mp4</name>
						<enabled>TRUE</enabled>
						<duration>3594</duration>
						<rate>
							<timebase>30</timebase>
							<ntsc>FALSE</ntsc>
						</rate>
						<start>2639</start>
						<end>2686</end>
						<in>2639</in>
						<out>2686</out>
						<pproTicksIn>27931176000000</pproTicksIn>
						<pproTicksOut>28428624000000</pproTicksOut>
						<alphatype>none</alphatype>
						<pixelaspectratio>square</pixelaspectratio>
						<anamorphic>FALSE</anamorphic>
						<logginginfo>
							<description />
							<scene />
							<shottake />
							<lognote />
							<good />
							<originalvideofilename />
							<originalaudiofilename />
						</logginginfo>
						<colorinfo>
							<lut />
							<lut1 />
							<asc_sop />
							<asc_sat />
							<lut2 />
						</colorinfo>
						<labels>
							<label2>Violet</label2>
						</labels>
					<file id="file-3">
							</file>
						</clipitem>
					<clipitem id="clipitem-66">
						<masterclipid>masterclip-3</masterclipid>
						<name>Digital-Calibration.mp4</name>
						<enabled>TRUE</enabled>
						<duration>3594</duration>
						<rate>
							<timebase>30</timebase>
							<ntsc>FALSE</ntsc>
						</rate>
						<start>2688</start>
						<end>2699</end>
						<in>2688</in>
						<out>2699</out>
						<pproTicksIn>28449792000000</pproTicksIn>
						<pproTicksOut>28566216000000</pproTicksOut>
						<alphatype>none</alphatype>
						<pixelaspectratio>square</pixelaspectratio>
						<anamorphic>FALSE</anamorphic>
						<logginginfo>
							<description />
							<scene />
							<shottake />
							<lognote />
							<good />
							<originalvideofilename />
							<originalaudiofilename />
						</logginginfo>
						<colorinfo>
							<lut />
							<lut1 />
							<asc_sop />
							<asc_sat />
							<lut2 />
						</colorinfo>
						<labels>
							<label2>Violet</label2>
						</labels>
					<file id="file-3">
							</file>
						</clipitem>
					<clipitem id="clipitem-67">
						<masterclipid>masterclip-3</masterclipid>
						<name>Digital-Calibration.mp4</name>
						<enabled>TRUE</enabled>
						<duration>3594</duration>
						<rate>
							<timebase>30</timebase>
							<ntsc>FALSE</ntsc>
						</rate>
						<start>2744</start>
						<end>2761</end>
						<in>2744</in>
						<out>2761</out>
						<pproTicksIn>29042496000000</pproTicksIn>
						<pproTicksOut>29222424000000</pproTicksOut>
						<alphatype>none</alphatype>
						<pixelaspectratio>square</pixelaspectratio>
						<anamorphic>FALSE</anamorphic>
						<logginginfo>
							<description />
							<scene />
							<shottake />
							<lognote />
							<good />
							<originalvideofilename />
							<originalaudiofilename />
						</logginginfo>
						<colorinfo>
							<lut />
							<lut1 />
							<asc_sop />
							<asc_sat />
							<lut2 />
						</colorinfo>
						<labels>
							<label2>Violet</label2>
						</labels>
					<file id="file-3">
							</file>
						</clipitem>
					<clipitem id="clipitem-68">
						<masterclipid>masterclip-3</masterclipid>
						<name>Digital-Calibration.mp4</name>
						<enabled>TRUE</enabled>
						<duration>3594</duration>
						<rate>
							<timebase>30</timebase>
							<ntsc>FALSE</ntsc>
						</rate>
						<start>2763</start>
						<end>2789</end>
						<in>2763</in>
						<out>2789</out>
						<pproTicksIn>29243592000000</pproTicksIn>
						<pproTicksOut>29518776000000</pproTicksOut>
						<alphatype>none</alphatype>
						<pixelaspectratio>square</pixelaspectratio>
						<anamorphic>FALSE</anamorphic>
						<logginginfo>
							<description />
							<scene />
							<shottake />
							<lognote />
							<good />
							<originalvideofilename />
							<originalaudiofilename />
						</logginginfo>
						<colorinfo>
							<lut />
							<lut1 />
							<asc_sop />
							<asc_sat />
							<lut2 />
						</colorinfo>
						<labels>
							<label2>Violet</label2>
						</labels>
					<file id="file-3">
							</file>
						</clipitem>
					<clipitem id="clipitem-69">
						<masterclipid>masterclip-3</masterclipid>
						<name>Digital-Calibration.mp4</name>
						<enabled>TRUE</enabled>
						<duration>3594</duration>
						<rate>
							<timebase>30</timebase>
							<ntsc>FALSE</ntsc>
						</rate>
						<start>2797</start>
						<end>2798</end>
						<in>2797</in>
						<out>2798</out>
						<pproTicksIn>29603448000000</pproTicksIn>
						<pproTicksOut>29614032000000</pproTicksOut>
						<alphatype>none</alphatype>
						<pixelaspectratio>square</pixelaspectratio>
						<anamorphic>FALSE</anamorphic>
						<logginginfo>
							<description />
							<scene />
							<shottake />
							<lognote />
							<good />
							<originalvideofilename />
							<originalaudiofilename />
						</logginginfo>
						<colorinfo>
							<lut />
							<lut1 />
							<asc_sop />
							<asc_sat />
							<lut2 />
						</colorinfo>
						<labels>
							<label2>Violet</label2>
						</labels>
					<file id="file-3">
							</file>
						</clipitem>
					<clipitem id="clipitem-70">
						<masterclipid>masterclip-3</masterclipid>
						<name>Digital-Calibration.mp4</name>
						<enabled>TRUE</enabled>
						<duration>3594</duration>
						<rate>
							<timebase>30</timebase>
							<ntsc>FALSE</ntsc>
						</rate>
						<start>2825</start>
						<end>2827</end>
						<in>2825</in>
						<out>2827</out>
						<pproTicksIn>29899800000000</pproTicksIn>
						<pproTicksOut>29920968000000</pproTicksOut>
						<alphatype>none</alphatype>
						<pixelaspectratio>square</pixelaspectratio>
						<anamorphic>FALSE</anamorphic>
						<logginginfo>
							<description />
							<scene />
							<shottake />
							<lognote />
							<good />
							<originalvideofilename />
							<originalaudiofilename />
						</logginginfo>
						<colorinfo>
							<lut />
							<lut1 />
							<asc_sop />
							<asc_sat />
							<lut2 />
						</colorinfo>
						<labels>
							<label2>Violet</label2>
						</labels>
					<file id="file-3">
							</file>
						</clipitem>
					<clipitem id="clipitem-71">
						<masterclipid>masterclip-3</masterclipid>
						<name>Digital-Calibration.mp4</name>
						<enabled>TRUE</enabled>
						<duration>3594</duration>
						<rate>
							<timebase>30</timebase>
							<ntsc>FALSE</ntsc>
						</rate>
						<start>2842</start>
						<end>2843</end>
						<in>2842</in>
						<out>2843</out>
						<pproTicksIn>30079728000000</pproTicksIn>
						<pproTicksOut>30090312000000</pproTicksOut>
						<alphatype>none</alphatype>
						<pixelaspectratio>square</pixelaspectratio>
						<anamorphic>FALSE</anamorphic>
						<logginginfo>
							<description />
							<scene />
							<shottake />
							<lognote />
							<good />
							<originalvideofilename />
							<originalaudiofilename />
						</logginginfo>
						<colorinfo>
							<lut />
							<lut1 />
							<asc_sop />
							<asc_sat />
							<lut2 />
						</colorinfo>
						<labels>
							<label2>Violet</label2>
						</labels>
					<file id="file-3">
							</file>
						</clipitem>
					<clipitem id="clipitem-72">
						<masterclipid>masterclip-3</masterclipid>
						<name>Digital-Calibration.mp4</name>
						<enabled>TRUE</enabled>
						<duration>3594</duration>
						<rate>
							<timebase>30</timebase>
							<ntsc>FALSE</ntsc>
						</rate>
						<start>2844</start>
						<end>2846</end>
						<in>2844</in>
						<out>2846</out>
						<pproTicksIn>30100896000000</pproTicksIn>
						<pproTicksOut>30122064000000</pproTicksOut>
						<alphatype>none</alphatype>
						<pixelaspectratio>square</pixelaspectratio>
						<anamorphic>FALSE</anamorphic>
						<logginginfo>
							<description />
							<scene />
							<shottake />
							<lognote />
							<good />
							<originalvideofilename />
							<originalaudiofilename />
						</logginginfo>
						<colorinfo>
							<lut />
							<lut1 />
							<asc_sop />
							<asc_sat />
							<lut2 />
						</colorinfo>
						<labels>
							<label2>Violet</label2>
						</labels>
					<file id="file-3">
							</file>
						</clipitem>
					<clipitem id="clipitem-73">
						<masterclipid>masterclip-3</masterclipid>
						<name>Digital-Calibration.mp4</name>
						<enabled>TRUE</enabled>
						<duration>3594</duration>
						<rate>
							<timebase>30</timebase>
							<ntsc>FALSE</ntsc>
						</rate>
						<start>2856</start>
						<end>2860</end>
						<in>2856</in>
						<out>2860</out>
						<pproTicksIn>30227904000000</pproTicksIn>
						<pproTicksOut>30270240000000</pproTicksOut>
						<alphatype>none</alphatype>
						<pixelaspectratio>square</pixelaspectratio>
						<anamorphic>FALSE</anamorphic>
						<logginginfo>
							<description />
							<scene />
							<shottake />
							<lognote />
							<good />
							<originalvideofilename />
							<originalaudiofilename />
						</logginginfo>
						<colorinfo>
							<lut />
							<lut1 />
							<asc_sop />
							<asc_sat />
							<lut2 />
						</colorinfo>
						<labels>
							<label2>Violet</label2>
						</labels>
					<file id="file-3">
							</file>
						</clipitem>
					<clipitem id="clipitem-74">
						<masterclipid>masterclip-3</masterclipid>
						<name>Digital-Calibration.mp4</name>
						<enabled>TRUE</enabled>
						<duration>3594</duration>
						<rate>
							<timebase>30</timebase>
							<ntsc>FALSE</ntsc>
						</rate>
						<start>2862</start>
						<end>2863</end>
						<in>2862</in>
						<out>2863</out>
						<pproTicksIn>30291408000000</pproTicksIn>
						<pproTicksOut>30301992000000</pproTicksOut>
						<alphatype>none</alphatype>
						<pixelaspectratio>square</pixelaspectratio>
						<anamorphic>FALSE</anamorphic>
						<logginginfo>
							<description />
							<scene />
							<shottake />
							<lognote />
							<good />
							<originalvideofilename />
							<originalaudiofilename />
						</logginginfo>
						<colorinfo>
							<lut />
							<lut1 />
							<asc_sop />
							<asc_sat />
							<lut2 />
						</colorinfo>
						<labels>
							<label2>Violet</label2>
						</labels>
					<file id="file-3">
							</file>
						</clipitem>
					<clipitem id="clipitem-75">
						<masterclipid>masterclip-3</masterclipid>
						<name>Digital-Calibration.mp4</name>
						<enabled>TRUE</enabled>
						<duration>3594</duration>
						<rate>
							<timebase>30</timebase>
							<ntsc>FALSE</ntsc>
						</rate>
						<start>2866</start>
						<end>2867</end>
						<in>2866</in>
						<out>2867</out>
						<pproTicksIn>30333744000000</pproTicksIn>
						<pproTicksOut>30344328000000</pproTicksOut>
						<alphatype>none</alphatype>
						<pixelaspectratio>square</pixelaspectratio>
						<anamorphic>FALSE</anamorphic>
						<logginginfo>
							<description />
							<scene />
							<shottake />
							<lognote />
							<good />
							<originalvideofilename />
							<originalaudiofilename />
						</logginginfo>
						<colorinfo>
							<lut />
							<lut1 />
							<asc_sop />
							<asc_sat />
							<lut2 />
						</colorinfo>
						<labels>
							<label2>Violet</label2>
						</labels>
					<file id="file-3">
							</file>
						</clipitem>
					<clipitem id="clipitem-76">
						<masterclipid>masterclip-3</masterclipid>
						<name>Digital-Calibration.mp4</name>
						<enabled>TRUE</enabled>
						<duration>3594</duration>
						<rate>
							<timebase>30</timebase>
							<ntsc>FALSE</ntsc>
						</rate>
						<start>2868</start>
						<end>2869</end>
						<in>2868</in>
						<out>2869</out>
						<pproTicksIn>30354912000000</pproTicksIn>
						<pproTicksOut>30365496000000</pproTicksOut>
						<alphatype>none</alphatype>
						<pixelaspectratio>square</pixelaspectratio>
						<anamorphic>FALSE</anamorphic>
						<logginginfo>
							<description />
							<scene />
							<shottake />
							<lognote />
							<good />
							<originalvideofilename />
							<originalaudiofilename />
						</logginginfo>
						<colorinfo>
							<lut />
							<lut1 />
							<asc_sop />
							<asc_sat />
							<lut2 />
						</colorinfo>
						<labels>
							<label2>Violet</label2>
						</labels>
					<file id="file-3">
							</file>
						</clipitem>
					<clipitem id="clipitem-77">
						<masterclipid>masterclip-3</masterclipid>
						<name>Digital-Calibration.mp4</name>
						<enabled>TRUE</enabled>
						<duration>3594</duration>
						<rate>
							<timebase>30</timebase>
							<ntsc>FALSE</ntsc>
						</rate>
						<start>2872</start>
						<end>2873</end>
						<in>2872</in>
						<out>2873</out>
						<pproTicksIn>30397248000000</pproTicksIn>
						<pproTicksOut>30407832000000</pproTicksOut>
						<alphatype>none</alphatype>
						<pixelaspectratio>square</pixelaspectratio>
						<anamorphic>FALSE</anamorphic>
						<logginginfo>
							<description />
							<scene />
							<shottake />
							<lognote />
							<good />
							<originalvideofilename />
							<originalaudiofilename />
						</logginginfo>
						<colorinfo>
							<lut />
							<lut1 />
							<asc_sop />
							<asc_sat />
							<lut2 />
						</colorinfo>
						<labels>
							<label2>Violet</label2>
						</labels>
					<file id="file-3">
							</file>
						</clipitem>
					<clipitem id="clipitem-78">
						<masterclipid>masterclip-3</masterclipid>
						<name>Digital-Calibration.mp4</name>
						<enabled>TRUE</enabled>
						<duration>3594</duration>
						<rate>
							<timebase>30</timebase>
							<ntsc>FALSE</ntsc>
						</rate>
						<start>2874</start>
						<end>2875</end>
						<in>2874</in>
						<out>2875</out>
						<pproTicksIn>30418416000000</pproTicksIn>
						<pproTicksOut>30429000000000</pproTicksOut>
						<alphatype>none</alphatype>
						<pixelaspectratio>square</pixelaspectratio>
						<anamorphic>FALSE</anamorphic>
						<logginginfo>
							<description />
							<scene />
							<shottake />
							<lognote />
							<good />
							<originalvideofilename />
							<originalaudiofilename />
						</logginginfo>
						<colorinfo>
							<lut />
							<lut1 />
							<asc_sop />
							<asc_sat />
							<lut2 />
						</colorinfo>
						<labels>
							<label2>Violet</label2>
						</labels>
					<file id="file-3">
							</file>
						</clipitem>
					<clipitem id="clipitem-79">
						<masterclipid>masterclip-3</masterclipid>
						<name>Digital-Calibration.mp4</name>
						<enabled>TRUE</enabled>
						<duration>3594</duration>
						<rate>
							<timebase>30</timebase>
							<ntsc>FALSE</ntsc>
						</rate>
						<start>2881</start>
						<end>2882</end>
						<in>2881</in>
						<out>2882</out>
						<pproTicksIn>30492504000000</pproTicksIn>
						<pproTicksOut>30503088000000</pproTicksOut>
						<alphatype>none</alphatype>
						<pixelaspectratio>square</pixelaspectratio>
						<anamorphic>FALSE</anamorphic>
						<logginginfo>
							<description />
							<scene />
							<shottake />
							<lognote />
							<good />
							<originalvideofilename />
							<originalaudiofilename />
						</logginginfo>
						<colorinfo>
							<lut />
							<lut1 />
							<asc_sop />
							<asc_sat />
							<lut2 />
						</colorinfo>
						<labels>
							<label2>Violet</label2>
						</labels>
					<file id="file-3">
							</file>
						</clipitem>
					<clipitem id="clipitem-80">
						<masterclipid>masterclip-3</masterclipid>
						<name>Digital-Calibration.mp4</name>
						<enabled>TRUE</enabled>
						<duration>3594</duration>
						<rate>
							<timebase>30</timebase>
							<ntsc>FALSE</ntsc>
						</rate>
						<start>2883</start>
						<end>2884</end>
						<in>2883</in>
						<out>2884</out>
						<pproTicksIn>30513672000000</pproTicksIn>
						<pproTicksOut>30524256000000</pproTicksOut>
						<alphatype>none</alphatype>
						<pixelaspectratio>square</pixelaspectratio>
						<anamorphic>FALSE</anamorphic>
						<logginginfo>
							<description />
							<scene />
							<shottake />
							<lognote />
							<good />
							<originalvideofilename />
							<originalaudiofilename />
						</logginginfo>
						<colorinfo>
							<lut />
							<lut1 />
							<asc_sop />
							<asc_sat />
							<lut2 />
						</colorinfo>
						<labels>
							<label2>Violet</label2>
						</labels>
					<file id="file-3">
							</file>
						</clipitem>
					<clipitem id="clipitem-81">
						<masterclipid>masterclip-3</masterclipid>
						<name>Digital-Calibration.mp4</name>
						<enabled>TRUE</enabled>
						<duration>3594</duration>
						<rate>
							<timebase>30</timebase>
							<ntsc>FALSE</ntsc>
						</rate>
						<start>2889</start>
						<end>2890</end>
						<in>2889</in>
						<out>2890</out>
						<pproTicksIn>30577176000000</pproTicksIn>
						<pproTicksOut>30587760000000</pproTicksOut>
						<alphatype>none</alphatype>
						<pixelaspectratio>square</pixelaspectratio>
						<anamorphic>FALSE</anamorphic>
						<logginginfo>
							<description />
							<scene />
							<shottake />
							<lognote />
							<good />
							<originalvideofilename />
							<originalaudiofilename />
						</logginginfo>
						<colorinfo>
							<lut />
							<lut1 />
							<asc_sop />
							<asc_sat />
							<lut2 />
						</colorinfo>
						<labels>
							<label2>Violet</label2>
						</labels>
					<file id="file-3">
							</file>
						</clipitem>
					<clipitem id="clipitem-82">
						<masterclipid>masterclip-3</masterclipid>
						<name>Digital-Calibration.mp4</name>
						<enabled>TRUE</enabled>
						<duration>3594</duration>
						<rate>
							<timebase>30</timebase>
							<ntsc>FALSE</ntsc>
						</rate>
						<start>2900</start>
						<end>2901</end>
						<in>2900</in>
						<out>2901</out>
						<pproTicksIn>30693600000000</pproTicksIn>
						<pproTicksOut>30704184000000</pproTicksOut>
						<alphatype>none</alphatype>
						<pixelaspectratio>square</pixelaspectratio>
						<anamorphic>FALSE</anamorphic>
						<logginginfo>
							<description />
							<scene />
							<shottake />
							<lognote />
							<good />
							<originalvideofilename />
							<originalaudiofilename />
						</logginginfo>
						<colorinfo>
							<lut />
							<lut1 />
							<asc_sop />
							<asc_sat />
							<lut2 />
						</colorinfo>
						<labels>
							<label2>Violet</label2>
						</labels>
					<file id="file-3">
							</file>
						</clipitem>
					<clipitem id="clipitem-83">
						<masterclipid>masterclip-3</masterclipid>
						<name>Digital-Calibration.mp4</name>
						<enabled>TRUE</enabled>
						<duration>3594</duration>
						<rate>
							<timebase>30</timebase>
							<ntsc>FALSE</ntsc>
						</rate>
						<start>2910</start>
						<end>2911</end>
						<in>2910</in>
						<out>2911</out>
						<pproTicksIn>30799440000000</pproTicksIn>
						<pproTicksOut>30810024000000</pproTicksOut>
						<alphatype>none</alphatype>
						<pixelaspectratio>square</pixelaspectratio>
						<anamorphic>FALSE</anamorphic>
						<logginginfo>
							<description />
							<scene />
							<shottake />
							<lognote />
							<good />
							<originalvideofilename />
							<originalaudiofilename />
						</logginginfo>
						<colorinfo>
							<lut />
							<lut1 />
							<asc_sop />
							<asc_sat />
							<lut2 />
						</colorinfo>
						<labels>
							<label2>Violet</label2>
						</labels>
					<file id="file-3">
							</file>
						</clipitem>
					<clipitem id="clipitem-84">
						<masterclipid>masterclip-3</masterclipid>
						<name>Digital-Calibration.mp4</name>
						<enabled>TRUE</enabled>
						<duration>3594</duration>
						<rate>
							<timebase>30</timebase>
							<ntsc>FALSE</ntsc>
						</rate>
						<start>2915</start>
						<end>2918</end>
						<in>2915</in>
						<out>2918</out>
						<pproTicksIn>30852360000000</pproTicksIn>
						<pproTicksOut>30884112000000</pproTicksOut>
						<alphatype>none</alphatype>
						<pixelaspectratio>square</pixelaspectratio>
						<anamorphic>FALSE</anamorphic>
						<logginginfo>
							<description />
							<scene />
							<shottake />
							<lognote />
							<good />
							<originalvideofilename />
							<originalaudiofilename />
						</logginginfo>
						<colorinfo>
							<lut />
							<lut1 />
							<asc_sop />
							<asc_sat />
							<lut2 />
						</colorinfo>
						<labels>
							<label2>Violet</label2>
						</labels>
					<file id="file-3">
							</file>
						</clipitem>
					<clipitem id="clipitem-85">
						<masterclipid>masterclip-3</masterclipid>
						<name>Digital-Calibration.mp4</name>
						<enabled>TRUE</enabled>
						<duration>3594</duration>
						<rate>
							<timebase>30</timebase>
							<ntsc>FALSE</ntsc>
						</rate>
						<start>2919</start>
						<end>2921</end>
						<in>2919</in>
						<out>2921</out>
						<pproTicksIn>30894696000000</pproTicksIn>
						<pproTicksOut>30915864000000</pproTicksOut>
						<alphatype>none</alphatype>
						<pixelaspectratio>square</pixelaspectratio>
						<anamorphic>FALSE</anamorphic>
						<logginginfo>
							<description />
							<scene />
							<shottake />
							<lognote />
							<good />
							<originalvideofilename />
							<originalaudiofilename />
						</logginginfo>
						<colorinfo>
							<lut />
							<lut1 />
							<asc_sop />
							<asc_sat />
							<lut2 />
						</colorinfo>
						<labels>
							<label2>Violet</label2>
						</labels>
					<file id="file-3">
							</file>
						</clipitem>
					<clipitem id="clipitem-86">
						<masterclipid>masterclip-3</masterclipid>
						<name>Digital-Calibration.mp4</name>
						<enabled>TRUE</enabled>
						<duration>3594</duration>
						<rate>
							<timebase>30</timebase>
							<ntsc>FALSE</ntsc>
						</rate>
						<start>2928</start>
						<end>2929</end>
						<in>2928</in>
						<out>2929</out>
						<pproTicksIn>30989952000000</pproTicksIn>
						<pproTicksOut>31000536000000</pproTicksOut>
						<alphatype>none</alphatype>
						<pixelaspectratio>square</pixelaspectratio>
						<anamorphic>FALSE</anamorphic>
						<logginginfo>
							<description />
							<scene />
							<shottake />
							<lognote />
							<good />
							<originalvideofilename />
							<originalaudiofilename />
						</logginginfo>
						<colorinfo>
							<lut />
							<lut1 />
							<asc_sop />
							<asc_sat />
							<lut2 />
						</colorinfo>
						<labels>
							<label2>Violet</label2>
						</labels>
					<file id="file-3">
							</file>
						</clipitem>
					<clipitem id="clipitem-87">
						<masterclipid>masterclip-3</masterclipid>
						<name>Digital-Calibration.mp4</name>
						<enabled>TRUE</enabled>
						<duration>3594</duration>
						<rate>
							<timebase>30</timebase>
							<ntsc>FALSE</ntsc>
						</rate>
						<start>2938</start>
						<end>2940</end>
						<in>2938</in>
						<out>2940</out>
						<pproTicksIn>31095792000000</pproTicksIn>
						<pproTicksOut>31116960000000</pproTicksOut>
						<alphatype>none</alphatype>
						<pixelaspectratio>square</pixelaspectratio>
						<anamorphic>FALSE</anamorphic>
						<logginginfo>
							<description />
							<scene />
							<shottake />
							<lognote />
							<good />
							<originalvideofilename />
							<originalaudiofilename />
						</logginginfo>
						<colorinfo>
							<lut />
							<lut1 />
							<asc_sop />
							<asc_sat />
							<lut2 />
						</colorinfo>
						<labels>
							<label2>Violet</label2>
						</labels>
					<file id="file-3">
							</file>
						</clipitem>
					<clipitem id="clipitem-88">
						<masterclipid>masterclip-3</masterclipid>
						<name>Digital-Calibration.mp4</name>
						<enabled>TRUE</enabled>
						<duration>3594</duration>
						<rate>
							<timebase>30</timebase>
							<ntsc>FALSE</ntsc>
						</rate>
						<start>2950</start>
						<end>2952</end>
						<in>2950</in>
						<out>2952</out>
						<pproTicksIn>31222800000000</pproTicksIn>
						<pproTicksOut>31243968000000</pproTicksOut>
						<alphatype>none</alphatype>
						<pixelaspectratio>square</pixelaspectratio>
						<anamorphic>FALSE</anamorphic>
						<logginginfo>
							<description />
							<scene />
							<shottake />
							<lognote />
							<good />
							<originalvideofilename />
							<originalaudiofilename />
						</logginginfo>
						<colorinfo>
							<lut />
							<lut1 />
							<asc_sop />
							<asc_sat />
							<lut2 />
						</colorinfo>
						<labels>
							<label2>Violet</label2>
						</labels>
					<file id="file-3">
							</file>
						</clipitem>
					<clipitem id="clipitem-89">
						<masterclipid>masterclip-3</masterclipid>
						<name>Digital-Calibration.mp4</name>
						<enabled>TRUE</enabled>
						<duration>3594</duration>
						<rate>
							<timebase>30</timebase>
							<ntsc>FALSE</ntsc>
						</rate>
						<start>2985</start>
						<end>2988</end>
						<in>2985</in>
						<out>2988</out>
						<pproTicksIn>31593240000000</pproTicksIn>
						<pproTicksOut>31624992000000</pproTicksOut>
						<alphatype>none</alphatype>
						<pixelaspectratio>square</pixelaspectratio>
						<anamorphic>FALSE</anamorphic>
						<logginginfo>
							<description />
							<scene />
							<shottake />
							<lognote />
							<good />
							<originalvideofilename />
							<originalaudiofilename />
						</logginginfo>
						<colorinfo>
							<lut />
							<lut1 />
							<asc_sop />
							<asc_sat />
							<lut2 />
						</colorinfo>
						<labels>
							<label2>Violet</label2>
						</labels>
					<file id="file-3">
							</file>
						</clipitem>
					<clipitem id="clipitem-90">
						<masterclipid>masterclip-3</masterclipid>
						<name>Digital-Calibration.mp4</name>
						<enabled>TRUE</enabled>
						<duration>3594</duration>
						<rate>
							<timebase>30</timebase>
							<ntsc>FALSE</ntsc>
						</rate>
						<start>3020</start>
						<end>3021</end>
						<in>3020</in>
						<out>3021</out>
						<pproTicksIn>31963680000000</pproTicksIn>
						<pproTicksOut>31974264000000</pproTicksOut>
						<alphatype>none</alphatype>
						<pixelaspectratio>square</pixelaspectratio>
						<anamorphic>FALSE</anamorphic>
						<logginginfo>
							<description />
							<scene />
							<shottake />
							<lognote />
							<good />
							<originalvideofilename />
							<originalaudiofilename />
						</logginginfo>
						<colorinfo>
							<lut />
							<lut1 />
							<asc_sop />
							<asc_sat />
							<lut2 />
						</colorinfo>
						<labels>
							<label2>Violet</label2>
						</labels>
					<file id="file-3">
							</file>
						</clipitem>
					<clipitem id="clipitem-91">
						<masterclipid>masterclip-3</masterclipid>
						<name>Digital-Calibration.mp4</name>
						<enabled>TRUE</enabled>
						<duration>3594</duration>
						<rate>
							<timebase>30</timebase>
							<ntsc>FALSE</ntsc>
						</rate>
						<start>3022</start>
						<end>3023</end>
						<in>3022</in>
						<out>3023</out>
						<pproTicksIn>31984848000000</pproTicksIn>
						<pproTicksOut>31995432000000</pproTicksOut>
						<alphatype>none</alphatype>
						<pixelaspectratio>square</pixelaspectratio>
						<anamorphic>FALSE</anamorphic>
						<logginginfo>
							<description />
							<scene />
							<shottake />
							<lognote />
							<good />
							<originalvideofilename />
							<originalaudiofilename />
						</logginginfo>
						<colorinfo>
							<lut />
							<lut1 />
							<asc_sop />
							<asc_sat />
							<lut2 />
						</colorinfo>
						<labels>
							<label2>Violet</label2>
						</labels>
					<file id="file-3">
							</file>
						</clipitem>
					<clipitem id="clipitem-92">
						<masterclipid>masterclip-3</masterclipid>
						<name>Digital-Calibration.mp4</name>
						<enabled>TRUE</enabled>
						<duration>3594</duration>
						<rate>
							<timebase>30</timebase>
							<ntsc>FALSE</ntsc>
						</rate>
						<start>3042</start>
						<end>3044</end>
						<in>3042</in>
						<out>3044</out>
						<pproTicksIn>32196528000000</pproTicksIn>
						<pproTicksOut>32217696000000</pproTicksOut>
						<alphatype>none</alphatype>
						<pixelaspectratio>square</pixelaspectratio>
						<anamorphic>FALSE</anamorphic>
						<logginginfo>
							<description />
							<scene />
							<shottake />
							<lognote />
							<good />
							<originalvideofilename />
							<originalaudiofilename />
						</logginginfo>
						<colorinfo>
							<lut />
							<lut1 />
							<asc_sop />
							<asc_sat />
							<lut2 />
						</colorinfo>
						<labels>
							<label2>Violet</label2>
						</labels>
					<file id="file-3">
							</file>
						</clipitem>
					<clipitem id="clipitem-93">
						<masterclipid>masterclip-3</masterclipid>
						<name>Digital-Calibration.mp4</name>
						<enabled>TRUE</enabled>
						<duration>3594</duration>
						<rate>
							<timebase>30</timebase>
							<ntsc>FALSE</ntsc>
						</rate>
						<start>3051</start>
						<end>3053</end>
						<in>3051</in>
						<out>3053</out>
						<pproTicksIn>32291784000000</pproTicksIn>
						<pproTicksOut>32312952000000</pproTicksOut>
						<alphatype>none</alphatype>
						<pixelaspectratio>square</pixelaspectratio>
						<anamorphic>FALSE</anamorphic>
						<logginginfo>
							<description />
							<scene />
							<shottake />
							<lognote />
							<good />
							<originalvideofilename />
							<originalaudiofilename />
						</logginginfo>
						<colorinfo>
							<lut />
							<lut1 />
							<asc_sop />
							<asc_sat />
							<lut2 />
						</colorinfo>
						<labels>
							<label2>Violet</label2>
						</labels>
					<file id="file-3">
							</file>
						</clipitem>
					<clipitem id="clipitem-94">
						<masterclipid>masterclip-3</masterclipid>
						<name>Digital-Calibration.mp4</name>
						<enabled>TRUE</enabled>
						<duration>3594</duration>
						<rate>
							<timebase>30</timebase>
							<ntsc>FALSE</ntsc>
						</rate>
						<start>3103</start>
						<end>3106</end>
						<in>3103</in>
						<out>3106</out>
						<pproTicksIn>32842152000000</pproTicksIn>
						<pproTicksOut>32873904000000</pproTicksOut>
						<alphatype>none</alphatype>
						<pixelaspectratio>square</pixelaspectratio>
						<anamorphic>FALSE</anamorphic>
						<logginginfo>
							<description />
							<scene />
							<shottake />
							<lognote />
							<good />
							<originalvideofilename />
							<originalaudiofilename />
						</logginginfo>
						<colorinfo>
							<lut />
							<lut1 />
							<asc_sop />
							<asc_sat />
							<lut2 />
						</colorinfo>
						<labels>
							<label2>Violet</label2>
						</labels>
					<file id="file-3">
							</file>
						</clipitem>
					<clipitem id="clipitem-95">
						<masterclipid>masterclip-3</masterclipid>
						<name>Digital-Calibration.mp4</name>
						<enabled>TRUE</enabled>
						<duration>3594</duration>
						<rate>
							<timebase>30</timebase>
							<ntsc>FALSE</ntsc>
						</rate>
						<start>3108</start>
						<end>3109</end>
						<in>3108</in>
						<out>3109</out>
						<pproTicksIn>32895072000000</pproTicksIn>
						<pproTicksOut>32905656000000</pproTicksOut>
						<alphatype>none</alphatype>
						<pixelaspectratio>square</pixelaspectratio>
						<anamorphic>FALSE</anamorphic>
						<logginginfo>
							<description />
							<scene />
							<shottake />
							<lognote />
							<good />
							<originalvideofilename />
							<originalaudiofilename />
						</logginginfo>
						<colorinfo>
							<lut />
							<lut1 />
							<asc_sop />
							<asc_sat />
							<lut2 />
						</colorinfo>
						<labels>
							<label2>Violet</label2>
						</labels>
					<file id="file-3">
							</file>
						</clipitem>
					<clipitem id="clipitem-96">
						<masterclipid>masterclip-3</masterclipid>
						<name>Digital-Calibration.mp4</name>
						<enabled>TRUE</enabled>
						<duration>3594</duration>
						<rate>
							<timebase>30</timebase>
							<ntsc>FALSE</ntsc>
						</rate>
						<start>3110</start>
						<end>3111</end>
						<in>3110</in>
						<out>3111</out>
						<pproTicksIn>32916240000000</pproTicksIn>
						<pproTicksOut>32926824000000</pproTicksOut>
						<alphatype>none</alphatype>
						<pixelaspectratio>square</pixelaspectratio>
						<anamorphic>FALSE</anamorphic>
						<logginginfo>
							<description />
							<scene />
							<shottake />
							<lognote />
							<good />
							<originalvideofilename />
							<originalaudiofilename />
						</logginginfo>
						<colorinfo>
							<lut />
							<lut1 />
							<asc_sop />
							<asc_sat />
							<lut2 />
						</colorinfo>
						<labels>
							<label2>Violet</label2>
						</labels>
					<file id="file-3">
							</file>
						</clipitem>
					<clipitem id="clipitem-97">
						<masterclipid>masterclip-3</masterclipid>
						<name>Digital-Calibration.mp4</name>
						<enabled>TRUE</enabled>
						<duration>3594</duration>
						<rate>
							<timebase>30</timebase>
							<ntsc>FALSE</ntsc>
						</rate>
						<start>3129</start>
						<end>3130</end>
						<in>3129</in>
						<out>3130</out>
						<pproTicksIn>33117336000000</pproTicksIn>
						<pproTicksOut>33127920000000</pproTicksOut>
						<alphatype>none</alphatype>
						<pixelaspectratio>square</pixelaspectratio>
						<anamorphic>FALSE</anamorphic>
						<logginginfo>
							<description />
							<scene />
							<shottake />
							<lognote />
							<good />
							<originalvideofilename />
							<originalaudiofilename />
						</logginginfo>
						<colorinfo>
							<lut />
							<lut1 />
							<asc_sop />
							<asc_sat />
							<lut2 />
						</colorinfo>
						<labels>
							<label2>Violet</label2>
						</labels>
					<file id="file-3">
							</file>
						</clipitem>
					<clipitem id="clipitem-98">
						<masterclipid>masterclip-3</masterclipid>
						<name>Digital-Calibration.mp4</name>
						<enabled>TRUE</enabled>
						<duration>3594</duration>
						<rate>
							<timebase>30</timebase>
							<ntsc>FALSE</ntsc>
						</rate>
						<start>3132</start>
						<end>3134</end>
						<in>3132</in>
						<out>3134</out>
						<pproTicksIn>33149088000000</pproTicksIn>
						<pproTicksOut>33170256000000</pproTicksOut>
						<alphatype>none</alphatype>
						<pixelaspectratio>square</pixelaspectratio>
						<anamorphic>FALSE</anamorphic>
						<logginginfo>
							<description />
							<scene />
							<shottake />
							<lognote />
							<good />
							<originalvideofilename />
							<originalaudiofilename />
						</logginginfo>
						<colorinfo>
							<lut />
							<lut1 />
							<asc_sop />
							<asc_sat />
							<lut2 />
						</colorinfo>
						<labels>
							<label2>Violet</label2>
						</labels>
					<file id="file-3">
							</file>
						</clipitem>
					<clipitem id="clipitem-99">
						<masterclipid>masterclip-3</masterclipid>
						<name>Digital-Calibration.mp4</name>
						<enabled>TRUE</enabled>
						<duration>3594</duration>
						<rate>
							<timebase>30</timebase>
							<ntsc>FALSE</ntsc>
						</rate>
						<start>3142</start>
						<end>3144</end>
						<in>3142</in>
						<out>3144</out>
						<pproTicksIn>33254928000000</pproTicksIn>
						<pproTicksOut>33276096000000</pproTicksOut>
						<alphatype>none</alphatype>
						<pixelaspectratio>square</pixelaspectratio>
						<anamorphic>FALSE</anamorphic>
						<logginginfo>
							<description />
							<scene />
							<shottake />
							<lognote />
							<good />
							<originalvideofilename />
							<originalaudiofilename />
						</logginginfo>
						<colorinfo>
							<lut />
							<lut1 />
							<asc_sop />
							<asc_sat />
							<lut2 />
						</colorinfo>
						<labels>
							<label2>Violet</label2>
						</labels>
					<file id="file-3">
							</file>
						</clipitem>
					<clipitem id="clipitem-100">
						<masterclipid>masterclip-3</masterclipid>
						<name>Digital-Calibration.mp4</name>
						<enabled>TRUE</enabled>
						<duration>3594</duration>
						<rate>
							<timebase>30</timebase>
							<ntsc>FALSE</ntsc>
						</rate>
						<start>3145</start>
						<end>3146</end>
						<in>3145</in>
						<out>3146</out>
						<pproTicksIn>33286680000000</pproTicksIn>
						<pproTicksOut>33297264000000</pproTicksOut>
						<alphatype>none</alphatype>
						<pixelaspectratio>square</pixelaspectratio>
						<anamorphic>FALSE</anamorphic>
						<logginginfo>
							<description />
							<scene />
							<shottake />
							<lognote />
							<good />
							<originalvideofilename />
							<originalaudiofilename />
						</logginginfo>
						<colorinfo>
							<lut />
							<lut1 />
							<asc_sop />
							<asc_sat />
							<lut2 />
						</colorinfo>
						<labels>
							<label2>Violet</label2>
						</labels>
					<file id="file-3">
							</file>
						</clipitem>
					<clipitem id="clipitem-101">
						<masterclipid>masterclip-3</masterclipid>
						<name>Digital-Calibration.mp4</name>
						<enabled>TRUE</enabled>
						<duration>3594</duration>
						<rate>
							<timebase>30</timebase>
							<ntsc>FALSE</ntsc>
						</rate>
						<start>3147</start>
						<end>3150</end>
						<in>3147</in>
						<out>3150</out>
						<pproTicksIn>33307848000000</pproTicksIn>
						<pproTicksOut>33339600000000</pproTicksOut>
						<alphatype>none</alphatype>
						<pixelaspectratio>square</pixelaspectratio>
						<anamorphic>FALSE</anamorphic>
						<logginginfo>
							<description />
							<scene />
							<shottake />
							<lognote />
							<good />
							<originalvideofilename />
							<originalaudiofilename />
						</logginginfo>
						<colorinfo>
							<lut />
							<lut1 />
							<asc_sop />
							<asc_sat />
							<lut2 />
						</colorinfo>
						<labels>
							<label2>Violet</label2>
						</labels>
					<file id="file-3">
							</file>
						</clipitem>
					<clipitem id="clipitem-102">
						<masterclipid>masterclip-3</masterclipid>
						<name>Digital-Calibration.mp4</name>
						<enabled>TRUE</enabled>
						<duration>3594</duration>
						<rate>
							<timebase>30</timebase>
							<ntsc>FALSE</ntsc>
						</rate>
						<start>3151</start>
						<end>3152</end>
						<in>3151</in>
						<out>3152</out>
						<pproTicksIn>33350184000000</pproTicksIn>
						<pproTicksOut>33360768000000</pproTicksOut>
						<alphatype>none</alphatype>
						<pixelaspectratio>square</pixelaspectratio>
						<anamorphic>FALSE</anamorphic>
						<logginginfo>
							<description />
							<scene />
							<shottake />
							<lognote />
							<good />
							<originalvideofilename />
							<originalaudiofilename />
						</logginginfo>
						<colorinfo>
							<lut />
							<lut1 />
							<asc_sop />
							<asc_sat />
							<lut2 />
						</colorinfo>
						<labels>
							<label2>Violet</label2>
						</labels>
					<file id="file-3">
							</file>
						</clipitem>
					<clipitem id="clipitem-103">
						<masterclipid>masterclip-3</masterclipid>
						<name>Digital-Calibration.mp4</name>
						<enabled>TRUE</enabled>
						<duration>3594</duration>
						<rate>
							<timebase>30</timebase>
							<ntsc>FALSE</ntsc>
						</rate>
						<start>3165</start>
						<end>3169</end>
						<in>3165</in>
						<out>3169</out>
						<pproTicksIn>33498360000000</pproTicksIn>
						<pproTicksOut>33540696000000</pproTicksOut>
						<alphatype>none</alphatype>
						<pixelaspectratio>square</pixelaspectratio>
						<anamorphic>FALSE</anamorphic>
						<logginginfo>
							<description />
							<scene />
							<shottake />
							<lognote />
							<good />
							<originalvideofilename />
							<originalaudiofilename />
						</logginginfo>
						<colorinfo>
							<lut />
							<lut1 />
							<asc_sop />
							<asc_sat />
							<lut2 />
						</colorinfo>
						<labels>
							<label2>Violet</label2>
						</labels>
					<file id="file-3">
							</file>
						</clipitem>
					<clipitem id="clipitem-104">
						<masterclipid>masterclip-3</masterclipid>
						<name>Digital-Calibration.mp4</name>
						<enabled>TRUE</enabled>
						<duration>3594</duration>
						<rate>
							<timebase>30</timebase>
							<ntsc>FALSE</ntsc>
						</rate>
						<start>3170</start>
						<end>3174</end>
						<in>3170</in>
						<out>3174</out>
						<pproTicksIn>33551280000000</pproTicksIn>
						<pproTicksOut>33593616000000</pproTicksOut>
						<alphatype>none</alphatype>
						<pixelaspectratio>square</pixelaspectratio>
						<anamorphic>FALSE</anamorphic>
						<logginginfo>
							<description />
							<scene />
							<shottake />
							<lognote />
							<good />
							<originalvideofilename />
							<originalaudiofilename />
						</logginginfo>
						<colorinfo>
							<lut />
							<lut1 />
							<asc_sop />
							<asc_sat />
							<lut2 />
						</colorinfo>
						<labels>
							<label2>Violet</label2>
						</labels>
					<file id="file-3">
							</file>
						</clipitem>
					<clipitem id="clipitem-105">
						<masterclipid>masterclip-3</masterclipid>
						<name>Digital-Calibration.mp4</name>
						<enabled>TRUE</enabled>
						<duration>3594</duration>
						<rate>
							<timebase>30</timebase>
							<ntsc>FALSE</ntsc>
						</rate>
						<start>3182</start>
						<end>3186</end>
						<in>3182</in>
						<out>3186</out>
						<pproTicksIn>33678288000000</pproTicksIn>
						<pproTicksOut>33720624000000</pproTicksOut>
						<alphatype>none</alphatype>
						<pixelaspectratio>square</pixelaspectratio>
						<anamorphic>FALSE</anamorphic>
						<logginginfo>
							<description />
							<scene />
							<shottake />
							<lognote />
							<good />
							<originalvideofilename />
							<originalaudiofilename />
						</logginginfo>
						<colorinfo>
							<lut />
							<lut1 />
							<asc_sop />
							<asc_sat />
							<lut2 />
						</colorinfo>
						<labels>
							<label2>Violet</label2>
						</labels>
					<file id="file-3">
							</file>
						</clipitem>
					<clipitem id="clipitem-106">
						<masterclipid>masterclip-3</masterclipid>
						<name>Digital-Calibration.mp4</name>
						<enabled>TRUE</enabled>
						<duration>3594</duration>
						<rate>
							<timebase>30</timebase>
							<ntsc>FALSE</ntsc>
						</rate>
						<start>3187</start>
						<end>3190</end>
						<in>3187</in>
						<out>3190</out>
						<pproTicksIn>33731208000000</pproTicksIn>
						<pproTicksOut>33762960000000</pproTicksOut>
						<alphatype>none</alphatype>
						<pixelaspectratio>square</pixelaspectratio>
						<anamorphic>FALSE</anamorphic>
						<logginginfo>
							<description />
							<scene />
							<shottake />
							<lognote />
							<good />
							<originalvideofilename />
							<originalaudiofilename />
						</logginginfo>
						<colorinfo>
							<lut />
							<lut1 />
							<asc_sop />
							<asc_sat />
							<lut2 />
						</colorinfo>
						<labels>
							<label2>Violet</label2>
						</labels>
					<file id="file-3">
							</file>
						</clipitem>
					<clipitem id="clipitem-107">
						<masterclipid>masterclip-3</masterclipid>
						<name>Digital-Calibration.mp4</name>
						<enabled>TRUE</enabled>
						<duration>3594</duration>
						<rate>
							<timebase>30</timebase>
							<ntsc>FALSE</ntsc>
						</rate>
						<start>3192</start>
						<end>3193</end>
						<in>3192</in>
						<out>3193</out>
						<pproTicksIn>33784128000000</pproTicksIn>
						<pproTicksOut>33794712000000</pproTicksOut>
						<alphatype>none</alphatype>
						<pixelaspectratio>square</pixelaspectratio>
						<anamorphic>FALSE</anamorphic>
						<logginginfo>
							<description />
							<scene />
							<shottake />
							<lognote />
							<good />
							<originalvideofilename />
							<originalaudiofilename />
						</logginginfo>
						<colorinfo>
							<lut />
							<lut1 />
							<asc_sop />
							<asc_sat />
							<lut2 />
						</colorinfo>
						<labels>
							<label2>Violet</label2>
						</labels>
					<file id="file-3">
							</file>
						</clipitem>
					<clipitem id="clipitem-108">
						<masterclipid>masterclip-3</masterclipid>
						<name>Digital-Calibration.mp4</name>
						<enabled>TRUE</enabled>
						<duration>3594</duration>
						<rate>
							<timebase>30</timebase>
							<ntsc>FALSE</ntsc>
						</rate>
						<start>3195</start>
						<end>3198</end>
						<in>3195</in>
						<out>3198</out>
						<pproTicksIn>33815880000000</pproTicksIn>
						<pproTicksOut>33847632000000</pproTicksOut>
						<alphatype>none</alphatype>
						<pixelaspectratio>square</pixelaspectratio>
						<anamorphic>FALSE</anamorphic>
						<logginginfo>
							<description />
							<scene />
							<shottake />
							<lognote />
							<good />
							<originalvideofilename />
							<originalaudiofilename />
						</logginginfo>
						<colorinfo>
							<lut />
							<lut1 />
							<asc_sop />
							<asc_sat />
							<lut2 />
						</colorinfo>
						<labels>
							<label2>Violet</label2>
						</labels>
					<file id="file-3">
							</file>
						</clipitem>
					<clipitem id="clipitem-109">
						<masterclipid>masterclip-3</masterclipid>
						<name>Digital-Calibration.mp4</name>
						<enabled>TRUE</enabled>
						<duration>3594</duration>
						<rate>
							<timebase>30</timebase>
							<ntsc>FALSE</ntsc>
						</rate>
						<start>3200</start>
						<end>3201</end>
						<in>3200</in>
						<out>3201</out>
						<pproTicksIn>33868800000000</pproTicksIn>
						<pproTicksOut>33879384000000</pproTicksOut>
						<alphatype>none</alphatype>
						<pixelaspectratio>square</pixelaspectratio>
						<anamorphic>FALSE</anamorphic>
						<logginginfo>
							<description />
							<scene />
							<shottake />
							<lognote />
							<good />
							<originalvideofilename />
							<originalaudiofilename />
						</logginginfo>
						<colorinfo>
							<lut />
							<lut1 />
							<asc_sop />
							<asc_sat />
							<lut2 />
						</colorinfo>
						<labels>
							<label2>Violet</label2>
						</labels>
					<file id="file-3">
							</file>
						</clipitem>
					<clipitem id="clipitem-110">
						<masterclipid>masterclip-3</masterclipid>
						<name>Digital-Calibration.mp4</name>
						<enabled>TRUE</enabled>
						<duration>3594</duration>
						<rate>
							<timebase>30</timebase>
							<ntsc>FALSE</ntsc>
						</rate>
						<start>3202</start>
						<end>3203</end>
						<in>3202</in>
						<out>3203</out>
						<pproTicksIn>33889968000000</pproTicksIn>
						<pproTicksOut>33900552000000</pproTicksOut>
						<alphatype>none</alphatype>
						<pixelaspectratio>square</pixelaspectratio>
						<anamorphic>FALSE</anamorphic>
						<logginginfo>
							<description />
							<scene />
							<shottake />
							<lognote />
							<good />
							<originalvideofilename />
							<originalaudiofilename />
						</logginginfo>
						<colorinfo>
							<lut />
							<lut1 />
							<asc_sop />
							<asc_sat />
							<lut2 />
						</colorinfo>
						<labels>
							<label2>Violet</label2>
						</labels>
					<file id="file-3">
							</file>
						</clipitem>
					<clipitem id="clipitem-111">
						<masterclipid>masterclip-3</masterclipid>
						<name>Digital-Calibration.mp4</name>
						<enabled>TRUE</enabled>
						<duration>3594</duration>
						<rate>
							<timebase>30</timebase>
							<ntsc>FALSE</ntsc>
						</rate>
						<start>3223</start>
						<end>3226</end>
						<in>3223</in>
						<out>3226</out>
						<pproTicksIn>34112232000000</pproTicksIn>
						<pproTicksOut>34143984000000</pproTicksOut>
						<alphatype>none</alphatype>
						<pixelaspectratio>square</pixelaspectratio>
						<anamorphic>FALSE</anamorphic>
						<logginginfo>
							<description />
							<scene />
							<shottake />
							<lognote />
							<good />
							<originalvideofilename />
							<originalaudiofilename />
						</logginginfo>
						<colorinfo>
							<lut />
							<lut1 />
							<asc_sop />
							<asc_sat />
							<lut2 />
						</colorinfo>
						<labels>
							<label2>Violet</label2>
						</labels>
					<file id="file-3">
							</file>
						</clipitem>
					<clipitem id="clipitem-112">
						<masterclipid>masterclip-3</masterclipid>
						<name>Digital-Calibration.mp4</name>
						<enabled>TRUE</enabled>
						<duration>3594</duration>
						<rate>
							<timebase>30</timebase>
							<ntsc>FALSE</ntsc>
						</rate>
						<start>3246</start>
						<end>3248</end>
						<in>3246</in>
						<out>3248</out>
						<pproTicksIn>34355664000000</pproTicksIn>
						<pproTicksOut>34376832000000</pproTicksOut>
						<alphatype>none</alphatype>
						<pixelaspectratio>square</pixelaspectratio>
						<anamorphic>FALSE</anamorphic>
						<logginginfo>
							<description />
							<scene />
							<shottake />
							<lognote />
							<good />
							<originalvideofilename />
							<originalaudiofilename />
						</logginginfo>
						<colorinfo>
							<lut />
							<lut1 />
							<asc_sop />
							<asc_sat />
							<lut2 />
						</colorinfo>
						<labels>
							<label2>Violet</label2>
						</labels>
					<file id="file-3">
							</file>
						</clipitem>
					<clipitem id="clipitem-113">
						<masterclipid>masterclip-3</masterclipid>
						<name>Digital-Calibration.mp4</name>
						<enabled>TRUE</enabled>
						<duration>3594</duration>
						<rate>
							<timebase>30</timebase>
							<ntsc>FALSE</ntsc>
						</rate>
						<start>3249</start>
						<end>3250</end>
						<in>3249</in>
						<out>3250</out>
						<pproTicksIn>34387416000000</pproTicksIn>
						<pproTicksOut>34398000000000</pproTicksOut>
						<alphatype>none</alphatype>
						<pixelaspectratio>square</pixelaspectratio>
						<anamorphic>FALSE</anamorphic>
						<logginginfo>
							<description />
							<scene />
							<shottake />
							<lognote />
							<good />
							<originalvideofilename />
							<originalaudiofilename />
						</logginginfo>
						<colorinfo>
							<lut />
							<lut1 />
							<asc_sop />
							<asc_sat />
							<lut2 />
						</colorinfo>
						<labels>
							<label2>Violet</label2>
						</labels>
					<file id="file-3">
							</file>
						</clipitem>
					<clipitem id="clipitem-114">
						<masterclipid>masterclip-3</masterclipid>
						<name>Digital-Calibration.mp4</name>
						<enabled>TRUE</enabled>
						<duration>3594</duration>
						<rate>
							<timebase>30</timebase>
							<ntsc>FALSE</ntsc>
						</rate>
						<start>3260</start>
						<end>3262</end>
						<in>3260</in>
						<out>3262</out>
						<pproTicksIn>34503840000000</pproTicksIn>
						<pproTicksOut>34525008000000</pproTicksOut>
						<alphatype>none</alphatype>
						<pixelaspectratio>square</pixelaspectratio>
						<anamorphic>FALSE</anamorphic>
						<logginginfo>
							<description />
							<scene />
							<shottake />
							<lognote />
							<good />
							<originalvideofilename />
							<originalaudiofilename />
						</logginginfo>
						<colorinfo>
							<lut />
							<lut1 />
							<asc_sop />
							<asc_sat />
							<lut2 />
						</colorinfo>
						<labels>
							<label2>Violet</label2>
						</labels>
					<file id="file-3">
							</file>
						</clipitem>
					<clipitem id="clipitem-115">
						<masterclipid>masterclip-3</masterclipid>
						<name>Digital-Calibration.mp4</name>
						<enabled>TRUE</enabled>
						<duration>3594</duration>
						<rate>
							<timebase>30</timebase>
							<ntsc>FALSE</ntsc>
						</rate>
						<start>3276</start>
						<end>3278</end>
						<in>3276</in>
						<out>3278</out>
						<pproTicksIn>34673184000000</pproTicksIn>
						<pproTicksOut>34694352000000</pproTicksOut>
						<alphatype>none</alphatype>
						<pixelaspectratio>square</pixelaspectratio>
						<anamorphic>FALSE</anamorphic>
						<logginginfo>
							<description />
							<scene />
							<shottake />
							<lognote />
							<good />
							<originalvideofilename />
							<originalaudiofilename />
						</logginginfo>
						<colorinfo>
							<lut />
							<lut1 />
							<asc_sop />
							<asc_sat />
							<lut2 />
						</colorinfo>
						<labels>
							<label2>Violet</label2>
						</labels>
					<file id="file-3">
							</file>
						</clipitem>
					<clipitem id="clipitem-116">
						<masterclipid>masterclip-3</masterclipid>
						<name>Digital-Calibration.mp4</name>
						<enabled>TRUE</enabled>
						<duration>3594</duration>
						<rate>
							<timebase>30</timebase>
							<ntsc>FALSE</ntsc>
						</rate>
						<start>3295</start>
						<end>3297</end>
						<in>3295</in>
						<out>3297</out>
						<pproTicksIn>34874280000000</pproTicksIn>
						<pproTicksOut>34895448000000</pproTicksOut>
						<alphatype>none</alphatype>
						<pixelaspectratio>square</pixelaspectratio>
						<anamorphic>FALSE</anamorphic>
						<logginginfo>
							<description />
							<scene />
							<shottake />
							<lognote />
							<good />
							<originalvideofilename />
							<originalaudiofilename />
						</logginginfo>
						<colorinfo>
							<lut />
							<lut1 />
							<asc_sop />
							<asc_sat />
							<lut2 />
						</colorinfo>
						<labels>
							<label2>Violet</label2>
						</labels>
					<file id="file-3">
							</file>
						</clipitem>
					<clipitem id="clipitem-117">
						<masterclipid>masterclip-3</masterclipid>
						<name>Digital-Calibration.mp4</name>
						<enabled>TRUE</enabled>
						<duration>3594</duration>
						<rate>
							<timebase>30</timebase>
							<ntsc>FALSE</ntsc>
						</rate>
						<start>3309</start>
						<end>3310</end>
						<in>3309</in>
						<out>3310</out>
						<pproTicksIn>35022456000000</pproTicksIn>
						<pproTicksOut>35033040000000</pproTicksOut>
						<alphatype>none</alphatype>
						<pixelaspectratio>square</pixelaspectratio>
						<anamorphic>FALSE</anamorphic>
						<logginginfo>
							<description />
							<scene />
							<shottake />
							<lognote />
							<good />
							<originalvideofilename />
							<originalaudiofilename />
						</logginginfo>
						<colorinfo>
							<lut />
							<lut1 />
							<asc_sop />
							<asc_sat />
							<lut2 />
						</colorinfo>
						<labels>
							<label2>Violet</label2>
						</labels>
					<file id="file-3">
							</file>
						</clipitem>
					<clipitem id="clipitem-118">
						<masterclipid>masterclip-3</masterclipid>
						<name>Digital-Calibration.mp4</name>
						<enabled>TRUE</enabled>
						<duration>3594</duration>
						<rate>
							<timebase>30</timebase>
							<ntsc>FALSE</ntsc>
						</rate>
						<start>3342</start>
						<end>3344</end>
						<in>3342</in>
						<out>3344</out>
						<pproTicksIn>35371728000000</pproTicksIn>
						<pproTicksOut>35392896000000</pproTicksOut>
						<alphatype>none</alphatype>
						<pixelaspectratio>square</pixelaspectratio>
						<anamorphic>FALSE</anamorphic>
						<logginginfo>
							<description />
							<scene />
							<shottake />
							<lognote />
							<good />
							<originalvideofilename />
							<originalaudiofilename />
						</logginginfo>
						<colorinfo>
							<lut />
							<lut1 />
							<asc_sop />
							<asc_sat />
							<lut2 />
						</colorinfo>
						<labels>
							<label2>Violet</label2>
						</labels>
					<file id="file-3">
							</file>
						</clipitem>
					<clipitem id="clipitem-119">
						<masterclipid>masterclip-3</masterclipid>
						<name>Digital-Calibration.mp4</name>
						<enabled>TRUE</enabled>
						<duration>3594</duration>
						<rate>
							<timebase>30</timebase>
							<ntsc>FALSE</ntsc>
						</rate>
						<start>3347</start>
						<end>3348</end>
						<in>3347</in>
						<out>3348</out>
						<pproTicksIn>35424648000000</pproTicksIn>
						<pproTicksOut>35435232000000</pproTicksOut>
						<alphatype>none</alphatype>
						<pixelaspectratio>square</pixelaspectratio>
						<anamorphic>FALSE</anamorphic>
						<logginginfo>
							<description />
							<scene />
							<shottake />
							<lognote />
							<good />
							<originalvideofilename />
							<originalaudiofilename />
						</logginginfo>
						<colorinfo>
							<lut />
							<lut1 />
							<asc_sop />
							<asc_sat />
							<lut2 />
						</colorinfo>
						<labels>
							<label2>Violet</label2>
						</labels>
					<file id="file-3">
							</file>
						</clipitem>
					<clipitem id="clipitem-120">
						<masterclipid>masterclip-3</masterclipid>
						<name>Digital-Calibration.mp4</name>
						<enabled>TRUE</enabled>
						<duration>3594</duration>
						<rate>
							<timebase>30</timebase>
							<ntsc>FALSE</ntsc>
						</rate>
						<start>3365</start>
						<end>3369</end>
						<in>3365</in>
						<out>3369</out>
						<pproTicksIn>35615160000000</pproTicksIn>
						<pproTicksOut>35657496000000</pproTicksOut>
						<alphatype>none</alphatype>
						<pixelaspectratio>square</pixelaspectratio>
						<anamorphic>FALSE</anamorphic>
						<logginginfo>
							<description />
							<scene />
							<shottake />
							<lognote />
							<good />
							<originalvideofilename />
							<originalaudiofilename />
						</logginginfo>
						<colorinfo>
							<lut />
							<lut1 />
							<asc_sop />
							<asc_sat />
							<lut2 />
						</colorinfo>
						<labels>
							<label2>Violet</label2>
						</labels>
					<file id="file-3">
							</file>
						</clipitem>
					<clipitem id="clipitem-121">
						<masterclipid>masterclip-3</masterclipid>
						<name>Digital-Calibration.mp4</name>
						<enabled>TRUE</enabled>
						<duration>3594</duration>
						<rate>
							<timebase>30</timebase>
							<ntsc>FALSE</ntsc>
						</rate>
						<start>3527</start>
						<end>3541</end>
						<in>3527</in>
						<out>3541</out>
						<pproTicksIn>37329768000000</pproTicksIn>
						<pproTicksOut>37477944000000</pproTicksOut>
						<alphatype>none</alphatype>
						<pixelaspectratio>square</pixelaspectratio>
						<anamorphic>FALSE</anamorphic>
						<logginginfo>
							<description />
							<scene />
							<shottake />
							<lognote />
							<good />
							<originalvideofilename />
							<originalaudiofilename />
						</logginginfo>
						<colorinfo>
							<lut />
							<lut1 />
							<asc_sop />
							<asc_sat />
							<lut2 />
						</colorinfo>
						<labels>
							<label2>Violet</label2>
						</labels>
					<file id="file-3">
							</file>
						</clipitem>
					<clipitem id="clipitem-122">
						<masterclipid>masterclip-3</masterclipid>
						<name>Digital-Calibration.mp4</name>
						<enabled>TRUE</enabled>
						<duration>3594</duration>
						<rate>
							<timebase>30</timebase>
							<ntsc>FALSE</ntsc>
						</rate>
						<start>3557</start>
						<end>3573</end>
						<in>3557</in>
						<out>3573</out>
						<pproTicksIn>37647288000000</pproTicksIn>
						<pproTicksOut>37816632000000</pproTicksOut>
						<alphatype>none</alphatype>
						<pixelaspectratio>square</pixelaspectratio>
						<anamorphic>FALSE</anamorphic>
						<logginginfo>
							<description />
							<scene />
							<shottake />
							<lognote />
							<good />
							<originalvideofilename />
							<originalaudiofilename />
						</logginginfo>
						<colorinfo>
							<lut />
							<lut1 />
							<asc_sop />
							<asc_sat />
							<lut2 />
						</colorinfo>
						<labels>
							<label2>Violet</label2>
						</labels>
					<file id="file-3">
							</file>
						</clipitem>
					<clipitem id="clipitem-123">
						<masterclipid>masterclip-3</masterclipid>
						<name>Digital-Calibration.mp4</name>
						<enabled>TRUE</enabled>
						<duration>3594</duration>
						<rate>
							<timebase>30</timebase>
							<ntsc>FALSE</ntsc>
						</rate>
						<start>3576</start>
						<end>3592</end>
						<in>3576</in>
						<out>3592</out>
						<pproTicksIn>37848384000000</pproTicksIn>
						<pproTicksOut>38017728000000</pproTicksOut>
						<alphatype>none</alphatype>
						<pixelaspectratio>square</pixelaspectratio>
						<anamorphic>FALSE</anamorphic>
						<logginginfo>
							<description />
							<scene />
							<shottake />
							<lognote />
							<good />
							<originalvideofilename />
							<originalaudiofilename />
						</logginginfo>
						<colorinfo>
							<lut />
							<lut1 />
							<asc_sop />
							<asc_sat />
							<lut2 />
						</colorinfo>
						<labels>
							<label2>Violet</label2>
						</labels>
					<file id="file-3">
							</file>
						</clipitem>
					</track>
				<track MZ.TrackName="GH5" MZ.TrackTargeted="1" TL.SQTrackExpanded="0" TL.SQTrackExpandedHeight="25" TL.SQTrackShy="0">
					<enabled>TRUE</enabled>
					<locked>FALSE</locked>
				<clipitem id="clipitem-123">
						<masterclipid>masterclip-3</masterclipid>
						<name>Digital-Calibration.mp4</name>
						<enabled>TRUE</enabled>
						<duration>3594</duration>
						<rate>
							<timebase>30</timebase>
							<ntsc>FALSE</ntsc>
						</rate>
						<start>0</start>
						<end>6</end>
						<in>0</in>
						<out>6</out>
						<pproTicksIn>0</pproTicksIn>
						<pproTicksOut>63504000000</pproTicksOut>
						<alphatype>none</alphatype>
						<pixelaspectratio>square</pixelaspectratio>
						<anamorphic>FALSE</anamorphic>
						<logginginfo>
							<description />
							<scene />
							<shottake />
							<lognote />
							<good />
							<originalvideofilename />
							<originalaudiofilename />
						</logginginfo>
						<colorinfo>
							<lut />
							<lut1 />
							<asc_sop />
							<asc_sat />
							<lut2 />
						</colorinfo>
						<labels>
							<label2>Rose</label2>
						</labels>
					<file id="file-3">
							</file>
						</clipitem>
					<clipitem id="clipitem-124">
						<masterclipid>masterclip-3</masterclipid>
						<name>Digital-Calibration.mp4</name>
						<enabled>TRUE</enabled>
						<duration>3594</duration>
						<rate>
							<timebase>30</timebase>
							<ntsc>FALSE</ntsc>
						</rate>
						<start>18</start>
						<end>213</end>
						<in>18</in>
						<out>213</out>
						<pproTicksIn>190512000000</pproTicksIn>
						<pproTicksOut>2254392000000</pproTicksOut>
						<alphatype>none</alphatype>
						<pixelaspectratio>square</pixelaspectratio>
						<anamorphic>FALSE</anamorphic>
						<logginginfo>
							<description />
							<scene />
							<shottake />
							<lognote />
							<good />
							<originalvideofilename />
							<originalaudiofilename />
						</logginginfo>
						<colorinfo>
							<lut />
							<lut1 />
							<asc_sop />
							<asc_sat />
							<lut2 />
						</colorinfo>
						<labels>
							<label2>Rose</label2>
						</labels>
					<file id="file-3">
							</file>
						</clipitem>
					<clipitem id="clipitem-125">
						<masterclipid>masterclip-3</masterclipid>
						<name>Digital-Calibration.mp4</name>
						<enabled>TRUE</enabled>
						<duration>3594</duration>
						<rate>
							<timebase>30</timebase>
							<ntsc>FALSE</ntsc>
						</rate>
						<start>223</start>
						<end>226</end>
						<in>223</in>
						<out>226</out>
						<pproTicksIn>2360232000000</pproTicksIn>
						<pproTicksOut>2391984000000</pproTicksOut>
						<alphatype>none</alphatype>
						<pixelaspectratio>square</pixelaspectratio>
						<anamorphic>FALSE</anamorphic>
						<logginginfo>
							<description />
							<scene />
							<shottake />
							<lognote />
							<good />
							<originalvideofilename />
							<originalaudiofilename />
						</logginginfo>
						<colorinfo>
							<lut />
							<lut1 />
							<asc_sop />
							<asc_sat />
							<lut2 />
						</colorinfo>
						<labels>
							<label2>Rose</label2>
						</labels>
					<file id="file-3">
							</file>
						</clipitem>
					<clipitem id="clipitem-126">
						<masterclipid>masterclip-3</masterclipid>
						<name>Digital-Calibration.mp4</name>
						<enabled>TRUE</enabled>
						<duration>3594</duration>
						<rate>
							<timebase>30</timebase>
							<ntsc>FALSE</ntsc>
						</rate>
						<start>228</start>
						<end>235</end>
						<in>228</in>
						<out>235</out>
						<pproTicksIn>2413152000000</pproTicksIn>
						<pproTicksOut>2487240000000</pproTicksOut>
						<alphatype>none</alphatype>
						<pixelaspectratio>square</pixelaspectratio>
						<anamorphic>FALSE</anamorphic>
						<logginginfo>
							<description />
							<scene />
							<shottake />
							<lognote />
							<good />
							<originalvideofilename />
							<originalaudiofilename />
						</logginginfo>
						<colorinfo>
							<lut />
							<lut1 />
							<asc_sop />
							<asc_sat />
							<lut2 />
						</colorinfo>
						<labels>
							<label2>Rose</label2>
						</labels>
					<file id="file-3">
							</file>
						</clipitem>
					<clipitem id="clipitem-127">
						<masterclipid>masterclip-3</masterclipid>
						<name>Digital-Calibration.mp4</name>
						<enabled>TRUE</enabled>
						<duration>3594</duration>
						<rate>
							<timebase>30</timebase>
							<ntsc>FALSE</ntsc>
						</rate>
						<start>253</start>
						<end>257</end>
						<in>253</in>
						<out>257</out>
						<pproTicksIn>2677752000000</pproTicksIn>
						<pproTicksOut>2720088000000</pproTicksOut>
						<alphatype>none</alphatype>
						<pixelaspectratio>square</pixelaspectratio>
						<anamorphic>FALSE</anamorphic>
						<logginginfo>
							<description />
							<scene />
							<shottake />
							<lognote />
							<good />
							<originalvideofilename />
							<originalaudiofilename />
						</logginginfo>
						<colorinfo>
							<lut />
							<lut1 />
							<asc_sop />
							<asc_sat />
							<lut2 />
						</colorinfo>
						<labels>
							<label2>Rose</label2>
						</labels>
					<file id="file-3">
							</file>
						</clipitem>
					<clipitem id="clipitem-128">
						<masterclipid>masterclip-3</masterclipid>
						<name>Digital-Calibration.mp4</name>
						<enabled>TRUE</enabled>
						<duration>3594</duration>
						<rate>
							<timebase>30</timebase>
							<ntsc>FALSE</ntsc>
						</rate>
						<start>258</start>
						<end>262</end>
						<in>258</in>
						<out>262</out>
						<pproTicksIn>2730672000000</pproTicksIn>
						<pproTicksOut>2773008000000</pproTicksOut>
						<alphatype>none</alphatype>
						<pixelaspectratio>square</pixelaspectratio>
						<anamorphic>FALSE</anamorphic>
						<logginginfo>
							<description />
							<scene />
							<shottake />
							<lognote />
							<good />
							<originalvideofilename />
							<originalaudiofilename />
						</logginginfo>
						<colorinfo>
							<lut />
							<lut1 />
							<asc_sop />
							<asc_sat />
							<lut2 />
						</colorinfo>
						<labels>
							<label2>Rose</label2>
						</labels>
					<file id="file-3">
							</file>
						</clipitem>
					<clipitem id="clipitem-129">
						<masterclipid>masterclip-3</masterclipid>
						<name>Digital-Calibration.mp4</name>
						<enabled>TRUE</enabled>
						<duration>3594</duration>
						<rate>
							<timebase>30</timebase>
							<ntsc>FALSE</ntsc>
						</rate>
						<start>269</start>
						<end>462</end>
						<in>269</in>
						<out>462</out>
						<pproTicksIn>2847096000000</pproTicksIn>
						<pproTicksOut>4889808000000</pproTicksOut>
						<alphatype>none</alphatype>
						<pixelaspectratio>square</pixelaspectratio>
						<anamorphic>FALSE</anamorphic>
						<logginginfo>
							<description />
							<scene />
							<shottake />
							<lognote />
							<good />
							<originalvideofilename />
							<originalaudiofilename />
						</logginginfo>
						<colorinfo>
							<lut />
							<lut1 />
							<asc_sop />
							<asc_sat />
							<lut2 />
						</colorinfo>
						<labels>
							<label2>Rose</label2>
						</labels>
					<file id="file-3">
							</file>
						</clipitem>
					<clipitem id="clipitem-130">
						<masterclipid>masterclip-3</masterclipid>
						<name>Digital-Calibration.mp4</name>
						<enabled>TRUE</enabled>
						<duration>3594</duration>
						<rate>
							<timebase>30</timebase>
							<ntsc>FALSE</ntsc>
						</rate>
						<start>601</start>
						<end>604</end>
						<in>601</in>
						<out>604</out>
						<pproTicksIn>6360984000000</pproTicksIn>
						<pproTicksOut>6392736000000</pproTicksOut>
						<alphatype>none</alphatype>
						<pixelaspectratio>square</pixelaspectratio>
						<anamorphic>FALSE</anamorphic>
						<logginginfo>
							<description />
							<scene />
							<shottake />
							<lognote />
							<good />
							<originalvideofilename />
							<originalaudiofilename />
						</logginginfo>
						<colorinfo>
							<lut />
							<lut1 />
							<asc_sop />
							<asc_sat />
							<lut2 />
						</colorinfo>
						<labels>
							<label2>Rose</label2>
						</labels>
					<file id="file-3">
							</file>
						</clipitem>
					<clipitem id="clipitem-131">
						<masterclipid>masterclip-3</masterclipid>
						<name>Digital-Calibration.mp4</name>
						<enabled>TRUE</enabled>
						<duration>3594</duration>
						<rate>
							<timebase>30</timebase>
							<ntsc>FALSE</ntsc>
						</rate>
						<start>654</start>
						<end>656</end>
						<in>654</in>
						<out>656</out>
						<pproTicksIn>6921936000000</pproTicksIn>
						<pproTicksOut>6943104000000</pproTicksOut>
						<alphatype>none</alphatype>
						<pixelaspectratio>square</pixelaspectratio>
						<anamorphic>FALSE</anamorphic>
						<logginginfo>
							<description />
							<scene />
							<shottake />
							<lognote />
							<good />
							<originalvideofilename />
							<originalaudiofilename />
						</logginginfo>
						<colorinfo>
							<lut />
							<lut1 />
							<asc_sop />
							<asc_sat />
							<lut2 />
						</colorinfo>
						<labels>
							<label2>Rose</label2>
						</labels>
					<file id="file-3">
							</file>
						</clipitem>
					<clipitem id="clipitem-132">
						<masterclipid>masterclip-3</masterclipid>
						<name>Digital-Calibration.mp4</name>
						<enabled>TRUE</enabled>
						<duration>3594</duration>
						<rate>
							<timebase>30</timebase>
							<ntsc>FALSE</ntsc>
						</rate>
						<start>667</start>
						<end>669</end>
						<in>667</in>
						<out>669</out>
						<pproTicksIn>7059528000000</pproTicksIn>
						<pproTicksOut>7080696000000</pproTicksOut>
						<alphatype>none</alphatype>
						<pixelaspectratio>square</pixelaspectratio>
						<anamorphic>FALSE</anamorphic>
						<logginginfo>
							<description />
							<scene />
							<shottake />
							<lognote />
							<good />
							<originalvideofilename />
							<originalaudiofilename />
						</logginginfo>
						<colorinfo>
							<lut />
							<lut1 />
							<asc_sop />
							<asc_sat />
							<lut2 />
						</colorinfo>
						<labels>
							<label2>Rose</label2>
						</labels>
					<file id="file-3">
							</file>
						</clipitem>
					<clipitem id="clipitem-133">
						<masterclipid>masterclip-3</masterclipid>
						<name>Digital-Calibration.mp4</name>
						<enabled>TRUE</enabled>
						<duration>3594</duration>
						<rate>
							<timebase>30</timebase>
							<ntsc>FALSE</ntsc>
						</rate>
						<start>697</start>
						<end>699</end>
						<in>697</in>
						<out>699</out>
						<pproTicksIn>7377048000000</pproTicksIn>
						<pproTicksOut>7398216000000</pproTicksOut>
						<alphatype>none</alphatype>
						<pixelaspectratio>square</pixelaspectratio>
						<anamorphic>FALSE</anamorphic>
						<logginginfo>
							<description />
							<scene />
							<shottake />
							<lognote />
							<good />
							<originalvideofilename />
							<originalaudiofilename />
						</logginginfo>
						<colorinfo>
							<lut />
							<lut1 />
							<asc_sop />
							<asc_sat />
							<lut2 />
						</colorinfo>
						<labels>
							<label2>Rose</label2>
						</labels>
					<file id="file-3">
							</file>
						</clipitem>
					<clipitem id="clipitem-134">
						<masterclipid>masterclip-3</masterclipid>
						<name>Digital-Calibration.mp4</name>
						<enabled>TRUE</enabled>
						<duration>3594</duration>
						<rate>
							<timebase>30</timebase>
							<ntsc>FALSE</ntsc>
						</rate>
						<start>801</start>
						<end>809</end>
						<in>801</in>
						<out>809</out>
						<pproTicksIn>8477784000000</pproTicksIn>
						<pproTicksOut>8562456000000</pproTicksOut>
						<alphatype>none</alphatype>
						<pixelaspectratio>square</pixelaspectratio>
						<anamorphic>FALSE</anamorphic>
						<logginginfo>
							<description />
							<scene />
							<shottake />
							<lognote />
							<good />
							<originalvideofilename />
							<originalaudiofilename />
						</logginginfo>
						<colorinfo>
							<lut />
							<lut1 />
							<asc_sop />
							<asc_sat />
							<lut2 />
						</colorinfo>
						<labels>
							<label2>Rose</label2>
						</labels>
					<file id="file-3">
							</file>
						</clipitem>
					<clipitem id="clipitem-135">
						<masterclipid>masterclip-3</masterclipid>
						<name>Digital-Calibration.mp4</name>
						<enabled>TRUE</enabled>
						<duration>3594</duration>
						<rate>
							<timebase>30</timebase>
							<ntsc>FALSE</ntsc>
						</rate>
						<start>835</start>
						<end>838</end>
						<in>835</in>
						<out>838</out>
						<pproTicksIn>8837640000000</pproTicksIn>
						<pproTicksOut>8869392000000</pproTicksOut>
						<alphatype>none</alphatype>
						<pixelaspectratio>square</pixelaspectratio>
						<anamorphic>FALSE</anamorphic>
						<logginginfo>
							<description />
							<scene />
							<shottake />
							<lognote />
							<good />
							<originalvideofilename />
							<originalaudiofilename />
						</logginginfo>
						<colorinfo>
							<lut />
							<lut1 />
							<asc_sop />
							<asc_sat />
							<lut2 />
						</colorinfo>
						<labels>
							<label2>Rose</label2>
						</labels>
					<file id="file-3">
							</file>
						</clipitem>
					<clipitem id="clipitem-136">
						<masterclipid>masterclip-3</masterclipid>
						<name>Digital-Calibration.mp4</name>
						<enabled>TRUE</enabled>
						<duration>3594</duration>
						<rate>
							<timebase>30</timebase>
							<ntsc>FALSE</ntsc>
						</rate>
						<start>840</start>
						<end>841</end>
						<in>840</in>
						<out>841</out>
						<pproTicksIn>8890560000000</pproTicksIn>
						<pproTicksOut>8901144000000</pproTicksOut>
						<alphatype>none</alphatype>
						<pixelaspectratio>square</pixelaspectratio>
						<anamorphic>FALSE</anamorphic>
						<logginginfo>
							<description />
							<scene />
							<shottake />
							<lognote />
							<good />
							<originalvideofilename />
							<originalaudiofilename />
						</logginginfo>
						<colorinfo>
							<lut />
							<lut1 />
							<asc_sop />
							<asc_sat />
							<lut2 />
						</colorinfo>
						<labels>
							<label2>Rose</label2>
						</labels>
					<file id="file-3">
							</file>
						</clipitem>
					<clipitem id="clipitem-137">
						<masterclipid>masterclip-3</masterclipid>
						<name>Digital-Calibration.mp4</name>
						<enabled>TRUE</enabled>
						<duration>3594</duration>
						<rate>
							<timebase>30</timebase>
							<ntsc>FALSE</ntsc>
						</rate>
						<start>843</start>
						<end>847</end>
						<in>843</in>
						<out>847</out>
						<pproTicksIn>8922312000000</pproTicksIn>
						<pproTicksOut>8964648000000</pproTicksOut>
						<alphatype>none</alphatype>
						<pixelaspectratio>square</pixelaspectratio>
						<anamorphic>FALSE</anamorphic>
						<logginginfo>
							<description />
							<scene />
							<shottake />
							<lognote />
							<good />
							<originalvideofilename />
							<originalaudiofilename />
						</logginginfo>
						<colorinfo>
							<lut />
							<lut1 />
							<asc_sop />
							<asc_sat />
							<lut2 />
						</colorinfo>
						<labels>
							<label2>Rose</label2>
						</labels>
					<file id="file-3">
							</file>
						</clipitem>
					<clipitem id="clipitem-138">
						<masterclipid>masterclip-3</masterclipid>
						<name>Digital-Calibration.mp4</name>
						<enabled>TRUE</enabled>
						<duration>3594</duration>
						<rate>
							<timebase>30</timebase>
							<ntsc>FALSE</ntsc>
						</rate>
						<start>848</start>
						<end>856</end>
						<in>848</in>
						<out>856</out>
						<pproTicksIn>8975232000000</pproTicksIn>
						<pproTicksOut>9059904000000</pproTicksOut>
						<alphatype>none</alphatype>
						<pixelaspectratio>square</pixelaspectratio>
						<anamorphic>FALSE</anamorphic>
						<logginginfo>
							<description />
							<scene />
							<shottake />
							<lognote />
							<good />
							<originalvideofilename />
							<originalaudiofilename />
						</logginginfo>
						<colorinfo>
							<lut />
							<lut1 />
							<asc_sop />
							<asc_sat />
							<lut2 />
						</colorinfo>
						<labels>
							<label2>Rose</label2>
						</labels>
					<file id="file-3">
							</file>
						</clipitem>
					<clipitem id="clipitem-139">
						<masterclipid>masterclip-3</masterclipid>
						<name>Digital-Calibration.mp4</name>
						<enabled>TRUE</enabled>
						<duration>3594</duration>
						<rate>
							<timebase>30</timebase>
							<ntsc>FALSE</ntsc>
						</rate>
						<start>857</start>
						<end>859</end>
						<in>857</in>
						<out>859</out>
						<pproTicksIn>9070488000000</pproTicksIn>
						<pproTicksOut>9091656000000</pproTicksOut>
						<alphatype>none</alphatype>
						<pixelaspectratio>square</pixelaspectratio>
						<anamorphic>FALSE</anamorphic>
						<logginginfo>
							<description />
							<scene />
							<shottake />
							<lognote />
							<good />
							<originalvideofilename />
							<originalaudiofilename />
						</logginginfo>
						<colorinfo>
							<lut />
							<lut1 />
							<asc_sop />
							<asc_sat />
							<lut2 />
						</colorinfo>
						<labels>
							<label2>Rose</label2>
						</labels>
					<file id="file-3">
							</file>
						</clipitem>
					<clipitem id="clipitem-140">
						<masterclipid>masterclip-3</masterclipid>
						<name>Digital-Calibration.mp4</name>
						<enabled>TRUE</enabled>
						<duration>3594</duration>
						<rate>
							<timebase>30</timebase>
							<ntsc>FALSE</ntsc>
						</rate>
						<start>867</start>
						<end>870</end>
						<in>867</in>
						<out>870</out>
						<pproTicksIn>9176328000000</pproTicksIn>
						<pproTicksOut>9208080000000</pproTicksOut>
						<alphatype>none</alphatype>
						<pixelaspectratio>square</pixelaspectratio>
						<anamorphic>FALSE</anamorphic>
						<logginginfo>
							<description />
							<scene />
							<shottake />
							<lognote />
							<good />
							<originalvideofilename />
							<originalaudiofilename />
						</logginginfo>
						<colorinfo>
							<lut />
							<lut1 />
							<asc_sop />
							<asc_sat />
							<lut2 />
						</colorinfo>
						<labels>
							<label2>Rose</label2>
						</labels>
					<file id="file-3">
							</file>
						</clipitem>
					<clipitem id="clipitem-141">
						<masterclipid>masterclip-3</masterclipid>
						<name>Digital-Calibration.mp4</name>
						<enabled>TRUE</enabled>
						<duration>3594</duration>
						<rate>
							<timebase>30</timebase>
							<ntsc>FALSE</ntsc>
						</rate>
						<start>878</start>
						<end>881</end>
						<in>878</in>
						<out>881</out>
						<pproTicksIn>9292752000000</pproTicksIn>
						<pproTicksOut>9324504000000</pproTicksOut>
						<alphatype>none</alphatype>
						<pixelaspectratio>square</pixelaspectratio>
						<anamorphic>FALSE</anamorphic>
						<logginginfo>
							<description />
							<scene />
							<shottake />
							<lognote />
							<good />
							<originalvideofilename />
							<originalaudiofilename />
						</logginginfo>
						<colorinfo>
							<lut />
							<lut1 />
							<asc_sop />
							<asc_sat />
							<lut2 />
						</colorinfo>
						<labels>
							<label2>Rose</label2>
						</labels>
					<file id="file-3">
							</file>
						</clipitem>
					<clipitem id="clipitem-142">
						<masterclipid>masterclip-3</masterclipid>
						<name>Digital-Calibration.mp4</name>
						<enabled>TRUE</enabled>
						<duration>3594</duration>
						<rate>
							<timebase>30</timebase>
							<ntsc>FALSE</ntsc>
						</rate>
						<start>887</start>
						<end>889</end>
						<in>887</in>
						<out>889</out>
						<pproTicksIn>9388008000000</pproTicksIn>
						<pproTicksOut>9409176000000</pproTicksOut>
						<alphatype>none</alphatype>
						<pixelaspectratio>square</pixelaspectratio>
						<anamorphic>FALSE</anamorphic>
						<logginginfo>
							<description />
							<scene />
							<shottake />
							<lognote />
							<good />
							<originalvideofilename />
							<originalaudiofilename />
						</logginginfo>
						<colorinfo>
							<lut />
							<lut1 />
							<asc_sop />
							<asc_sat />
							<lut2 />
						</colorinfo>
						<labels>
							<label2>Rose</label2>
						</labels>
					<file id="file-3">
							</file>
						</clipitem>
					<clipitem id="clipitem-143">
						<masterclipid>masterclip-3</masterclipid>
						<name>Digital-Calibration.mp4</name>
						<enabled>TRUE</enabled>
						<duration>3594</duration>
						<rate>
							<timebase>30</timebase>
							<ntsc>FALSE</ntsc>
						</rate>
						<start>896</start>
						<end>897</end>
						<in>896</in>
						<out>897</out>
						<pproTicksIn>9483264000000</pproTicksIn>
						<pproTicksOut>9493848000000</pproTicksOut>
						<alphatype>none</alphatype>
						<pixelaspectratio>square</pixelaspectratio>
						<anamorphic>FALSE</anamorphic>
						<logginginfo>
							<description />
							<scene />
							<shottake />
							<lognote />
							<good />
							<originalvideofilename />
							<originalaudiofilename />
						</logginginfo>
						<colorinfo>
							<lut />
							<lut1 />
							<asc_sop />
							<asc_sat />
							<lut2 />
						</colorinfo>
						<labels>
							<label2>Rose</label2>
						</labels>
					<file id="file-3">
							</file>
						</clipitem>
					<clipitem id="clipitem-144">
						<masterclipid>masterclip-3</masterclipid>
						<name>Digital-Calibration.mp4</name>
						<enabled>TRUE</enabled>
						<duration>3594</duration>
						<rate>
							<timebase>30</timebase>
							<ntsc>FALSE</ntsc>
						</rate>
						<start>912</start>
						<end>916</end>
						<in>912</in>
						<out>916</out>
						<pproTicksIn>9652608000000</pproTicksIn>
						<pproTicksOut>9694944000000</pproTicksOut>
						<alphatype>none</alphatype>
						<pixelaspectratio>square</pixelaspectratio>
						<anamorphic>FALSE</anamorphic>
						<logginginfo>
							<description />
							<scene />
							<shottake />
							<lognote />
							<good />
							<originalvideofilename />
							<originalaudiofilename />
						</logginginfo>
						<colorinfo>
							<lut />
							<lut1 />
							<asc_sop />
							<asc_sat />
							<lut2 />
						</colorinfo>
						<labels>
							<label2>Rose</label2>
						</labels>
					<file id="file-3">
							</file>
						</clipitem>
					<clipitem id="clipitem-145">
						<masterclipid>masterclip-3</masterclipid>
						<name>Digital-Calibration.mp4</name>
						<enabled>TRUE</enabled>
						<duration>3594</duration>
						<rate>
							<timebase>30</timebase>
							<ntsc>FALSE</ntsc>
						</rate>
						<start>929</start>
						<end>933</end>
						<in>929</in>
						<out>933</out>
						<pproTicksIn>9832536000000</pproTicksIn>
						<pproTicksOut>9874872000000</pproTicksOut>
						<alphatype>none</alphatype>
						<pixelaspectratio>square</pixelaspectratio>
						<anamorphic>FALSE</anamorphic>
						<logginginfo>
							<description />
							<scene />
							<shottake />
							<lognote />
							<good />
							<originalvideofilename />
							<originalaudiofilename />
						</logginginfo>
						<colorinfo>
							<lut />
							<lut1 />
							<asc_sop />
							<asc_sat />
							<lut2 />
						</colorinfo>
						<labels>
							<label2>Rose</label2>
						</labels>
					<file id="file-3">
							</file>
						</clipitem>
					<clipitem id="clipitem-146">
						<masterclipid>masterclip-3</masterclipid>
						<name>Digital-Calibration.mp4</name>
						<enabled>TRUE</enabled>
						<duration>3594</duration>
						<rate>
							<timebase>30</timebase>
							<ntsc>FALSE</ntsc>
						</rate>
						<start>947</start>
						<end>951</end>
						<in>947</in>
						<out>951</out>
						<pproTicksIn>10023048000000</pproTicksIn>
						<pproTicksOut>10065384000000</pproTicksOut>
						<alphatype>none</alphatype>
						<pixelaspectratio>square</pixelaspectratio>
						<anamorphic>FALSE</anamorphic>
						<logginginfo>
							<description />
							<scene />
							<shottake />
							<lognote />
							<good />
							<originalvideofilename />
							<originalaudiofilename />
						</logginginfo>
						<colorinfo>
							<lut />
							<lut1 />
							<asc_sop />
							<asc_sat />
							<lut2 />
						</colorinfo>
						<labels>
							<label2>Rose</label2>
						</labels>
					<file id="file-3">
							</file>
						</clipitem>
					<clipitem id="clipitem-147">
						<masterclipid>masterclip-3</masterclipid>
						<name>Digital-Calibration.mp4</name>
						<enabled>TRUE</enabled>
						<duration>3594</duration>
						<rate>
							<timebase>30</timebase>
							<ntsc>FALSE</ntsc>
						</rate>
						<start>963</start>
						<end>967</end>
						<in>963</in>
						<out>967</out>
						<pproTicksIn>10192392000000</pproTicksIn>
						<pproTicksOut>10234728000000</pproTicksOut>
						<alphatype>none</alphatype>
						<pixelaspectratio>square</pixelaspectratio>
						<anamorphic>FALSE</anamorphic>
						<logginginfo>
							<description />
							<scene />
							<shottake />
							<lognote />
							<good />
							<originalvideofilename />
							<originalaudiofilename />
						</logginginfo>
						<colorinfo>
							<lut />
							<lut1 />
							<asc_sop />
							<asc_sat />
							<lut2 />
						</colorinfo>
						<labels>
							<label2>Rose</label2>
						</labels>
					<file id="file-3">
							</file>
						</clipitem>
					<clipitem id="clipitem-148">
						<masterclipid>masterclip-3</masterclipid>
						<name>Digital-Calibration.mp4</name>
						<enabled>TRUE</enabled>
						<duration>3594</duration>
						<rate>
							<timebase>30</timebase>
							<ntsc>FALSE</ntsc>
						</rate>
						<start>973</start>
						<end>974</end>
						<in>973</in>
						<out>974</out>
						<pproTicksIn>10298232000000</pproTicksIn>
						<pproTicksOut>10308816000000</pproTicksOut>
						<alphatype>none</alphatype>
						<pixelaspectratio>square</pixelaspectratio>
						<anamorphic>FALSE</anamorphic>
						<logginginfo>
							<description />
							<scene />
							<shottake />
							<lognote />
							<good />
							<originalvideofilename />
							<originalaudiofilename />
						</logginginfo>
						<colorinfo>
							<lut />
							<lut1 />
							<asc_sop />
							<asc_sat />
							<lut2 />
						</colorinfo>
						<labels>
							<label2>Rose</label2>
						</labels>
					<file id="file-3">
							</file>
						</clipitem>
					<clipitem id="clipitem-149">
						<masterclipid>masterclip-3</masterclipid>
						<name>Digital-Calibration.mp4</name>
						<enabled>TRUE</enabled>
						<duration>3594</duration>
						<rate>
							<timebase>30</timebase>
							<ntsc>FALSE</ntsc>
						</rate>
						<start>978</start>
						<end>979</end>
						<in>978</in>
						<out>979</out>
						<pproTicksIn>10351152000000</pproTicksIn>
						<pproTicksOut>10361736000000</pproTicksOut>
						<alphatype>none</alphatype>
						<pixelaspectratio>square</pixelaspectratio>
						<anamorphic>FALSE</anamorphic>
						<logginginfo>
							<description />
							<scene />
							<shottake />
							<lognote />
							<good />
							<originalvideofilename />
							<originalaudiofilename />
						</logginginfo>
						<colorinfo>
							<lut />
							<lut1 />
							<asc_sop />
							<asc_sat />
							<lut2 />
						</colorinfo>
						<labels>
							<label2>Rose</label2>
						</labels>
					<file id="file-3">
							</file>
						</clipitem>
					<clipitem id="clipitem-150">
						<masterclipid>masterclip-3</masterclipid>
						<name>Digital-Calibration.mp4</name>
						<enabled>TRUE</enabled>
						<duration>3594</duration>
						<rate>
							<timebase>30</timebase>
							<ntsc>FALSE</ntsc>
						</rate>
						<start>980</start>
						<end>986</end>
						<in>980</in>
						<out>986</out>
						<pproTicksIn>10372320000000</pproTicksIn>
						<pproTicksOut>10435824000000</pproTicksOut>
						<alphatype>none</alphatype>
						<pixelaspectratio>square</pixelaspectratio>
						<anamorphic>FALSE</anamorphic>
						<logginginfo>
							<description />
							<scene />
							<shottake />
							<lognote />
							<good />
							<originalvideofilename />
							<originalaudiofilename />
						</logginginfo>
						<colorinfo>
							<lut />
							<lut1 />
							<asc_sop />
							<asc_sat />
							<lut2 />
						</colorinfo>
						<labels>
							<label2>Rose</label2>
						</labels>
					<file id="file-3">
							</file>
						</clipitem>
					<clipitem id="clipitem-151">
						<masterclipid>masterclip-3</masterclipid>
						<name>Digital-Calibration.mp4</name>
						<enabled>TRUE</enabled>
						<duration>3594</duration>
						<rate>
							<timebase>30</timebase>
							<ntsc>FALSE</ntsc>
						</rate>
						<start>996</start>
						<end>997</end>
						<in>996</in>
						<out>997</out>
						<pproTicksIn>10541664000000</pproTicksIn>
						<pproTicksOut>10552248000000</pproTicksOut>
						<alphatype>none</alphatype>
						<pixelaspectratio>square</pixelaspectratio>
						<anamorphic>FALSE</anamorphic>
						<logginginfo>
							<description />
							<scene />
							<shottake />
							<lognote />
							<good />
							<originalvideofilename />
							<originalaudiofilename />
						</logginginfo>
						<colorinfo>
							<lut />
							<lut1 />
							<asc_sop />
							<asc_sat />
							<lut2 />
						</colorinfo>
						<labels>
							<label2>Rose</label2>
						</labels>
					<file id="file-3">
							</file>
						</clipitem>
					<clipitem id="clipitem-152">
						<masterclipid>masterclip-3</masterclipid>
						<name>Digital-Calibration.mp4</name>
						<enabled>TRUE</enabled>
						<duration>3594</duration>
						<rate>
							<timebase>30</timebase>
							<ntsc>FALSE</ntsc>
						</rate>
						<start>1000</start>
						<end>1002</end>
						<in>1000</in>
						<out>1002</out>
						<pproTicksIn>10584000000000</pproTicksIn>
						<pproTicksOut>10605168000000</pproTicksOut>
						<alphatype>none</alphatype>
						<pixelaspectratio>square</pixelaspectratio>
						<anamorphic>FALSE</anamorphic>
						<logginginfo>
							<description />
							<scene />
							<shottake />
							<lognote />
							<good />
							<originalvideofilename />
							<originalaudiofilename />
						</logginginfo>
						<colorinfo>
							<lut />
							<lut1 />
							<asc_sop />
							<asc_sat />
							<lut2 />
						</colorinfo>
						<labels>
							<label2>Rose</label2>
						</labels>
					<file id="file-3">
							</file>
						</clipitem>
					<clipitem id="clipitem-153">
						<masterclipid>masterclip-3</masterclipid>
						<name>Digital-Calibration.mp4</name>
						<enabled>TRUE</enabled>
						<duration>3594</duration>
						<rate>
							<timebase>30</timebase>
							<ntsc>FALSE</ntsc>
						</rate>
						<start>1014</start>
						<end>1016</end>
						<in>1014</in>
						<out>1016</out>
						<pproTicksIn>10732176000000</pproTicksIn>
						<pproTicksOut>10753344000000</pproTicksOut>
						<alphatype>none</alphatype>
						<pixelaspectratio>square</pixelaspectratio>
						<anamorphic>FALSE</anamorphic>
						<logginginfo>
							<description />
							<scene />
							<shottake />
							<lognote />
							<good />
							<originalvideofilename />
							<originalaudiofilename />
						</logginginfo>
						<colorinfo>
							<lut />
							<lut1 />
							<asc_sop />
							<asc_sat />
							<lut2 />
						</colorinfo>
						<labels>
							<label2>Rose</label2>
						</labels>
					<file id="file-3">
							</file>
						</clipitem>
					<clipitem id="clipitem-154">
						<masterclipid>masterclip-3</masterclipid>
						<name>Digital-Calibration.mp4</name>
						<enabled>TRUE</enabled>
						<duration>3594</duration>
						<rate>
							<timebase>30</timebase>
							<ntsc>FALSE</ntsc>
						</rate>
						<start>1017</start>
						<end>1020</end>
						<in>1017</in>
						<out>1020</out>
						<pproTicksIn>10763928000000</pproTicksIn>
						<pproTicksOut>10795680000000</pproTicksOut>
						<alphatype>none</alphatype>
						<pixelaspectratio>square</pixelaspectratio>
						<anamorphic>FALSE</anamorphic>
						<logginginfo>
							<description />
							<scene />
							<shottake />
							<lognote />
							<good />
							<originalvideofilename />
							<originalaudiofilename />
						</logginginfo>
						<colorinfo>
							<lut />
							<lut1 />
							<asc_sop />
							<asc_sat />
							<lut2 />
						</colorinfo>
						<labels>
							<label2>Rose</label2>
						</labels>
					<file id="file-3">
							</file>
						</clipitem>
					<clipitem id="clipitem-155">
						<masterclipid>masterclip-3</masterclipid>
						<name>Digital-Calibration.mp4</name>
						<enabled>TRUE</enabled>
						<duration>3594</duration>
						<rate>
							<timebase>30</timebase>
							<ntsc>FALSE</ntsc>
						</rate>
						<start>1024</start>
						<end>1025</end>
						<in>1024</in>
						<out>1025</out>
						<pproTicksIn>10838016000000</pproTicksIn>
						<pproTicksOut>10848600000000</pproTicksOut>
						<alphatype>none</alphatype>
						<pixelaspectratio>square</pixelaspectratio>
						<anamorphic>FALSE</anamorphic>
						<logginginfo>
							<description />
							<scene />
							<shottake />
							<lognote />
							<good />
							<originalvideofilename />
							<originalaudiofilename />
						</logginginfo>
						<colorinfo>
							<lut />
							<lut1 />
							<asc_sop />
							<asc_sat />
							<lut2 />
						</colorinfo>
						<labels>
							<label2>Rose</label2>
						</labels>
					<file id="file-3">
							</file>
						</clipitem>
					<clipitem id="clipitem-156">
						<masterclipid>masterclip-3</masterclipid>
						<name>Digital-Calibration.mp4</name>
						<enabled>TRUE</enabled>
						<duration>3594</duration>
						<rate>
							<timebase>30</timebase>
							<ntsc>FALSE</ntsc>
						</rate>
						<start>1031</start>
						<end>1033</end>
						<in>1031</in>
						<out>1033</out>
						<pproTicksIn>10912104000000</pproTicksIn>
						<pproTicksOut>10933272000000</pproTicksOut>
						<alphatype>none</alphatype>
						<pixelaspectratio>square</pixelaspectratio>
						<anamorphic>FALSE</anamorphic>
						<logginginfo>
							<description />
							<scene />
							<shottake />
							<lognote />
							<good />
							<originalvideofilename />
							<originalaudiofilename />
						</logginginfo>
						<colorinfo>
							<lut />
							<lut1 />
							<asc_sop />
							<asc_sat />
							<lut2 />
						</colorinfo>
						<labels>
							<label2>Rose</label2>
						</labels>
					<file id="file-3">
							</file>
						</clipitem>
					<clipitem id="clipitem-157">
						<masterclipid>masterclip-3</masterclipid>
						<name>Digital-Calibration.mp4</name>
						<enabled>TRUE</enabled>
						<duration>3594</duration>
						<rate>
							<timebase>30</timebase>
							<ntsc>FALSE</ntsc>
						</rate>
						<start>1034</start>
						<end>1037</end>
						<in>1034</in>
						<out>1037</out>
						<pproTicksIn>10943856000000</pproTicksIn>
						<pproTicksOut>10975608000000</pproTicksOut>
						<alphatype>none</alphatype>
						<pixelaspectratio>square</pixelaspectratio>
						<anamorphic>FALSE</anamorphic>
						<logginginfo>
							<description />
							<scene />
							<shottake />
							<lognote />
							<good />
							<originalvideofilename />
							<originalaudiofilename />
						</logginginfo>
						<colorinfo>
							<lut />
							<lut1 />
							<asc_sop />
							<asc_sat />
							<lut2 />
						</colorinfo>
						<labels>
							<label2>Rose</label2>
						</labels>
					<file id="file-3">
							</file>
						</clipitem>
					<clipitem id="clipitem-158">
						<masterclipid>masterclip-3</masterclipid>
						<name>Digital-Calibration.mp4</name>
						<enabled>TRUE</enabled>
						<duration>3594</duration>
						<rate>
							<timebase>30</timebase>
							<ntsc>FALSE</ntsc>
						</rate>
						<start>1050</start>
						<end>1055</end>
						<in>1050</in>
						<out>1055</out>
						<pproTicksIn>11113200000000</pproTicksIn>
						<pproTicksOut>11166120000000</pproTicksOut>
						<alphatype>none</alphatype>
						<pixelaspectratio>square</pixelaspectratio>
						<anamorphic>FALSE</anamorphic>
						<logginginfo>
							<description />
							<scene />
							<shottake />
							<lognote />
							<good />
							<originalvideofilename />
							<originalaudiofilename />
						</logginginfo>
						<colorinfo>
							<lut />
							<lut1 />
							<asc_sop />
							<asc_sat />
							<lut2 />
						</colorinfo>
						<labels>
							<label2>Rose</label2>
						</labels>
					<file id="file-3">
							</file>
						</clipitem>
					<clipitem id="clipitem-159">
						<masterclipid>masterclip-3</masterclipid>
						<name>Digital-Calibration.mp4</name>
						<enabled>TRUE</enabled>
						<duration>3594</duration>
						<rate>
							<timebase>30</timebase>
							<ntsc>FALSE</ntsc>
						</rate>
						<start>1066</start>
						<end>1075</end>
						<in>1066</in>
						<out>1075</out>
						<pproTicksIn>11282544000000</pproTicksIn>
						<pproTicksOut>11377800000000</pproTicksOut>
						<alphatype>none</alphatype>
						<pixelaspectratio>square</pixelaspectratio>
						<anamorphic>FALSE</anamorphic>
						<logginginfo>
							<description />
							<scene />
							<shottake />
							<lognote />
							<good />
							<originalvideofilename />
							<originalaudiofilename />
						</logginginfo>
						<colorinfo>
							<lut />
							<lut1 />
							<asc_sop />
							<asc_sat />
							<lut2 />
						</colorinfo>
						<labels>
							<label2>Rose</label2>
						</labels>
					<file id="file-3">
							</file>
						</clipitem>
					<clipitem id="clipitem-160">
						<masterclipid>masterclip-3</masterclipid>
						<name>Digital-Calibration.mp4</name>
						<enabled>TRUE</enabled>
						<duration>3594</duration>
						<rate>
							<timebase>30</timebase>
							<ntsc>FALSE</ntsc>
						</rate>
						<start>1088</start>
						<end>1090</end>
						<in>1088</in>
						<out>1090</out>
						<pproTicksIn>11515392000000</pproTicksIn>
						<pproTicksOut>11536560000000</pproTicksOut>
						<alphatype>none</alphatype>
						<pixelaspectratio>square</pixelaspectratio>
						<anamorphic>FALSE</anamorphic>
						<logginginfo>
							<description />
							<scene />
							<shottake />
							<lognote />
							<good />
							<originalvideofilename />
							<originalaudiofilename />
						</logginginfo>
						<colorinfo>
							<lut />
							<lut1 />
							<asc_sop />
							<asc_sat />
							<lut2 />
						</colorinfo>
						<labels>
							<label2>Rose</label2>
						</labels>
					<file id="file-3">
							</file>
						</clipitem>
					<clipitem id="clipitem-161">
						<masterclipid>masterclip-3</masterclipid>
						<name>Digital-Calibration.mp4</name>
						<enabled>TRUE</enabled>
						<duration>3594</duration>
						<rate>
							<timebase>30</timebase>
							<ntsc>FALSE</ntsc>
						</rate>
						<start>1091</start>
						<end>1259</end>
						<in>1091</in>
						<out>1259</out>
						<pproTicksIn>11547144000000</pproTicksIn>
						<pproTicksOut>13325256000000</pproTicksOut>
						<alphatype>none</alphatype>
						<pixelaspectratio>square</pixelaspectratio>
						<anamorphic>FALSE</anamorphic>
						<logginginfo>
							<description />
							<scene />
							<shottake />
							<lognote />
							<good />
							<originalvideofilename />
							<originalaudiofilename />
						</logginginfo>
						<colorinfo>
							<lut />
							<lut1 />
							<asc_sop />
							<asc_sat />
							<lut2 />
						</colorinfo>
						<labels>
							<label2>Rose</label2>
						</labels>
					<file id="file-3">
							</file>
						</clipitem>
					<clipitem id="clipitem-162">
						<masterclipid>masterclip-3</masterclipid>
						<name>Digital-Calibration.mp4</name>
						<enabled>TRUE</enabled>
						<duration>3594</duration>
						<rate>
							<timebase>30</timebase>
							<ntsc>FALSE</ntsc>
						</rate>
						<start>1260</start>
						<end>1333</end>
						<in>1260</in>
						<out>1333</out>
						<pproTicksIn>13335840000000</pproTicksIn>
						<pproTicksOut>14108472000000</pproTicksOut>
						<alphatype>none</alphatype>
						<pixelaspectratio>square</pixelaspectratio>
						<anamorphic>FALSE</anamorphic>
						<logginginfo>
							<description />
							<scene />
							<shottake />
							<lognote />
							<good />
							<originalvideofilename />
							<originalaudiofilename />
						</logginginfo>
						<colorinfo>
							<lut />
							<lut1 />
							<asc_sop />
							<asc_sat />
							<lut2 />
						</colorinfo>
						<labels>
							<label2>Rose</label2>
						</labels>
					<file id="file-3">
							</file>
						</clipitem>
					<clipitem id="clipitem-163">
						<masterclipid>masterclip-3</masterclipid>
						<name>Digital-Calibration.mp4</name>
						<enabled>TRUE</enabled>
						<duration>3594</duration>
						<rate>
							<timebase>30</timebase>
							<ntsc>FALSE</ntsc>
						</rate>
						<start>1334</start>
						<end>1361</end>
						<in>1334</in>
						<out>1361</out>
						<pproTicksIn>14119056000000</pproTicksIn>
						<pproTicksOut>14404824000000</pproTicksOut>
						<alphatype>none</alphatype>
						<pixelaspectratio>square</pixelaspectratio>
						<anamorphic>FALSE</anamorphic>
						<logginginfo>
							<description />
							<scene />
							<shottake />
							<lognote />
							<good />
							<originalvideofilename />
							<originalaudiofilename />
						</logginginfo>
						<colorinfo>
							<lut />
							<lut1 />
							<asc_sop />
							<asc_sat />
							<lut2 />
						</colorinfo>
						<labels>
							<label2>Rose</label2>
						</labels>
					<file id="file-3">
							</file>
						</clipitem>
					<clipitem id="clipitem-164">
						<masterclipid>masterclip-3</masterclipid>
						<name>Digital-Calibration.mp4</name>
						<enabled>TRUE</enabled>
						<duration>3594</duration>
						<rate>
							<timebase>30</timebase>
							<ntsc>FALSE</ntsc>
						</rate>
						<start>1362</start>
						<end>1422</end>
						<in>1362</in>
						<out>1422</out>
						<pproTicksIn>14415408000000</pproTicksIn>
						<pproTicksOut>15050448000000</pproTicksOut>
						<alphatype>none</alphatype>
						<pixelaspectratio>square</pixelaspectratio>
						<anamorphic>FALSE</anamorphic>
						<logginginfo>
							<description />
							<scene />
							<shottake />
							<lognote />
							<good />
							<originalvideofilename />
							<originalaudiofilename />
						</logginginfo>
						<colorinfo>
							<lut />
							<lut1 />
							<asc_sop />
							<asc_sat />
							<lut2 />
						</colorinfo>
						<labels>
							<label2>Rose</label2>
						</labels>
					<file id="file-3">
							</file>
						</clipitem>
					<clipitem id="clipitem-165">
						<masterclipid>masterclip-3</masterclipid>
						<name>Digital-Calibration.mp4</name>
						<enabled>TRUE</enabled>
						<duration>3594</duration>
						<rate>
							<timebase>30</timebase>
							<ntsc>FALSE</ntsc>
						</rate>
						<start>1423</start>
						<end>1425</end>
						<in>1423</in>
						<out>1425</out>
						<pproTicksIn>15061032000000</pproTicksIn>
						<pproTicksOut>15082200000000</pproTicksOut>
						<alphatype>none</alphatype>
						<pixelaspectratio>square</pixelaspectratio>
						<anamorphic>FALSE</anamorphic>
						<logginginfo>
							<description />
							<scene />
							<shottake />
							<lognote />
							<good />
							<originalvideofilename />
							<originalaudiofilename />
						</logginginfo>
						<colorinfo>
							<lut />
							<lut1 />
							<asc_sop />
							<asc_sat />
							<lut2 />
						</colorinfo>
						<labels>
							<label2>Rose</label2>
						</labels>
					<file id="file-3">
							</file>
						</clipitem>
					<clipitem id="clipitem-166">
						<masterclipid>masterclip-3</masterclipid>
						<name>Digital-Calibration.mp4</name>
						<enabled>TRUE</enabled>
						<duration>3594</duration>
						<rate>
							<timebase>30</timebase>
							<ntsc>FALSE</ntsc>
						</rate>
						<start>1426</start>
						<end>1514</end>
						<in>1426</in>
						<out>1514</out>
						<pproTicksIn>15092784000000</pproTicksIn>
						<pproTicksOut>16024176000000</pproTicksOut>
						<alphatype>none</alphatype>
						<pixelaspectratio>square</pixelaspectratio>
						<anamorphic>FALSE</anamorphic>
						<logginginfo>
							<description />
							<scene />
							<shottake />
							<lognote />
							<good />
							<originalvideofilename />
							<originalaudiofilename />
						</logginginfo>
						<colorinfo>
							<lut />
							<lut1 />
							<asc_sop />
							<asc_sat />
							<lut2 />
						</colorinfo>
						<labels>
							<label2>Rose</label2>
						</labels>
					<file id="file-3">
							</file>
						</clipitem>
					<clipitem id="clipitem-167">
						<masterclipid>masterclip-3</masterclipid>
						<name>Digital-Calibration.mp4</name>
						<enabled>TRUE</enabled>
						<duration>3594</duration>
						<rate>
							<timebase>30</timebase>
							<ntsc>FALSE</ntsc>
						</rate>
						<start>1541</start>
						<end>1543</end>
						<in>1541</in>
						<out>1543</out>
						<pproTicksIn>16309944000000</pproTicksIn>
						<pproTicksOut>16331112000000</pproTicksOut>
						<alphatype>none</alphatype>
						<pixelaspectratio>square</pixelaspectratio>
						<anamorphic>FALSE</anamorphic>
						<logginginfo>
							<description />
							<scene />
							<shottake />
							<lognote />
							<good />
							<originalvideofilename />
							<originalaudiofilename />
						</logginginfo>
						<colorinfo>
							<lut />
							<lut1 />
							<asc_sop />
							<asc_sat />
							<lut2 />
						</colorinfo>
						<labels>
							<label2>Rose</label2>
						</labels>
					<file id="file-3">
							</file>
						</clipitem>
					<clipitem id="clipitem-168">
						<masterclipid>masterclip-3</masterclipid>
						<name>Digital-Calibration.mp4</name>
						<enabled>TRUE</enabled>
						<duration>3594</duration>
						<rate>
							<timebase>30</timebase>
							<ntsc>FALSE</ntsc>
						</rate>
						<start>1544</start>
						<end>1546</end>
						<in>1544</in>
						<out>1546</out>
						<pproTicksIn>16341696000000</pproTicksIn>
						<pproTicksOut>16362864000000</pproTicksOut>
						<alphatype>none</alphatype>
						<pixelaspectratio>square</pixelaspectratio>
						<anamorphic>FALSE</anamorphic>
						<logginginfo>
							<description />
							<scene />
							<shottake />
							<lognote />
							<good />
							<originalvideofilename />
							<originalaudiofilename />
						</logginginfo>
						<colorinfo>
							<lut />
							<lut1 />
							<asc_sop />
							<asc_sat />
							<lut2 />
						</colorinfo>
						<labels>
							<label2>Rose</label2>
						</labels>
					<file id="file-3">
							</file>
						</clipitem>
					<clipitem id="clipitem-169">
						<masterclipid>masterclip-3</masterclipid>
						<name>Digital-Calibration.mp4</name>
						<enabled>TRUE</enabled>
						<duration>3594</duration>
						<rate>
							<timebase>30</timebase>
							<ntsc>FALSE</ntsc>
						</rate>
						<start>1576</start>
						<end>1577</end>
						<in>1576</in>
						<out>1577</out>
						<pproTicksIn>16680384000000</pproTicksIn>
						<pproTicksOut>16690968000000</pproTicksOut>
						<alphatype>none</alphatype>
						<pixelaspectratio>square</pixelaspectratio>
						<anamorphic>FALSE</anamorphic>
						<logginginfo>
							<description />
							<scene />
							<shottake />
							<lognote />
							<good />
							<originalvideofilename />
							<originalaudiofilename />
						</logginginfo>
						<colorinfo>
							<lut />
							<lut1 />
							<asc_sop />
							<asc_sat />
							<lut2 />
						</colorinfo>
						<labels>
							<label2>Rose</label2>
						</labels>
					<file id="file-3">
							</file>
						</clipitem>
					<clipitem id="clipitem-170">
						<masterclipid>masterclip-3</masterclipid>
						<name>Digital-Calibration.mp4</name>
						<enabled>TRUE</enabled>
						<duration>3594</duration>
						<rate>
							<timebase>30</timebase>
							<ntsc>FALSE</ntsc>
						</rate>
						<start>1588</start>
						<end>1589</end>
						<in>1588</in>
						<out>1589</out>
						<pproTicksIn>16807392000000</pproTicksIn>
						<pproTicksOut>16817976000000</pproTicksOut>
						<alphatype>none</alphatype>
						<pixelaspectratio>square</pixelaspectratio>
						<anamorphic>FALSE</anamorphic>
						<logginginfo>
							<description />
							<scene />
							<shottake />
							<lognote />
							<good />
							<originalvideofilename />
							<originalaudiofilename />
						</logginginfo>
						<colorinfo>
							<lut />
							<lut1 />
							<asc_sop />
							<asc_sat />
							<lut2 />
						</colorinfo>
						<labels>
							<label2>Rose</label2>
						</labels>
					<file id="file-3">
							</file>
						</clipitem>
					<clipitem id="clipitem-171">
						<masterclipid>masterclip-3</masterclipid>
						<name>Digital-Calibration.mp4</name>
						<enabled>TRUE</enabled>
						<duration>3594</duration>
						<rate>
							<timebase>30</timebase>
							<ntsc>FALSE</ntsc>
						</rate>
						<start>1606</start>
						<end>1607</end>
						<in>1606</in>
						<out>1607</out>
						<pproTicksIn>16997904000000</pproTicksIn>
						<pproTicksOut>17008488000000</pproTicksOut>
						<alphatype>none</alphatype>
						<pixelaspectratio>square</pixelaspectratio>
						<anamorphic>FALSE</anamorphic>
						<logginginfo>
							<description />
							<scene />
							<shottake />
							<lognote />
							<good />
							<originalvideofilename />
							<originalaudiofilename />
						</logginginfo>
						<colorinfo>
							<lut />
							<lut1 />
							<asc_sop />
							<asc_sat />
							<lut2 />
						</colorinfo>
						<labels>
							<label2>Rose</label2>
						</labels>
					<file id="file-3">
							</file>
						</clipitem>
					<clipitem id="clipitem-172">
						<masterclipid>masterclip-3</masterclipid>
						<name>Digital-Calibration.mp4</name>
						<enabled>TRUE</enabled>
						<duration>3594</duration>
						<rate>
							<timebase>30</timebase>
							<ntsc>FALSE</ntsc>
						</rate>
						<start>1622</start>
						<end>1623</end>
						<in>1622</in>
						<out>1623</out>
						<pproTicksIn>17167248000000</pproTicksIn>
						<pproTicksOut>17177832000000</pproTicksOut>
						<alphatype>none</alphatype>
						<pixelaspectratio>square</pixelaspectratio>
						<anamorphic>FALSE</anamorphic>
						<logginginfo>
							<description />
							<scene />
							<shottake />
							<lognote />
							<good />
							<originalvideofilename />
							<originalaudiofilename />
						</logginginfo>
						<colorinfo>
							<lut />
							<lut1 />
							<asc_sop />
							<asc_sat />
							<lut2 />
						</colorinfo>
						<labels>
							<label2>Rose</label2>
						</labels>
					<file id="file-3">
							</file>
						</clipitem>
					<clipitem id="clipitem-173">
						<masterclipid>masterclip-3</masterclipid>
						<name>Digital-Calibration.mp4</name>
						<enabled>TRUE</enabled>
						<duration>3594</duration>
						<rate>
							<timebase>30</timebase>
							<ntsc>FALSE</ntsc>
						</rate>
						<start>1634</start>
						<end>1635</end>
						<in>1634</in>
						<out>1635</out>
						<pproTicksIn>17294256000000</pproTicksIn>
						<pproTicksOut>17304840000000</pproTicksOut>
						<alphatype>none</alphatype>
						<pixelaspectratio>square</pixelaspectratio>
						<anamorphic>FALSE</anamorphic>
						<logginginfo>
							<description />
							<scene />
							<shottake />
							<lognote />
							<good />
							<originalvideofilename />
							<originalaudiofilename />
						</logginginfo>
						<colorinfo>
							<lut />
							<lut1 />
							<asc_sop />
							<asc_sat />
							<lut2 />
						</colorinfo>
						<labels>
							<label2>Rose</label2>
						</labels>
					<file id="file-3">
							</file>
						</clipitem>
					<clipitem id="clipitem-174">
						<masterclipid>masterclip-3</masterclipid>
						<name>Digital-Calibration.mp4</name>
						<enabled>TRUE</enabled>
						<duration>3594</duration>
						<rate>
							<timebase>30</timebase>
							<ntsc>FALSE</ntsc>
						</rate>
						<start>1764</start>
						<end>1789</end>
						<in>1764</in>
						<out>1789</out>
						<pproTicksIn>18670176000000</pproTicksIn>
						<pproTicksOut>18934776000000</pproTicksOut>
						<alphatype>none</alphatype>
						<pixelaspectratio>square</pixelaspectratio>
						<anamorphic>FALSE</anamorphic>
						<logginginfo>
							<description />
							<scene />
							<shottake />
							<lognote />
							<good />
							<originalvideofilename />
							<originalaudiofilename />
						</logginginfo>
						<colorinfo>
							<lut />
							<lut1 />
							<asc_sop />
							<asc_sat />
							<lut2 />
						</colorinfo>
						<labels>
							<label2>Rose</label2>
						</labels>
					<file id="file-3">
							</file>
						</clipitem>
					<clipitem id="clipitem-175">
						<masterclipid>masterclip-3</masterclipid>
						<name>Digital-Calibration.mp4</name>
						<enabled>TRUE</enabled>
						<duration>3594</duration>
						<rate>
							<timebase>30</timebase>
							<ntsc>FALSE</ntsc>
						</rate>
						<start>1793</start>
						<end>1950</end>
						<in>1793</in>
						<out>1950</out>
						<pproTicksIn>18977112000000</pproTicksIn>
						<pproTicksOut>20638800000000</pproTicksOut>
						<alphatype>none</alphatype>
						<pixelaspectratio>square</pixelaspectratio>
						<anamorphic>FALSE</anamorphic>
						<logginginfo>
							<description />
							<scene />
							<shottake />
							<lognote />
							<good />
							<originalvideofilename />
							<originalaudiofilename />
						</logginginfo>
						<colorinfo>
							<lut />
							<lut1 />
							<asc_sop />
							<asc_sat />
							<lut2 />
						</colorinfo>
						<labels>
							<label2>Rose</label2>
						</labels>
					<file id="file-3">
							</file>
						</clipitem>
					<clipitem id="clipitem-176">
						<masterclipid>masterclip-3</masterclipid>
						<name>Digital-Calibration.mp4</name>
						<enabled>TRUE</enabled>
						<duration>3594</duration>
						<rate>
							<timebase>30</timebase>
							<ntsc>FALSE</ntsc>
						</rate>
						<start>1975</start>
						<end>1986</end>
						<in>1975</in>
						<out>1986</out>
						<pproTicksIn>20903400000000</pproTicksIn>
						<pproTicksOut>21019824000000</pproTicksOut>
						<alphatype>none</alphatype>
						<pixelaspectratio>square</pixelaspectratio>
						<anamorphic>FALSE</anamorphic>
						<logginginfo>
							<description />
							<scene />
							<shottake />
							<lognote />
							<good />
							<originalvideofilename />
							<originalaudiofilename />
						</logginginfo>
						<colorinfo>
							<lut />
							<lut1 />
							<asc_sop />
							<asc_sat />
							<lut2 />
						</colorinfo>
						<labels>
							<label2>Rose</label2>
						</labels>
					<file id="file-3">
							</file>
						</clipitem>
					<clipitem id="clipitem-177">
						<masterclipid>masterclip-3</masterclipid>
						<name>Digital-Calibration.mp4</name>
						<enabled>TRUE</enabled>
						<duration>3594</duration>
						<rate>
							<timebase>30</timebase>
							<ntsc>FALSE</ntsc>
						</rate>
						<start>1993</start>
						<end>2003</end>
						<in>1993</in>
						<out>2003</out>
						<pproTicksIn>21093912000000</pproTicksIn>
						<pproTicksOut>21199752000000</pproTicksOut>
						<alphatype>none</alphatype>
						<pixelaspectratio>square</pixelaspectratio>
						<anamorphic>FALSE</anamorphic>
						<logginginfo>
							<description />
							<scene />
							<shottake />
							<lognote />
							<good />
							<originalvideofilename />
							<originalaudiofilename />
						</logginginfo>
						<colorinfo>
							<lut />
							<lut1 />
							<asc_sop />
							<asc_sat />
							<lut2 />
						</colorinfo>
						<labels>
							<label2>Rose</label2>
						</labels>
					<file id="file-3">
							</file>
						</clipitem>
					<clipitem id="clipitem-178">
						<masterclipid>masterclip-3</masterclipid>
						<name>Digital-Calibration.mp4</name>
						<enabled>TRUE</enabled>
						<duration>3594</duration>
						<rate>
							<timebase>30</timebase>
							<ntsc>FALSE</ntsc>
						</rate>
						<start>2082</start>
						<end>2083</end>
						<in>2082</in>
						<out>2083</out>
						<pproTicksIn>22035888000000</pproTicksIn>
						<pproTicksOut>22046472000000</pproTicksOut>
						<alphatype>none</alphatype>
						<pixelaspectratio>square</pixelaspectratio>
						<anamorphic>FALSE</anamorphic>
						<logginginfo>
							<description />
							<scene />
							<shottake />
							<lognote />
							<good />
							<originalvideofilename />
							<originalaudiofilename />
						</logginginfo>
						<colorinfo>
							<lut />
							<lut1 />
							<asc_sop />
							<asc_sat />
							<lut2 />
						</colorinfo>
						<labels>
							<label2>Rose</label2>
						</labels>
					<file id="file-3">
							</file>
						</clipitem>
					<clipitem id="clipitem-179">
						<masterclipid>masterclip-3</masterclipid>
						<name>Digital-Calibration.mp4</name>
						<enabled>TRUE</enabled>
						<duration>3594</duration>
						<rate>
							<timebase>30</timebase>
							<ntsc>FALSE</ntsc>
						</rate>
						<start>2096</start>
						<end>2107</end>
						<in>2096</in>
						<out>2107</out>
						<pproTicksIn>22184064000000</pproTicksIn>
						<pproTicksOut>22300488000000</pproTicksOut>
						<alphatype>none</alphatype>
						<pixelaspectratio>square</pixelaspectratio>
						<anamorphic>FALSE</anamorphic>
						<logginginfo>
							<description />
							<scene />
							<shottake />
							<lognote />
							<good />
							<originalvideofilename />
							<originalaudiofilename />
						</logginginfo>
						<colorinfo>
							<lut />
							<lut1 />
							<asc_sop />
							<asc_sat />
							<lut2 />
						</colorinfo>
						<labels>
							<label2>Rose</label2>
						</labels>
					<file id="file-3">
							</file>
						</clipitem>
					<clipitem id="clipitem-180">
						<masterclipid>masterclip-3</masterclipid>
						<name>Digital-Calibration.mp4</name>
						<enabled>TRUE</enabled>
						<duration>3594</duration>
						<rate>
							<timebase>30</timebase>
							<ntsc>FALSE</ntsc>
						</rate>
						<start>2180</start>
						<end>2226</end>
						<in>2180</in>
						<out>2226</out>
						<pproTicksIn>23073120000000</pproTicksIn>
						<pproTicksOut>23559984000000</pproTicksOut>
						<alphatype>none</alphatype>
						<pixelaspectratio>square</pixelaspectratio>
						<anamorphic>FALSE</anamorphic>
						<logginginfo>
							<description />
							<scene />
							<shottake />
							<lognote />
							<good />
							<originalvideofilename />
							<originalaudiofilename />
						</logginginfo>
						<colorinfo>
							<lut />
							<lut1 />
							<asc_sop />
							<asc_sat />
							<lut2 />
						</colorinfo>
						<labels>
							<label2>Rose</label2>
						</labels>
					<file id="file-3">
							</file>
						</clipitem>
					<clipitem id="clipitem-181">
						<masterclipid>masterclip-3</masterclipid>
						<name>Digital-Calibration.mp4</name>
						<enabled>TRUE</enabled>
						<duration>3594</duration>
						<rate>
							<timebase>30</timebase>
							<ntsc>FALSE</ntsc>
						</rate>
						<start>2397</start>
						<end>2445</end>
						<in>2397</in>
						<out>2445</out>
						<pproTicksIn>25369848000000</pproTicksIn>
						<pproTicksOut>25877880000000</pproTicksOut>
						<alphatype>none</alphatype>
						<pixelaspectratio>square</pixelaspectratio>
						<anamorphic>FALSE</anamorphic>
						<logginginfo>
							<description />
							<scene />
							<shottake />
							<lognote />
							<good />
							<originalvideofilename />
							<originalaudiofilename />
						</logginginfo>
						<colorinfo>
							<lut />
							<lut1 />
							<asc_sop />
							<asc_sat />
							<lut2 />
						</colorinfo>
						<labels>
							<label2>Rose</label2>
						</labels>
					<file id="file-3">
							</file>
						</clipitem>
					<clipitem id="clipitem-182">
						<masterclipid>masterclip-3</masterclipid>
						<name>Digital-Calibration.mp4</name>
						<enabled>TRUE</enabled>
						<duration>3594</duration>
						<rate>
							<timebase>30</timebase>
							<ntsc>FALSE</ntsc>
						</rate>
						<start>2462</start>
						<end>2463</end>
						<in>2462</in>
						<out>2463</out>
						<pproTicksIn>26057808000000</pproTicksIn>
						<pproTicksOut>26068392000000</pproTicksOut>
						<alphatype>none</alphatype>
						<pixelaspectratio>square</pixelaspectratio>
						<anamorphic>FALSE</anamorphic>
						<logginginfo>
							<description />
							<scene />
							<shottake />
							<lognote />
							<good />
							<originalvideofilename />
							<originalaudiofilename />
						</logginginfo>
						<colorinfo>
							<lut />
							<lut1 />
							<asc_sop />
							<asc_sat />
							<lut2 />
						</colorinfo>
						<labels>
							<label2>Rose</label2>
						</labels>
					<file id="file-3">
							</file>
						</clipitem>
					<clipitem id="clipitem-183">
						<masterclipid>masterclip-3</masterclipid>
						<name>Digital-Calibration.mp4</name>
						<enabled>TRUE</enabled>
						<duration>3594</duration>
						<rate>
							<timebase>30</timebase>
							<ntsc>FALSE</ntsc>
						</rate>
						<start>2465</start>
						<end>2468</end>
						<in>2465</in>
						<out>2468</out>
						<pproTicksIn>26089560000000</pproTicksIn>
						<pproTicksOut>26121312000000</pproTicksOut>
						<alphatype>none</alphatype>
						<pixelaspectratio>square</pixelaspectratio>
						<anamorphic>FALSE</anamorphic>
						<logginginfo>
							<description />
							<scene />
							<shottake />
							<lognote />
							<good />
							<originalvideofilename />
							<originalaudiofilename />
						</logginginfo>
						<colorinfo>
							<lut />
							<lut1 />
							<asc_sop />
							<asc_sat />
							<lut2 />
						</colorinfo>
						<labels>
							<label2>Rose</label2>
						</labels>
					<file id="file-3">
							</file>
						</clipitem>
					<clipitem id="clipitem-184">
						<masterclipid>masterclip-3</masterclipid>
						<name>Digital-Calibration.mp4</name>
						<enabled>TRUE</enabled>
						<duration>3594</duration>
						<rate>
							<timebase>30</timebase>
							<ntsc>FALSE</ntsc>
						</rate>
						<start>2484</start>
						<end>2486</end>
						<in>2484</in>
						<out>2486</out>
						<pproTicksIn>26290656000000</pproTicksIn>
						<pproTicksOut>26311824000000</pproTicksOut>
						<alphatype>none</alphatype>
						<pixelaspectratio>square</pixelaspectratio>
						<anamorphic>FALSE</anamorphic>
						<logginginfo>
							<description />
							<scene />
							<shottake />
							<lognote />
							<good />
							<originalvideofilename />
							<originalaudiofilename />
						</logginginfo>
						<colorinfo>
							<lut />
							<lut1 />
							<asc_sop />
							<asc_sat />
							<lut2 />
						</colorinfo>
						<labels>
							<label2>Rose</label2>
						</labels>
					<file id="file-3">
							</file>
						</clipitem>
					<clipitem id="clipitem-185">
						<masterclipid>masterclip-3</masterclipid>
						<name>Digital-Calibration.mp4</name>
						<enabled>TRUE</enabled>
						<duration>3594</duration>
						<rate>
							<timebase>30</timebase>
							<ntsc>FALSE</ntsc>
						</rate>
						<start>2499</start>
						<end>2500</end>
						<in>2499</in>
						<out>2500</out>
						<pproTicksIn>26449416000000</pproTicksIn>
						<pproTicksOut>26460000000000</pproTicksOut>
						<alphatype>none</alphatype>
						<pixelaspectratio>square</pixelaspectratio>
						<anamorphic>FALSE</anamorphic>
						<logginginfo>
							<description />
							<scene />
							<shottake />
							<lognote />
							<good />
							<originalvideofilename />
							<originalaudiofilename />
						</logginginfo>
						<colorinfo>
							<lut />
							<lut1 />
							<asc_sop />
							<asc_sat />
							<lut2 />
						</colorinfo>
						<labels>
							<label2>Rose</label2>
						</labels>
					<file id="file-3">
							</file>
						</clipitem>
					<clipitem id="clipitem-186">
						<masterclipid>masterclip-3</masterclipid>
						<name>Digital-Calibration.mp4</name>
						<enabled>TRUE</enabled>
						<duration>3594</duration>
						<rate>
							<timebase>30</timebase>
							<ntsc>FALSE</ntsc>
						</rate>
						<start>2638</start>
						<end>2639</end>
						<in>2638</in>
						<out>2639</out>
						<pproTicksIn>27920592000000</pproTicksIn>
						<pproTicksOut>27931176000000</pproTicksOut>
						<alphatype>none</alphatype>
						<pixelaspectratio>square</pixelaspectratio>
						<anamorphic>FALSE</anamorphic>
						<logginginfo>
							<description />
							<scene />
							<shottake />
							<lognote />
							<good />
							<originalvideofilename />
							<originalaudiofilename />
						</logginginfo>
						<colorinfo>
							<lut />
							<lut1 />
							<asc_sop />
							<asc_sat />
							<lut2 />
						</colorinfo>
						<labels>
							<label2>Rose</label2>
						</labels>
					<file id="file-3">
							</file>
						</clipitem>
					<clipitem id="clipitem-187">
						<masterclipid>masterclip-3</masterclipid>
						<name>Digital-Calibration.mp4</name>
						<enabled>TRUE</enabled>
						<duration>3594</duration>
						<rate>
							<timebase>30</timebase>
							<ntsc>FALSE</ntsc>
						</rate>
						<start>2686</start>
						<end>2688</end>
						<in>2686</in>
						<out>2688</out>
						<pproTicksIn>28428624000000</pproTicksIn>
						<pproTicksOut>28449792000000</pproTicksOut>
						<alphatype>none</alphatype>
						<pixelaspectratio>square</pixelaspectratio>
						<anamorphic>FALSE</anamorphic>
						<logginginfo>
							<description />
							<scene />
							<shottake />
							<lognote />
							<good />
							<originalvideofilename />
							<originalaudiofilename />
						</logginginfo>
						<colorinfo>
							<lut />
							<lut1 />
							<asc_sop />
							<asc_sat />
							<lut2 />
						</colorinfo>
						<labels>
							<label2>Rose</label2>
						</labels>
					<file id="file-3">
							</file>
						</clipitem>
					<clipitem id="clipitem-188">
						<masterclipid>masterclip-3</masterclipid>
						<name>Digital-Calibration.mp4</name>
						<enabled>TRUE</enabled>
						<duration>3594</duration>
						<rate>
							<timebase>30</timebase>
							<ntsc>FALSE</ntsc>
						</rate>
						<start>2699</start>
						<end>2744</end>
						<in>2699</in>
						<out>2744</out>
						<pproTicksIn>28566216000000</pproTicksIn>
						<pproTicksOut>29042496000000</pproTicksOut>
						<alphatype>none</alphatype>
						<pixelaspectratio>square</pixelaspectratio>
						<anamorphic>FALSE</anamorphic>
						<logginginfo>
							<description />
							<scene />
							<shottake />
							<lognote />
							<good />
							<originalvideofilename />
							<originalaudiofilename />
						</logginginfo>
						<colorinfo>
							<lut />
							<lut1 />
							<asc_sop />
							<asc_sat />
							<lut2 />
						</colorinfo>
						<labels>
							<label2>Rose</label2>
						</labels>
					<file id="file-3">
							</file>
						</clipitem>
					<clipitem id="clipitem-189">
						<masterclipid>masterclip-3</masterclipid>
						<name>Digital-Calibration.mp4</name>
						<enabled>TRUE</enabled>
						<duration>3594</duration>
						<rate>
							<timebase>30</timebase>
							<ntsc>FALSE</ntsc>
						</rate>
						<start>2761</start>
						<end>2763</end>
						<in>2761</in>
						<out>2763</out>
						<pproTicksIn>29222424000000</pproTicksIn>
						<pproTicksOut>29243592000000</pproTicksOut>
						<alphatype>none</alphatype>
						<pixelaspectratio>square</pixelaspectratio>
						<anamorphic>FALSE</anamorphic>
						<logginginfo>
							<description />
							<scene />
							<shottake />
							<lognote />
							<good />
							<originalvideofilename />
							<originalaudiofilename />
						</logginginfo>
						<colorinfo>
							<lut />
							<lut1 />
							<asc_sop />
							<asc_sat />
							<lut2 />
						</colorinfo>
						<labels>
							<label2>Rose</label2>
						</labels>
					<file id="file-3">
							</file>
						</clipitem>
					<clipitem id="clipitem-190">
						<masterclipid>masterclip-3</masterclipid>
						<name>Digital-Calibration.mp4</name>
						<enabled>TRUE</enabled>
						<duration>3594</duration>
						<rate>
							<timebase>30</timebase>
							<ntsc>FALSE</ntsc>
						</rate>
						<start>2789</start>
						<end>2797</end>
						<in>2789</in>
						<out>2797</out>
						<pproTicksIn>29518776000000</pproTicksIn>
						<pproTicksOut>29603448000000</pproTicksOut>
						<alphatype>none</alphatype>
						<pixelaspectratio>square</pixelaspectratio>
						<anamorphic>FALSE</anamorphic>
						<logginginfo>
							<description />
							<scene />
							<shottake />
							<lognote />
							<good />
							<originalvideofilename />
							<originalaudiofilename />
						</logginginfo>
						<colorinfo>
							<lut />
							<lut1 />
							<asc_sop />
							<asc_sat />
							<lut2 />
						</colorinfo>
						<labels>
							<label2>Rose</label2>
						</labels>
					<file id="file-3">
							</file>
						</clipitem>
					<clipitem id="clipitem-191">
						<masterclipid>masterclip-3</masterclipid>
						<name>Digital-Calibration.mp4</name>
						<enabled>TRUE</enabled>
						<duration>3594</duration>
						<rate>
							<timebase>30</timebase>
							<ntsc>FALSE</ntsc>
						</rate>
						<start>2798</start>
						<end>2825</end>
						<in>2798</in>
						<out>2825</out>
						<pproTicksIn>29614032000000</pproTicksIn>
						<pproTicksOut>29899800000000</pproTicksOut>
						<alphatype>none</alphatype>
						<pixelaspectratio>square</pixelaspectratio>
						<anamorphic>FALSE</anamorphic>
						<logginginfo>
							<description />
							<scene />
							<shottake />
							<lognote />
							<good />
							<originalvideofilename />
							<originalaudiofilename />
						</logginginfo>
						<colorinfo>
							<lut />
							<lut1 />
							<asc_sop />
							<asc_sat />
							<lut2 />
						</colorinfo>
						<labels>
							<label2>Rose</label2>
						</labels>
					<file id="file-3">
							</file>
						</clipitem>
					<clipitem id="clipitem-192">
						<masterclipid>masterclip-3</masterclipid>
						<name>Digital-Calibration.mp4</name>
						<enabled>TRUE</enabled>
						<duration>3594</duration>
						<rate>
							<timebase>30</timebase>
							<ntsc>FALSE</ntsc>
						</rate>
						<start>2827</start>
						<end>2842</end>
						<in>2827</in>
						<out>2842</out>
						<pproTicksIn>29920968000000</pproTicksIn>
						<pproTicksOut>30079728000000</pproTicksOut>
						<alphatype>none</alphatype>
						<pixelaspectratio>square</pixelaspectratio>
						<anamorphic>FALSE</anamorphic>
						<logginginfo>
							<description />
							<scene />
							<shottake />
							<lognote />
							<good />
							<originalvideofilename />
							<originalaudiofilename />
						</logginginfo>
						<colorinfo>
							<lut />
							<lut1 />
							<asc_sop />
							<asc_sat />
							<lut2 />
						</colorinfo>
						<labels>
							<label2>Rose</label2>
						</labels>
					<file id="file-3">
							</file>
						</clipitem>
					<clipitem id="clipitem-193">
						<masterclipid>masterclip-3</masterclipid>
						<name>Digital-Calibration.mp4</name>
						<enabled>TRUE</enabled>
						<duration>3594</duration>
						<rate>
							<timebase>30</timebase>
							<ntsc>FALSE</ntsc>
						</rate>
						<start>2843</start>
						<end>2844</end>
						<in>2843</in>
						<out>2844</out>
						<pproTicksIn>30090312000000</pproTicksIn>
						<pproTicksOut>30100896000000</pproTicksOut>
						<alphatype>none</alphatype>
						<pixelaspectratio>square</pixelaspectratio>
						<anamorphic>FALSE</anamorphic>
						<logginginfo>
							<description />
							<scene />
							<shottake />
							<lognote />
							<good />
							<originalvideofilename />
							<originalaudiofilename />
						</logginginfo>
						<colorinfo>
							<lut />
							<lut1 />
							<asc_sop />
							<asc_sat />
							<lut2 />
						</colorinfo>
						<labels>
							<label2>Rose</label2>
						</labels>
					<file id="file-3">
							</file>
						</clipitem>
					<clipitem id="clipitem-194">
						<masterclipid>masterclip-3</masterclipid>
						<name>Digital-Calibration.mp4</name>
						<enabled>TRUE</enabled>
						<duration>3594</duration>
						<rate>
							<timebase>30</timebase>
							<ntsc>FALSE</ntsc>
						</rate>
						<start>2846</start>
						<end>2856</end>
						<in>2846</in>
						<out>2856</out>
						<pproTicksIn>30122064000000</pproTicksIn>
						<pproTicksOut>30227904000000</pproTicksOut>
						<alphatype>none</alphatype>
						<pixelaspectratio>square</pixelaspectratio>
						<anamorphic>FALSE</anamorphic>
						<logginginfo>
							<description />
							<scene />
							<shottake />
							<lognote />
							<good />
							<originalvideofilename />
							<originalaudiofilename />
						</logginginfo>
						<colorinfo>
							<lut />
							<lut1 />
							<asc_sop />
							<asc_sat />
							<lut2 />
						</colorinfo>
						<labels>
							<label2>Rose</label2>
						</labels>
					<file id="file-3">
							</file>
						</clipitem>
					<clipitem id="clipitem-195">
						<masterclipid>masterclip-3</masterclipid>
						<name>Digital-Calibration.mp4</name>
						<enabled>TRUE</enabled>
						<duration>3594</duration>
						<rate>
							<timebase>30</timebase>
							<ntsc>FALSE</ntsc>
						</rate>
						<start>2860</start>
						<end>2862</end>
						<in>2860</in>
						<out>2862</out>
						<pproTicksIn>30270240000000</pproTicksIn>
						<pproTicksOut>30291408000000</pproTicksOut>
						<alphatype>none</alphatype>
						<pixelaspectratio>square</pixelaspectratio>
						<anamorphic>FALSE</anamorphic>
						<logginginfo>
							<description />
							<scene />
							<shottake />
							<lognote />
							<good />
							<originalvideofilename />
							<originalaudiofilename />
						</logginginfo>
						<colorinfo>
							<lut />
							<lut1 />
							<asc_sop />
							<asc_sat />
							<lut2 />
						</colorinfo>
						<labels>
							<label2>Rose</label2>
						</labels>
					<file id="file-3">
							</file>
						</clipitem>
					<clipitem id="clipitem-196">
						<masterclipid>masterclip-3</masterclipid>
						<name>Digital-Calibration.mp4</name>
						<enabled>TRUE</enabled>
						<duration>3594</duration>
						<rate>
							<timebase>30</timebase>
							<ntsc>FALSE</ntsc>
						</rate>
						<start>2863</start>
						<end>2866</end>
						<in>2863</in>
						<out>2866</out>
						<pproTicksIn>30301992000000</pproTicksIn>
						<pproTicksOut>30333744000000</pproTicksOut>
						<alphatype>none</alphatype>
						<pixelaspectratio>square</pixelaspectratio>
						<anamorphic>FALSE</anamorphic>
						<logginginfo>
							<description />
							<scene />
							<shottake />
							<lognote />
							<good />
							<originalvideofilename />
							<originalaudiofilename />
						</logginginfo>
						<colorinfo>
							<lut />
							<lut1 />
							<asc_sop />
							<asc_sat />
							<lut2 />
						</colorinfo>
						<labels>
							<label2>Rose</label2>
						</labels>
					<file id="file-3">
							</file>
						</clipitem>
					<clipitem id="clipitem-197">
						<masterclipid>masterclip-3</masterclipid>
						<name>Digital-Calibration.mp4</name>
						<enabled>TRUE</enabled>
						<duration>3594</duration>
						<rate>
							<timebase>30</timebase>
							<ntsc>FALSE</ntsc>
						</rate>
						<start>2867</start>
						<end>2868</end>
						<in>2867</in>
						<out>2868</out>
						<pproTicksIn>30344328000000</pproTicksIn>
						<pproTicksOut>30354912000000</pproTicksOut>
						<alphatype>none</alphatype>
						<pixelaspectratio>square</pixelaspectratio>
						<anamorphic>FALSE</anamorphic>
						<logginginfo>
							<description />
							<scene />
							<shottake />
							<lognote />
							<good />
							<originalvideofilename />
							<originalaudiofilename />
						</logginginfo>
						<colorinfo>
							<lut />
							<lut1 />
							<asc_sop />
							<asc_sat />
							<lut2 />
						</colorinfo>
						<labels>
							<label2>Rose</label2>
						</labels>
					<file id="file-3">
							</file>
						</clipitem>
					<clipitem id="clipitem-198">
						<masterclipid>masterclip-3</masterclipid>
						<name>Digital-Calibration.mp4</name>
						<enabled>TRUE</enabled>
						<duration>3594</duration>
						<rate>
							<timebase>30</timebase>
							<ntsc>FALSE</ntsc>
						</rate>
						<start>2869</start>
						<end>2872</end>
						<in>2869</in>
						<out>2872</out>
						<pproTicksIn>30365496000000</pproTicksIn>
						<pproTicksOut>30397248000000</pproTicksOut>
						<alphatype>none</alphatype>
						<pixelaspectratio>square</pixelaspectratio>
						<anamorphic>FALSE</anamorphic>
						<logginginfo>
							<description />
							<scene />
							<shottake />
							<lognote />
							<good />
							<originalvideofilename />
							<originalaudiofilename />
						</logginginfo>
						<colorinfo>
							<lut />
							<lut1 />
							<asc_sop />
							<asc_sat />
							<lut2 />
						</colorinfo>
						<labels>
							<label2>Rose</label2>
						</labels>
					<file id="file-3">
							</file>
						</clipitem>
					<clipitem id="clipitem-199">
						<masterclipid>masterclip-3</masterclipid>
						<name>Digital-Calibration.mp4</name>
						<enabled>TRUE</enabled>
						<duration>3594</duration>
						<rate>
							<timebase>30</timebase>
							<ntsc>FALSE</ntsc>
						</rate>
						<start>2873</start>
						<end>2874</end>
						<in>2873</in>
						<out>2874</out>
						<pproTicksIn>30407832000000</pproTicksIn>
						<pproTicksOut>30418416000000</pproTicksOut>
						<alphatype>none</alphatype>
						<pixelaspectratio>square</pixelaspectratio>
						<anamorphic>FALSE</anamorphic>
						<logginginfo>
							<description />
							<scene />
							<shottake />
							<lognote />
							<good />
							<originalvideofilename />
							<originalaudiofilename />
						</logginginfo>
						<colorinfo>
							<lut />
							<lut1 />
							<asc_sop />
							<asc_sat />
							<lut2 />
						</colorinfo>
						<labels>
							<label2>Rose</label2>
						</labels>
					<file id="file-3">
							</file>
						</clipitem>
					<clipitem id="clipitem-200">
						<masterclipid>masterclip-3</masterclipid>
						<name>Digital-Calibration.mp4</name>
						<enabled>TRUE</enabled>
						<duration>3594</duration>
						<rate>
							<timebase>30</timebase>
							<ntsc>FALSE</ntsc>
						</rate>
						<start>2875</start>
						<end>2881</end>
						<in>2875</in>
						<out>2881</out>
						<pproTicksIn>30429000000000</pproTicksIn>
						<pproTicksOut>30492504000000</pproTicksOut>
						<alphatype>none</alphatype>
						<pixelaspectratio>square</pixelaspectratio>
						<anamorphic>FALSE</anamorphic>
						<logginginfo>
							<description />
							<scene />
							<shottake />
							<lognote />
							<good />
							<originalvideofilename />
							<originalaudiofilename />
						</logginginfo>
						<colorinfo>
							<lut />
							<lut1 />
							<asc_sop />
							<asc_sat />
							<lut2 />
						</colorinfo>
						<labels>
							<label2>Rose</label2>
						</labels>
					<file id="file-3">
							</file>
						</clipitem>
					<clipitem id="clipitem-201">
						<masterclipid>masterclip-3</masterclipid>
						<name>Digital-Calibration.mp4</name>
						<enabled>TRUE</enabled>
						<duration>3594</duration>
						<rate>
							<timebase>30</timebase>
							<ntsc>FALSE</ntsc>
						</rate>
						<start>2882</start>
						<end>2883</end>
						<in>2882</in>
						<out>2883</out>
						<pproTicksIn>30503088000000</pproTicksIn>
						<pproTicksOut>30513672000000</pproTicksOut>
						<alphatype>none</alphatype>
						<pixelaspectratio>square</pixelaspectratio>
						<anamorphic>FALSE</anamorphic>
						<logginginfo>
							<description />
							<scene />
							<shottake />
							<lognote />
							<good />
							<originalvideofilename />
							<originalaudiofilename />
						</logginginfo>
						<colorinfo>
							<lut />
							<lut1 />
							<asc_sop />
							<asc_sat />
							<lut2 />
						</colorinfo>
						<labels>
							<label2>Rose</label2>
						</labels>
					<file id="file-3">
							</file>
						</clipitem>
					<clipitem id="clipitem-202">
						<masterclipid>masterclip-3</masterclipid>
						<name>Digital-Calibration.mp4</name>
						<enabled>TRUE</enabled>
						<duration>3594</duration>
						<rate>
							<timebase>30</timebase>
							<ntsc>FALSE</ntsc>
						</rate>
						<start>2884</start>
						<end>2889</end>
						<in>2884</in>
						<out>2889</out>
						<pproTicksIn>30524256000000</pproTicksIn>
						<pproTicksOut>30577176000000</pproTicksOut>
						<alphatype>none</alphatype>
						<pixelaspectratio>square</pixelaspectratio>
						<anamorphic>FALSE</anamorphic>
						<logginginfo>
							<description />
							<scene />
							<shottake />
							<lognote />
							<good />
							<originalvideofilename />
							<originalaudiofilename />
						</logginginfo>
						<colorinfo>
							<lut />
							<lut1 />
							<asc_sop />
							<asc_sat />
							<lut2 />
						</colorinfo>
						<labels>
							<label2>Rose</label2>
						</labels>
					<file id="file-3">
							</file>
						</clipitem>
					<clipitem id="clipitem-203">
						<masterclipid>masterclip-3</masterclipid>
						<name>Digital-Calibration.mp4</name>
						<enabled>TRUE</enabled>
						<duration>3594</duration>
						<rate>
							<timebase>30</timebase>
							<ntsc>FALSE</ntsc>
						</rate>
						<start>2890</start>
						<end>2900</end>
						<in>2890</in>
						<out>2900</out>
						<pproTicksIn>30587760000000</pproTicksIn>
						<pproTicksOut>30693600000000</pproTicksOut>
						<alphatype>none</alphatype>
						<pixelaspectratio>square</pixelaspectratio>
						<anamorphic>FALSE</anamorphic>
						<logginginfo>
							<description />
							<scene />
							<shottake />
							<lognote />
							<good />
							<originalvideofilename />
							<originalaudiofilename />
						</logginginfo>
						<colorinfo>
							<lut />
							<lut1 />
							<asc_sop />
							<asc_sat />
							<lut2 />
						</colorinfo>
						<labels>
							<label2>Rose</label2>
						</labels>
					<file id="file-3">
							</file>
						</clipitem>
					<clipitem id="clipitem-204">
						<masterclipid>masterclip-3</masterclipid>
						<name>Digital-Calibration.mp4</name>
						<enabled>TRUE</enabled>
						<duration>3594</duration>
						<rate>
							<timebase>30</timebase>
							<ntsc>FALSE</ntsc>
						</rate>
						<start>2901</start>
						<end>2910</end>
						<in>2901</in>
						<out>2910</out>
						<pproTicksIn>30704184000000</pproTicksIn>
						<pproTicksOut>30799440000000</pproTicksOut>
						<alphatype>none</alphatype>
						<pixelaspectratio>square</pixelaspectratio>
						<anamorphic>FALSE</anamorphic>
						<logginginfo>
							<description />
							<scene />
							<shottake />
							<lognote />
							<good />
							<originalvideofilename />
							<originalaudiofilename />
						</logginginfo>
						<colorinfo>
							<lut />
							<lut1 />
							<asc_sop />
							<asc_sat />
							<lut2 />
						</colorinfo>
						<labels>
							<label2>Rose</label2>
						</labels>
					<file id="file-3">
							</file>
						</clipitem>
					<clipitem id="clipitem-205">
						<masterclipid>masterclip-3</masterclipid>
						<name>Digital-Calibration.mp4</name>
						<enabled>TRUE</enabled>
						<duration>3594</duration>
						<rate>
							<timebase>30</timebase>
							<ntsc>FALSE</ntsc>
						</rate>
						<start>2911</start>
						<end>2915</end>
						<in>2911</in>
						<out>2915</out>
						<pproTicksIn>30810024000000</pproTicksIn>
						<pproTicksOut>30852360000000</pproTicksOut>
						<alphatype>none</alphatype>
						<pixelaspectratio>square</pixelaspectratio>
						<anamorphic>FALSE</anamorphic>
						<logginginfo>
							<description />
							<scene />
							<shottake />
							<lognote />
							<good />
							<originalvideofilename />
							<originalaudiofilename />
						</logginginfo>
						<colorinfo>
							<lut />
							<lut1 />
							<asc_sop />
							<asc_sat />
							<lut2 />
						</colorinfo>
						<labels>
							<label2>Rose</label2>
						</labels>
					<file id="file-3">
							</file>
						</clipitem>
					<clipitem id="clipitem-206">
						<masterclipid>masterclip-3</masterclipid>
						<name>Digital-Calibration.mp4</name>
						<enabled>TRUE</enabled>
						<duration>3594</duration>
						<rate>
							<timebase>30</timebase>
							<ntsc>FALSE</ntsc>
						</rate>
						<start>2918</start>
						<end>2919</end>
						<in>2918</in>
						<out>2919</out>
						<pproTicksIn>30884112000000</pproTicksIn>
						<pproTicksOut>30894696000000</pproTicksOut>
						<alphatype>none</alphatype>
						<pixelaspectratio>square</pixelaspectratio>
						<anamorphic>FALSE</anamorphic>
						<logginginfo>
							<description />
							<scene />
							<shottake />
							<lognote />
							<good />
							<originalvideofilename />
							<originalaudiofilename />
						</logginginfo>
						<colorinfo>
							<lut />
							<lut1 />
							<asc_sop />
							<asc_sat />
							<lut2 />
						</colorinfo>
						<labels>
							<label2>Rose</label2>
						</labels>
					<file id="file-3">
							</file>
						</clipitem>
					<clipitem id="clipitem-207">
						<masterclipid>masterclip-3</masterclipid>
						<name>Digital-Calibration.mp4</name>
						<enabled>TRUE</enabled>
						<duration>3594</duration>
						<rate>
							<timebase>30</timebase>
							<ntsc>FALSE</ntsc>
						</rate>
						<start>2921</start>
						<end>2928</end>
						<in>2921</in>
						<out>2928</out>
						<pproTicksIn>30915864000000</pproTicksIn>
						<pproTicksOut>30989952000000</pproTicksOut>
						<alphatype>none</alphatype>
						<pixelaspectratio>square</pixelaspectratio>
						<anamorphic>FALSE</anamorphic>
						<logginginfo>
							<description />
							<scene />
							<shottake />
							<lognote />
							<good />
							<originalvideofilename />
							<originalaudiofilename />
						</logginginfo>
						<colorinfo>
							<lut />
							<lut1 />
							<asc_sop />
							<asc_sat />
							<lut2 />
						</colorinfo>
						<labels>
							<label2>Rose</label2>
						</labels>
					<file id="file-3">
							</file>
						</clipitem>
					<clipitem id="clipitem-208">
						<masterclipid>masterclip-3</masterclipid>
						<name>Digital-Calibration.mp4</name>
						<enabled>TRUE</enabled>
						<duration>3594</duration>
						<rate>
							<timebase>30</timebase>
							<ntsc>FALSE</ntsc>
						</rate>
						<start>2929</start>
						<end>2938</end>
						<in>2929</in>
						<out>2938</out>
						<pproTicksIn>31000536000000</pproTicksIn>
						<pproTicksOut>31095792000000</pproTicksOut>
						<alphatype>none</alphatype>
						<pixelaspectratio>square</pixelaspectratio>
						<anamorphic>FALSE</anamorphic>
						<logginginfo>
							<description />
							<scene />
							<shottake />
							<lognote />
							<good />
							<originalvideofilename />
							<originalaudiofilename />
						</logginginfo>
						<colorinfo>
							<lut />
							<lut1 />
							<asc_sop />
							<asc_sat />
							<lut2 />
						</colorinfo>
						<labels>
							<label2>Rose</label2>
						</labels>
					<file id="file-3">
							</file>
						</clipitem>
					<clipitem id="clipitem-209">
						<masterclipid>masterclip-3</masterclipid>
						<name>Digital-Calibration.mp4</name>
						<enabled>TRUE</enabled>
						<duration>3594</duration>
						<rate>
							<timebase>30</timebase>
							<ntsc>FALSE</ntsc>
						</rate>
						<start>2940</start>
						<end>2950</end>
						<in>2940</in>
						<out>2950</out>
						<pproTicksIn>31116960000000</pproTicksIn>
						<pproTicksOut>31222800000000</pproTicksOut>
						<alphatype>none</alphatype>
						<pixelaspectratio>square</pixelaspectratio>
						<anamorphic>FALSE</anamorphic>
						<logginginfo>
							<description />
							<scene />
							<shottake />
							<lognote />
							<good />
							<originalvideofilename />
							<originalaudiofilename />
						</logginginfo>
						<colorinfo>
							<lut />
							<lut1 />
							<asc_sop />
							<asc_sat />
							<lut2 />
						</colorinfo>
						<labels>
							<label2>Rose</label2>
						</labels>
					<file id="file-3">
							</file>
						</clipitem>
					<clipitem id="clipitem-210">
						<masterclipid>masterclip-3</masterclipid>
						<name>Digital-Calibration.mp4</name>
						<enabled>TRUE</enabled>
						<duration>3594</duration>
						<rate>
							<timebase>30</timebase>
							<ntsc>FALSE</ntsc>
						</rate>
						<start>2952</start>
						<end>2985</end>
						<in>2952</in>
						<out>2985</out>
						<pproTicksIn>31243968000000</pproTicksIn>
						<pproTicksOut>31593240000000</pproTicksOut>
						<alphatype>none</alphatype>
						<pixelaspectratio>square</pixelaspectratio>
						<anamorphic>FALSE</anamorphic>
						<logginginfo>
							<description />
							<scene />
							<shottake />
							<lognote />
							<good />
							<originalvideofilename />
							<originalaudiofilename />
						</logginginfo>
						<colorinfo>
							<lut />
							<lut1 />
							<asc_sop />
							<asc_sat />
							<lut2 />
						</colorinfo>
						<labels>
							<label2>Rose</label2>
						</labels>
					<file id="file-3">
							</file>
						</clipitem>
					<clipitem id="clipitem-211">
						<masterclipid>masterclip-3</masterclipid>
						<name>Digital-Calibration.mp4</name>
						<enabled>TRUE</enabled>
						<duration>3594</duration>
						<rate>
							<timebase>30</timebase>
							<ntsc>FALSE</ntsc>
						</rate>
						<start>2988</start>
						<end>3020</end>
						<in>2988</in>
						<out>3020</out>
						<pproTicksIn>31624992000000</pproTicksIn>
						<pproTicksOut>31963680000000</pproTicksOut>
						<alphatype>none</alphatype>
						<pixelaspectratio>square</pixelaspectratio>
						<anamorphic>FALSE</anamorphic>
						<logginginfo>
							<description />
							<scene />
							<shottake />
							<lognote />
							<good />
							<originalvideofilename />
							<originalaudiofilename />
						</logginginfo>
						<colorinfo>
							<lut />
							<lut1 />
							<asc_sop />
							<asc_sat />
							<lut2 />
						</colorinfo>
						<labels>
							<label2>Rose</label2>
						</labels>
					<file id="file-3">
							</file>
						</clipitem>
					<clipitem id="clipitem-212">
						<masterclipid>masterclip-3</masterclipid>
						<name>Digital-Calibration.mp4</name>
						<enabled>TRUE</enabled>
						<duration>3594</duration>
						<rate>
							<timebase>30</timebase>
							<ntsc>FALSE</ntsc>
						</rate>
						<start>3021</start>
						<end>3022</end>
						<in>3021</in>
						<out>3022</out>
						<pproTicksIn>31974264000000</pproTicksIn>
						<pproTicksOut>31984848000000</pproTicksOut>
						<alphatype>none</alphatype>
						<pixelaspectratio>square</pixelaspectratio>
						<anamorphic>FALSE</anamorphic>
						<logginginfo>
							<description />
							<scene />
							<shottake />
							<lognote />
							<good />
							<originalvideofilename />
							<originalaudiofilename />
						</logginginfo>
						<colorinfo>
							<lut />
							<lut1 />
							<asc_sop />
							<asc_sat />
							<lut2 />
						</colorinfo>
						<labels>
							<label2>Rose</label2>
						</labels>
					<file id="file-3">
							</file>
						</clipitem>
					<clipitem id="clipitem-213">
						<masterclipid>masterclip-3</masterclipid>
						<name>Digital-Calibration.mp4</name>
						<enabled>TRUE</enabled>
						<duration>3594</duration>
						<rate>
							<timebase>30</timebase>
							<ntsc>FALSE</ntsc>
						</rate>
						<start>3023</start>
						<end>3042</end>
						<in>3023</in>
						<out>3042</out>
						<pproTicksIn>31995432000000</pproTicksIn>
						<pproTicksOut>32196528000000</pproTicksOut>
						<alphatype>none</alphatype>
						<pixelaspectratio>square</pixelaspectratio>
						<anamorphic>FALSE</anamorphic>
						<logginginfo>
							<description />
							<scene />
							<shottake />
							<lognote />
							<good />
							<originalvideofilename />
							<originalaudiofilename />
						</logginginfo>
						<colorinfo>
							<lut />
							<lut1 />
							<asc_sop />
							<asc_sat />
							<lut2 />
						</colorinfo>
						<labels>
							<label2>Rose</label2>
						</labels>
					<file id="file-3">
							</file>
						</clipitem>
					<clipitem id="clipitem-214">
						<masterclipid>masterclip-3</masterclipid>
						<name>Digital-Calibration.mp4</name>
						<enabled>TRUE</enabled>
						<duration>3594</duration>
						<rate>
							<timebase>30</timebase>
							<ntsc>FALSE</ntsc>
						</rate>
						<start>3044</start>
						<end>3051</end>
						<in>3044</in>
						<out>3051</out>
						<pproTicksIn>32217696000000</pproTicksIn>
						<pproTicksOut>32291784000000</pproTicksOut>
						<alphatype>none</alphatype>
						<pixelaspectratio>square</pixelaspectratio>
						<anamorphic>FALSE</anamorphic>
						<logginginfo>
							<description />
							<scene />
							<shottake />
							<lognote />
							<good />
							<originalvideofilename />
							<originalaudiofilename />
						</logginginfo>
						<colorinfo>
							<lut />
							<lut1 />
							<asc_sop />
							<asc_sat />
							<lut2 />
						</colorinfo>
						<labels>
							<label2>Rose</label2>
						</labels>
					<file id="file-3">
							</file>
						</clipitem>
					<clipitem id="clipitem-215">
						<masterclipid>masterclip-3</masterclipid>
						<name>Digital-Calibration.mp4</name>
						<enabled>TRUE</enabled>
						<duration>3594</duration>
						<rate>
							<timebase>30</timebase>
							<ntsc>FALSE</ntsc>
						</rate>
						<start>3053</start>
						<end>3103</end>
						<in>3053</in>
						<out>3103</out>
						<pproTicksIn>32312952000000</pproTicksIn>
						<pproTicksOut>32842152000000</pproTicksOut>
						<alphatype>none</alphatype>
						<pixelaspectratio>square</pixelaspectratio>
						<anamorphic>FALSE</anamorphic>
						<logginginfo>
							<description />
							<scene />
							<shottake />
							<lognote />
							<good />
							<originalvideofilename />
							<originalaudiofilename />
						</logginginfo>
						<colorinfo>
							<lut />
							<lut1 />
							<asc_sop />
							<asc_sat />
							<lut2 />
						</colorinfo>
						<labels>
							<label2>Rose</label2>
						</labels>
					<file id="file-3">
							</file>
						</clipitem>
					<clipitem id="clipitem-216">
						<masterclipid>masterclip-3</masterclipid>
						<name>Digital-Calibration.mp4</name>
						<enabled>TRUE</enabled>
						<duration>3594</duration>
						<rate>
							<timebase>30</timebase>
							<ntsc>FALSE</ntsc>
						</rate>
						<start>3106</start>
						<end>3108</end>
						<in>3106</in>
						<out>3108</out>
						<pproTicksIn>32873904000000</pproTicksIn>
						<pproTicksOut>32895072000000</pproTicksOut>
						<alphatype>none</alphatype>
						<pixelaspectratio>square</pixelaspectratio>
						<anamorphic>FALSE</anamorphic>
						<logginginfo>
							<description />
							<scene />
							<shottake />
							<lognote />
							<good />
							<originalvideofilename />
							<originalaudiofilename />
						</logginginfo>
						<colorinfo>
							<lut />
							<lut1 />
							<asc_sop />
							<asc_sat />
							<lut2 />
						</colorinfo>
						<labels>
							<label2>Rose</label2>
						</labels>
					<file id="file-3">
							</file>
						</clipitem>
					<clipitem id="clipitem-217">
						<masterclipid>masterclip-3</masterclipid>
						<name>Digital-Calibration.mp4</name>
						<enabled>TRUE</enabled>
						<duration>3594</duration>
						<rate>
							<timebase>30</timebase>
							<ntsc>FALSE</ntsc>
						</rate>
						<start>3109</start>
						<end>3110</end>
						<in>3109</in>
						<out>3110</out>
						<pproTicksIn>32905656000000</pproTicksIn>
						<pproTicksOut>32916240000000</pproTicksOut>
						<alphatype>none</alphatype>
						<pixelaspectratio>square</pixelaspectratio>
						<anamorphic>FALSE</anamorphic>
						<logginginfo>
							<description />
							<scene />
							<shottake />
							<lognote />
							<good />
							<originalvideofilename />
							<originalaudiofilename />
						</logginginfo>
						<colorinfo>
							<lut />
							<lut1 />
							<asc_sop />
							<asc_sat />
							<lut2 />
						</colorinfo>
						<labels>
							<label2>Rose</label2>
						</labels>
					<file id="file-3">
							</file>
						</clipitem>
					<clipitem id="clipitem-218">
						<masterclipid>masterclip-3</masterclipid>
						<name>Digital-Calibration.mp4</name>
						<enabled>TRUE</enabled>
						<duration>3594</duration>
						<rate>
							<timebase>30</timebase>
							<ntsc>FALSE</ntsc>
						</rate>
						<start>3111</start>
						<end>3129</end>
						<in>3111</in>
						<out>3129</out>
						<pproTicksIn>32926824000000</pproTicksIn>
						<pproTicksOut>33117336000000</pproTicksOut>
						<alphatype>none</alphatype>
						<pixelaspectratio>square</pixelaspectratio>
						<anamorphic>FALSE</anamorphic>
						<logginginfo>
							<description />
							<scene />
							<shottake />
							<lognote />
							<good />
							<originalvideofilename />
							<originalaudiofilename />
						</logginginfo>
						<colorinfo>
							<lut />
							<lut1 />
							<asc_sop />
							<asc_sat />
							<lut2 />
						</colorinfo>
						<labels>
							<label2>Rose</label2>
						</labels>
					<file id="file-3">
							</file>
						</clipitem>
					<clipitem id="clipitem-219">
						<masterclipid>masterclip-3</masterclipid>
						<name>Digital-Calibration.mp4</name>
						<enabled>TRUE</enabled>
						<duration>3594</duration>
						<rate>
							<timebase>30</timebase>
							<ntsc>FALSE</ntsc>
						</rate>
						<start>3130</start>
						<end>3132</end>
						<in>3130</in>
						<out>3132</out>
						<pproTicksIn>33127920000000</pproTicksIn>
						<pproTicksOut>33149088000000</pproTicksOut>
						<alphatype>none</alphatype>
						<pixelaspectratio>square</pixelaspectratio>
						<anamorphic>FALSE</anamorphic>
						<logginginfo>
							<description />
							<scene />
							<shottake />
							<lognote />
							<good />
							<originalvideofilename />
							<originalaudiofilename />
						</logginginfo>
						<colorinfo>
							<lut />
							<lut1 />
							<asc_sop />
							<asc_sat />
							<lut2 />
						</colorinfo>
						<labels>
							<label2>Rose</label2>
						</labels>
					<file id="file-3">
							</file>
						</clipitem>
					<clipitem id="clipitem-220">
						<masterclipid>masterclip-3</masterclipid>
						<name>Digital-Calibration.mp4</name>
						<enabled>TRUE</enabled>
						<duration>3594</duration>
						<rate>
							<timebase>30</timebase>
							<ntsc>FALSE</ntsc>
						</rate>
						<start>3134</start>
						<end>3142</end>
						<in>3134</in>
						<out>3142</out>
						<pproTicksIn>33170256000000</pproTicksIn>
						<pproTicksOut>33254928000000</pproTicksOut>
						<alphatype>none</alphatype>
						<pixelaspectratio>square</pixelaspectratio>
						<anamorphic>FALSE</anamorphic>
						<logginginfo>
							<description />
							<scene />
							<shottake />
							<lognote />
							<good />
							<originalvideofilename />
							<originalaudiofilename />
						</logginginfo>
						<colorinfo>
							<lut />
							<lut1 />
							<asc_sop />
							<asc_sat />
							<lut2 />
						</colorinfo>
						<labels>
							<label2>Rose</label2>
						</labels>
					<file id="file-3">
							</file>
						</clipitem>
					<clipitem id="clipitem-221">
						<masterclipid>masterclip-3</masterclipid>
						<name>Digital-Calibration.mp4</name>
						<enabled>TRUE</enabled>
						<duration>3594</duration>
						<rate>
							<timebase>30</timebase>
							<ntsc>FALSE</ntsc>
						</rate>
						<start>3144</start>
						<end>3145</end>
						<in>3144</in>
						<out>3145</out>
						<pproTicksIn>33276096000000</pproTicksIn>
						<pproTicksOut>33286680000000</pproTicksOut>
						<alphatype>none</alphatype>
						<pixelaspectratio>square</pixelaspectratio>
						<anamorphic>FALSE</anamorphic>
						<logginginfo>
							<description />
							<scene />
							<shottake />
							<lognote />
							<good />
							<originalvideofilename />
							<originalaudiofilename />
						</logginginfo>
						<colorinfo>
							<lut />
							<lut1 />
							<asc_sop />
							<asc_sat />
							<lut2 />
						</colorinfo>
						<labels>
							<label2>Rose</label2>
						</labels>
					<file id="file-3">
							</file>
						</clipitem>
					<clipitem id="clipitem-222">
						<masterclipid>masterclip-3</masterclipid>
						<name>Digital-Calibration.mp4</name>
						<enabled>TRUE</enabled>
						<duration>3594</duration>
						<rate>
							<timebase>30</timebase>
							<ntsc>FALSE</ntsc>
						</rate>
						<start>3146</start>
						<end>3147</end>
						<in>3146</in>
						<out>3147</out>
						<pproTicksIn>33297264000000</pproTicksIn>
						<pproTicksOut>33307848000000</pproTicksOut>
						<alphatype>none</alphatype>
						<pixelaspectratio>square</pixelaspectratio>
						<anamorphic>FALSE</anamorphic>
						<logginginfo>
							<description />
							<scene />
							<shottake />
							<lognote />
							<good />
							<originalvideofilename />
							<originalaudiofilename />
						</logginginfo>
						<colorinfo>
							<lut />
							<lut1 />
							<asc_sop />
							<asc_sat />
							<lut2 />
						</colorinfo>
						<labels>
							<label2>Rose</label2>
						</labels>
					<file id="file-3">
							</file>
						</clipitem>
					<clipitem id="clipitem-223">
						<masterclipid>masterclip-3</masterclipid>
						<name>Digital-Calibration.mp4</name>
						<enabled>TRUE</enabled>
						<duration>3594</duration>
						<rate>
							<timebase>30</timebase>
							<ntsc>FALSE</ntsc>
						</rate>
						<start>3150</start>
						<end>3151</end>
						<in>3150</in>
						<out>3151</out>
						<pproTicksIn>33339600000000</pproTicksIn>
						<pproTicksOut>33350184000000</pproTicksOut>
						<alphatype>none</alphatype>
						<pixelaspectratio>square</pixelaspectratio>
						<anamorphic>FALSE</anamorphic>
						<logginginfo>
							<description />
							<scene />
							<shottake />
							<lognote />
							<good />
							<originalvideofilename />
							<originalaudiofilename />
						</logginginfo>
						<colorinfo>
							<lut />
							<lut1 />
							<asc_sop />
							<asc_sat />
							<lut2 />
						</colorinfo>
						<labels>
							<label2>Rose</label2>
						</labels>
					<file id="file-3">
							</file>
						</clipitem>
					<clipitem id="clipitem-224">
						<masterclipid>masterclip-3</masterclipid>
						<name>Digital-Calibration.mp4</name>
						<enabled>TRUE</enabled>
						<duration>3594</duration>
						<rate>
							<timebase>30</timebase>
							<ntsc>FALSE</ntsc>
						</rate>
						<start>3152</start>
						<end>3165</end>
						<in>3152</in>
						<out>3165</out>
						<pproTicksIn>33360768000000</pproTicksIn>
						<pproTicksOut>33498360000000</pproTicksOut>
						<alphatype>none</alphatype>
						<pixelaspectratio>square</pixelaspectratio>
						<anamorphic>FALSE</anamorphic>
						<logginginfo>
							<description />
							<scene />
							<shottake />
							<lognote />
							<good />
							<originalvideofilename />
							<originalaudiofilename />
						</logginginfo>
						<colorinfo>
							<lut />
							<lut1 />
							<asc_sop />
							<asc_sat />
							<lut2 />
						</colorinfo>
						<labels>
							<label2>Rose</label2>
						</labels>
					<file id="file-3">
							</file>
						</clipitem>
					<clipitem id="clipitem-225">
						<masterclipid>masterclip-3</masterclipid>
						<name>Digital-Calibration.mp4</name>
						<enabled>TRUE</enabled>
						<duration>3594</duration>
						<rate>
							<timebase>30</timebase>
							<ntsc>FALSE</ntsc>
						</rate>
						<start>3169</start>
						<end>3170</end>
						<in>3169</in>
						<out>3170</out>
						<pproTicksIn>33540696000000</pproTicksIn>
						<pproTicksOut>33551280000000</pproTicksOut>
						<alphatype>none</alphatype>
						<pixelaspectratio>square</pixelaspectratio>
						<anamorphic>FALSE</anamorphic>
						<logginginfo>
							<description />
							<scene />
							<shottake />
							<lognote />
							<good />
							<originalvideofilename />
							<originalaudiofilename />
						</logginginfo>
						<colorinfo>
							<lut />
							<lut1 />
							<asc_sop />
							<asc_sat />
							<lut2 />
						</colorinfo>
						<labels>
							<label2>Rose</label2>
						</labels>
					<file id="file-3">
							</file>
						</clipitem>
					<clipitem id="clipitem-226">
						<masterclipid>masterclip-3</masterclipid>
						<name>Digital-Calibration.mp4</name>
						<enabled>TRUE</enabled>
						<duration>3594</duration>
						<rate>
							<timebase>30</timebase>
							<ntsc>FALSE</ntsc>
						</rate>
						<start>3174</start>
						<end>3182</end>
						<in>3174</in>
						<out>3182</out>
						<pproTicksIn>33593616000000</pproTicksIn>
						<pproTicksOut>33678288000000</pproTicksOut>
						<alphatype>none</alphatype>
						<pixelaspectratio>square</pixelaspectratio>
						<anamorphic>FALSE</anamorphic>
						<logginginfo>
							<description />
							<scene />
							<shottake />
							<lognote />
							<good />
							<originalvideofilename />
							<originalaudiofilename />
						</logginginfo>
						<colorinfo>
							<lut />
							<lut1 />
							<asc_sop />
							<asc_sat />
							<lut2 />
						</colorinfo>
						<labels>
							<label2>Rose</label2>
						</labels>
					<file id="file-3">
							</file>
						</clipitem>
					<clipitem id="clipitem-227">
						<masterclipid>masterclip-3</masterclipid>
						<name>Digital-Calibration.mp4</name>
						<enabled>TRUE</enabled>
						<duration>3594</duration>
						<rate>
							<timebase>30</timebase>
							<ntsc>FALSE</ntsc>
						</rate>
						<start>3186</start>
						<end>3187</end>
						<in>3186</in>
						<out>3187</out>
						<pproTicksIn>33720624000000</pproTicksIn>
						<pproTicksOut>33731208000000</pproTicksOut>
						<alphatype>none</alphatype>
						<pixelaspectratio>square</pixelaspectratio>
						<anamorphic>FALSE</anamorphic>
						<logginginfo>
							<description />
							<scene />
							<shottake />
							<lognote />
							<good />
							<originalvideofilename />
							<originalaudiofilename />
						</logginginfo>
						<colorinfo>
							<lut />
							<lut1 />
							<asc_sop />
							<asc_sat />
							<lut2 />
						</colorinfo>
						<labels>
							<label2>Rose</label2>
						</labels>
					<file id="file-3">
							</file>
						</clipitem>
					<clipitem id="clipitem-228">
						<masterclipid>masterclip-3</masterclipid>
						<name>Digital-Calibration.mp4</name>
						<enabled>TRUE</enabled>
						<duration>3594</duration>
						<rate>
							<timebase>30</timebase>
							<ntsc>FALSE</ntsc>
						</rate>
						<start>3190</start>
						<end>3192</end>
						<in>3190</in>
						<out>3192</out>
						<pproTicksIn>33762960000000</pproTicksIn>
						<pproTicksOut>33784128000000</pproTicksOut>
						<alphatype>none</alphatype>
						<pixelaspectratio>square</pixelaspectratio>
						<anamorphic>FALSE</anamorphic>
						<logginginfo>
							<description />
							<scene />
							<shottake />
							<lognote />
							<good />
							<originalvideofilename />
							<originalaudiofilename />
						</logginginfo>
						<colorinfo>
							<lut />
							<lut1 />
							<asc_sop />
							<asc_sat />
							<lut2 />
						</colorinfo>
						<labels>
							<label2>Rose</label2>
						</labels>
					<file id="file-3">
							</file>
						</clipitem>
					<clipitem id="clipitem-229">
						<masterclipid>masterclip-3</masterclipid>
						<name>Digital-Calibration.mp4</name>
						<enabled>TRUE</enabled>
						<duration>3594</duration>
						<rate>
							<timebase>30</timebase>
							<ntsc>FALSE</ntsc>
						</rate>
						<start>3193</start>
						<end>3195</end>
						<in>3193</in>
						<out>3195</out>
						<pproTicksIn>33794712000000</pproTicksIn>
						<pproTicksOut>33815880000000</pproTicksOut>
						<alphatype>none</alphatype>
						<pixelaspectratio>square</pixelaspectratio>
						<anamorphic>FALSE</anamorphic>
						<logginginfo>
							<description />
							<scene />
							<shottake />
							<lognote />
							<good />
							<originalvideofilename />
							<originalaudiofilename />
						</logginginfo>
						<colorinfo>
							<lut />
							<lut1 />
							<asc_sop />
							<asc_sat />
							<lut2 />
						</colorinfo>
						<labels>
							<label2>Rose</label2>
						</labels>
					<file id="file-3">
							</file>
						</clipitem>
					<clipitem id="clipitem-230">
						<masterclipid>masterclip-3</masterclipid>
						<name>Digital-Calibration.mp4</name>
						<enabled>TRUE</enabled>
						<duration>3594</duration>
						<rate>
							<timebase>30</timebase>
							<ntsc>FALSE</ntsc>
						</rate>
						<start>3198</start>
						<end>3200</end>
						<in>3198</in>
						<out>3200</out>
						<pproTicksIn>33847632000000</pproTicksIn>
						<pproTicksOut>33868800000000</pproTicksOut>
						<alphatype>none</alphatype>
						<pixelaspectratio>square</pixelaspectratio>
						<anamorphic>FALSE</anamorphic>
						<logginginfo>
							<description />
							<scene />
							<shottake />
							<lognote />
							<good />
							<originalvideofilename />
							<originalaudiofilename />
						</logginginfo>
						<colorinfo>
							<lut />
							<lut1 />
							<asc_sop />
							<asc_sat />
							<lut2 />
						</colorinfo>
						<labels>
							<label2>Rose</label2>
						</labels>
					<file id="file-3">
							</file>
						</clipitem>
					<clipitem id="clipitem-231">
						<masterclipid>masterclip-3</masterclipid>
						<name>Digital-Calibration.mp4</name>
						<enabled>TRUE</enabled>
						<duration>3594</duration>
						<rate>
							<timebase>30</timebase>
							<ntsc>FALSE</ntsc>
						</rate>
						<start>3201</start>
						<end>3202</end>
						<in>3201</in>
						<out>3202</out>
						<pproTicksIn>33879384000000</pproTicksIn>
						<pproTicksOut>33889968000000</pproTicksOut>
						<alphatype>none</alphatype>
						<pixelaspectratio>square</pixelaspectratio>
						<anamorphic>FALSE</anamorphic>
						<logginginfo>
							<description />
							<scene />
							<shottake />
							<lognote />
							<good />
							<originalvideofilename />
							<originalaudiofilename />
						</logginginfo>
						<colorinfo>
							<lut />
							<lut1 />
							<asc_sop />
							<asc_sat />
							<lut2 />
						</colorinfo>
						<labels>
							<label2>Rose</label2>
						</labels>
					<file id="file-3">
							</file>
						</clipitem>
					<clipitem id="clipitem-232">
						<masterclipid>masterclip-3</masterclipid>
						<name>Digital-Calibration.mp4</name>
						<enabled>TRUE</enabled>
						<duration>3594</duration>
						<rate>
							<timebase>30</timebase>
							<ntsc>FALSE</ntsc>
						</rate>
						<start>3203</start>
						<end>3223</end>
						<in>3203</in>
						<out>3223</out>
						<pproTicksIn>33900552000000</pproTicksIn>
						<pproTicksOut>34112232000000</pproTicksOut>
						<alphatype>none</alphatype>
						<pixelaspectratio>square</pixelaspectratio>
						<anamorphic>FALSE</anamorphic>
						<logginginfo>
							<description />
							<scene />
							<shottake />
							<lognote />
							<good />
							<originalvideofilename />
							<originalaudiofilename />
						</logginginfo>
						<colorinfo>
							<lut />
							<lut1 />
							<asc_sop />
							<asc_sat />
							<lut2 />
						</colorinfo>
						<labels>
							<label2>Rose</label2>
						</labels>
					<file id="file-3">
							</file>
						</clipitem>
					<clipitem id="clipitem-233">
						<masterclipid>masterclip-3</masterclipid>
						<name>Digital-Calibration.mp4</name>
						<enabled>TRUE</enabled>
						<duration>3594</duration>
						<rate>
							<timebase>30</timebase>
							<ntsc>FALSE</ntsc>
						</rate>
						<start>3226</start>
						<end>3246</end>
						<in>3226</in>
						<out>3246</out>
						<pproTicksIn>34143984000000</pproTicksIn>
						<pproTicksOut>34355664000000</pproTicksOut>
						<alphatype>none</alphatype>
						<pixelaspectratio>square</pixelaspectratio>
						<anamorphic>FALSE</anamorphic>
						<logginginfo>
							<description />
							<scene />
							<shottake />
							<lognote />
							<good />
							<originalvideofilename />
							<originalaudiofilename />
						</logginginfo>
						<colorinfo>
							<lut />
							<lut1 />
							<asc_sop />
							<asc_sat />
							<lut2 />
						</colorinfo>
						<labels>
							<label2>Rose</label2>
						</labels>
					<file id="file-3">
							</file>
						</clipitem>
					<clipitem id="clipitem-234">
						<masterclipid>masterclip-3</masterclipid>
						<name>Digital-Calibration.mp4</name>
						<enabled>TRUE</enabled>
						<duration>3594</duration>
						<rate>
							<timebase>30</timebase>
							<ntsc>FALSE</ntsc>
						</rate>
						<start>3248</start>
						<end>3249</end>
						<in>3248</in>
						<out>3249</out>
						<pproTicksIn>34376832000000</pproTicksIn>
						<pproTicksOut>34387416000000</pproTicksOut>
						<alphatype>none</alphatype>
						<pixelaspectratio>square</pixelaspectratio>
						<anamorphic>FALSE</anamorphic>
						<logginginfo>
							<description />
							<scene />
							<shottake />
							<lognote />
							<good />
							<originalvideofilename />
							<originalaudiofilename />
						</logginginfo>
						<colorinfo>
							<lut />
							<lut1 />
							<asc_sop />
							<asc_sat />
							<lut2 />
						</colorinfo>
						<labels>
							<label2>Rose</label2>
						</labels>
					<file id="file-3">
							</file>
						</clipitem>
					<clipitem id="clipitem-235">
						<masterclipid>masterclip-3</masterclipid>
						<name>Digital-Calibration.mp4</name>
						<enabled>TRUE</enabled>
						<duration>3594</duration>
						<rate>
							<timebase>30</timebase>
							<ntsc>FALSE</ntsc>
						</rate>
						<start>3250</start>
						<end>3260</end>
						<in>3250</in>
						<out>3260</out>
						<pproTicksIn>34398000000000</pproTicksIn>
						<pproTicksOut>34503840000000</pproTicksOut>
						<alphatype>none</alphatype>
						<pixelaspectratio>square</pixelaspectratio>
						<anamorphic>FALSE</anamorphic>
						<logginginfo>
							<description />
							<scene />
							<shottake />
							<lognote />
							<good />
							<originalvideofilename />
							<originalaudiofilename />
						</logginginfo>
						<colorinfo>
							<lut />
							<lut1 />
							<asc_sop />
							<asc_sat />
							<lut2 />
						</colorinfo>
						<labels>
							<label2>Rose</label2>
						</labels>
					<file id="file-3">
							</file>
						</clipitem>
					<clipitem id="clipitem-236">
						<masterclipid>masterclip-3</masterclipid>
						<name>Digital-Calibration.mp4</name>
						<enabled>TRUE</enabled>
						<duration>3594</duration>
						<rate>
							<timebase>30</timebase>
							<ntsc>FALSE</ntsc>
						</rate>
						<start>3262</start>
						<end>3276</end>
						<in>3262</in>
						<out>3276</out>
						<pproTicksIn>34525008000000</pproTicksIn>
						<pproTicksOut>34673184000000</pproTicksOut>
						<alphatype>none</alphatype>
						<pixelaspectratio>square</pixelaspectratio>
						<anamorphic>FALSE</anamorphic>
						<logginginfo>
							<description />
							<scene />
							<shottake />
							<lognote />
							<good />
							<originalvideofilename />
							<originalaudiofilename />
						</logginginfo>
						<colorinfo>
							<lut />
							<lut1 />
							<asc_sop />
							<asc_sat />
							<lut2 />
						</colorinfo>
						<labels>
							<label2>Rose</label2>
						</labels>
					<file id="file-3">
							</file>
						</clipitem>
					<clipitem id="clipitem-237">
						<masterclipid>masterclip-3</masterclipid>
						<name>Digital-Calibration.mp4</name>
						<enabled>TRUE</enabled>
						<duration>3594</duration>
						<rate>
							<timebase>30</timebase>
							<ntsc>FALSE</ntsc>
						</rate>
						<start>3278</start>
						<end>3295</end>
						<in>3278</in>
						<out>3295</out>
						<pproTicksIn>34694352000000</pproTicksIn>
						<pproTicksOut>34874280000000</pproTicksOut>
						<alphatype>none</alphatype>
						<pixelaspectratio>square</pixelaspectratio>
						<anamorphic>FALSE</anamorphic>
						<logginginfo>
							<description />
							<scene />
							<shottake />
							<lognote />
							<good />
							<originalvideofilename />
							<originalaudiofilename />
						</logginginfo>
						<colorinfo>
							<lut />
							<lut1 />
							<asc_sop />
							<asc_sat />
							<lut2 />
						</colorinfo>
						<labels>
							<label2>Rose</label2>
						</labels>
					<file id="file-3">
							</file>
						</clipitem>
					<clipitem id="clipitem-238">
						<masterclipid>masterclip-3</masterclipid>
						<name>Digital-Calibration.mp4</name>
						<enabled>TRUE</enabled>
						<duration>3594</duration>
						<rate>
							<timebase>30</timebase>
							<ntsc>FALSE</ntsc>
						</rate>
						<start>3297</start>
						<end>3309</end>
						<in>3297</in>
						<out>3309</out>
						<pproTicksIn>34895448000000</pproTicksIn>
						<pproTicksOut>35022456000000</pproTicksOut>
						<alphatype>none</alphatype>
						<pixelaspectratio>square</pixelaspectratio>
						<anamorphic>FALSE</anamorphic>
						<logginginfo>
							<description />
							<scene />
							<shottake />
							<lognote />
							<good />
							<originalvideofilename />
							<originalaudiofilename />
						</logginginfo>
						<colorinfo>
							<lut />
							<lut1 />
							<asc_sop />
							<asc_sat />
							<lut2 />
						</colorinfo>
						<labels>
							<label2>Rose</label2>
						</labels>
					<file id="file-3">
							</file>
						</clipitem>
					<clipitem id="clipitem-239">
						<masterclipid>masterclip-3</masterclipid>
						<name>Digital-Calibration.mp4</name>
						<enabled>TRUE</enabled>
						<duration>3594</duration>
						<rate>
							<timebase>30</timebase>
							<ntsc>FALSE</ntsc>
						</rate>
						<start>3310</start>
						<end>3342</end>
						<in>3310</in>
						<out>3342</out>
						<pproTicksIn>35033040000000</pproTicksIn>
						<pproTicksOut>35371728000000</pproTicksOut>
						<alphatype>none</alphatype>
						<pixelaspectratio>square</pixelaspectratio>
						<anamorphic>FALSE</anamorphic>
						<logginginfo>
							<description />
							<scene />
							<shottake />
							<lognote />
							<good />
							<originalvideofilename />
							<originalaudiofilename />
						</logginginfo>
						<colorinfo>
							<lut />
							<lut1 />
							<asc_sop />
							<asc_sat />
							<lut2 />
						</colorinfo>
						<labels>
							<label2>Rose</label2>
						</labels>
					<file id="file-3">
							</file>
						</clipitem>
					<clipitem id="clipitem-240">
						<masterclipid>masterclip-3</masterclipid>
						<name>Digital-Calibration.mp4</name>
						<enabled>TRUE</enabled>
						<duration>3594</duration>
						<rate>
							<timebase>30</timebase>
							<ntsc>FALSE</ntsc>
						</rate>
						<start>3344</start>
						<end>3347</end>
						<in>3344</in>
						<out>3347</out>
						<pproTicksIn>35392896000000</pproTicksIn>
						<pproTicksOut>35424648000000</pproTicksOut>
						<alphatype>none</alphatype>
						<pixelaspectratio>square</pixelaspectratio>
						<anamorphic>FALSE</anamorphic>
						<logginginfo>
							<description />
							<scene />
							<shottake />
							<lognote />
							<good />
							<originalvideofilename />
							<originalaudiofilename />
						</logginginfo>
						<colorinfo>
							<lut />
							<lut1 />
							<asc_sop />
							<asc_sat />
							<lut2 />
						</colorinfo>
						<labels>
							<label2>Rose</label2>
						</labels>
					<file id="file-3">
							</file>
						</clipitem>
					<clipitem id="clipitem-241">
						<masterclipid>masterclip-3</masterclipid>
						<name>Digital-Calibration.mp4</name>
						<enabled>TRUE</enabled>
						<duration>3594</duration>
						<rate>
							<timebase>30</timebase>
							<ntsc>FALSE</ntsc>
						</rate>
						<start>3348</start>
						<end>3365</end>
						<in>3348</in>
						<out>3365</out>
						<pproTicksIn>35435232000000</pproTicksIn>
						<pproTicksOut>35615160000000</pproTicksOut>
						<alphatype>none</alphatype>
						<pixelaspectratio>square</pixelaspectratio>
						<anamorphic>FALSE</anamorphic>
						<logginginfo>
							<description />
							<scene />
							<shottake />
							<lognote />
							<good />
							<originalvideofilename />
							<originalaudiofilename />
						</logginginfo>
						<colorinfo>
							<lut />
							<lut1 />
							<asc_sop />
							<asc_sat />
							<lut2 />
						</colorinfo>
						<labels>
							<label2>Rose</label2>
						</labels>
					<file id="file-3">
							</file>
						</clipitem>
					<clipitem id="clipitem-242">
						<masterclipid>masterclip-3</masterclipid>
						<name>Digital-Calibration.mp4</name>
						<enabled>TRUE</enabled>
						<duration>3594</duration>
						<rate>
							<timebase>30</timebase>
							<ntsc>FALSE</ntsc>
						</rate>
						<start>3369</start>
						<end>3527</end>
						<in>3369</in>
						<out>3527</out>
						<pproTicksIn>35657496000000</pproTicksIn>
						<pproTicksOut>37329768000000</pproTicksOut>
						<alphatype>none</alphatype>
						<pixelaspectratio>square</pixelaspectratio>
						<anamorphic>FALSE</anamorphic>
						<logginginfo>
							<description />
							<scene />
							<shottake />
							<lognote />
							<good />
							<originalvideofilename />
							<originalaudiofilename />
						</logginginfo>
						<colorinfo>
							<lut />
							<lut1 />
							<asc_sop />
							<asc_sat />
							<lut2 />
						</colorinfo>
						<labels>
							<label2>Rose</label2>
						</labels>
					<file id="file-3">
							</file>
						</clipitem>
					<clipitem id="clipitem-243">
						<masterclipid>masterclip-3</masterclipid>
						<name>Digital-Calibration.mp4</name>
						<enabled>TRUE</enabled>
						<duration>3594</duration>
						<rate>
							<timebase>30</timebase>
							<ntsc>FALSE</ntsc>
						</rate>
						<start>3541</start>
						<end>3557</end>
						<in>3541</in>
						<out>3557</out>
						<pproTicksIn>37477944000000</pproTicksIn>
						<pproTicksOut>37647288000000</pproTicksOut>
						<alphatype>none</alphatype>
						<pixelaspectratio>square</pixelaspectratio>
						<anamorphic>FALSE</anamorphic>
						<logginginfo>
							<description />
							<scene />
							<shottake />
							<lognote />
							<good />
							<originalvideofilename />
							<originalaudiofilename />
						</logginginfo>
						<colorinfo>
							<lut />
							<lut1 />
							<asc_sop />
							<asc_sat />
							<lut2 />
						</colorinfo>
						<labels>
							<label2>Rose</label2>
						</labels>
					<file id="file-3">
							</file>
						</clipitem>
					<clipitem id="clipitem-244">
						<masterclipid>masterclip-3</masterclipid>
						<name>Digital-Calibration.mp4</name>
						<enabled>TRUE</enabled>
						<duration>3594</duration>
						<rate>
							<timebase>30</timebase>
							<ntsc>FALSE</ntsc>
						</rate>
						<start>3573</start>
						<end>3576</end>
						<in>3573</in>
						<out>3576</out>
						<pproTicksIn>37816632000000</pproTicksIn>
						<pproTicksOut>37848384000000</pproTicksOut>
						<alphatype>none</alphatype>
						<pixelaspectratio>square</pixelaspectratio>
						<anamorphic>FALSE</anamorphic>
						<logginginfo>
							<description />
							<scene />
							<shottake />
							<lognote />
							<good />
							<originalvideofilename />
							<originalaudiofilename />
						</logginginfo>
						<colorinfo>
							<lut />
							<lut1 />
							<asc_sop />
							<asc_sat />
							<lut2 />
						</colorinfo>
						<labels>
							<label2>Rose</label2>
						</labels>
					<file id="file-3">
							</file>
						</clipitem>
					</track>
				<track MZ.TrackName="GH4" MZ.TrackTargeted="0" TL.SQTrackExpanded="0" TL.SQTrackExpandedHeight="25" TL.SQTrackShy="0">
					<enabled>TRUE</enabled>
					<locked>FALSE</locked>
				</track>
				<track MZ.TrackName="GH5" MZ.TrackTargeted="0" TL.SQTrackExpanded="0" TL.SQTrackExpandedHeight="25" TL.SQTrackShy="0">
					<enabled>TRUE</enabled>
					<locked>FALSE</locked>
				</track>
				<track MZ.TrackName="GH4" MZ.TrackTargeted="0" TL.SQTrackExpanded="0" TL.SQTrackExpandedHeight="25" TL.SQTrackShy="0">
					<enabled>TRUE</enabled>
					<locked>FALSE</locked>
				</track>
			<track MZ.TrackName="GH5" MZ.TrackTargeted="0" TL.SQTrackExpanded="0" TL.SQTrackExpandedHeight="25" TL.SQTrackShy="0">
					<enabled>TRUE</enabled>
					<locked>FALSE</locked>
				</track>
			</video>
			<audio>
				<numOutputChannels>2</numOutputChannels>
				<format>
					<samplecharacteristics>
						<depth>16</depth>
						<samplerate>48000</samplerate>
					</samplecharacteristics>
				</format>
				<outputs>
					<group>
						<index>1</index>
						<numchannels>1</numchannels>
						<downmix>0</downmix>
						<channel>
							<index>1</index>
						</channel>
					</group>
					<group>
						<index>2</index>
						<numchannels>1</numchannels>
						<downmix>0</downmix>
						<channel>
							<index>2</index>
						</channel>
					</group>
				</outputs>
				</audio>
		</media>
		<timecode>
			<rate>
				<timebase>30</timebase>
				<ntsc>FALSE</ntsc>
			</rate>
			<string>00:00:00:00</string>
			<frame>0</frame>
			<displayformat>NDF</displayformat>
		</timecode>
		<labels>
			<label2>Forest</label2>
		</labels>
	</sequence>
</xmeml>